<svg viewBox="0 0 822 500" xmlns="http://www.w3.org/2000/svg"><path d="m411.1 198.93 50.6-11.47-50.6-11.46"/><path d="m436.52 192.54 22.11-4.84-21.63.1m0-.65 21.63.1-22.11-4.81" fill="#fddd04"/><path d="m426.25 127.85a5.94 5.94 0 0 1 .08-2 7 7 0 0 1 1.29-2.61 8 8 0 0 0 1.58-3.24 7.29 7.29 0 0 0 -.26-3.36 7.43 7.43 0 0 1 -.06-4.31 9.29 9.29 0 0 1 3.74-4.85l.56-.32-.59-.27a6.71 6.71 0 0 0 -7.31 2.13 10.9 10.9 0 0 0 -1.69 4.32 11.12 11.12 0 0 1 -1.27 3.51 7.52 7.52 0 0 1 -2.26 1.92 14.63 14.63 0 0 0 -3.9 3.46l-16.52 28.33"/><path d="m422.59 150.61-11.47-50.61-11.47 50.61"/><path d="m416.2 125.18-4.85-22.1.11 21.63m-.66 0 .11-21.63-4.82 22.1" fill="#fddd04"/><path d="m424.89 128.71.76-.49a5.35 5.35 0 0 1 0-2.44 7.44 7.44 0 0 1 1.39-2.88 8.36 8.36 0 0 0 1.49-3 6.8 6.8 0 0 0 -.24-3.09 8.13 8.13 0 0 1 -.05-4.69 10 10 0 0 1 3.46-4.79 6.27 6.27 0 0 0 -6 2.14 10.23 10.23 0 0 0 -1.57 4 11.22 11.22 0 0 1 -1.36 3.71 8.39 8.39 0 0 1 -2.43 2.1 13.57 13.57 0 0 0 -4 3.77l.47 2.25" fill="#fddd04"/><path d="m437.89 145.22a6.53 6.53 0 0 1 1.45-1.34 7 7 0 0 1 2.76-.93 7.91 7.91 0 0 0 3.42-1.18 7.09 7.09 0 0 0 2.18-2.56 7.52 7.52 0 0 1 3-3.09 9.28 9.28 0 0 1 6.06-.78l.63.17-.23-.6a6.7 6.7 0 0 0 -6.68-3.67 11 11 0 0 0 -4.25 1.85 11.14 11.14 0 0 1 -3.37 1.6 7.59 7.59 0 0 1 -3-.25 14.56 14.56 0 0 0 -5.2-.31l-31.66 8.36"/><path d="m419.22 158.72 27.67-43.89-43.89 27.67"/><path d="m432.68 136.22 12.2-19-15.22 15.37m-.46-.47 15.37-15.22-19 12.22" fill="#fddd04"/><path d="m436.33 144.87.89.18c.15-.3.42-.68 1.74-1.7a7.48 7.48 0 0 1 3-1 8.32 8.32 0 0 0 3.17-1.06 7 7 0 0 0 2-2.35 8 8 0 0 1 3.28-3.35 10.11 10.11 0 0 1 5.83-.95 6.25 6.25 0 0 0 -5.72-2.68 9.91 9.91 0 0 0 -4 1.74 11.42 11.42 0 0 1 -3.6 1.66 8.15 8.15 0 0 1 -3.2-.24 13.67 13.67 0 0 0 -5.52-.18l-1.2 1.87" fill="#fddd04"/><path d="m388.37 158.93a6.63 6.63 0 0 1 -2-.08 7 7 0 0 1 -2.61-1.29 7.86 7.86 0 0 0 -3.25-1.59 7.26 7.26 0 0 0 -3.35.27 7.56 7.56 0 0 1 -4.32 0 9.25 9.25 0 0 1 -4.84-3.74l-.33-.56-.26.59a6.7 6.7 0 0 0 2.13 7.31 11 11 0 0 0 4.31 1.7 11 11 0 0 1 3.52 1.26 7.77 7.77 0 0 1 1.92 2.26 14.45 14.45 0 0 0 3.46 3.9l28.33 16.52"/><path d="m411.12 162.58-50.61 11.47 50.61 11.47"/><path d="m385.69 169-22.1 4.85 21.63-.11m0 .66-21.63-.11 22.1 4.82" fill="#fddd04"/><path d="m389.23 160.28-.5-.76a5.3 5.3 0 0 1 -2.43 0 7.55 7.55 0 0 1 -2.88-1.38 8.34 8.34 0 0 0 -3-1.5 7.09 7.09 0 0 0 -3.09.24 8.12 8.12 0 0 1 -4.69.05 10 10 0 0 1 -4.79-3.46 6.25 6.25 0 0 0 2.15 5.95 10 10 0 0 0 4 1.57 11.28 11.28 0 0 1 3.72 1.36 8.4 8.4 0 0 1 2.09 2.44 13.73 13.73 0 0 0 3.78 4l2.25-.47" fill="#fddd04"/><path d="m405.73 147.28a6.6 6.6 0 0 1 -1.33-1.45 7 7 0 0 1 -.94-2.76 8 8 0 0 0 -1.17-3.42 7.47 7.47 0 0 0 -2.56-2.18 7.43 7.43 0 0 1 -3.09-3 9.35 9.35 0 0 1 -.79-6.07l.18-.63-.61.23a6.7 6.7 0 0 0 -3.66 6.68 10.87 10.87 0 0 0 1.85 4.25 11 11 0 0 1 1.59 3.38 7.74 7.74 0 0 1 -.24 2.95 14.6 14.6 0 0 0 -.31 5.2l8.35 31.71"/><path d="m419.24 166-43.9-27.67 27.66 43.85"/><path d="m396.74 152.49-19.06-12.2 15.37 15.22m-.46.46-15.22-15.36 12.22 19" fill="#fddd04"/><path d="m405.38 148.85.19-.89c-.3-.15-.69-.42-1.7-1.74a7.38 7.38 0 0 1 -1.06-3 8.15 8.15 0 0 0 -1.06-3.17 7 7 0 0 0 -2.35-2 8.13 8.13 0 0 1 -3.35-3.27 10 10 0 0 1 -.94-5.84 6.25 6.25 0 0 0 -2.69 5.72 10.09 10.09 0 0 0 1.74 4 11.19 11.19 0 0 1 1.67 3.59 8.52 8.52 0 0 1 -.24 3.2 13.64 13.64 0 0 0 -.19 5.52l1.93 1.26" fill="#fddd04"/><path d="m405.73 137.23a6.6 6.6 0 0 1 -1.33-1.45 7 7 0 0 1 -.94-2.76 8 8 0 0 0 -1.17-3.42 7.26 7.26 0 0 0 -2.56-2.18 7.49 7.49 0 0 1 -3.09-3 9.35 9.35 0 0 1 -.79-6.07l.18-.63-.61.23a6.7 6.7 0 0 0 -3.66 6.68 10.87 10.87 0 0 0 1.85 4.25 11 11 0 0 1 1.59 3.38 7.74 7.74 0 0 1 -.24 2.95 14.56 14.56 0 0 0 -.31 5.2l8.35 31.71"/><path d="m419.24 155.9-43.9-27.67 27.66 43.9"/><path d="m396.74 142.44-19.06-12.2 15.37 15.22m-.46.46-15.22-15.37 12.22 19" fill="#fddd04"/><path d="m405.38 138.79.19-.89c-.3-.14-.69-.42-1.7-1.74a7.29 7.29 0 0 1 -1.06-3 8.15 8.15 0 0 0 -1.06-3.17 7 7 0 0 0 -2.35-2 8.1 8.1 0 0 1 -3.35-3.28 10 10 0 0 1 -.94-5.83 6.25 6.25 0 0 0 -2.69 5.72 10.09 10.09 0 0 0 1.74 4 11.19 11.19 0 0 1 1.67 3.59 8.53 8.53 0 0 1 -.24 3.2 13.64 13.64 0 0 0 -.19 5.52l1.93 1.26" fill="#fddd04"/><path d="m407.11 335.56s.19.2.19.31v10.13c0 .1-.19.34-.19.34h6.58v-1.29s-.24.19-.34.19h-4.74a.82.82 0 0 1 -.24-.1v-3.7h3.63c.11 0 .34.21.34.21v-1.44a1.2 1.2 0 0 1 -.34.16h-3.59v-3.77h5c.11 0 .34.18.34.18v-1.26z"/><path d="m448.67 361.84a2.48 2.48 0 0 0 -2.55 2.44 2.88 2.88 0 0 0 1.95 2.65c.84.4 2.52.93 2.52 2.72a2.34 2.34 0 0 1 -2.47 2.38 2.54 2.54 0 0 1 -2-.83v1.93a1 1 0 0 1 .44-.15c.21 0 1 .21 1.52.21.92 0 3.75-.42 3.75-3.51 0-1.74-.85-2.64-2.33-3.46s-2.15-.92-2.15-1.94a1.46 1.46 0 0 1 1.57-1.38 1.76 1.76 0 0 1 1.62.65v-1.65a.75.75 0 0 1 -.36.16 15.11 15.11 0 0 0 -1.51-.22z"/><circle cx="411.11" cy="200.18" fill="#fddd04" r="25.56" stroke="#000" stroke-width=".67"/><path d="m329.84 251.84a81.16 81.16 0 1 0 162.32 0v-102h-162.32z"/><path d="m411.44 140.58v179a79.2 79.2 0 0 0 78.66-79.09v-99.92z" fill="#ed1c24"/><path d="m411.1 147c-4.66 0-4.89 3.16-3.83 4.35l-5.63-1.21-1.73 2.86h9.88c-2.45-1.21-1.17-3.09 1.28-3.09s3.76 1.88 1.31 3.09h9.79l-1.7-2.86-5.58 1.21c1.07-1.19.86-4.35-3.79-4.35zm-16.34 7.91 1.07 1.18v12.17l-1.07 1.18h5.15l-1-1.18v-12.19l1-1.18zm7.93 0 1.07 1.18v12.17l-1.07 1.18h5.16l-1.1-1.18v-4.6h5.58v4.6l-1.05 1.18h5.15l-1.07-1.18v-12.19l1.07-1.18h-5.15l1.05 1.18v4.53h-5.58v-4.53l1.1-1.18zm15.55 0 4.12 7.25-4.12 7.25h9.48l1.7-3h-5.91l2.46-4.21-2.46-4.2h4.74l-1.76-3.08zm-69 220a5.79 5.79 0 1 0 5.79 5.79 5.76 5.76 0 0 0 -5.76-5.79zm90.79.26-4.63 10.83a2.08 2.08 0 0 1 -.24.34h1.5s-.16-.2-.11-.34l1.07-2.49h4.93l1 2.49c.05.14-.1.34-.1.34h1.55a2.08 2.08 0 0 1 -.24-.34zm-43.34.05v10.78a1 1 0 0 1 -.18.34h1.49s-.19-.24-.19-.34v-7.73l6.6 8.31v-10.69c0-.12.19-.35.19-.35h-1.44a.91.91 0 0 1 .18.35v7.66zm-58 .06a7.87 7.87 0 0 0 -2 .26 1.24 1.24 0 0 1 -.42 0 1.43 1.43 0 0 1 -.29 0 2.92 2.92 0 0 1 -.34-.16v10.62a1 1 0 0 1 -.18.34h1.44a1 1 0 0 1 -.18-.34v-4a3.86 3.86 0 0 0 2 .52 3.63 3.63 0 0 0 0-7.25zm80.84 0a8.41 8.41 0 0 0 -2 .26 1.21 1.21 0 0 1 -.42 0 1.6 1.6 0 0 1 -.29 0 2.58 2.58 0 0 1 -.33-.16v10.62c0 .1-.19.34-.19.34h4.4a3.29 3.29 0 0 0 3.25-3.28 2.75 2.75 0 0 0 -1.6-2.77 1.87 1.87 0 0 0 .84-1.6 3.3 3.3 0 0 0 -3.66-3.41zm9.82 0a7.75 7.75 0 0 0 -2 .26 1.57 1.57 0 0 1 -.42 0 1.93 1.93 0 0 1 -.32 0 2.92 2.92 0 0 1 -.34-.16v10.62a1.05 1.05 0 0 1 -.17.34h1.45s-.2-.24-.2-.34v-9.33a5.1 5.1 0 0 1 2-.31 2.36 2.36 0 0 1 2.54 2.51c0 1.2-1.06 1.92-2.54 1.92h-.5v1c3 0 3.77 3 3.77 4.19v.34h1.5a2.81 2.81 0 0 1 -.32-.61 5.32 5.32 0 0 0 -2.54-4.29 2.56 2.56 0 0 0 1.7-2.54 3.37 3.37 0 0 0 -3.61-3.6zm-67 .15v1.26a1.3 1.3 0 0 1 .32-.18h2.75v9.49c0 .1-.19.34-.19.34h1.44a1.15 1.15 0 0 1 -.18-.34v-9.51h2.8a1.3 1.3 0 0 1 .32.18v-1.26zm15.58 0v1.26a1.3 1.3 0 0 1 .32-.18h2.75v9.49c0 .1-.19.34-.19.34h1.44a1.15 1.15 0 0 1 -.18-.34v-9.51h2.83a1.39 1.39 0 0 1 .31.18v-1.26zm92.1.09s.18.22.18.33v7a3.75 3.75 0 1 0 7.49 0v-7c0-.11.19-.33.19-.33h-1.44s.18.22.18.33v7a2.68 2.68 0 0 1 -5.35 0v-7c0-.11.21-.33.21-.33zm9.87 0a3.44 3.44 0 0 1 .27.33l2.8 4.7-3.24 5.45a1.75 1.75 0 0 1 -.29.34h1.56s-.18-.2-.11-.34l2.67-4.51 2.65 4.51c.08.14-.11.34-.11.34h1.6a1.44 1.44 0 0 1 -.29-.34l-3.22-5.44 2.75-4.7c.08-.1.32-.33.32-.33h-1.6s.17.22.1.33l-2.2 3.75-2.22-3.75c-.07-.11.1-.33.1-.33zm-17.7 0s.19.23.19.35v10.13c0 .11-.19.34-.19.34h6.65v-1.26s-.23.18-.34.18h-5v-9.36c0-.12.19-.35.19-.35zm-112.94.5a4.66 4.66 0 1 1 -4.67 4.66 4.68 4.68 0 0 1 4.68-4.68zm-10.58.34a2.53 2.53 0 0 1 0 5.05 2.74 2.74 0 0 1 -2-.76v-4a5.1 5.1 0 0 1 2.01-.27zm80.84 0a2.22 2.22 0 0 1 2.53 2.33 1.6 1.6 0 0 1 -1.55 1.31c-.7 0-.8 0-1.37 0v1h1.68c1.72 0 2 1 2 2a2.48 2.48 0 0 1 -2.56 2.31h-2.7v-8.75a5.13 5.13 0 0 1 1.98-.18zm20.53 1.44 2 4.71h-4.05z"/><path d="m377.39 137a4.09 4.09 0 0 0 -3 1.28 4.2 4.2 0 0 0 -1.34 3.06 4.28 4.28 0 0 0 1.34 3.09 4.21 4.21 0 0 0 3 1.29h7.68a4.36 4.36 0 0 0 3.09-7.44 4.34 4.34 0 0 0 -3.09-1.28 4.45 4.45 0 0 0 -2.68.89 2 2 0 0 1 -1.19.23 2.16 2.16 0 0 1 -1.19-.23 4.45 4.45 0 0 0 -2.62-.89zm0 1.67a2.61 2.61 0 0 1 2.62 2.59v2.6h-2.62a2.53 2.53 0 0 1 -1.8-.76 2.64 2.64 0 0 1 -.74-1.84 2.55 2.55 0 0 1 2.54-2.56zm7.68 0a2.41 2.41 0 0 1 1.8.76 2.58 2.58 0 0 1 .76 1.83 2.66 2.66 0 0 1 -.76 1.84 2.53 2.53 0 0 1 -1.8.76h-2.62v-2.6a2.62 2.62 0 0 1 2.62-2.56zm-8.72 7.54v1.79h9.79v-1.75a4.58 4.58 0 0 1 -1.07.1h-7.68a3.16 3.16 0 0 1 -1.04-.11zm-11.16 3.79a.87.87 0 0 0 -.73.42 1.78 1.78 0 0 0 -.16 1.67 44.81 44.81 0 0 0 2.12 4.17h.31v-.5a1.42 1.42 0 0 1 1.5-1.52h3.77a4.52 4.52 0 0 1 3.62 2.83 2.49 2.49 0 0 1 4.11 1.85 2.75 2.75 0 0 1 -.87 1.9 6.63 6.63 0 0 1 -3.4 1.87 4.15 4.15 0 0 0 3.19 0 5.21 5.21 0 0 0 1.6-1.31 5.07 5.07 0 0 0 .73-1.18 5.16 5.16 0 0 0 .45-2.12 5.32 5.32 0 0 0 -.13-1.2 6 6 0 0 0 -.39-1.1 4.8 4.8 0 0 0 -1.39-1.76c-1.55-1.28-5.71-4-5.71-4zm-2.07 8.72a3 3 0 0 0 .66 2.36 5.55 5.55 0 0 0 4 1.67 9.39 9.39 0 0 0 4.74-1.6 5.37 5.37 0 0 1 .65-.37c2.29-1.26 3.45-1.05 4-.86l.06-.16a5.5 5.5 0 0 0 -2.83-.75 5.9 5.9 0 0 0 -2.39.6 10.18 10.18 0 0 1 -4 .91 7.28 7.28 0 0 1 -4.9-1.8zm20.27 80.23a2 2 0 0 0 -.5.37c-.48.62-9.39 11.2-9.82 11.66l-.16.23-.26-.18a7.6 7.6 0 0 1 -1.38-1.23c-1.66-1.72-4.3-4.58-5.95-5.55a2.28 2.28 0 0 0 -2.67.44 2.14 2.14 0 0 0 2.28 3.48l.15-.08.19.14 2.54 2.3.91.73-1.17-.18c-2-.24-9.59-.18-9.64-.18h-.05a2.17 2.17 0 0 0 -2.2 1.59 2.39 2.39 0 0 0 .23 1.6 2.12 2.12 0 0 0 1.31 1 1.92 1.92 0 0 0 1.6-.22 2.12 2.12 0 0 0 1-1.28l.05-.26h.27a17.14 17.14 0 0 1 5.18 1l.68.29-.68.32-5.87 2.4a2.17 2.17 0 0 0 -1.91 2.42 2.2 2.2 0 0 0 .74 1.44 2.25 2.25 0 0 0 1.54.52 2.2 2.2 0 0 0 2-2.33v-.24l.2-.07.24-.11a27.19 27.19 0 0 1 8.25-2.31c2-.2 4.12-.26 6.18-.26a1.6 1.6 0 0 1 1.15.37 1.25 1.25 0 0 1 .34.92c0 .56-.15 1.91-.15 2v.11l-.14.1a2 2 0 0 0 -.68 1.46 2 2 0 0 0 .53 1.53c.05.05 1.44 1.33 2.77.33 1.12-.8 1-1.82.92-2.85v-.5c.05-3.47-1.4-6-4-6.73l-.41-.14.32-.37 8.85-11.11a3.77 3.77 0 0 0 .16-.47 13.15 13.15 0 0 1 -2.91-2.1zm-20.85 4.05a3.61 3.61 0 0 0 -2.67 1 3.7 3.7 0 0 0 -1 3.83h.06a1.85 1.85 0 0 1 .65-1.2 2 2 0 0 1 1.75-.47.32.32 0 0 1 .11.07 2.76 2.76 0 0 1 2.46-2.8l-.81-.31a3.17 3.17 0 0 0 -.53-.05zm-9.74 10.18a3.66 3.66 0 0 0 .84 3.85l.05-.05a1.93 1.93 0 0 1 0-1.34 2 2 0 0 1 1.34-1.23h.31a2.67 2.67 0 0 1 -.26-2.1 3.19 3.19 0 0 1 1.18-1.59 3.78 3.78 0 0 0 -3.46 2.47zm4.47 5a3.79 3.79 0 0 0 -1.61 3.72 3.74 3.74 0 0 0 2.62 2.95l.05-.07a2.16 2.16 0 0 1 -.63-1.21 1.85 1.85 0 0 1 .52-1.65 2.73 2.73 0 0 1 -.95-3.7zm19.93 5a2.1 2.1 0 0 1 -2.9 1.2l-.1.08a4.18 4.18 0 0 0 4.21 1.29 4.07 4.07 0 0 0 2.63-2.23 2.76 2.76 0 0 1 -3.84-.27z" fill="#ed1c24"/><path d="m359 388.65a2.48 2.48 0 0 0 -2.56 2.44 2.89 2.89 0 0 0 2 2.65c.84.4 2.51.93 2.51 2.72a2.34 2.34 0 0 1 -2.46 2.38 2.61 2.61 0 0 1 -2-.83v1.93a1 1 0 0 1 .45-.15c.21 0 1 .21 1.52.21.91 0 3.74-.42 3.74-3.51 0-1.74-.85-2.64-2.33-3.46s-2.15-.92-2.15-1.94a1.46 1.46 0 0 1 1.58-1.38 1.77 1.77 0 0 1 1.62.65v-1.65a.75.75 0 0 1 -.37.16 14.81 14.81 0 0 0 -1.55-.22z"/><path d="m387.42 349s.18.19.18.31v10.16a1.11 1.11 0 0 1 -.18.35h6.58v-1.32s-.23.18-.34.18h-4.74a.89.89 0 0 1 -.23-.1v-3.7h3.58c.11 0 .34.21.34.21v-1.44a1.2 1.2 0 0 1 -.34.16h-3.58v-3.81h5c.11 0 .34.19.34.19v-1.19z"/><path d="m450.09 252.55v-80.44a5.22 5.22 0 0 0 -10.43 0v80.44"/><path d="m461.59 261.06a25.13 25.13 0 0 0 -17.1 18.3h7.29a18.27 18.27 0 0 1 10.75-11.18v1.76a3.23 3.23 0 0 0 3.25 3.24h.8a3.28 3.28 0 0 0 3.26-3.24v-2.62a6 6 0 0 0 0-12.07v-2.6a3.25 3.25 0 0 0 -3.26-3.29h-.8a3.26 3.26 0 0 0 -3.25 3.29v1.35"/><path d="m450.61 278.77a19.15 19.15 0 0 1 11.92-12v-4.64a23.84 23.84 0 0 0 -16.53 16.64zm16-6.87a1.91 1.91 0 0 0 1.91-2v-17.25a1.93 1.93 0 0 0 -1.91-2h-.8a1.91 1.91 0 0 0 -2 2v17.29a2 2 0 0 0 2 2zm3.26-5.89a4.7 4.7 0 0 0 4.42-4.73 4.81 4.81 0 0 0 -4.42-4.75z" fill="#fddd04"/><path d="m444.64 244.58a25.13 25.13 0 0 0 18.3 17.1v-7.29a18.29 18.29 0 0 1 -11.18-10.75h1.76a3.23 3.23 0 0 0 3.24-3.25v-.8a3.28 3.28 0 0 0 -3.24-3.26h-2.62a6 6 0 0 0 -12.07 0h-2.6a3.25 3.25 0 0 0 -3.29 3.26v.8a3.26 3.26 0 0 0 3.29 3.25h1.32"/><path d="m462.34 255.56a19.14 19.14 0 0 1 -12-11.92h-4.64a23.85 23.85 0 0 0 16.6 16.55zm-6.86-16a1.93 1.93 0 0 0 -2-1.92h-17.25a1.94 1.94 0 0 0 -2 1.92v.8a1.91 1.91 0 0 0 2 2h17.29a2 2 0 0 0 2-2zm-5.89-3.26a4.7 4.7 0 0 0 -4.73-4.42 4.8 4.8 0 0 0 -4.75 4.42z" fill="#fddd04"/><path d="m453.44 200.79v12.21h-4v13.83h4v12.28h7.36v-3.27h4.95v3.27h7.43v-8h-3.77v-4.43h3.77v-13.51h-3.77v-4.43h3.77v-8h-7.43v3.26h-4.95v-3.25zm7.36 8.06h4.95v8.9h3.4v4.43h-3.4v8.88h-4.95v-8.88h-3.54v-4.43h3.54z" fill="#fddd04" stroke="#000" stroke-width="1.26"/><path d="m428.16 262.31a25.16 25.16 0 0 0 17.11-18.31h-7.27a18.31 18.31 0 0 1 -10.76 11.18v-1.76a3.23 3.23 0 0 0 -3.25-3.25h-.8a3.28 3.28 0 0 0 -3.25 3.25v2.62a6 6 0 0 0 0 12.07v2.59a3.25 3.25 0 0 0 3.25 3.3h.8a3.27 3.27 0 0 0 3.25-3.3v-1.3"/><path d="m439.14 244.6a19.13 19.13 0 0 1 -11.92 12v4.63a23.81 23.81 0 0 0 16.55-16.6zm-16 6.86a1.92 1.92 0 0 0 -1.91 2v17.28a1.93 1.93 0 0 0 1.91 2h.8a1.91 1.91 0 0 0 2-2v-17.31a2 2 0 0 0 -2-2zm-3.25 5.9a4.7 4.7 0 0 0 -4.43 4.73 4.79 4.79 0 0 0 4.43 4.74z" fill="#fddd04"/><path d="m445.11 278.79a25.14 25.14 0 0 0 -18.3-17.11v7.32a18.28 18.28 0 0 1 11.19 10.73h-1.76a3.23 3.23 0 0 0 -3.24 3.27v.8a3.27 3.27 0 0 0 3.24 3.25h2.63a6 6 0 0 0 12.06 0h2.6a3.24 3.24 0 0 0 3.29-3.25v-.8a3.26 3.26 0 0 0 -3.29-3.25h-1.33"/><path d="m427.41 267.81a19.11 19.11 0 0 1 12 11.92h4.59a23.83 23.83 0 0 0 -16.6-16.55zm6.86 16a1.92 1.92 0 0 0 2 1.91h17.29a1.93 1.93 0 0 0 2-1.91v-.81a1.91 1.91 0 0 0 -2-2h-17.33a2 2 0 0 0 -2 2zm5.89 3.25a4.71 4.71 0 0 0 4.74 4.43 4.8 4.8 0 0 0 4.74-4.43z" fill="#fddd04"/><path d="m362.7 159.75a6.85 6.85 0 0 0 5.32 2.54 9.55 9.55 0 0 0 3.74-.86 6.7 6.7 0 0 1 2.65-.68 6 6 0 0 1 3.53 1.07l.21.19-.7 1.07-.27-.08h-.05c-.48-.16-1.37-.48-3.66.76-.22.11-.45.24-.66.37a10 10 0 0 1 -5.05 1.7 6.12 6.12 0 0 1 -4.53-1.93 4.46 4.46 0 0 1 -.53-4.12zm14.8-7.23v1.42h2a2.07 2.07 0 0 0 2.07 2.09 2.1 2.1 0 0 0 2.07-2.09h2v-1.42zm67.38-10.71a3.92 3.92 0 0 0 -3.93 3.93v80.26h7.86v-80.26a3.91 3.91 0 0 0 -3.93-3.93zm-59.81-.05a1.94 1.94 0 0 0 -2 2v1.9h2a1.9 1.9 0 0 0 1.91-1.9 1.93 1.93 0 0 0 -1.91-2zm-7.68 0a1.94 1.94 0 0 0 0 3.88h2v-1.9a2 2 0 0 0 -2-1.98zm-45.48-14.61v99.93a79.13 79.13 0 0 0 78.82 79.09v-13.83a22.75 22.75 0 0 1 -6.7-12.1 6.39 6.39 0 0 1 -5.82.3c3.94-5.65 6.44-9.41 6.44-15.64a17.06 17.06 0 0 0 -.83-4.66c-.8 7.74-7.63 12.15-8.8 15.11a15 15 0 0 0 -.89 7 11.31 11.31 0 0 1 -6.39-10.16 11.17 11.17 0 0 1 2.75-7.36c2.93-3.42 6-5.81 7.57-7.67-3.15.06-6.65 2.27-8.83 4.61a9.29 9.29 0 0 1 -.16-1.76 12.33 12.33 0 0 1 4.45-9.09c7.35-6.58 7.69-12.7 7-18.85-5.06 2-8.44 7.17-8.7 12.91a13.29 13.29 0 0 1 -4.92-1.26 1.8 1.8 0 0 1 -.24.52l-8.56 10.73c1.87.67 3.93 2.42 3.93 6.92a9.69 9.69 0 0 0 .05 1.07 5.4 5.4 0 0 1 -.63 3.53 4.59 4.59 0 0 1 -2.88 2.28 4.79 4.79 0 0 1 -5.05-1.72l-.16-.22.79-.89.21.14a1.64 1.64 0 0 0 1.28.18 1.43 1.43 0 0 0 1.07-1.39 3.25 3.25 0 0 1 -.21-1.23 3.07 3.07 0 0 1 .84-1.86 14.53 14.53 0 0 0 .16-1.76.59.59 0 0 0 -.16-.46 1 1 0 0 0 -.68-.19 58 58 0 0 0 -6.13.29 27.38 27.38 0 0 0 -8 2.25h-.05a2.9 2.9 0 0 1 -2.57 2.77 3.33 3.33 0 0 1 -1.12-.15 1.44 1.44 0 0 0 .1 2.24l.24.14-.45 1-.26-.06a4.32 4.32 0 0 1 -3.3-3.5 4.55 4.55 0 0 1 .76-3.2 4.9 4.9 0 0 1 2.7-1.8 6.55 6.55 0 0 1 .81-.26l4.95-2.07a19.11 19.11 0 0 0 -3.95-.69 2.57 2.57 0 0 1 -1.21 1.44 2.77 2.77 0 0 1 -2.15.29 3.1 3.1 0 0 1 -1.28-.78 1.29 1.29 0 0 0 -1.41.88 1.32 1.32 0 0 0 .05 1.1l.1.25-.86.65-.16-.16a4.31 4.31 0 0 1 -1.23-4.66 4.86 4.86 0 0 1 2.25-2.44 5.25 5.25 0 0 1 3-.32h.42c.32 0 5.95 0 8.72.11l-1.7-1.54a2.7 2.7 0 0 1 -2.65-.66 3.35 3.35 0 0 1 -.76-1.33 1.26 1.26 0 0 0 -1.54.16 1.3 1.3 0 0 0 -.47 1v.28l-1.08.16-.05-.23a4.25 4.25 0 0 1 1.08-4.67 4.38 4.38 0 0 1 3.14-1.12 4.83 4.83 0 0 1 2.88 1.2s.1 0 .1.05c1.81 1 4.43 3.8 6.13 5.66a10.71 10.71 0 0 0 1.1 1c1.33-1.62 9.16-10.89 9.59-11.45a1.76 1.76 0 0 1 .52-.44 13.35 13.35 0 0 1 -2.7-4.14c-.21 0-.47.06-.73.06a6.55 6.55 0 0 1 -4.49-1.68c6.23-2.29 7.67-5.65 10.82-9.85a23.49 23.49 0 0 1 10.52-7.65l-3.71-10.42a20.93 20.93 0 0 1 -8.7 3l.34 8a6.52 6.52 0 0 1 -7.46 6.44c1.17-7.06 1.75-13.37 1.86-14.43a21.46 21.46 0 0 1 -2.83-.55l-7 24a10.36 10.36 0 0 1 -10 7.49 10.26 10.26 0 0 1 -5.26-1.42c5.33-5.29 8.52-12.62 10.87-17.59l6.65-14.43c-.53-.3-1.07-.62-1.6-1l-15.27 17.07a10.41 10.41 0 0 1 -15.89.07 42.21 42.21 0 0 0 9.11-5.62c2.13-1.64 17.86-15.33 17.86-15.33a7.64 7.64 0 0 1 -1-1.28l-17.15 7.28a10 10 0 0 1 -3.72.71 10.35 10.35 0 0 1 -10-7.88c2.34.35 8.47-.85 10.87-1.31s16.88-3.84 17.25-3.93c-.26-.69-.46-1.39-.68-2.12l-17.57-.05a10.36 10.36 0 0 1 -10.34-11.42 83.43 83.43 0 0 0 17.36 4.87c1.33.24 8.94 1.23 9.85 1.34v-.08c0-.75.05-1.47.1-2.2l-21.45-9.8a10.36 10.36 0 0 1 -5.18-9 10.61 10.61 0 0 1 1.54-5.45 42.91 42.91 0 0 0 12.05 9.85c4.58 2.66 14.05 8.24 14.53 8.51.22-.51.44-1 .71-1.55l-.21-.13-22.81-20a10.34 10.34 0 0 1 .87-17.14 34.88 34.88 0 0 0 6.67 10.82l30.46 31.77a3.37 3.37 0 0 1 .86 2.32 3.74 3.74 0 0 1 -2.62 3.59 3.94 3.94 0 0 0 2.2.68 3.73 3.73 0 0 0 3-1.47 6.43 6.43 0 0 1 9.32-.93 15.15 15.15 0 0 1 -.31-3.12 13.33 13.33 0 0 1 3-8.54 3.2 3.2 0 0 1 -1.91.58 3.66 3.66 0 0 1 -2.31-.82 8.16 8.16 0 0 0 .45-3.43 8.5 8.5 0 0 0 -9.06-7.94 6.77 6.77 0 0 0 -1.39.25 4.49 4.49 0 0 1 -4.16-.37l-.21-.21.15-.26.21-.3.13-.12h.19a5.43 5.43 0 0 0 3.41-1.76 2 2 0 0 0 .57-1.42 1.67 1.67 0 0 0 -.52-1.28 1.79 1.79 0 0 0 -1.29-.52 1.7 1.7 0 0 0 -1.44.76l-.57-.13a3.88 3.88 0 0 0 -3.2-2.83h-3.74a.74.74 0 0 0 -.84.84v1.15h-1.28l-.11-.18a33.75 33.75 0 0 1 -2.28-4.45 2.32 2.32 0 0 1 .21-2.23 1.49 1.49 0 0 1 1.26-.7h9l.79-1.31h.68v-2a4.83 4.83 0 0 1 -1.76-1.13 5.1 5.1 0 0 1 -1.49-3.6 5 5 0 0 1 5-5 4.83 4.83 0 0 1 3 1 1.5 1.5 0 0 0 .81.13 1.37 1.37 0 0 0 .79-.13 5 5 0 0 1 3-1 5.09 5.09 0 0 1 5 5 5.1 5.1 0 0 1 -1.49 3.6 4.56 4.56 0 0 1 -1.81 1.15v1.94c10.77.14 11.68 10.73 19.66 10.73h.48v.55a4.2 4.2 0 0 1 -2 3.53 14 14 0 0 1 5.73 4.51v-42.6z" fill="#fddd04"/><circle cx="381.25" cy="210.84" fill="#ed1c24" r="1.5" stroke="#000" stroke-width=".67"/></svg>