<svg viewBox="0 0 822 500" xmlns="http://www.w3.org/2000/svg"><path d="m411.12 128.72 63.36-14.36-63.36-14.36"/><path d="m443 120.72 27.67-6.06-27.08.13m0-.82 27.08.13-27.67-6" fill="#fddd04"/><path d="m430.09 134.87a8 8 0 0 1 .1-2.46 8.66 8.66 0 0 1 1.61-3.27 10 10 0 0 0 2-4.07 9.09 9.09 0 0 0 -.34-4.2 9.34 9.34 0 0 1 -.06-5.4 11.59 11.59 0 0 1 4.68-6.07l.71-.4-.75-.33c-2.92-1.2-6.86-.07-9.15 2.67a13.56 13.56 0 0 0 -2.12 5.4 14 14 0 0 1 -1.59 4.4 9.54 9.54 0 0 1 -2.82 2.4 18 18 0 0 0 -4.88 4.33l-20.69 35.47"/><path d="m425.51 163.36-14.36-63.36-14.36 63.36"/><path d="m417.51 131.52-6.07-27.67.13 27.08m-.81 0 .13-27.08-6 27.67" fill="#fddd04"/><path d="m428.39 136 1-.62c-.14-.4-.24-1 0-3.05a9.33 9.33 0 0 1 1.74-3.61 10.35 10.35 0 0 0 1.86-3.74 8.73 8.73 0 0 0 -.29-3.86 10.16 10.16 0 0 1 -.07-5.87 12.55 12.55 0 0 1 4.33-6 7.8 7.8 0 0 0 -7.44 2.69c-1.08 1.26-1.5 3.18-2 5a14.27 14.27 0 0 1 -1.7 4.66 10.64 10.64 0 0 1 -3 2.62 17 17 0 0 0 -5.05 4.72l.59 2.82" fill="#fddd04"/><path d="m444.67 156.61a8 8 0 0 1 1.81-1.67 8.84 8.84 0 0 1 3.46-1.17 10 10 0 0 0 4.28-1.47 9 9 0 0 0 2.73-3.21 9.41 9.41 0 0 1 3.77-3.86 11.57 11.57 0 0 1 7.6-1l.79.21-.29-.76c-1.22-2.92-4.81-4.9-8.36-4.59a13.85 13.85 0 0 0 -5.32 2.32 13.89 13.89 0 0 1 -4.23 2 9.69 9.69 0 0 1 -3.7-.31 18.11 18.11 0 0 0 -6.52-.38l-39.69 10.47"/><path d="m421.29 173.52 34.65-55-55 34.65"/><path d="m438.14 145.35 15.28-23.86-19.06 19.25m-.58-.58 19.22-19.06-23.84 15.3" fill="#fddd04"/><path d="m442.71 156.18 1.11.23c.19-.38.53-.86 2.18-2.13a9.34 9.34 0 0 1 3.78-1.33 10.2 10.2 0 0 0 4-1.32 8.62 8.62 0 0 0 2.53-2.94 10.13 10.13 0 0 1 4.11-4.2 12.56 12.56 0 0 1 7.3-1.18 7.82 7.82 0 0 0 -7.17-3.36c-1.65.13-3.3 1.19-5 2.18a14.08 14.08 0 0 1 -4.49 2.08 10.55 10.55 0 0 1 -4-.3 17.07 17.07 0 0 0 -6.91-.23l-1.58 2.41" fill="#fddd04"/><path d="m382.67 139a8.06 8.06 0 0 1 -2.47-.1 8.76 8.76 0 0 1 -3.27-1.62 10.07 10.07 0 0 0 -4.07-2 9.09 9.09 0 0 0 -4.2.34 9.42 9.42 0 0 1 -5.4.07 11.64 11.64 0 0 1 -6.06-4.69l-.41-.71-.33.74c-1.2 2.93-.07 6.87 2.67 9.16a13.68 13.68 0 0 0 5.4 2.12 13.78 13.78 0 0 1 4.4 1.58 9.44 9.44 0 0 1 2.4 2.83 18.28 18.28 0 0 0 4.33 4.88l35.48 20.69"/><path d="m411.15 143.6-63.36 14.4 63.36 14.36"/><path d="m379.32 151.6-27.68 6.06 27.09-.13m0 .82-27.09-.13 27.68 6" fill="#fddd04"/><path d="m383.74 140.71-.62-1c-.4.14-1 .24-3.05 0a9.29 9.29 0 0 1 -3.6-1.74 10.45 10.45 0 0 0 -3.74-1.87 8.64 8.64 0 0 0 -3.87.3 10.16 10.16 0 0 1 -5.87.06 12.59 12.59 0 0 1 -6-4.33 7.83 7.83 0 0 0 2.69 7.45c1.27 1.08 3.18 1.49 5.05 2a14.22 14.22 0 0 1 4.65 1.71 10.52 10.52 0 0 1 2.63 3 16.78 16.78 0 0 0 4.72 5.05l2.82-.59" fill="#fddd04"/><path d="m404.41 124.44a8.12 8.12 0 0 1 -1.68-1.82 8.79 8.79 0 0 1 -1.17-3.45 10 10 0 0 0 -1.47-4.28 9.08 9.08 0 0 0 -3.21-2.74 9.35 9.35 0 0 1 -3.86-3.77 11.57 11.57 0 0 1 -1-7.6l.21-.78-.76.29c-2.91 1.22-4.9 4.81-4.58 8.36a13.67 13.67 0 0 0 2.31 5.32 13.78 13.78 0 0 1 2 4.23 9.61 9.61 0 0 1 -.3 3.69 18.11 18.11 0 0 0 -.39 6.52l10.49 39.71"/><path d="m421.31 147.82-55-34.65 34.65 55"/><path d="m393.14 131-23.85-15.27 19.24 19.05m-.58.58-19.06-19.24 15.3 23.83" fill="#fddd04"/><path d="m404 126.4.23-1.12c-.38-.18-.86-.52-2.13-2.18a9.23 9.23 0 0 1 -1.32-3.77 10.37 10.37 0 0 0 -1.33-4 8.75 8.75 0 0 0 -2.94-2.53 10.16 10.16 0 0 1 -4.2-4.1 12.65 12.65 0 0 1 -1.18-7.3 7.82 7.82 0 0 0 -3.36 7.16c.13 1.66 1.19 3.31 2.18 5a14.49 14.49 0 0 1 2.09 4.5 10.56 10.56 0 0 1 -.3 4 16.86 16.86 0 0 0 -.24 6.91l2.41 1.58" fill="#fddd04"/><path d="m404.41 124.44a8.12 8.12 0 0 1 -1.68-1.82 8.79 8.79 0 0 1 -1.17-3.45 10 10 0 0 0 -1.47-4.28 9.08 9.08 0 0 0 -3.21-2.74 9.35 9.35 0 0 1 -3.86-3.77 11.57 11.57 0 0 1 -1-7.6l.21-.78-.76.29c-2.91 1.22-4.9 4.81-4.58 8.36a13.67 13.67 0 0 0 2.31 5.32 13.78 13.78 0 0 1 2 4.23 9.61 9.61 0 0 1 -.3 3.69 18.11 18.11 0 0 0 -.39 6.52l10.49 39.71"/><path d="m421.31 147.82-55-34.65 34.65 55"/><path d="m393.14 131-23.85-15.27 19.24 19.05m-.58.58-19.06-19.24 15.3 23.83" fill="#fddd04"/><path d="m404 126.4.23-1.12c-.38-.18-.86-.52-2.13-2.18a9.23 9.23 0 0 1 -1.32-3.77 10.37 10.37 0 0 0 -1.33-4 8.75 8.75 0 0 0 -2.94-2.53 10.16 10.16 0 0 1 -4.2-4.1 12.65 12.65 0 0 1 -1.18-7.3 7.82 7.82 0 0 0 -3.36 7.16c.13 1.66 1.19 3.31 2.18 5a14.49 14.49 0 0 1 2.09 4.5 10.56 10.56 0 0 1 -.3 4 16.86 16.86 0 0 0 -.24 6.91l2.41 1.58" fill="#fddd04"/><path d="m406.13 100s.23.24.23.39v12.72a1.26 1.26 0 0 1 -.23.43h8.23v-1.61s-.29.23-.42.23h-5.94a.74.74 0 0 1 -.29-.13v-4.62h4.49c.14 0 .42.26.42.26v-1.81a1.5 1.5 0 0 1 -.42.2h-4.49v-4.72h6.29c.14 0 .43.23.43.23v-1.57z"/><path d="m458.17 100a3.1 3.1 0 0 0 -3.2 3 3.62 3.62 0 0 0 2.44 3.32c1.06.5 3.15 1.16 3.15 3.41a2.94 2.94 0 0 1 -3.08 3 3.18 3.18 0 0 1 -2.52-1.05v2.42a1.16 1.16 0 0 1 .55-.19c.26 0 1.25.27 1.9.27 1.15 0 4.69-.53 4.69-4.4 0-2.18-1.06-3.31-2.92-4.33s-2.68-1.16-2.68-2.43a1.83 1.83 0 0 1 2-1.73 2.24 2.24 0 0 1 2 .82v-2.07a1 1 0 0 1 -.46.2c-.21.03-1.24-.24-1.87-.24z"/><circle cx="411.14" cy="132" fill="#fddd04" r="32" stroke="#000" stroke-width=".84"/><path d="m309.38 227.73a101.62 101.62 0 0 0 203.24 0v-127.73h-203.24z"/><path d="m411.55 100v224.1a99.15 99.15 0 0 0 98.49-99v-125.1z" fill="#ed1c24"/><path d="m411.12 100c-5.83 0-6.12 4-4.79 5.44l-7.05-1.51-2.16 3.58h12.36c-3.07-1.52-1.46-3.87 1.61-3.87s4.7 2.35 1.64 3.87h12.27l-2.13-3.58-7 1.51c1.34-1.48 1.07-5.44-4.75-5.44zm-20.46 9.9 1.35 1.48v15.24l-1.35 1.48h6.46l-1.31-1.48v-15.24l1.31-1.48zm9.94 0 1.34 1.48v15.24l-1.34 1.48h6.45l-1.37-1.48v-5.77h7v5.77l-1.31 1.48h6.45l-1.34-1.48v-15.24l1.34-1.48h-6.45l1.31 1.48v5.67h-7v-5.67l1.37-1.48zm19.47 0 5.15 9.09-5.15 9.08h11.87l2.13-3.81h-7.41l3.08-5.27-3.08-5.22h5.94l-2.21-3.87zm-86.36 275.47a7.25 7.25 0 1 0 7.25 7.24 7.21 7.21 0 0 0 -7.25-7.24zm113.67.33-5.83 13.54a2.42 2.42 0 0 1 -.3.42h1.87s-.19-.24-.14-.42l1.35-3.11h6.17l1.31 3.11c.06.18-.14.42-.14.42h1.85a2.85 2.85 0 0 1 -.31-.42zm-54.26.06v13.52a1.37 1.37 0 0 1 -.23.43h1.8a1.37 1.37 0 0 1 -.23-.43v-9.68l8.27 10.4v-13.41c0-.15.23-.43.23-.43h-1.81s.23.28.23.43v9.6zm-72.66.08a9.78 9.78 0 0 0 -2.52.32 1.59 1.59 0 0 1 -.88 0 3.86 3.86 0 0 1 -.43-.2v13.32a1.37 1.37 0 0 1 -.23.43h1.8a1.37 1.37 0 0 1 -.23-.43v-5a4.91 4.91 0 0 0 2.49.65 4.54 4.54 0 0 0 0-9.07zm101.22 0a10.32 10.32 0 0 0 -2.53.32 1.65 1.65 0 0 1 -.53.06 2 2 0 0 1 -.35-.06 3.48 3.48 0 0 1 -.42-.2v13.32a1.37 1.37 0 0 1 -.23.43h5.5a4.12 4.12 0 0 0 4.06-4.11 3.43 3.43 0 0 0 -2-3.47 2.37 2.37 0 0 0 1.05-2c.01-2.51-1.64-4.29-4.55-4.29zm12.29 0a9.45 9.45 0 0 0 -2.48.32 2.16 2.16 0 0 1 -.53.06 2.27 2.27 0 0 1 -.4-.06c-.12 0-.43-.2-.43-.2v13.32a1.39 1.39 0 0 1 -.22.43h1.83s-.25-.31-.25-.43v-11.68a6.24 6.24 0 0 1 2.48-.39 3 3 0 0 1 3.18 3.15c0 1.5-1.32 2.39-3.18 2.39h-.62v1.25c3.79 0 4.72 3.8 4.72 5.24v.42h1.87a3.38 3.38 0 0 1 -.4-.75c-.18-1.6-.83-4.13-3.18-5.37a3.22 3.22 0 0 0 2.13-3.18 4.21 4.21 0 0 0 -4.49-4.52zm-83.87.16v1.57a1.92 1.92 0 0 1 .4-.23h3.44v11.91a1.37 1.37 0 0 1 -.23.43h1.8a1.5 1.5 0 0 1 -.23-.43v-11.88h3.51a1.67 1.67 0 0 1 .4.23v-1.6zm19.51 0v1.57a1.67 1.67 0 0 1 .4-.23h3.44v11.91a1.37 1.37 0 0 1 -.23.43h1.78a1.5 1.5 0 0 1 -.23-.43v-11.88h3.54a1.67 1.67 0 0 1 .4.23v-1.6zm115.31.1s.23.28.23.42v8.76a4.69 4.69 0 0 0 9.38 0v-8.76c0-.14.23-.42.23-.42h-1.76s.23.28.23.42v8.76a3.35 3.35 0 1 1 -6.69 0v-8.76c0-.14.26-.42.26-.42zm12.35 0a3.42 3.42 0 0 1 .34.42l3.5 5.88-4.06 6.81a2 2 0 0 1 -.36.42h2s-.23-.25-.14-.42l3.35-5.64 3.32 5.64c.09.17-.14.42-.14.42h2a1.74 1.74 0 0 1 -.36-.42l-4-6.81 3.44-5.88a4.4 4.4 0 0 1 .4-.42h-2s.21.27.13.42l-2.75 4.69-2.79-4.69c-.08-.15.14-.42.14-.42zm-22.15 0s.23.28.23.43v12.65c0 .14-.23.42-.23.42h8.33v-1.57a1.26 1.26 0 0 1 -.43.23h-6.3v-11.67c0-.15.23-.43.23-.43zm-141.41.62a5.84 5.84 0 1 1 -5.84 5.83 5.85 5.85 0 0 1 5.84-5.77zm-13.25.43a3.17 3.17 0 0 1 0 6.33 3.48 3.48 0 0 1 -2.49-1v-5a6.35 6.35 0 0 1 2.49-.27zm101.21 0c2.12 0 3.18 1.18 3.18 2.92a2 2 0 0 1 -2 1.67c-.87 0-1 0-1.71 0v1.24h2.1c2.16 0 2.5 1.26 2.5 2.56a3.1 3.1 0 0 1 -3.21 2.88h-3.38v-10.82a6.3 6.3 0 0 1 2.52-.39zm25.71 1.85 2.56 5.89h-5.09z"/><path d="m368.92 100a5.17 5.17 0 0 0 -3.8 1.61 5.26 5.26 0 0 0 -1.67 3.83 5.39 5.39 0 0 0 1.67 3.87 5.33 5.33 0 0 0 3.8 1.61h9.61a5.44 5.44 0 0 0 3.87-9.31 5.42 5.42 0 0 0 -3.87-1.61 5.56 5.56 0 0 0 -3.34 1.11 2.42 2.42 0 0 1 -1.5.3 2.59 2.59 0 0 1 -1.49-.3 5.61 5.61 0 0 0 -3.28-1.11zm0 2.1a3.26 3.26 0 0 1 3.28 3.24v3.25h-3.28a3.19 3.19 0 0 1 -2.26-1 3.29 3.29 0 0 1 -.92-2.3 3.19 3.19 0 0 1 3.18-3.19zm9.61 0a3 3 0 0 1 2.26 1 3.26 3.26 0 0 1 .95 2.29 3.32 3.32 0 0 1 -.95 2.3 3.17 3.17 0 0 1 -2.26 1h-3.28v-3.25a3.27 3.27 0 0 1 3.28-3.34zm-10.92 9.44v2.23h12.26v-2.2a5.21 5.21 0 0 1 -1.34.13h-9.61a4 4 0 0 1 -1.31-.16zm-14 4.69a1.1 1.1 0 0 0 -.92.53 2.21 2.21 0 0 0 -.2 2.09 55.7 55.7 0 0 0 2.66 5.22h.39v-.63a1.77 1.77 0 0 1 1.87-1.9h4.69c1.73 0 3.72 1.63 4.52 3.55a3.12 3.12 0 0 1 5.15 2.31 3.44 3.44 0 0 1 -1.08 2.38 8.48 8.48 0 0 1 -4.27 2.35 5.23 5.23 0 0 0 4 0 6.35 6.35 0 0 0 2-1.63 6.11 6.11 0 0 0 .92-1.48 6.5 6.5 0 0 0 .56-2.66 6.82 6.82 0 0 0 -.16-1.5 6.69 6.69 0 0 0 -.5-1.38 5.81 5.81 0 0 0 -1.73-2.19c-1.95-1.61-7.15-5-7.15-5zm-2.59 10.92a3.75 3.75 0 0 0 .81 2.95 7 7 0 0 0 5 2.1 11.79 11.79 0 0 0 5.93-2 6.87 6.87 0 0 1 .82-.47c2.87-1.58 4.32-1.32 5.05-1.08l.07-.2a7 7 0 0 0 -3.54-.94 7.58 7.58 0 0 0 -3 .75 12.67 12.67 0 0 1 -5 1.15 9.1 9.1 0 0 1 -6.13-2.26zm25.41 100.45a2.37 2.37 0 0 0 -.62.46c-.6.78-11.76 14-12.3 14.6l-.19.29-.33-.23a9.13 9.13 0 0 1 -1.74-1.54c-2.06-2.15-5.37-5.73-7.44-7a2.88 2.88 0 0 0 -3.35.56 2.69 2.69 0 0 0 2.86 4.35l.19-.09.23.16 3.18 2.89 1.15.91-1.47-.23c-2.54-.29-12-.22-12.07-.22h-.06a2.72 2.72 0 0 0 -2.76 2 3 3 0 0 0 .3 2 2.65 2.65 0 0 0 1.64 1.25 2.38 2.38 0 0 0 2-.28 2.68 2.68 0 0 0 1.28-1.6l.07-.33h.33a21.6 21.6 0 0 1 6.49 1.25l.85.36-.85.4-7.34 3c-1.81.44-2.53 1.57-2.4 3a2.69 2.69 0 0 0 2.85 2.46 2.75 2.75 0 0 0 2.46-2.92v-.29l.27-.1.29-.13a33.92 33.92 0 0 1 10.33-2.89c2.57-.25 5.15-.33 7.74-.33a2 2 0 0 1 1.44.47 1.56 1.56 0 0 1 .42 1.14c0 .7-.19 2.39-.19 2.46v.13l-.17.13a2.7 2.7 0 0 0 -.19 3.74c.06.07 1.8 1.67 3.47.42 1.4-1 1.22-2.28 1.15-3.56v-.63c.07-4.35-1.75-7.55-4.95-8.43l-.59-.16.39-.46 11.08-13.9a3.55 3.55 0 0 0 .2-.6 16.51 16.51 0 0 1 -3.64-2.62zm-26.1 5.09a4.52 4.52 0 0 0 -3.34 1.2 4.63 4.63 0 0 0 -1.28 4.8h.07a2.31 2.31 0 0 1 .82-1.51 2.46 2.46 0 0 1 2.19-.59.47.47 0 0 1 .13.09 3.44 3.44 0 0 1 3.09-3.5l-1-.4a4.91 4.91 0 0 0 -.66-.06zm-12.19 12.75a4.55 4.55 0 0 0 1.05 4.82l.06-.06a2.43 2.43 0 0 1 0-1.68 2.49 2.49 0 0 1 1.67-1.54h.4a3.29 3.29 0 0 1 -.33-2.63 4 4 0 0 1 1.47-2 4.72 4.72 0 0 0 -4.32 3.09zm5.6 6.29a4.78 4.78 0 0 0 -2 4.66 4.7 4.7 0 0 0 3.28 3.7l.07-.09a2.68 2.68 0 0 1 -.79-1.51 2.3 2.3 0 0 1 .65-2.07 3.41 3.41 0 0 1 -1.21-4.69zm24.94 6.27a2.64 2.64 0 0 1 -3.63 1.5l-.13.1a5.28 5.28 0 0 0 5.28 1.61 5.08 5.08 0 0 0 3.29-2.79 3.46 3.46 0 0 1 -4.81-.42z" fill="#ed1c24"/><path d="m345.91 100a3.1 3.1 0 0 0 -3.2 3 3.62 3.62 0 0 0 2.44 3.32c1.06.5 3.15 1.16 3.15 3.41a2.94 2.94 0 0 1 -3.08 3 3.22 3.22 0 0 1 -2.53-1.05v2.42a1.22 1.22 0 0 1 .56-.19c.26 0 1.25.27 1.9.27 1.15 0 4.69-.53 4.69-4.4 0-2.18-1.06-3.31-2.92-4.33s-2.68-1.16-2.68-2.43a1.83 1.83 0 0 1 2-1.73 2.24 2.24 0 0 1 2 .82v-2.07a1 1 0 0 1 -.46.2c-.21.03-1.24-.24-1.87-.24z"/><path d="m381.48 100s.23.24.23.39v12.72a1.26 1.26 0 0 1 -.23.43h8.23v-1.61s-.29.23-.43.23h-5.93a.85.85 0 0 1 -.3-.13v-4.62h4.49c.14 0 .43.26.43.26v-1.81a1.45 1.45 0 0 1 -.43.2h-4.49v-4.72h6.26c.14 0 .43.23.43.23v-1.57z"/><path d="m459.94 207.24v-100.72a6.53 6.53 0 0 0 -13.05 0v100.72"/><path d="m474.34 138.13a31.47 31.47 0 0 0 -21.41 22.92h9.12a22.91 22.91 0 0 1 13.46-14v2.2a4 4 0 0 0 4.07 4.06h1a4.09 4.09 0 0 0 4.07-4.06v-3.25a7.56 7.56 0 0 0 0-15.11v-3.25a4.06 4.06 0 0 0 -4.07-4.12h-1a4.08 4.08 0 0 0 -4.07 4.12v1.65"/><path d="m460.59 160.3a24 24 0 0 1 14.92-15v-5.8a29.85 29.85 0 0 0 -20.72 20.78zm20-8.59a2.41 2.41 0 0 0 2.39-2.46v-21.64a2.43 2.43 0 0 0 -2.39-2.46h-1a2.39 2.39 0 0 0 -2.46 2.46v21.64a2.5 2.5 0 0 0 2.46 2.46zm4.07-7.38a5.89 5.89 0 0 0 5.54-5.93 6 6 0 0 0 -5.54-5.93z" fill="#fddd04"/><path d="m453.11 117.5a31.49 31.49 0 0 0 22.89 21.41v-9.12a22.91 22.91 0 0 1 -14-13.46h2.21a4.05 4.05 0 0 0 4.06-4.08v-1a4.1 4.1 0 0 0 -4.06-4.07h-3.21a7.56 7.56 0 0 0 -15.11 0h-3.25a4.06 4.06 0 0 0 -4.12 4.07v1a4.09 4.09 0 0 0 4.12 4.08h1.65"/><path d="m475.28 131.24a24 24 0 0 1 -15-14.91h-5.8a29.86 29.86 0 0 0 20.78 20.72zm-8.59-20a2.41 2.41 0 0 0 -2.45-2.4h-21.65a2.42 2.42 0 0 0 -2.45 2.4v1a2.39 2.39 0 0 0 2.45 2.47h21.65a2.5 2.5 0 0 0 2.45-2.47zm-7.38-4.07a5.88 5.88 0 0 0 -5.92-5.54 6 6 0 0 0 -5.94 5.54z" fill="#fddd04"/><path d="m464.14 100v15.35h-5.05v17.31h5.05v15.34h9.21v-4.09h6.2v4.09h9.3v-10h-4.72v-5.54h4.72v-17h-4.72v-5.46h4.72v-10h-9.3v4.07h-6.2v-4.07zm9.21 10.1h6.2v11.14h4.26v5.54h-4.26v11.12h-6.2v-11.12h-4.43v-5.54h4.43z" fill="#fddd04" stroke="#000" stroke-width="1.57"/><path d="m432.49 122.91a31.46 31.46 0 0 0 21.41-22.91h-9.13a22.91 22.91 0 0 1 -13.46 14v-2.21a4 4 0 0 0 -4.07-4.06h-1a4.11 4.11 0 0 0 -4.07 4.06v3.29a7.56 7.56 0 0 0 0 15.1v3.26a4.07 4.07 0 0 0 4.07 4.12h1a4.08 4.08 0 0 0 4.07-4.12v-1.65"/><path d="m446.23 100.74a24 24 0 0 1 -14.92 15v5.8a29.84 29.84 0 0 0 20.69-20.8zm-20 8.6a2.41 2.41 0 0 0 -2.39 2.45v21.65a2.42 2.42 0 0 0 2.39 2.45h1a2.39 2.39 0 0 0 2.47-2.45v-21.65a2.5 2.5 0 0 0 -2.47-2.45zm-4.07 7.37a5.89 5.89 0 0 0 -5.54 5.93 6 6 0 0 0 5.54 5.94z" fill="#fddd04"/><path d="m453.71 143.55a31.49 31.49 0 0 0 -22.91-21.42v9.13a22.89 22.89 0 0 1 14 13.46h-2.2a4.05 4.05 0 0 0 -4.06 4.07v1a4.1 4.1 0 0 0 4.06 4.07h3.28a7.56 7.56 0 0 0 15.11 0h3.26a4.07 4.07 0 0 0 4.12-4.07v-1a4.08 4.08 0 0 0 -4.12-4.07h-1.65"/><path d="m431.54 129.8a24 24 0 0 1 15 14.92h5.8a29.84 29.84 0 0 0 -20.8-20.72zm8.6 20a2.4 2.4 0 0 0 2.45 2.39h21.65a2.42 2.42 0 0 0 2.45-2.39v-1a2.39 2.39 0 0 0 -2.45-2.46h-21.65a2.49 2.49 0 0 0 -2.45 2.46zm7.37 4.07a5.89 5.89 0 0 0 5.93 5.54 6 6 0 0 0 5.94-5.54z" fill="#fddd04"/><path d="m350.53 140.82a8.57 8.57 0 0 0 6.66 3.18 12.14 12.14 0 0 0 4.69-1.08 8.22 8.22 0 0 1 3.31-.85 7.56 7.56 0 0 1 4.42 1.34l.27.23-.88 1.36-.33-.1h-.06c-.6-.2-1.73-.6-4.59 1-.27.14-.56.3-.82.46a12.67 12.67 0 0 1 -6.33 2.13c-1.4 0-4.19-.53-5.67-2.42a5.55 5.55 0 0 1 -.66-5.15zm18.53-9.06v1.78h2.49a2.58 2.58 0 0 0 2.59 2.62 2.62 2.62 0 0 0 2.59-2.62h2.46v-1.78zm84.35-13.4a4.92 4.92 0 0 0 -4.92 4.92v100.51h9.84v-100.51a4.89 4.89 0 0 0 -4.92-4.92zm-74.88-.07a2.43 2.43 0 0 0 -2.46 2.48v2.38h2.46a2.39 2.39 0 0 0 2.4-2.38 2.43 2.43 0 0 0 -2.4-2.48zm-9.61 0a2.43 2.43 0 0 0 0 4.86h2.46v-2.38a2.44 2.44 0 0 0 -2.46-2.48zm-56.92-18.29v125.11a99.08 99.08 0 0 0 98.69 99v-17.29a28.57 28.57 0 0 1 -8.39-15.15 7.94 7.94 0 0 1 -7.3.33c4.93-7.07 8.07-11.77 8.07-19.58a21.3 21.3 0 0 0 -1.05-5.83c-1 9.69-9.55 15.21-11 18.92a18.91 18.91 0 0 0 -1.11 8.81 14.15 14.15 0 0 1 -8-12.72 14 14 0 0 1 3.44-9.21c3.67-4.28 7.47-7.28 9.47-9.61-3.93.07-8.31 2.84-11.05 5.77a12.22 12.22 0 0 1 -.19-2.19c0-4.61 2.37-8.52 5.57-11.39 9.2-8.24 9.62-15.9 8.76-23.6-6.34 2.45-10.57 9-10.89 16.17a16.87 16.87 0 0 1 -6.16-1.58 2.63 2.63 0 0 1 -.3.65l-10.72 13.44c2.33.84 4.92 3 4.92 8.66a12.53 12.53 0 0 0 .06 1.34 6.78 6.78 0 0 1 -.78 4.43 5.84 5.84 0 0 1 -3.61 2.85 6 6 0 0 1 -6.33-2.16l-.19-.27 1-1.11.26.17a2.11 2.11 0 0 0 1.61.23 1.8 1.8 0 0 0 1.34-1.74 4.11 4.11 0 0 1 -.26-1.55 3.85 3.85 0 0 1 1.05-2.33 18.68 18.68 0 0 0 .2-2.19.81.81 0 0 0 -.2-.59 1.31 1.31 0 0 0 -.85-.23 74.64 74.64 0 0 0 -7.68.36 34.87 34.87 0 0 0 -10.06 2.82h-.07a3.64 3.64 0 0 1 -3.21 3.48 4.28 4.28 0 0 1 -1.41-.19 1.64 1.64 0 0 0 -.59 1.63 1.68 1.68 0 0 0 .72 1.18l.3.17-.56 1.21-.33-.07a5.4 5.4 0 0 1 -4.13-4.39 5.7 5.7 0 0 1 .95-4 6.25 6.25 0 0 1 3.38-2.26 8 8 0 0 1 1-.32l6.19-2.6a24.63 24.63 0 0 0 -4.95-.86 3.18 3.18 0 0 1 -1.51 1.81 3.54 3.54 0 0 1 -2.69.37 4 4 0 0 1 -1.6-1 1.63 1.63 0 0 0 -1.77 1.11 1.66 1.66 0 0 0 .06 1.38l.13.3-1.08.82-.2-.2a5.4 5.4 0 0 1 -1.54-5.83 6.05 6.05 0 0 1 2.82-3.06c1-.53 2-.52 3.81-.4a2.26 2.26 0 0 1 .52 0c.4 0 7.45-.06 10.92.14l-2.13-1.93a3.35 3.35 0 0 1 -3.31-.83 4 4 0 0 1 -.95-1.67 1.63 1.63 0 0 0 -1.94.2 1.66 1.66 0 0 0 -.59 1.28v.36l-1.34.2-.07-.3a5.33 5.33 0 0 1 1.35-5.84 5.44 5.44 0 0 1 3.93-1.4 5.94 5.94 0 0 1 3.61 1.51c.06 0 .13 0 .13.06 2.27 1.25 5.54 4.75 7.67 7.08a11.25 11.25 0 0 0 1.38 1.25c1.66-2 11.46-13.63 12-14.33a2.42 2.42 0 0 1 .65-.56 16.78 16.78 0 0 1 -3.37-5.18 7.77 7.77 0 0 1 -6.53-2.19c7.8-2.87 9.61-7.08 13.54-12.33a29.47 29.47 0 0 1 13.18-9.58l-4.69-12.96a26.32 26.32 0 0 1 -10.89 3.8l.43 10a8.17 8.17 0 0 1 -9.35 8.07c1.47-8.84 2.2-16.74 2.33-18.07a25.47 25.47 0 0 1 -3.54-.69l-8.79 30.1a13 13 0 0 1 -19.08 7.61c6.67-6.63 10.67-15.8 13.61-22l8.33-18.07a22.59 22.59 0 0 1 -2-1.24l-19.12 21.37a13 13 0 0 1 -19.9.1 53.37 53.37 0 0 0 11.41-7c2.67-2.06 22.36-19.19 22.36-19.19a10 10 0 0 1 -1.28-1.61l-21.47 9.12a12.66 12.66 0 0 1 -4.66.88 13 13 0 0 1 -12.56-9.86c2.94.44 10.61-1.07 13.61-1.64s21.14-4.81 21.61-4.92c-.34-.87-.59-1.74-.86-2.65l-22-.06a13 13 0 0 1 -12.95-14.3 105.35 105.35 0 0 0 21.76 6.02c1.67.31 11.19 1.54 12.33 1.68v-.11c0-.93.06-1.83.13-2.74l-26.86-12.27a13 13 0 0 1 -6.49-11.21 13.18 13.18 0 0 1 1.89-6.82 53.61 53.61 0 0 0 15.08 12.32c5.74 3.34 17.6 10.33 18.2 10.66.26-.64.55-1.29.88-1.94l-.26-.16-28.56-25a12.81 12.81 0 0 1 -5.18-10.38 12.94 12.94 0 0 1 6.27-11.08 43.71 43.71 0 0 0 8.45 13.44l38.14 39.77a4.23 4.23 0 0 1 1.08 2.92 4.7 4.7 0 0 1 -3.28 4.49 5 5 0 0 0 2.75.85 4.69 4.69 0 0 0 3.71-1.84 8 8 0 0 1 11.72-1.19 18.46 18.46 0 0 1 -.39-3.91 16.72 16.72 0 0 1 3.8-10.69 4 4 0 0 1 -2.39.73 4.64 4.64 0 0 1 -2.89-1 10.25 10.25 0 0 0 .56-4.3 10.65 10.65 0 0 0 -11.36-9.99 8.07 8.07 0 0 0 -1.73.31 5.64 5.64 0 0 1 -5.22-.47l-.26-.26.2-.32.26-.37.16-.16h.2c1.67 0 3.06-1.12 4.26-2.2a2.4 2.4 0 0 0 .72-1.77 2.08 2.08 0 0 0 -.65-1.61 2.21 2.21 0 0 0 -1.61-.65 2.11 2.11 0 0 0 -1.8.95l-.72-.16c-.47-1.85-2.4-3.55-4-3.55h-4.69a.92.92 0 0 0 -1.05 1v1.45h-1.61l-.13-.23a40.74 40.74 0 0 1 -2.85-5.57 2.91 2.91 0 0 1 .26-2.8 1.9 1.9 0 0 1 1.58-.87h11.24l1-1.64h.85v-2.38a5.85 5.85 0 0 1 -2.2-1.41 6.34 6.34 0 0 1 -1.87-4.51 6.23 6.23 0 0 1 6.26-6.21 6.06 6.06 0 0 1 3.81 1.28 1.82 1.82 0 0 0 1 .16 1.72 1.72 0 0 0 1-.16 6.24 6.24 0 0 1 3.8-1.28 6.39 6.39 0 0 1 6.26 6.21 6.34 6.34 0 0 1 -1.87 4.51 5.62 5.62 0 0 1 -2.26 1.44v2.43c13.48.17 14.62 13.44 24.62 13.44h.6c0 .24.06.45.06.68a5.28 5.28 0 0 1 -2.46 4.43 17.24 17.24 0 0 1 7.18 5.64v-53.35z" fill="#fddd04"/><circle cx="373.76" cy="101.88" fill="#ed1c24" r="1.88" stroke="#000" stroke-width=".84"/></svg>