<svg id="Layer_1" data-name="Layer 1" xmlns="http://www.w3.org/2000/svg" viewBox="0 0 822 500"><defs><style>.cls-1,.cls-2,.cls-4{fill:#fddd04;}.cls-2,.cls-4,.cls-5{stroke:#000;}.cls-2,.cls-5{stroke-width:0.84px;}.cls-3,.cls-5{fill:#ed1c24;}.cls-4{stroke-width:1.57px;}</style></defs><title>PTL 7</title><g id="i"><path d="M411.12,400l63.36-14.36-63.36-14.36"/><path class="cls-1" d="M443,392l27.67-6.07-27.08.13m0-.81,27.08.13-27.67-6"/></g><g id="j"><g id="h"><path d="M430.09,361.35a8,8,0,0,1,.1-2.46,8.66,8.66,0,0,1,1.61-3.27,10,10,0,0,0,2-4.07,9.09,9.09,0,0,0-.34-4.2,9.34,9.34,0,0,1-.06-5.4,11.59,11.59,0,0,1,4.68-6.07l.71-.4-.75-.33c-2.92-1.2-6.86-.07-9.15,2.67a13.56,13.56,0,0,0-2.12,5.4,13.87,13.87,0,0,1-1.59,4.4,9.4,9.4,0,0,1-2.82,2.4,18.13,18.13,0,0,0-4.88,4.33l-20.69,35.48"/><path d="M425.51,389.84l-14.36-63.36-14.36,63.36"/><path class="cls-1" d="M417.51,358l-6.07-27.68.13,27.09m-.81,0,.13-27.09-6,27.68"/><path class="cls-1" d="M428.39,362.43l1-.62c-.14-.4-.24-1,0-3.05a9.33,9.33,0,0,1,1.74-3.61,10.3,10.3,0,0,0,1.86-3.73,8.79,8.79,0,0,0-.29-3.87,10.16,10.16,0,0,1-.07-5.87,12.61,12.61,0,0,1,4.33-6,7.82,7.82,0,0,0-7.44,2.69c-1.08,1.26-1.5,3.18-2,5.05a14.3,14.3,0,0,1-1.7,4.65,10.52,10.52,0,0,1-3,2.63,16.78,16.78,0,0,0-5.05,4.72l.59,2.82"/></g><path d="M444.67,383.09a8.28,8.28,0,0,1,1.81-1.67,8.84,8.84,0,0,1,3.46-1.17,10,10,0,0,0,4.28-1.47,9,9,0,0,0,2.73-3.21,9.41,9.41,0,0,1,3.77-3.86,11.57,11.57,0,0,1,7.6-1l.79.21-.29-.76c-1.22-2.92-4.81-4.9-8.36-4.59a13.85,13.85,0,0,0-5.32,2.32,13.89,13.89,0,0,1-4.23,2,9.68,9.68,0,0,1-3.7-.3,18.07,18.07,0,0,0-6.52-.39L401,379.67"/><path d="M421.29,400l34.65-55-55,34.65"/><path class="cls-1" d="M438.14,371.83,453.42,348l-19.06,19.24m-.58-.58L453,347.58l-23.84,15.3"/><path class="cls-1" d="M442.71,382.66l1.11.23c.19-.38.53-.86,2.18-2.13a9.19,9.19,0,0,1,3.78-1.32,10.38,10.38,0,0,0,4-1.33,8.62,8.62,0,0,0,2.53-2.94,10.13,10.13,0,0,1,4.11-4.2,12.56,12.56,0,0,1,7.3-1.18,7.84,7.84,0,0,0-7.17-3.36c-1.65.13-3.3,1.19-5,2.18a14.33,14.33,0,0,1-4.49,2.09,10.36,10.36,0,0,1-4-.31,17.07,17.07,0,0,0-6.91-.23l-1.58,2.41"/></g><path d="M382.67,366.69a8.06,8.06,0,0,1-2.47-.1,8.73,8.73,0,0,1-3.27-1.61,10,10,0,0,0-4.07-2,9.09,9.09,0,0,0-4.2.34,9.34,9.34,0,0,1-5.4.06,11.54,11.54,0,0,1-6.06-4.68l-.41-.7-.33.74c-1.2,2.92-.07,6.86,2.67,9.15a13.68,13.68,0,0,0,5.4,2.12,13.78,13.78,0,0,1,4.4,1.59,9.4,9.4,0,0,1,2.4,2.82,18.29,18.29,0,0,0,4.33,4.89L411.14,400"/><path d="M411.15,371.27l-63.36,14.36L411.15,400"/><path class="cls-1" d="M379.32,379.27l-27.68,6.07,27.09-.13m0,.82-27.09-.14,27.68,6"/><path class="cls-1" d="M383.74,368.39l-.62-.95a6.91,6.91,0,0,1-3.05,0,9.41,9.41,0,0,1-3.6-1.73,10.29,10.29,0,0,0-3.74-1.87,8.79,8.79,0,0,0-3.87.29,10.07,10.07,0,0,1-5.87.07,12.59,12.59,0,0,1-6-4.33,7.82,7.82,0,0,0,2.69,7.44c1.27,1.08,3.18,1.5,5.05,2a14.21,14.21,0,0,1,4.65,1.7A10.52,10.52,0,0,1,372,374a16.78,16.78,0,0,0,4.72,5.05l2.82-.59"/><path d="M404.41,352.11a8,8,0,0,1-1.68-1.81,8.79,8.79,0,0,1-1.17-3.46,10,10,0,0,0-1.47-4.28,9,9,0,0,0-3.21-2.73,9.41,9.41,0,0,1-3.86-3.77,11.57,11.57,0,0,1-1-7.6l.21-.79-.76.29c-2.91,1.22-4.9,4.81-4.58,8.36a13.67,13.67,0,0,0,2.31,5.32,14,14,0,0,1,2,4.23,9.68,9.68,0,0,1-.3,3.7,18.09,18.09,0,0,0-.39,6.52L401,395.8"/><path d="M421.31,375.49l-55-34.65,34.65,55"/><path class="cls-1" d="M393.14,358.64l-23.85-15.28,19.24,19.06M388,363l-19.06-19.25,15.3,23.84"/><path class="cls-1" d="M404,354.07l.23-1.11c-.38-.19-.86-.53-2.13-2.18a9.33,9.33,0,0,1-1.32-3.78,10.38,10.38,0,0,0-1.33-4,8.53,8.53,0,0,0-2.94-2.53,10.16,10.16,0,0,1-4.2-4.1,12.68,12.68,0,0,1-1.18-7.31,7.84,7.84,0,0,0-3.36,7.17c.13,1.66,1.19,3.31,2.18,5a14.28,14.28,0,0,1,2.09,4.5,10.58,10.58,0,0,1-.3,4,16.84,16.84,0,0,0-.24,6.91l2.41,1.57"/><path d="M404.41,356.31a8.12,8.12,0,0,1-1.68-1.82,8.74,8.74,0,0,1-1.17-3.45,10,10,0,0,0-1.47-4.28,9,9,0,0,0-3.21-2.73,9.41,9.41,0,0,1-3.86-3.77,11.57,11.57,0,0,1-1-7.6l.21-.79-.76.29c-2.91,1.22-4.9,4.81-4.58,8.36a13.67,13.67,0,0,0,2.31,5.32,13.78,13.78,0,0,1,2,4.23,9.68,9.68,0,0,1-.3,3.7,18,18,0,0,0-.39,6.51L401,400"/><path d="M421.31,379.69l-55-34.65L401,400"/><path class="cls-1" d="M393.14,362.84l-23.85-15.28,19.24,19.06m-.58.58L368.89,348l15.3,23.84"/><path class="cls-1" d="M404,358.27l.23-1.11c-.38-.19-.86-.53-2.13-2.18a9.33,9.33,0,0,1-1.32-3.78,10.43,10.43,0,0,0-1.33-4,8.61,8.61,0,0,0-2.94-2.52,10.13,10.13,0,0,1-4.2-4.11,12.65,12.65,0,0,1-1.18-7.3,7.83,7.83,0,0,0-3.36,7.16c.13,1.66,1.19,3.31,2.18,5a14.33,14.33,0,0,1,2.09,4.49,10.55,10.55,0,0,1-.3,4,16.86,16.86,0,0,0-.24,6.91l2.41,1.58"/><path id="f" d="M406.13,386.46s.23.24.23.38v12.73a1.26,1.26,0,0,1-.23.43h8.23v-1.62s-.29.24-.42.24H408a1.23,1.23,0,0,1-.29-.13v-4.63h4.49c.14,0,.42.26.42.26v-1.8a1.5,1.5,0,0,1-.42.2h-4.49V387.8H414c.14,0,.43.23.43.23v-1.57Z"/><path id="g" d="M458.17,385.79a3.1,3.1,0,0,0-3.2,3.06,3.6,3.6,0,0,0,2.44,3.31c1.06.51,3.15,1.17,3.15,3.41a2.93,2.93,0,0,1-3.08,3A3.18,3.18,0,0,1,455,397.5v2.43a1.16,1.16,0,0,1,.55-.19c.26,0,1.25.26,1.9.26,1.15,0,4.69-.52,4.69-4.4,0-2.18-1.06-3.3-2.92-4.33s-2.68-1.15-2.68-2.42a1.82,1.82,0,0,1,2-1.73,2.24,2.24,0,0,1,2,.81v-2.06a1,1,0,0,1-.46.2A18.65,18.65,0,0,0,458.17,385.79Z"/><circle class="cls-2" cx="411.14" cy="368" r="32"/><path d="M309.38,298.41a101.62,101.62,0,1,0,203.24,0V170.68H309.38Z"/><path class="cls-3" d="M411.55,175.9V400A99.15,99.15,0,0,0,510,301V175.89Z"/><path d="M411.12,100c-5.83,0-6.12,4-4.79,5.44l-7.05-1.51-2.16,3.58h12.36c-3.07-1.52-1.46-3.87,1.61-3.87s4.7,2.35,1.64,3.87H425l-2.13-3.58-7,1.51c1.34-1.48,1.07-5.44-4.75-5.44Zm-20.46,9.9,1.35,1.48v15.24l-1.35,1.48h6.46l-1.31-1.48V111.38l1.31-1.48Zm9.94,0,1.34,1.48v15.24l-1.34,1.48h6.45l-1.37-1.48v-5.77h7v5.77l-1.31,1.48h6.45l-1.34-1.48V111.38l1.34-1.48h-6.45l1.31,1.48v5.67h-7v-5.67l1.37-1.48Zm19.47,0,5.15,9.09-5.15,9.08h11.87l2.13-3.81h-7.41l3.08-5.27-3.08-5.22h5.94l-2.21-3.87ZM333.71,385.37a7.25,7.25,0,1,0,7.25,7.24A7.21,7.21,0,0,0,333.71,385.37Zm113.67.33-5.83,13.54a2.42,2.42,0,0,1-.3.42h1.87s-.19-.24-.14-.42l1.35-3.11h6.17l1.31,3.11c.06.18-.14.42-.14.42h1.85a2.85,2.85,0,0,1-.31-.42Zm-54.26.06v13.52a1.37,1.37,0,0,1-.23.43h1.8a1.37,1.37,0,0,1-.23-.43V389.6l8.27,10.4V386.59c0-.15.23-.43.23-.43h-1.81s.23.28.23.43v9.6Zm-72.66.08a9.78,9.78,0,0,0-2.52.32,1.59,1.59,0,0,1-.88,0,3.86,3.86,0,0,1-.43-.2v13.32a1.37,1.37,0,0,1-.23.43h1.8a1.37,1.37,0,0,1-.23-.43v-5a4.91,4.91,0,0,0,2.49.65,4.54,4.54,0,0,0,0-9.07Zm101.22,0a10.32,10.32,0,0,0-2.53.32,1.65,1.65,0,0,1-.53.06,2,2,0,0,1-.35-.06,3.48,3.48,0,0,1-.42-.2v13.32a1.37,1.37,0,0,1-.23.43h5.5a4.12,4.12,0,0,0,4.06-4.11,3.43,3.43,0,0,0-2-3.47,2.37,2.37,0,0,0,1.05-2C426.24,387.62,424.59,385.84,421.68,385.84Zm12.29,0a9.45,9.45,0,0,0-2.48.32,2.16,2.16,0,0,1-.53.06,2.27,2.27,0,0,1-.4-.06c-.12,0-.43-.2-.43-.2v13.32a1.39,1.39,0,0,1-.22.43h1.83s-.25-.31-.25-.43V387.6a6.24,6.24,0,0,1,2.48-.39,3,3,0,0,1,3.18,3.15c0,1.5-1.32,2.39-3.18,2.39h-.62V394c3.79,0,4.72,3.8,4.72,5.24v.42h1.87a3.38,3.38,0,0,1-.4-.75c-.18-1.6-.83-4.13-3.18-5.37a3.22,3.22,0,0,0,2.13-3.18A4.21,4.21,0,0,0,434,385.84ZM350.1,386v1.57a1.92,1.92,0,0,1,.4-.23h3.44v11.91a1.37,1.37,0,0,1-.23.43h1.8a1.5,1.5,0,0,1-.23-.43V387.37h3.51a1.67,1.67,0,0,1,.4.23V386Zm19.51,0v1.57a1.67,1.67,0,0,1,.4-.23h3.44v11.91a1.37,1.37,0,0,1-.23.43H375a1.5,1.5,0,0,1-.23-.43V387.37h3.54a1.67,1.67,0,0,1,.4.23V386Zm115.31.1s.23.28.23.42v8.76a4.69,4.69,0,0,0,9.38,0v-8.76c0-.14.23-.42.23-.42H493s.23.28.23.42v8.76a3.35,3.35,0,1,1-6.69,0v-8.76c0-.14.26-.42.26-.42Zm12.35,0a3.42,3.42,0,0,1,.34.42l3.5,5.88-4.06,6.81a2,2,0,0,1-.36.42h2s-.23-.25-.14-.42l3.35-5.64,3.32,5.64c.09.17-.14.42-.14.42h2a1.74,1.74,0,0,1-.36-.42l-4-6.81,3.44-5.88a4.4,4.4,0,0,1,.4-.42h-2s.21.27.13.42l-2.75,4.69-2.79-4.69c-.08-.15.14-.42.14-.42Zm-22.15,0s.23.28.23.43v12.65c0,.14-.23.42-.23.42h8.33v-1.57a1.26,1.26,0,0,1-.43.23h-6.3V386.59c0-.15.23-.43.23-.43Zm-141.41.62a5.84,5.84,0,1,1-5.84,5.83A5.85,5.85,0,0,1,333.71,386.78Zm-13.25.43a3.17,3.17,0,0,1,0,6.33,3.48,3.48,0,0,1-2.49-1v-5A6.35,6.35,0,0,1,320.46,387.21Zm101.21,0c2.12,0,3.18,1.18,3.18,2.92a2,2,0,0,1-2,1.67c-.87,0-1,0-1.71,0v1.24l2.1,0c2.16,0,2.5,1.26,2.5,2.56a3.1,3.1,0,0,1-3.21,2.88h-3.38V387.6A6.3,6.3,0,0,1,421.67,387.21ZM447.38,389l2.56,5.89h-5.09Z"/><path class="cls-3" d="M368.92,238.58a5.2,5.2,0,0,0-3.8,1.6,5.27,5.27,0,0,0-1.67,3.84,5.39,5.39,0,0,0,1.67,3.87,5.33,5.33,0,0,0,3.8,1.61h9.61a5.45,5.45,0,0,0,3.87-9.32,5.46,5.46,0,0,0-3.87-1.6,5.56,5.56,0,0,0-3.34,1.11,2.49,2.49,0,0,1-1.5.3,2.59,2.59,0,0,1-1.49-.3A5.61,5.61,0,0,0,368.92,238.58Zm0,2.1a3.26,3.26,0,0,1,3.28,3.24v3.25h-3.28a3.19,3.19,0,0,1-2.26-.95,3.3,3.3,0,0,1-.92-2.3A3.19,3.19,0,0,1,368.92,240.68Zm9.61,0a3,3,0,0,1,2.26.95,3.24,3.24,0,0,1,.95,2.29,3.33,3.33,0,0,1-.95,2.3,3.17,3.17,0,0,1-2.26.95h-3.28v-3.25A3.27,3.27,0,0,1,378.53,240.68Zm-10.92,9.44v2.23h12.26v-2.2a5.7,5.7,0,0,1-1.34.13h-9.61A4.28,4.28,0,0,1,367.61,250.12Zm-14,4.69a1.11,1.11,0,0,0-.92.52,2.23,2.23,0,0,0-.2,2.1,55.7,55.7,0,0,0,2.66,5.22h.39V262a1.77,1.77,0,0,1,1.87-1.9h4.69c1.73,0,3.72,1.62,4.52,3.54a3.12,3.12,0,0,1,5.15,2.32,3.42,3.42,0,0,1-1.08,2.37,8.41,8.41,0,0,1-4.27,2.35,5.23,5.23,0,0,0,4,0,6.57,6.57,0,0,0,2.92-3.11,6.5,6.5,0,0,0,.56-2.66,6.76,6.76,0,0,0-.16-1.5,6.69,6.69,0,0,0-.5-1.38,5.91,5.91,0,0,0-1.73-2.2c-1.95-1.6-7.15-5-7.15-5Zm-2.59,10.92a3.75,3.75,0,0,0,.81,2.95,7,7,0,0,0,5,2.1,11.79,11.79,0,0,0,5.93-2,6.76,6.76,0,0,1,.82-.46c2.87-1.58,4.32-1.32,5.05-1.08l.07-.2a7,7,0,0,0-3.54-.94,7.42,7.42,0,0,0-3,.75,12.84,12.84,0,0,1-5,1.15,9.1,9.1,0,0,1-6.13-2.26Zm25.37,100.45a2.17,2.17,0,0,0-.62.46c-.6.78-11.76,14-12.3,14.59l-.19.3-.33-.23a9,9,0,0,1-1.74-1.55c-2.06-2.15-5.37-5.72-7.44-6.94a2.89,2.89,0,0,0-3.35.55,2.69,2.69,0,0,0,2.86,4.36l.19-.1.23.17,3.18,2.89,1.15.91-1.47-.23c-2.54-.29-12-.22-12.07-.22h-.06a2.71,2.71,0,0,0-2.76,2,3,3,0,0,0,.3,2,2.64,2.64,0,0,0,1.64,1.24,2.38,2.38,0,0,0,2-.27,2.68,2.68,0,0,0,1.28-1.6l.07-.33.33,0a21.6,21.6,0,0,1,6.49,1.25l.85.36-.85.4-7.34,3c-1.81.44-2.53,1.57-2.4,3a2.75,2.75,0,0,0,.92,1.8,2.69,2.69,0,0,0,1.93.65,2.74,2.74,0,0,0,2.46-2.91v-.3l.27-.09.29-.14a34,34,0,0,1,10.33-2.88c2.57-.25,5.15-.33,7.74-.33a2,2,0,0,1,1.44.46,1.61,1.61,0,0,1,.42,1.15c0,.7-.19,2.39-.19,2.45v.14l-.17.13a2.44,2.44,0,0,0-.85,1.83,2.47,2.47,0,0,0,.66,1.91c.06.06,1.8,1.67,3.47.42,1.4-1,1.22-2.29,1.15-3.57v-.63c.07-4.34-1.75-7.54-4.95-8.42l-.59-.16.39-.46,11.08-13.9a4.4,4.4,0,0,0,.2-.6,16.51,16.51,0,0,1-3.64-2.62Zm-26.1,5.09a4.48,4.48,0,0,0-3.34,1.2,4.63,4.63,0,0,0-1.28,4.8l.07,0a2.29,2.29,0,0,1,.82-1.51,2.46,2.46,0,0,1,2.19-.59.47.47,0,0,1,.13.09,3.44,3.44,0,0,1,3.09-3.5l-1-.4a4.91,4.91,0,0,0-.66-.06ZM338.14,384a4.57,4.57,0,0,0,1.05,4.83l.06-.06a2.43,2.43,0,0,1,0-1.68,2.49,2.49,0,0,1,1.67-1.54h.4a3.3,3.3,0,0,1-.33-2.63,4,4,0,0,1,1.47-2A4.72,4.72,0,0,0,338.14,384Zm5.6,6.3a4.78,4.78,0,0,0-2,4.66,4.7,4.7,0,0,0,3.28,3.7l.07-.09a2.68,2.68,0,0,1-.79-1.51,2.3,2.3,0,0,1,.65-2.07A3.41,3.41,0,0,1,343.74,390.31Zm24.94,6.3a2.62,2.62,0,0,1-3.63,1.5l-.13.11a5.26,5.26,0,0,0,5.28,1.6,5.05,5.05,0,0,0,3.29-2.79A3.45,3.45,0,0,1,368.68,396.61Z"/><path d="M345.91,385.79a3.1,3.1,0,0,0-3.2,3.06,3.6,3.6,0,0,0,2.44,3.31c1.06.51,3.15,1.17,3.15,3.41a2.93,2.93,0,0,1-3.08,3,3.22,3.22,0,0,1-2.53-1.05v2.43a1.22,1.22,0,0,1,.56-.19c.26,0,1.25.26,1.9.26,1.15,0,4.69-.52,4.69-4.4,0-2.18-1.06-3.3-2.92-4.33s-2.68-1.15-2.68-2.42a1.82,1.82,0,0,1,2-1.73,2.24,2.24,0,0,1,2,.81v-2.06a1,1,0,0,1-.46.2A18.65,18.65,0,0,0,345.91,385.79Z"/><path d="M381.48,386.46s.23.24.23.38v12.73a1.26,1.26,0,0,1-.23.43h8.23v-1.62s-.29.24-.43.24h-5.93a1.51,1.51,0,0,1-.3-.13v-4.63h4.49c.14,0,.43.26.43.26v-1.8a1.45,1.45,0,0,1-.43.2h-4.49V387.8h6.26c.14,0,.43.23.43.23v-1.57Z"/><path d="M459.94,400V299.28a6.53,6.53,0,0,0-13.05,0V400"/><g id="k"><g id="l"><path d="M474.34,377.09A31.46,31.46,0,0,0,452.93,400h9.12a22.93,22.93,0,0,1,13.46-14v2.21a4.05,4.05,0,0,0,4.07,4.06h1a4.1,4.1,0,0,0,4.07-4.06v-3.29a7.56,7.56,0,0,0,0-15.1v-3.26a4.06,4.06,0,0,0-4.07-4.12h-1a4.08,4.08,0,0,0-4.07,4.12v1.65"/><path class="cls-1" d="M460.59,399.26a24,24,0,0,1,14.92-15v-5.8a29.84,29.84,0,0,0-20.72,20.79Zm20-8.6a2.4,2.4,0,0,0,2.39-2.45V366.56a2.42,2.42,0,0,0-2.39-2.45h-1a2.39,2.39,0,0,0-2.46,2.45v21.65a2.49,2.49,0,0,0,2.46,2.45Zm4.07-7.37a5.89,5.89,0,0,0,5.54-5.93,6,6,0,0,0-5.54-5.94Z"/></g><path d="M453.11,356.45A31.5,31.5,0,0,0,476,377.87v-9.13a22.91,22.91,0,0,1-14-13.46h2.21a4.05,4.05,0,0,0,4.06-4.07v-1a4.1,4.1,0,0,0-4.06-4.07H461a7.56,7.56,0,0,0-15.11,0h-3.25a4.07,4.07,0,0,0-4.12,4.07v1a4.08,4.08,0,0,0,4.12,4.07h1.65"/><path class="cls-1" d="M475.28,370.2a24,24,0,0,1-15-14.92h-5.8A29.85,29.85,0,0,0,475.28,376Zm-8.59-20a2.4,2.4,0,0,0-2.45-2.39H442.59a2.42,2.42,0,0,0-2.45,2.39v1a2.39,2.39,0,0,0,2.45,2.46h21.65a2.49,2.49,0,0,0,2.45-2.46Zm-7.38-4.07a5.88,5.88,0,0,0-5.92-5.54,6,6,0,0,0-5.94,5.54Z"/></g><path class="cls-4" d="M464.14,352v15.35h-5.05v17.31h5.05V400h9.21v-4.09h6.2V400h9.3V390h-4.72v-5.54h4.72v-17h-4.72v-5.54h4.72V352h-9.3V356h-6.2V352Zm9.21,10.1h6.2v11.14h4.26v5.54h-4.26v11.13h-6.2V378.75h-4.43v-5.54h4.43Z"/><path d="M432.49,361.87A31.47,31.47,0,0,0,453.9,339h-9.13a22.88,22.88,0,0,1-13.46,14v-2.2a4,4,0,0,0-4.07-4.06h-1a4.1,4.1,0,0,0-4.07,4.06V354a7.57,7.57,0,0,0,0,15.11v3.25a4.07,4.07,0,0,0,4.07,4.12h1a4.08,4.08,0,0,0,4.07-4.12v-1.65"/><path class="cls-1" d="M446.23,339.7a24,24,0,0,1-14.92,15v5.8A29.85,29.85,0,0,0,452,339.7Zm-20,8.59a2.41,2.41,0,0,0-2.39,2.46v21.64a2.43,2.43,0,0,0,2.39,2.46h1a2.4,2.4,0,0,0,2.47-2.46V350.75a2.5,2.5,0,0,0-2.47-2.46Zm-4.07,7.38a5.89,5.89,0,0,0-5.54,5.93,6,6,0,0,0,5.54,5.93Z"/><path d="M453.71,382.5a31.47,31.47,0,0,0-22.91-21.41v9.12a22.89,22.89,0,0,1,14,13.46h-2.2a4.05,4.05,0,0,0-4.06,4.08v1a4.1,4.1,0,0,0,4.06,4.07h3.28a7.56,7.56,0,0,0,15.11,0h3.26a4.06,4.06,0,0,0,4.12-4.07v-1a4.09,4.09,0,0,0-4.12-4.08h-1.65"/><path class="cls-1" d="M431.54,368.76a24,24,0,0,1,15,14.91h5.8A29.86,29.86,0,0,0,431.54,363Zm8.6,20a2.4,2.4,0,0,0,2.45,2.4h21.65a2.42,2.42,0,0,0,2.45-2.4v-1a2.39,2.39,0,0,0-2.45-2.47H442.59a2.5,2.5,0,0,0-2.45,2.47Zm7.37,4.07a5.88,5.88,0,0,0,5.93,5.54,6,6,0,0,0,5.94-5.54Z"/><path class="cls-1" d="M350.53,216.69a8.59,8.59,0,0,0,6.66,3.17,12,12,0,0,0,4.69-1.08,8.22,8.22,0,0,1,3.31-.85,7.45,7.45,0,0,1,4.42,1.35l.27.23-.89,1.34-.33-.1-.06,0c-.6-.2-1.73-.59-4.59,1-.27.14-.56.29-.82.46a12.67,12.67,0,0,1-6.33,2.13c-1.4,0-4.19-.53-5.67-2.42a5.55,5.55,0,0,1-.66-5.15Zm18.53-9.06v1.77h2.49a2.59,2.59,0,0,0,2.59,2.63,2.63,2.63,0,0,0,2.59-2.63h2.46v-1.77Zm84.35-13.4a4.91,4.91,0,0,0-4.92,4.91V299.65h9.84V199.14A4.88,4.88,0,0,0,453.41,194.23Zm-74.88-.07a2.43,2.43,0,0,0-2.46,2.48V199h2.46a2.38,2.38,0,0,0,2.4-2.37A2.42,2.42,0,0,0,378.53,194.16Zm-9.61,0a2.37,2.37,0,0,0-2.39,2.48,2.34,2.34,0,0,0,2.39,2.37h2.46v-2.37A2.44,2.44,0,0,0,368.92,194.16ZM312,175.87V301a99.08,99.08,0,0,0,98.69,99V382.69a28.57,28.57,0,0,1-8.39-15.15,7.94,7.94,0,0,1-7.28.37c4.93-7.08,8.07-11.78,8.07-19.58A21.17,21.17,0,0,0,402,342.5c-1,9.69-9.55,15.21-11,18.91a18.92,18.92,0,0,0-1.11,8.81,14.12,14.12,0,0,1-8-12.71,13.94,13.94,0,0,1,3.44-9.21c3.67-4.28,7.47-7.28,9.47-9.61-3.93.07-8.31,2.84-11.05,5.77a12.33,12.33,0,0,1-.19-2.2c0-4.6,2.37-8.51,5.57-11.38,9.2-8.25,9.62-15.9,8.76-23.61-6.34,2.46-10.57,9-10.89,16.17a16.67,16.67,0,0,1-6.16-1.57,2.63,2.63,0,0,1-.3.65v0L369.81,336c2.33.84,4.92,3,4.92,8.66a12.53,12.53,0,0,0,.06,1.34,6.81,6.81,0,0,1-.78,4.43,5.87,5.87,0,0,1-3.61,2.85,6,6,0,0,1-6.33-2.16l-.19-.27,1-1.12.26.17a2,2,0,0,0,1.61.23,1.79,1.79,0,0,0,1.34-1.74,4.06,4.06,0,0,1-.26-1.54,3.85,3.85,0,0,1,1.05-2.33,19.1,19.1,0,0,0,.2-2.19.79.79,0,0,0-.2-.59,1.25,1.25,0,0,0-.85-.23,74.64,74.64,0,0,0-7.68.36,34.23,34.23,0,0,0-10.06,2.82l-.07,0a3.62,3.62,0,0,1-3.21,3.47,4,4,0,0,1-1.41-.19,1.67,1.67,0,0,0-.59,1.64,1.72,1.72,0,0,0,.72,1.18l.3.16-.56,1.22-.33-.07a5.42,5.42,0,0,1-4.13-4.39,5.73,5.73,0,0,1,.95-4,6.23,6.23,0,0,1,3.38-2.25,7.67,7.67,0,0,1,1-.33l6.19-2.59a24.63,24.63,0,0,0-4.95-.86,3.13,3.13,0,0,1-1.51,1.8,3.49,3.49,0,0,1-2.69.37,3.92,3.92,0,0,1-1.6-1A1.61,1.61,0,0,0,340,340a1.64,1.64,0,0,0,.06,1.37l.13.31-1.08.82-.2-.2a5.41,5.41,0,0,1-1.54-5.84,6.07,6.07,0,0,1,2.82-3c1-.54,2-.53,3.81-.4a2.26,2.26,0,0,1,.52,0c.4,0,7.45-.06,10.92.14l-2.13-1.93a3.35,3.35,0,0,1-3.31-.83,4,4,0,0,1-.95-1.67,1.62,1.62,0,0,0-1.94.2,1.65,1.65,0,0,0-.59,1.28v.36l-1.34.19-.07-.29a5.33,5.33,0,0,1,1.35-5.84,5.45,5.45,0,0,1,3.93-1.41,6,6,0,0,1,3.61,1.51c.06,0,.13,0,.13.07,2.27,1.24,5.54,4.75,7.67,7.08a12.16,12.16,0,0,0,1.38,1.25c1.66-2,11.46-13.63,12-14.34a2.39,2.39,0,0,1,.65-.55,16.71,16.71,0,0,1-3.37-5.19,6.31,6.31,0,0,1-.92.08,8.15,8.15,0,0,1-5.61-2.27c7.8-2.86,9.61-7.07,13.54-12.33A29.53,29.53,0,0,1,392.66,289L388,275.9a26,26,0,0,1-10.89,3.8l.43,10a8.17,8.17,0,0,1-9.35,8.07c1.47-8.85,2.2-16.75,2.33-18.07A28.78,28.78,0,0,1,367,279l-8.79,30.1a13,13,0,0,1-19.08,7.61c6.67-6.64,10.67-15.8,13.61-22l8.33-18.06a22.59,22.59,0,0,1-2-1.24l-19.12,21.37a13,13,0,0,1-19.9.09,53,53,0,0,0,11.41-7c2.67-2,22.36-19.18,22.36-19.18a10,10,0,0,1-1.28-1.61l-21.47,9.12a12.9,12.9,0,0,1-17.22-9c2.94.44,10.61-1.07,13.61-1.64s21.14-4.82,21.61-4.92c-.34-.87-.59-1.74-.86-2.66l-22-.06a13,13,0,0,1-12.95-14.3,105.66,105.66,0,0,0,21.74,6.1c1.67.3,11.19,1.54,12.33,1.68v-.11c0-.93.06-1.84.13-2.75L320.6,238.2A13,13,0,0,1,314.11,227a13.24,13.24,0,0,1,1.93-6.82,53.66,53.66,0,0,0,15.08,12.33c5.74,3.34,17.6,10.32,18.2,10.66.26-.64.55-1.29.88-1.94l-.26-.16-28.56-25a13,13,0,0,1,1.09-21.46A43.57,43.57,0,0,0,330.92,208l38.14,39.78a4.22,4.22,0,0,1,1.08,2.91,4.69,4.69,0,0,1-3.28,4.49,4.91,4.91,0,0,0,2.75.85,4.69,4.69,0,0,0,3.71-1.83A8.06,8.06,0,0,1,385,253a18.43,18.43,0,0,1-.39-3.9,16.7,16.7,0,0,1,3.8-10.69,4,4,0,0,1-2.39.72,4.64,4.64,0,0,1-2.89-1,10.25,10.25,0,0,0,.56-4.3,10.64,10.64,0,0,0-11.35-9.93,8,8,0,0,0-1.73.3,5.64,5.64,0,0,1-5.22-.46l-.26-.26.2-.33.26-.36.16-.16h.2c1.67,0,3.06-1.12,4.26-2.21a2.38,2.38,0,0,0,.72-1.77,2.06,2.06,0,0,0-.65-1.6,2.21,2.21,0,0,0-1.61-.65,2.11,2.11,0,0,0-1.8.95l-.72-.17c-.47-1.84-2.4-3.54-4-3.54h-4.69a.92.92,0,0,0-1.05,1.05v1.44h-1.61l-.13-.23a40.12,40.12,0,0,1-2.85-5.57,2.89,2.89,0,0,1,.26-2.79,1.88,1.88,0,0,1,1.58-.87h11.24l1-1.64h.85v-2.46a6,6,0,0,1-2.2-1.41,6.36,6.36,0,0,1-1.87-4.51,6.23,6.23,0,0,1,6.26-6.21,6.06,6.06,0,0,1,3.81,1.28,1.92,1.92,0,0,0,1,.16,1.72,1.72,0,0,0,1-.16,6.24,6.24,0,0,1,3.8-1.28,6.37,6.37,0,0,1,6.26,6.21,6.36,6.36,0,0,1-1.87,4.51,5.62,5.62,0,0,1-2.26,1.44V205c13.48.17,14.62,13.43,24.62,13.43h.6c0,.24.06.45.06.68a5.27,5.27,0,0,1-2.46,4.43,17.34,17.34,0,0,1,7.18,5.65V175.88Z"/><circle class="cls-5" cx="373.76" cy="398.12" r="1.88"/></svg>