<svg viewBox="0 0 822 500" xmlns="http://www.w3.org/2000/svg"><path d="m411.12 264.36 63.36-14.36-63.36-14.36"/><path d="m443 256.36 27.67-6.07-27.08.14m0-.82 27.08.13-27.67-6" fill="#fddd04"/><path d="m430.09 248.11a8 8 0 0 1 .1-2.46 8.66 8.66 0 0 1 1.61-3.27 10 10 0 0 0 2-4.07 9.09 9.09 0 0 0 -.34-4.2 9.34 9.34 0 0 1 -.06-5.4 11.59 11.59 0 0 1 4.68-6.07l.71-.4-.75-.33c-2.92-1.2-6.86-.07-9.15 2.67a13.56 13.56 0 0 0 -2.12 5.4 13.87 13.87 0 0 1 -1.59 4.4 9.4 9.4 0 0 1 -2.82 2.4 18.13 18.13 0 0 0 -4.88 4.33l-20.69 35.48"/><path d="m425.51 276.6-14.36-63.36-14.36 63.36"/><path d="m417.51 244.77-6.07-27.68.13 27.09m-.81 0 .13-27.09-6 27.68" fill="#fddd04"/><path d="m428.39 249.19 1-.62c-.14-.4-.24-1 0-3a9.33 9.33 0 0 1 1.74-3.61 10.38 10.38 0 0 0 1.86-3.73 8.77 8.77 0 0 0 -.29-3.87 10.16 10.16 0 0 1 -.07-5.87 12.55 12.55 0 0 1 4.33-6 7.82 7.82 0 0 0 -7.44 2.69c-1.08 1.26-1.5 3.18-2 5.05a14.3 14.3 0 0 1 -1.7 4.65 10.64 10.64 0 0 1 -3 2.62 17 17 0 0 0 -5.05 4.73l.59 2.81" fill="#fddd04"/><path d="m444.67 269.85a8 8 0 0 1 1.81-1.67 8.84 8.84 0 0 1 3.46-1.17 10 10 0 0 0 4.28-1.47 9 9 0 0 0 2.73-3.21 9.41 9.41 0 0 1 3.77-3.86 11.57 11.57 0 0 1 7.6-1l.79.21-.29-.76c-1.22-2.92-4.81-4.9-8.36-4.59a13.85 13.85 0 0 0 -5.32 2.32 13.89 13.89 0 0 1 -4.23 2 9.49 9.49 0 0 1 -3.7-.31 18.11 18.11 0 0 0 -6.52-.38l-39.69 10.47"/><path d="m421.29 286.76 34.65-55-55 34.65"/><path d="m438.14 258.59 15.28-23.86-19.06 19.27m-.58-.58 19.22-19.08-23.84 15.3" fill="#fddd04"/><path d="m442.71 269.42 1.11.23c.19-.38.53-.86 2.18-2.13a9.19 9.19 0 0 1 3.78-1.32 10.38 10.38 0 0 0 4-1.33 8.62 8.62 0 0 0 2.53-2.94 10.13 10.13 0 0 1 4.11-4.2 12.56 12.56 0 0 1 7.3-1.18 7.84 7.84 0 0 0 -7.17-3.36c-1.65.13-3.3 1.19-5 2.18a14.33 14.33 0 0 1 -4.49 2.09 10.56 10.56 0 0 1 -4-.31 17.07 17.07 0 0 0 -6.91-.23l-1.58 2.41" fill="#fddd04"/><path d="m382.67 252.86a8.23 8.23 0 0 1 -2.47-.11 8.58 8.58 0 0 1 -3.27-1.61 10.07 10.07 0 0 0 -4.07-2 9.09 9.09 0 0 0 -4.2.34 9.34 9.34 0 0 1 -5.4.06 11.6 11.6 0 0 1 -6.06-4.67l-.41-.71-.33.74c-1.2 2.93-.07 6.87 2.67 9.16a13.83 13.83 0 0 0 5.4 2.12 13.78 13.78 0 0 1 4.4 1.58 9.44 9.44 0 0 1 2.4 2.83 18.28 18.28 0 0 0 4.33 4.88l35.48 20.68"/><path d="m411.15 257.43-63.36 14.37 63.36 14.36"/><path d="m379.32 265.44-27.68 6.06 27.09-.13m0 .82-27.09-.13 27.68 6" fill="#fddd04"/><path d="m383.74 254.55-.62-1a6.82 6.82 0 0 1 -3.05 0 9.43 9.43 0 0 1 -3.6-1.74 10.29 10.29 0 0 0 -3.74-1.87 8.79 8.79 0 0 0 -3.87.29 10.07 10.07 0 0 1 -5.87.07 12.59 12.59 0 0 1 -6-4.33 7.82 7.82 0 0 0 2.69 7.44c1.27 1.08 3.18 1.5 5.05 2a14.22 14.22 0 0 1 4.65 1.71 10.39 10.39 0 0 1 2.63 3.05 17 17 0 0 0 4.72 5l2.82-.6" fill="#fddd04"/><path d="m404.41 238.27a7.71 7.71 0 0 1 -1.68-1.81 8.79 8.79 0 0 1 -1.17-3.45 10 10 0 0 0 -1.47-4.29 9.15 9.15 0 0 0 -3.21-2.73 9.41 9.41 0 0 1 -3.86-3.77 11.57 11.57 0 0 1 -1-7.6l.21-.78-.76.29c-2.91 1.22-4.9 4.8-4.58 8.36a13.63 13.63 0 0 0 2.31 5.31 13.93 13.93 0 0 1 2 4.24 9.64 9.64 0 0 1 -.3 3.69 18.09 18.09 0 0 0 -.39 6.52l10.49 39.75"/><path d="m421.31 261.65-55-34.64 34.69 54.99"/><path d="m393.14 244.8-23.85-15.28 19.24 19.06m-.58.58-19.06-19.24 15.3 23.83" fill="#fddd04"/><path d="m404 240.23.23-1.11c-.38-.19-.86-.53-2.13-2.18a9.33 9.33 0 0 1 -1.32-3.78 10.38 10.38 0 0 0 -1.33-4 8.64 8.64 0 0 0 -2.94-2.53 10.16 10.16 0 0 1 -4.2-4.1 12.67 12.67 0 0 1 -1.18-7.31 7.85 7.85 0 0 0 -3.36 7.17c.13 1.66 1.19 3.31 2.18 5a14.28 14.28 0 0 1 2.09 4.5 10.56 10.56 0 0 1 -.3 4 16.86 16.86 0 0 0 -.24 6.91l2.41 1.57" fill="#fddd04"/><path d="m404.41 240.37a8 8 0 0 1 -1.68-1.81 8.79 8.79 0 0 1 -1.17-3.46 10 10 0 0 0 -1.47-4.28 9 9 0 0 0 -3.21-2.73 9.41 9.41 0 0 1 -3.86-3.77 11.57 11.57 0 0 1 -1-7.6l.21-.78-.76.28c-2.91 1.23-4.9 4.81-4.58 8.37a13.63 13.63 0 0 0 2.31 5.31 14 14 0 0 1 2 4.23 9.68 9.68 0 0 1 -.3 3.7 18.09 18.09 0 0 0 -.39 6.52l10.49 39.71"/><path d="m421.31 263.75-55-34.64 34.69 54.95"/><path d="m393.14 246.9-23.85-15.28 19.24 19.06m-.58.58-19.06-19.26 15.3 23.83" fill="#fddd04"/><path d="m404 242.33.23-1.11c-.38-.19-.86-.53-2.13-2.18a9.33 9.33 0 0 1 -1.32-3.78 10.38 10.38 0 0 0 -1.33-4 8.64 8.64 0 0 0 -2.94-2.53 10.16 10.16 0 0 1 -4.2-4.1 12.67 12.67 0 0 1 -1.18-7.31 7.85 7.85 0 0 0 -3.36 7.17c.13 1.66 1.19 3.31 2.18 5a14.28 14.28 0 0 1 2.05 4.51 10.56 10.56 0 0 1 -.3 4 16.86 16.86 0 0 0 -.24 6.91l2.41 1.57" fill="#fddd04"/><path d="m406.13 243.23s.23.24.23.39v12.72a1.26 1.26 0 0 1 -.23.43h8.23v-1.61s-.29.23-.42.23h-5.94a.93.93 0 0 1 -.29-.13v-4.63h4.49c.14 0 .42.27.42.27v-1.81a1.5 1.5 0 0 1 -.42.2h-4.49v-4.72h6.29c.14 0 .43.23.43.23v-1.57z"/><path d="m458.17 242.9a3.1 3.1 0 0 0 -3.2 3 3.62 3.62 0 0 0 2.44 3.32c1.06.5 3.15 1.16 3.15 3.41a2.94 2.94 0 0 1 -3.08 3 3.22 3.22 0 0 1 -2.52-1v2.37a1.16 1.16 0 0 1 .55-.19c.26 0 1.25.26 1.9.26 1.15 0 4.69-.52 4.69-4.39 0-2.19-1.06-3.31-2.92-4.34s-2.68-1.15-2.68-2.42a1.82 1.82 0 0 1 2-1.73 2.22 2.22 0 0 1 2 .82v-2.01a1 1 0 0 1 -.46.2c-.21-.03-1.24-.3-1.87-.3z"/><circle cx="411.14" cy="250" fill="#fddd04" r="32" stroke="#000" stroke-width=".84"/><path d="m309.38 263.07a101.62 101.62 0 0 0 203.24 0v-127.73h-203.24z"/><path d="m411.55 138v224.06a99.17 99.17 0 0 0 98.45-99.06v-125.06z" fill="#ed1c24"/><path d="m411.12 100c-5.83 0-6.12 4-4.79 5.44l-7.05-1.51-2.16 3.58h12.36c-3.07-1.52-1.46-3.87 1.61-3.87s4.7 2.35 1.64 3.87h12.27l-2.13-3.58-7 1.51c1.34-1.48 1.07-5.44-4.75-5.44zm-20.46 9.9 1.35 1.48v15.24l-1.35 1.48h6.46l-1.31-1.48v-15.24l1.31-1.48zm9.94 0 1.34 1.48v15.24l-1.34 1.48h6.45l-1.37-1.48v-5.77h7v5.77l-1.31 1.48h6.45l-1.34-1.48v-15.24l1.34-1.48h-6.45l1.31 1.48v5.67h-7v-5.67l1.37-1.48zm19.47 0 5.15 9.09-5.15 9.08h11.87l2.13-3.81h-7.41l3.08-5.27-3.08-5.22h5.94l-2.21-3.87zm-86.36 275.47a7.25 7.25 0 1 0 7.25 7.24 7.21 7.21 0 0 0 -7.25-7.24zm113.67.33-5.83 13.54a2.42 2.42 0 0 1 -.3.42h1.87s-.19-.24-.14-.42l1.35-3.11h6.17l1.31 3.11c.06.18-.14.42-.14.42h1.85a2.85 2.85 0 0 1 -.31-.42zm-54.26.06v13.52a1.37 1.37 0 0 1 -.23.43h1.8a1.37 1.37 0 0 1 -.23-.43v-9.68l8.27 10.4v-13.41c0-.15.23-.43.23-.43h-1.81s.23.28.23.43v9.6zm-72.66.08a9.78 9.78 0 0 0 -2.52.32 1.59 1.59 0 0 1 -.88 0 3.86 3.86 0 0 1 -.43-.2v13.32a1.37 1.37 0 0 1 -.23.43h1.8a1.37 1.37 0 0 1 -.23-.43v-5a4.91 4.91 0 0 0 2.49.65 4.54 4.54 0 0 0 0-9.07zm101.22 0a10.32 10.32 0 0 0 -2.53.32 1.65 1.65 0 0 1 -.53.06 2 2 0 0 1 -.35-.06 3.48 3.48 0 0 1 -.42-.2v13.32a1.37 1.37 0 0 1 -.23.43h5.5a4.12 4.12 0 0 0 4.06-4.11 3.43 3.43 0 0 0 -2-3.47 2.37 2.37 0 0 0 1.05-2c.01-2.51-1.64-4.29-4.55-4.29zm12.29 0a9.45 9.45 0 0 0 -2.48.32 2.16 2.16 0 0 1 -.53.06 2.27 2.27 0 0 1 -.4-.06c-.12 0-.43-.2-.43-.2v13.32a1.39 1.39 0 0 1 -.22.43h1.83s-.25-.31-.25-.43v-11.68a6.24 6.24 0 0 1 2.48-.39 3 3 0 0 1 3.18 3.15c0 1.5-1.32 2.39-3.18 2.39h-.62v1.25c3.79 0 4.72 3.8 4.72 5.24v.42h1.87a3.38 3.38 0 0 1 -.4-.75c-.18-1.6-.83-4.13-3.18-5.37a3.22 3.22 0 0 0 2.13-3.18 4.21 4.21 0 0 0 -4.49-4.52zm-83.87.16v1.57a1.92 1.92 0 0 1 .4-.23h3.44v11.91a1.37 1.37 0 0 1 -.23.43h1.8a1.5 1.5 0 0 1 -.23-.43v-11.88h3.51a1.67 1.67 0 0 1 .4.23v-1.6zm19.51 0v1.57a1.67 1.67 0 0 1 .4-.23h3.44v11.91a1.37 1.37 0 0 1 -.23.43h1.78a1.5 1.5 0 0 1 -.23-.43v-11.88h3.54a1.67 1.67 0 0 1 .4.23v-1.6zm115.31.1s.23.28.23.42v8.76a4.69 4.69 0 0 0 9.38 0v-8.76c0-.14.23-.42.23-.42h-1.76s.23.28.23.42v8.76a3.35 3.35 0 1 1 -6.69 0v-8.76c0-.14.26-.42.26-.42zm12.35 0a3.42 3.42 0 0 1 .34.42l3.5 5.88-4.06 6.81a2 2 0 0 1 -.36.42h2s-.23-.25-.14-.42l3.35-5.64 3.32 5.64c.09.17-.14.42-.14.42h2a1.74 1.74 0 0 1 -.36-.42l-4-6.81 3.44-5.88a4.4 4.4 0 0 1 .4-.42h-2s.21.27.13.42l-2.75 4.69-2.79-4.69c-.08-.15.14-.42.14-.42zm-22.15 0s.23.28.23.43v12.65c0 .14-.23.42-.23.42h8.33v-1.57a1.26 1.26 0 0 1 -.43.23h-6.3v-11.67c0-.15.23-.43.23-.43zm-141.41.62a5.84 5.84 0 1 1 -5.84 5.83 5.85 5.85 0 0 1 5.84-5.77zm-13.25.43a3.17 3.17 0 0 1 0 6.33 3.48 3.48 0 0 1 -2.49-1v-5a6.35 6.35 0 0 1 2.49-.27zm101.21 0c2.12 0 3.18 1.18 3.18 2.92a2 2 0 0 1 -2 1.67c-.87 0-1 0-1.71 0v1.24h2.1c2.16 0 2.5 1.26 2.5 2.56a3.1 3.1 0 0 1 -3.21 2.88h-3.38v-10.82a6.3 6.3 0 0 1 2.52-.39zm25.71 1.85 2.56 5.89h-5.09z"/><path d="m368.92 169.29a5.17 5.17 0 0 0 -3.8 1.61 5.25 5.25 0 0 0 -1.67 3.83 5.39 5.39 0 0 0 1.67 3.87 5.33 5.33 0 0 0 3.8 1.61h9.61a5.44 5.44 0 0 0 3.87-9.31 5.42 5.42 0 0 0 -3.87-1.61 5.56 5.56 0 0 0 -3.34 1.11 2.49 2.49 0 0 1 -1.5.3 2.59 2.59 0 0 1 -1.49-.3 5.61 5.61 0 0 0 -3.28-1.11zm0 2.1a3.26 3.26 0 0 1 3.28 3.24v3.25h-3.28a3.19 3.19 0 0 1 -2.26-.95 3.3 3.3 0 0 1 -.92-2.3 3.19 3.19 0 0 1 3.18-3.24zm9.61 0a3 3 0 0 1 2.26 1 3.24 3.24 0 0 1 .95 2.29 3.33 3.33 0 0 1 -.95 2.3 3.17 3.17 0 0 1 -2.26.95h-3.28v-3.25a3.27 3.27 0 0 1 3.28-3.29zm-10.92 9.44v2.23h12.26v-2.2a5.7 5.7 0 0 1 -1.34.13h-9.61a4 4 0 0 1 -1.31-.16zm-14 4.69a1.11 1.11 0 0 0 -.92.52 2.23 2.23 0 0 0 -.2 2.1 55.7 55.7 0 0 0 2.66 5.22h.39v-.63a1.77 1.77 0 0 1 1.87-1.9h4.69c1.73 0 3.72 1.62 4.52 3.54a3.12 3.12 0 0 1 5.15 2.32 3.42 3.42 0 0 1 -1.08 2.37 8.41 8.41 0 0 1 -4.27 2.35 5.18 5.18 0 0 0 4 0 6.35 6.35 0 0 0 2-1.63 6.11 6.11 0 0 0 .92-1.48 6.5 6.5 0 0 0 .56-2.66 6.76 6.76 0 0 0 -.16-1.5 6.69 6.69 0 0 0 -.5-1.38 5.91 5.91 0 0 0 -1.73-2.2c-1.95-1.6-7.15-5-7.15-5zm-2.59 10.92a3.75 3.75 0 0 0 .81 2.95 7 7 0 0 0 5 2.1 11.79 11.79 0 0 0 5.93-2 8.45 8.45 0 0 1 .82-.46c2.87-1.58 4.32-1.32 5.05-1.08l.07-.2a7 7 0 0 0 -3.54-.94 7.42 7.42 0 0 0 -3 .75 12.67 12.67 0 0 1 -5 1.15 9.1 9.1 0 0 1 -6.13-2.26zm25.37 100.45a2.37 2.37 0 0 0 -.62.46c-.6.78-11.76 14-12.3 14.59l-.19.3-.28-.24a9.13 9.13 0 0 1 -1.74-1.54c-2.06-2.16-5.37-5.73-7.44-7a2.88 2.88 0 0 0 -3.35.56 2.69 2.69 0 0 0 2.86 4.35l.19-.09.23.16 3.18 2.89 1.15.91-1.47-.23c-2.54-.29-12-.22-12.07-.22h-.06a2.71 2.71 0 0 0 -2.76 2 3 3 0 0 0 .3 2 2.65 2.65 0 0 0 1.64 1.25 2.38 2.38 0 0 0 2-.28 2.68 2.68 0 0 0 1.28-1.6l.07-.33h.33a21.6 21.6 0 0 1 6.49 1.25l.85.36-.85.4-7.34 3c-1.81.44-2.53 1.57-2.4 3a2.69 2.69 0 0 0 2.85 2.46 2.75 2.75 0 0 0 2.46-2.92v-.29l.27-.1.29-.14a34 34 0 0 1 10.33-2.88c2.57-.25 5.15-.33 7.74-.33a2 2 0 0 1 1.44.47 1.56 1.56 0 0 1 .42 1.14c0 .7-.19 2.39-.19 2.45v.3l-.17.13a2.7 2.7 0 0 0 -.19 3.74c.06.06 1.8 1.67 3.47.42 1.4-1 1.22-2.29 1.15-3.57v-.62c.07-4.35-1.75-7.55-4.95-8.43l-.59-.16.39-.46 11.08-13.9a3.55 3.55 0 0 0 .2-.6 16.51 16.51 0 0 1 -3.64-2.62zm-26.06 5.11a4.48 4.48 0 0 0 -3.34 1.2 4.63 4.63 0 0 0 -1.28 4.8h.07a2.31 2.31 0 0 1 .82-1.51 2.46 2.46 0 0 1 2.19-.59.47.47 0 0 1 .13.09 3.44 3.44 0 0 1 3.09-3.5l-1-.4a4.91 4.91 0 0 0 -.66-.06zm-12.19 12.74a4.56 4.56 0 0 0 1.05 4.83l.06-.06a2.43 2.43 0 0 1 0-1.68 2.49 2.49 0 0 1 1.67-1.54h.4a3.3 3.3 0 0 1 -.33-2.63 4 4 0 0 1 1.47-2 4.72 4.72 0 0 0 -4.32 3.06zm5.6 6.3a4.78 4.78 0 0 0 -2 4.66 4.7 4.7 0 0 0 3.28 3.7l.07-.09a2.68 2.68 0 0 1 -.79-1.51 2.3 2.3 0 0 1 .65-2.07 3.41 3.41 0 0 1 -1.21-4.73zm24.94 6.31a2.64 2.64 0 0 1 -3.63 1.5l-.13.1a5.28 5.28 0 0 0 5.28 1.61 5.07 5.07 0 0 0 3.29-2.8 3.46 3.46 0 0 1 -4.81-.43z" fill="#ed1c24"/><path d="m345.91 242.9a3.1 3.1 0 0 0 -3.2 3 3.62 3.62 0 0 0 2.44 3.32c1.06.5 3.15 1.16 3.15 3.41a2.94 2.94 0 0 1 -3.08 3 3.25 3.25 0 0 1 -2.53-1v2.37a1.22 1.22 0 0 1 .56-.19c.26 0 1.25.26 1.9.26 1.15 0 4.69-.52 4.69-4.39 0-2.19-1.06-3.31-2.92-4.34s-2.68-1.15-2.68-2.42a1.82 1.82 0 0 1 2-1.73 2.22 2.22 0 0 1 2 .82v-2.01a1 1 0 0 1 -.46.2c-.21-.03-1.24-.3-1.87-.3z"/><path d="m381.48 243.23s.23.24.23.39v12.72a1.26 1.26 0 0 1 -.23.43h8.23v-1.61s-.29.23-.43.23h-5.93a1.09 1.09 0 0 1 -.3-.13v-4.63h4.49c.14 0 .43.27.43.27v-1.81a1.45 1.45 0 0 1 -.43.2h-4.49v-4.72h6.26c.14 0 .43.23.43.23v-1.57z"/><path d="m459.94 303.62v-100.72a6.53 6.53 0 0 0 -13.05 0v100.72"/><path d="m474.34 257.61a31.47 31.47 0 0 0 -21.41 22.91h9.12a22.89 22.89 0 0 1 13.46-14v2.2a4 4 0 0 0 4.07 4.06h1a4.1 4.1 0 0 0 4.07-4.06v-3.28a7.56 7.56 0 0 0 0-15.11v-3.25a4.07 4.07 0 0 0 -4.07-4.13h-1a4.09 4.09 0 0 0 -4.07 4.13v1.64"/><path d="m460.59 279.78a24 24 0 0 1 14.92-15v-5.78a29.86 29.86 0 0 0 -20.72 20.79zm20-8.59a2.41 2.41 0 0 0 2.39-2.46v-21.64a2.42 2.42 0 0 0 -2.39-2.46h-1a2.39 2.39 0 0 0 -2.46 2.46v21.64a2.5 2.5 0 0 0 2.46 2.46zm4.07-7.38a5.89 5.89 0 0 0 5.54-5.93 6 6 0 0 0 -5.54-5.94z" fill="#fddd04"/><path d="m453.11 237a31.49 31.49 0 0 0 22.89 21.39v-9.13a22.88 22.88 0 0 1 -14-13.46h2.21a4 4 0 0 0 4.06-4.07v-1a4.1 4.1 0 0 0 -4.06-4.07h-3.21a7.57 7.57 0 0 0 -15.11 0h-3.25a4.07 4.07 0 0 0 -4.12 4.07v1a4.08 4.08 0 0 0 4.12 4.07h1.65"/><path d="m475.28 250.72a24 24 0 0 1 -15-14.92h-5.8a29.85 29.85 0 0 0 20.78 20.72zm-8.59-20a2.41 2.41 0 0 0 -2.45-2.39h-21.65a2.42 2.42 0 0 0 -2.45 2.39v1a2.39 2.39 0 0 0 2.45 2.47h21.65a2.5 2.5 0 0 0 2.45-2.47zm-7.38-4.07a5.88 5.88 0 0 0 -5.92-5.54 6 6 0 0 0 -5.94 5.54z" fill="#fddd04"/><path d="m464.14 226v15.34h-5.05v17.31h5.05v15.35h9.21v-4.09h6.2v4.09h9.3v-10h-4.72v-5.54h4.72v-17h-4.72v-5.46h4.72v-10h-9.3v4.06h-6.2v-4.06zm9.21 10.1h6.2v11.14h4.26v5.54h-4.26v11.12h-6.2v-11.13h-4.43v-5.54h4.43z" fill="#fddd04" stroke="#000" stroke-width="1.57"/><path d="m432.49 242.39a31.47 31.47 0 0 0 21.41-22.91h-9.13a22.87 22.87 0 0 1 -13.46 14v-2.2a4 4 0 0 0 -4.07-4.06h-1a4.11 4.11 0 0 0 -4.07 4.06v3.28a7.57 7.57 0 0 0 0 15.11v3.25a4.07 4.07 0 0 0 4.07 4.13h1a4.09 4.09 0 0 0 4.07-4.13v-1.64"/><path d="m446.23 220.22a23.93 23.93 0 0 1 -14.92 15v5.78a29.86 29.86 0 0 0 20.69-20.78zm-20 8.59a2.41 2.41 0 0 0 -2.39 2.46v21.64a2.42 2.42 0 0 0 2.39 2.46h1a2.4 2.4 0 0 0 2.47-2.46v-21.64a2.51 2.51 0 0 0 -2.47-2.46zm-4.07 7.38a5.89 5.89 0 0 0 -5.54 5.93 6 6 0 0 0 5.54 5.94z" fill="#fddd04"/><path d="m453.71 263a31.47 31.47 0 0 0 -22.91-21.41v9.13a22.87 22.87 0 0 1 14 13.46h-2.2a4 4 0 0 0 -4.06 4.07v1a4.1 4.1 0 0 0 4.06 4.07h3.28a7.57 7.57 0 0 0 15.11 0h3.26a4.07 4.07 0 0 0 4.12-4.07v-1a4.08 4.08 0 0 0 -4.12-4.07h-1.65"/><path d="m431.54 249.28a24 24 0 0 1 15 14.92h5.8a29.84 29.84 0 0 0 -20.79-20.72zm8.6 20a2.4 2.4 0 0 0 2.45 2.39h21.65a2.42 2.42 0 0 0 2.45-2.39v-1a2.39 2.39 0 0 0 -2.45-2.47h-21.65a2.5 2.5 0 0 0 -2.45 2.47zm7.37 4.07a5.89 5.89 0 0 0 5.93 5.54 6 6 0 0 0 5.94-5.54z" fill="#fddd04"/><path d="m350.53 178.75a8.57 8.57 0 0 0 6.66 3.18 12.14 12.14 0 0 0 4.69-1.08 8.22 8.22 0 0 1 3.31-.85 7.56 7.56 0 0 1 4.42 1.34l.27.23-.89 1.35-.33-.11h-.06c-.6-.2-1.73-.6-4.59 1a7.41 7.41 0 0 0 -.82.46 12.67 12.67 0 0 1 -6.33 2.13c-1.4 0-4.19-.54-5.67-2.43a5.55 5.55 0 0 1 -.66-5.15zm18.53-9.05v1.77h2.49a2.58 2.58 0 0 0 2.59 2.62 2.62 2.62 0 0 0 2.59-2.62h2.46v-1.77zm84.35-13.41a4.92 4.92 0 0 0 -4.92 4.92v100.51h9.84v-100.51a4.89 4.89 0 0 0 -4.92-4.92zm-74.88-.06a2.42 2.42 0 0 0 -2.46 2.47v2.38h2.46a2.38 2.38 0 0 0 2.4-2.38 2.42 2.42 0 0 0 -2.4-2.47zm-9.61 0a2.43 2.43 0 0 0 0 4.85h2.46v-2.38a2.43 2.43 0 0 0 -2.46-2.47zm-56.92-18.3v125.12a99.08 99.08 0 0 0 98.69 99v-17.29a28.6 28.6 0 0 1 -8.39-15.15 7.9 7.9 0 0 1 -7.3.39c4.93-7.07 8.07-11.77 8.07-19.57a21.31 21.31 0 0 0 -1.05-5.84c-1 9.7-9.55 15.21-11 18.92a18.92 18.92 0 0 0 -1.11 8.81 14.13 14.13 0 0 1 -8-12.71 14 14 0 0 1 3.44-9.22c3.67-4.28 7.47-7.28 9.47-9.61-3.93.08-8.31 2.85-11.05 5.77a12.14 12.14 0 0 1 -.19-2.19 15.39 15.39 0 0 1 5.54-11.36c9.2-8.25 9.62-15.91 8.76-23.61-6.34 2.46-10.57 9-10.89 16.17a16.86 16.86 0 0 1 -6.16-1.57 2.63 2.63 0 0 1 -.3.65l-10.72 13.44c2.33.84 4.92 3 4.92 8.65a12.8 12.8 0 0 0 .06 1.35 6.77 6.77 0 0 1 -.78 4.42 5.85 5.85 0 0 1 -3.61 2.86 6 6 0 0 1 -6.33-2.16l-.19-.28 1-1.11.26.17a2.06 2.06 0 0 0 1.61.23 1.79 1.79 0 0 0 1.34-1.74 4.09 4.09 0 0 1 -.26-1.54 3.83 3.83 0 0 1 1.05-2.33 19.07 19.07 0 0 0 .2-2.2.77.77 0 0 0 -.2-.58 1.25 1.25 0 0 0 -.85-.23 73.47 73.47 0 0 0 -7.68.35 34.87 34.87 0 0 0 -10.06 2.82h-.07a3.63 3.63 0 0 1 -3.21 3.47 4 4 0 0 1 -1.41-.19 1.8 1.8 0 0 0 .13 2.81l.3.17-.56 1.22-.33-.08a5.4 5.4 0 0 1 -4.13-4.38 5.72 5.72 0 0 1 .95-4 6.3 6.3 0 0 1 3.38-2.26 10.14 10.14 0 0 1 1-.32l6.19-2.59a24.63 24.63 0 0 0 -4.95-.86 3.19 3.19 0 0 1 -1.51 1.8 3.54 3.54 0 0 1 -2.69.37 4 4 0 0 1 -1.6-1 1.63 1.63 0 0 0 -1.77 1.11 1.66 1.66 0 0 0 .06 1.38l.13.3-1.08.82-.2-.2a5.39 5.39 0 0 1 -1.54-5.83 6.07 6.07 0 0 1 2.82-3c1-.54 2-.53 3.81-.4a2.26 2.26 0 0 1 .52 0c.4 0 7.45-.07 10.92.13l-2.13-1.93a3.31 3.31 0 0 1 -3.31-.83 4.07 4.07 0 0 1 -.95-1.66 1.6 1.6 0 0 0 -1.94.2 1.63 1.63 0 0 0 -.59 1.28v.35l-1.34.2-.07-.29a5.34 5.34 0 0 1 1.35-5.85 5.49 5.49 0 0 1 3.93-1.4 6 6 0 0 1 3.61 1.51c.06 0 .13 0 .13.06 2.27 1.25 5.54 4.75 7.67 7.08a11.25 11.25 0 0 0 1.38 1.25c1.66-2 11.46-13.63 12-14.33a2.42 2.42 0 0 1 .65-.56 16.78 16.78 0 0 1 -3.37-5.18 8.09 8.09 0 0 1 -.92.08 8.19 8.19 0 0 1 -5.61-2.27c7.8-2.87 9.61-7.07 13.54-12.33a29.55 29.55 0 0 1 13.18-9.61l-4.66-13a26 26 0 0 1 -10.89 3.8l.43 10a8.16 8.16 0 0 1 -9.35 8.06c1.47-8.84 2.2-16.74 2.33-18.06a28.78 28.78 0 0 1 -3.54-.69l-8.79 30.1a13 13 0 0 1 -19.08 7.6c6.67-6.63 10.67-15.8 13.61-22l8.33-18.07a20.34 20.34 0 0 1 -2-1.23l-19.12 21.37a13 13 0 0 1 -19.9.09 53 53 0 0 0 11.41-7c2.67-2.06 22.36-19.19 22.36-19.19a10 10 0 0 1 -1.28-1.6l-21.47 9.11a12.67 12.67 0 0 1 -4.66.89 13 13 0 0 1 -12.56-9.87c2.94.44 10.61-1.07 13.61-1.63s21.14-4.82 21.61-4.92c-.34-.87-.59-1.75-.86-2.66l-22-.06a13 13 0 0 1 -12.95-14.3 104.65 104.65 0 0 0 21.76 5.96c1.67.31 11.19 1.55 12.33 1.68v-.1c0-.94.06-1.84.13-2.75l-26.86-12.27a13 13 0 0 1 -6.49-11.21 13.18 13.18 0 0 1 1.93-6.82 53.66 53.66 0 0 0 15.08 12.33c5.74 3.33 17.6 10.32 18.2 10.66.26-.64.55-1.29.88-1.94l-.26-.16-28.56-25a12.81 12.81 0 0 1 -5.18-10.38 13 13 0 0 1 6.27-11.09 43.59 43.59 0 0 0 8.45 13.44l38.14 39.77a4.24 4.24 0 0 1 1.08 2.92 4.69 4.69 0 0 1 -3.28 4.49 4.91 4.91 0 0 0 2.75.85 4.66 4.66 0 0 0 3.71-1.84 8.07 8.07 0 0 1 11.68-1.19 18.43 18.43 0 0 1 -.39-3.9 16.7 16.7 0 0 1 3.8-10.69 4 4 0 0 1 -2.39.72 4.64 4.64 0 0 1 -2.89-1 10.25 10.25 0 0 0 .56-4.3 10.65 10.65 0 0 0 -11.36-9.92 8.74 8.74 0 0 0 -1.73.31 5.66 5.66 0 0 1 -5.22-.46l-.26-.27.2-.32.26-.37.16-.16h.2c1.67 0 3.06-1.12 4.26-2.2a2.4 2.4 0 0 0 .72-1.77 2.08 2.08 0 0 0 -.65-1.61 2.21 2.21 0 0 0 -1.61-.65 2.12 2.12 0 0 0 -1.8 1l-.72-.17c-.47-1.85-2.4-3.55-4-3.55h-4.69a1 1 0 0 0 -.79.27 1 1 0 0 0 -.26.78v1.45h-1.61l-.13-.23a40.74 40.74 0 0 1 -2.85-5.57 2.89 2.89 0 0 1 .26-2.79 1.89 1.89 0 0 1 1.58-.88h11.24l1-1.64h.85v-2.46a5.85 5.85 0 0 1 -2.2-1.41 6.32 6.32 0 0 1 -1.87-4.5 6.24 6.24 0 0 1 6.26-6.22 6.12 6.12 0 0 1 3.81 1.28 1.8 1.8 0 0 0 1 .17 1.62 1.62 0 0 0 1-.17 6.3 6.3 0 0 1 3.8-1.28 6.39 6.39 0 0 1 6.26 6.22 6.32 6.32 0 0 1 -1.87 4.5 5.75 5.75 0 0 1 -2.26 1.45v2.42c13.48.18 14.62 13.44 24.62 13.44h.6c0 .24.06.45.06.68a5.28 5.28 0 0 1 -2.46 4.43 17.4 17.4 0 0 1 7.18 5.64v-53.36z" fill="#fddd04"/><circle cx="373.76" cy="250" fill="#ed1c24" r="1.88" stroke="#000" stroke-width=".84"/></svg>