<svg viewBox="0 0 822 500" xmlns="http://www.w3.org/2000/svg"><path d="m382.92 168.88 56.16-12.73-56.16-12.73"/><path d="m411.14 161.79 24.52-5.38-24 .12m0-.73 24 .12-24.52-5.35" fill="#fddd04"/><path d="m408.47 130.91a7.14 7.14 0 0 1 .09-2.19 7.65 7.65 0 0 1 1.43-2.89 8.9 8.9 0 0 0 1.76-3.61 8 8 0 0 0 -.3-3.72 8.38 8.38 0 0 1 -.06-4.79 10.38 10.38 0 0 1 4.15-5.38l.63-.35-.66-.3a7.43 7.43 0 0 0 -8.11 2.37 11.93 11.93 0 0 0 -1.88 4.78 12.15 12.15 0 0 1 -1.41 3.9 8.33 8.33 0 0 1 -2.5 2.13 16 16 0 0 0 -4.33 3.84l-18.28 31.44"/><path d="m404.41 156.16-12.73-56.16-12.68 56.16"/><path d="m397.32 127.94-5.38-24.53.12 24m-.73 0 .12-24-5.35 24.53" fill="#fddd04"/><path d="m407 131.86.84-.55a6 6 0 0 1 0-2.7 8.35 8.35 0 0 1 1.54-3.2 9.06 9.06 0 0 0 1.62-3.31 7.71 7.71 0 0 0 -.27-3.43 9 9 0 0 1 0-5.2 11.16 11.16 0 0 1 3.83-5.32 6.92 6.92 0 0 0 -6.59 2.38 11.25 11.25 0 0 0 -1.75 4.48 12.61 12.61 0 0 1 -1.51 4.13 9.37 9.37 0 0 1 -2.7 2.32 15.22 15.22 0 0 0 -4.48 4.19l.53 2.49" fill="#fddd04"/><path d="m421.39 150.18a7.58 7.58 0 0 1 1.61-1.49 7.74 7.74 0 0 1 3.06-1 9 9 0 0 0 3.8-1.31 8 8 0 0 0 2.42-2.84 8.37 8.37 0 0 1 3.34-3.43 10.38 10.38 0 0 1 6.74-.87l.69.2-.25-.68a7.46 7.46 0 0 0 -7.41-4.06 12.23 12.23 0 0 0 -4.72 2.05 12.4 12.4 0 0 1 -3.75 1.77 8.41 8.41 0 0 1 -3.27-.27 16.06 16.06 0 0 0 -5.78-.34l-35.19 9.27"/><path d="m400.67 165.16 30.71-48.71-48.71 30.71"/><path d="m415.61 140.19 13.54-21.14-16.89 17.06m-.52-.52 17.06-16.89-21.12 13.56" fill="#fddd04"/><path d="m419.66 149.79 1 .21c.17-.34.47-.77 1.93-1.89a8.34 8.34 0 0 1 3.35-1.18 9 9 0 0 0 3.52-1.17 7.85 7.85 0 0 0 2.24-2.61 8.91 8.91 0 0 1 3.63-3.72 11.13 11.13 0 0 1 6.48-1 6.93 6.93 0 0 0 -6.35-3 11.1 11.1 0 0 0 -4.4 1.93 12.7 12.7 0 0 1 -4 1.85 9.37 9.37 0 0 1 -3.55-.27 15 15 0 0 0 -6.13-.2l-1.38 2.11" fill="#fddd04"/><path d="m409.33 139.35a7.14 7.14 0 0 1 -2.19-.09 7.8 7.8 0 0 1 -2.89-1.43 8.92 8.92 0 0 0 -3.61-1.77 8.14 8.14 0 0 0 -3.72.3 8.29 8.29 0 0 1 -4.79.06 10.33 10.33 0 0 1 -5.38-4.15l-.35-.62-.3.65a7.45 7.45 0 0 0 2.37 8.12 12.23 12.23 0 0 0 4.78 1.88 12.39 12.39 0 0 1 3.9 1.4 8.37 8.37 0 0 1 2.13 2.51 16.17 16.17 0 0 0 3.84 4.32l31.44 18.34"/><path d="m434.58 143.4-56.16 12.73 56.16 12.73"/><path d="m406.36 150.5-24.53 5.37 24-.11m0 .72-24-.11 24.53 5.34" fill="#fddd04"/><path d="m410.28 140.85-.55-.85a5.87 5.87 0 0 1 -2.7 0 8.5 8.5 0 0 1 -3.2-1.54 9.06 9.06 0 0 0 -3.31-1.66 7.71 7.71 0 0 0 -3.43.26 8.91 8.91 0 0 1 -5.2.06 11.16 11.16 0 0 1 -5.32-3.84 6.94 6.94 0 0 0 2.38 6.6 11 11 0 0 0 4.48 1.74 12.84 12.84 0 0 1 4.13 1.51 9.42 9.42 0 0 1 2.32 2.71 15.08 15.08 0 0 0 4.19 4.47l2.49-.52" fill="#fddd04"/><path d="m428.6 126.42a7.05 7.05 0 0 1 -1.49-1.61 7.63 7.63 0 0 1 -1-3.06 8.86 8.86 0 0 0 -1.31-3.79 8 8 0 0 0 -2.84-2.42 8.34 8.34 0 0 1 -3.43-3.35 10.35 10.35 0 0 1 -.87-6.73l.2-.7-.68.26a7.44 7.44 0 0 0 -4.06 7.41 12.13 12.13 0 0 0 2.05 4.71 12.51 12.51 0 0 1 1.77 3.75 8.48 8.48 0 0 1 -.27 3.28 16 16 0 0 0 -.34 5.78l9.27 35.19"/><path d="m443.58 147.15-48.71-30.71 30.71 48.71"/><path d="m418.61 132.21-21.14-13.54 17.06 16.89m-.52.51-16.89-17 13.56 21.12" fill="#fddd04"/><path d="m428.21 128.16.21-1c-.34-.16-.77-.46-1.89-1.93a8.34 8.34 0 0 1 -1.18-3.35 9.06 9.06 0 0 0 -1.17-3.51 7.62 7.62 0 0 0 -2.61-2.24 8.94 8.94 0 0 1 -3.72-3.64 11.1 11.1 0 0 1 -1-6.47 6.92 6.92 0 0 0 -3 6.35 11.16 11.16 0 0 0 1.93 4.4 12.66 12.66 0 0 1 1.85 4 9.41 9.41 0 0 1 -.27 3.56 15.06 15.06 0 0 0 -.21 6.12l2.14 1.4" fill="#fddd04"/><path d="m420.37 126.42a6.88 6.88 0 0 1 -1.48-1.61 7.63 7.63 0 0 1 -1-3.06 8.85 8.85 0 0 0 -1.3-3.79 8.06 8.06 0 0 0 -2.84-2.42 8.28 8.28 0 0 1 -3.43-3.35 10.28 10.28 0 0 1 -.87-6.73l.19-.7-.67.26a7.43 7.43 0 0 0 -4.07 7.41 12 12 0 0 0 2.06 4.71 12.23 12.23 0 0 1 1.76 3.75 8.47 8.47 0 0 1 -.26 3.28 16 16 0 0 0 -.35 5.78l9.27 35.19"/><path d="m435.35 147.15-48.7-30.71 30.7 48.71"/><path d="m410.39 132.21-21.15-13.54 17.06 16.89m-.51.51-16.89-17.07 13.56 21.12" fill="#fddd04"/><path d="m420 128.16.21-1c-.34-.16-.76-.46-1.89-1.93a8.19 8.19 0 0 1 -1.17-3.35 9.4 9.4 0 0 0 -1.17-3.51 7.72 7.72 0 0 0 -2.61-2.24 8.94 8.94 0 0 1 -3.72-3.64 11.2 11.2 0 0 1 -1.05-6.47 6.92 6.92 0 0 0 -3 6.35 11.31 11.31 0 0 0 1.93 4.4 12.44 12.44 0 0 1 1.85 4 9.4 9.4 0 0 1 -.26 3.56 14.89 14.89 0 0 0 -.21 6.12l2.14 1.4" fill="#fddd04"/><path d="m407.34 387.73s.2.22.2.35v11.28a1.18 1.18 0 0 1 -.2.38h7.29v-1.43s-.25.2-.38.2h-5.25a.81.81 0 0 1 -.26-.11v-4.1h4c.13 0 .38.23.38.23v-1.6a1.35 1.35 0 0 1 -.38.18h-4v-4.18h5.55a1.07 1.07 0 0 1 .38.2v-1.4z"/><path d="m410.68 387.41a2.75 2.75 0 0 0 -2.84 2.71 3.18 3.18 0 0 0 2.17 2.93c.94.45 2.79 1 2.79 3a2.6 2.6 0 0 1 -2.73 2.64 2.85 2.85 0 0 1 -2.24-.93v2.14a1.14 1.14 0 0 1 .5-.16c.23 0 1.1.23 1.68.23 1 0 4.16-.46 4.16-3.9 0-1.93-.94-2.93-2.59-3.84s-2.38-1-2.38-2.14a1.62 1.62 0 0 1 1.74-1.54 1.94 1.94 0 0 1 1.8.73v-1.84a.82.82 0 0 1 -.4.18c-.19.03-1.1-.21-1.66-.21z"/><circle cx="411" cy="156.14" fill="#fddd04" r="28.36" stroke="#000" stroke-width=".74"/><path d="m320.94 276.27a90.06 90.06 0 1 0 180.12 0v-113.21h-180.12z"/><path d="m367.35 165.4v198.6a87.89 87.89 0 0 0 87.3-87.78v-110.83z" fill="#ed1c24"/><path d="m410.45 134.11c-5.17 0-5.43 3.51-4.24 4.82l-6.21-1.34-2 3.17h11c-2.72-1.34-1.3-3.43 1.42-3.43s4.17 2.09 1.45 3.43h10.87l-1.88-3.17-6.2 1.34c1.18-1.31.95-4.82-4.21-4.82zm-18.13 8.77 1.19 1.31v13.51l-1.19 1.3h5.68l-1.16-1.31v-13.5l1.16-1.31zm8.8 0 1.19 1.31v13.51l-1.19 1.3h5.73l-1.23-1.31v-5.11h6.19v5.11l-1.16 1.31h5.72l-1.19-1.31v-13.5l1.19-1.31h-5.72l1.16 1.31v5h-6.19v-5l1.23-1.31zm17.26 0 4.62 8.12-4.57 8h10.47l1.89-3.37h-6.57l2.78-4.63-2.74-4.62h5.26l-2-3.43zm-76.54 244.12a6.42 6.42 0 1 0 6.42 6.41 6.38 6.38 0 0 0 -6.42-6.41zm100.75.29-5.17 12a2.18 2.18 0 0 1 -.26.37h1.65s-.17-.21-.12-.37l1.19-2.76h5.47l1.16 2.76c.06.16-.12.37-.12.37h1.61a2 2 0 0 1 -.27-.37zm-48.1.05v12a1.18 1.18 0 0 1 -.2.38h1.6a1.18 1.18 0 0 1 -.2-.38v-8.58l7.31 9.24v-11.88a1 1 0 0 1 .2-.39h-1.6s.21.26.21.39v8.5zm-64.39.07a9.06 9.06 0 0 0 -2.24.28 1.31 1.31 0 0 1 -.46.06 1.35 1.35 0 0 1 -.32-.06 2.55 2.55 0 0 1 -.38-.17v11.8a1.18 1.18 0 0 1 -.2.38h1.6s-.21-.27-.21-.38v-4.45a4.29 4.29 0 0 0 2.21.58 4 4 0 0 0 0-8zm89.7 0a9.71 9.71 0 0 0 -2.24.28 1.26 1.26 0 0 1 -.46.06 1.64 1.64 0 0 1 -.32-.06 2.84 2.84 0 0 1 -.37-.17v11.8a1.18 1.18 0 0 1 -.2.38h4.88a3.66 3.66 0 0 0 3.6-3.64 3 3 0 0 0 -1.77-3.07 2.12 2.12 0 0 0 .93-1.78c0-2.21-1.46-3.76-4.05-3.76zm10.9 0a8.85 8.85 0 0 0 -2.2.28 1.67 1.67 0 0 1 -.47.06 1.78 1.78 0 0 1 -.35-.06 3.16 3.16 0 0 1 -.38-.17v11.8a1.18 1.18 0 0 1 -.2.38h1.62s-.22-.27-.22-.38v-10.32a5.62 5.62 0 0 1 2.2-.35 2.63 2.63 0 0 1 2.82 2.79c0 1.33-1.17 2.12-2.82 2.12h-.55v1.11c3.36 0 4.19 3.37 4.19 4.65v.37h1.66a3.13 3.13 0 0 1 -.35-.67 5.9 5.9 0 0 0 -2.82-4.76 2.83 2.83 0 0 0 1.89-2.82 3.73 3.73 0 0 0 -4.02-3.99zm-74.33.16v1.43a1.61 1.61 0 0 1 .35-.21h3v10.56a1.18 1.18 0 0 1 -.2.38h1.59a1.3 1.3 0 0 1 -.2-.38v-10.55h3.11a1.61 1.61 0 0 1 .35.21v-1.4zm17.29 0v1.43a1.61 1.61 0 0 1 .35-.21h3.05v10.56a1.18 1.18 0 0 1 -.2.38h1.59a1.3 1.3 0 0 1 -.2-.38v-10.55h3.14a1.61 1.61 0 0 1 .35.21v-1.4zm102.19.1s.21.25.21.37v7.76a4.16 4.16 0 1 0 8.31 0v-7.76c0-.12.21-.37.21-.37h-1.58s.2.25.2.37v7.76a3 3 0 1 1 -5.93 0v-7.76c0-.12.23-.37.23-.37zm11 0s.23.26.3.37l3.1 5.21-3.6 6a1.74 1.74 0 0 1 -.32.37h1.77s-.2-.22-.12-.37l3-5 2.94 5c.08.15-.12.37-.12.37h1.77a1.48 1.48 0 0 1 -.32-.37l-3.57-6 3.05-5.21a4.76 4.76 0 0 1 .35-.37h-1.78s.19.24.12.37l-2.44 4.16-2.47-4.16c-.08-.13.12-.37.12-.37zm-19.64 0a1 1 0 0 1 .2.39v11.21c0 .12-.2.37-.2.37h7.38v-1.39a1.07 1.07 0 0 1 -.38.2h-5.58v-10.33c0-.13.21-.39.21-.39zm-125.33.55a5.18 5.18 0 1 1 -5.17 5.17 5.19 5.19 0 0 1 5.13-5.11zm-11.74.38a2.81 2.81 0 0 1 0 5.61 3.13 3.13 0 0 1 -2.21-.84v-4.37a5.7 5.7 0 0 1 2.17-.34zm89.7 0c1.88 0 2.82 1 2.82 2.59a1.79 1.79 0 0 1 -1.74 1.48c-.77 0-.88 0-1.51 0v1.09h1.86c1.91 0 2.21 1.12 2.21 2.27a2.76 2.76 0 0 1 -2.85 2.56h-3v-9.59a5.65 5.65 0 0 1 2.17-.34zm22.78 1.6 2.27 5.23h-4.51z"/><path d="m418.08 179a4.59 4.59 0 0 0 -3.37 1.43 4.68 4.68 0 0 0 -1.48 3.4 4.83 4.83 0 0 0 1.48 3.43 4.74 4.74 0 0 0 3.37 1.42h8.52a4.83 4.83 0 0 0 3.43-8.25 4.82 4.82 0 0 0 -3.43-1.43 5 5 0 0 0 -3 1 2.13 2.13 0 0 1 -1.32.26 2.34 2.34 0 0 1 -1.28-.26 4.93 4.93 0 0 0 -2.92-1zm0 1.86a2.9 2.9 0 0 1 2.91 2.88v2.88h-2.91a2.79 2.79 0 0 1 -2-.85 2.88 2.88 0 0 1 -.81-2 2.83 2.83 0 0 1 2.81-2.91zm8.52 0a2.69 2.69 0 0 1 2 .84 2.86 2.86 0 0 1 0 4.07 2.77 2.77 0 0 1 -2 .85h-2.91v-2.88a2.91 2.91 0 0 1 2.91-2.88zm-9.68 8.37v2h10.87v-2a5 5 0 0 1 -1.19.12h-8.52a3.66 3.66 0 0 1 -1.16-.12zm-12.38 4.16a1 1 0 0 0 -.81.46 2 2 0 0 0 -.18 1.86 49 49 0 0 0 2.36 4.62h.35v-.55a1.57 1.57 0 0 1 1.65-1.69h4.16c1.53 0 3.3 1.44 4 3.15a2.7 2.7 0 0 1 1.77-.7 2.82 2.82 0 0 1 2.79 2.75 3 3 0 0 1 -1 2.1 7.47 7.47 0 0 1 -3.78 2.09 4.69 4.69 0 0 0 3.55 0 5.67 5.67 0 0 0 1.77-1.45 5.55 5.55 0 0 0 .82-1.31 5.88 5.88 0 0 0 -.09-4.91 5.22 5.22 0 0 0 -1.54-1.95c-1.72-1.42-6.34-4.44-6.34-4.44zm-2.29 9.68a3.32 3.32 0 0 0 .72 2.61 6.19 6.19 0 0 0 4.42 1.86 10.37 10.37 0 0 0 5.26-1.78 6.59 6.59 0 0 1 .73-.4c2.54-1.41 3.82-1.18 4.47-1l.06-.18a6 6 0 0 0 -3.14-.84 6.6 6.6 0 0 0 -2.64.67 11.4 11.4 0 0 1 -4.45 1 8.06 8.06 0 0 1 -5.43-2zm22.49 89a2.17 2.17 0 0 0 -.55.4c-.54.69-10.43 12.43-10.9 12.94l-.18.26-.29-.2a8.61 8.61 0 0 1 -1.54-1.37c-1.83-1.91-4.76-5.08-6.59-6.16a2.55 2.55 0 0 0 -3 .5 2.38 2.38 0 0 0 2.53 3.85l.18-.08.2.15 2.82 2.56 1 .81-1.31-.21c-2.25-.26-10.64-.19-10.7-.19a2.41 2.41 0 0 0 -2.45 1.76 2.69 2.69 0 0 0 .27 1.78 2.35 2.35 0 0 0 1.45 1.11 2.13 2.13 0 0 0 1.77-.25 2.39 2.39 0 0 0 1.14-1.42l.05-.29h.29a18.67 18.67 0 0 1 5.76 1.11l.75.31-.75.36-6.51 2.67a2.39 2.39 0 0 0 -2.12 2.67 2.36 2.36 0 1 0 4.71-.41v-.26l.23-.08.26-.12a30 30 0 0 1 9.15-2.56c2.28-.22 4.57-.29 6.86-.29a1.79 1.79 0 0 1 1.28.41 1.42 1.42 0 0 1 .38 1c0 .62-.18 2.12-.18 2.17v.12l-.14.11a2.16 2.16 0 0 0 -.76 1.63 2.2 2.2 0 0 0 .58 1.69c.06.06 1.61 1.48 3.08.38 1.24-.9 1.08-2 1-3.16v-.56c.06-3.85-1.55-6.69-4.39-7.47l-.52-.14.35-.41 9.84-12.19a4.16 4.16 0 0 0 .17-.53 14.73 14.73 0 0 1 -3.22-2.32zm-23.13 4.51a4 4 0 0 0 -3 1.06 4.1 4.1 0 0 0 -1.13 4.25h.06a2.07 2.07 0 0 1 .73-1.34 2.18 2.18 0 0 1 1.94-.52.34.34 0 0 1 .12.08 3.32 3.32 0 0 1 .84-2.18 3.37 3.37 0 0 1 1.89-.93l-.9-.35a3.79 3.79 0 0 0 -.58-.05zm-10.81 11.32a4.06 4.06 0 0 0 .93 4.28l.06-.05a2.12 2.12 0 0 1 0-1.49 2.2 2.2 0 0 1 1.48-1.37h.35a2.88 2.88 0 0 1 -.29-2.32 3.48 3.48 0 0 1 1.3-1.77 4.17 4.17 0 0 0 -3.83 2.72zm5 5.58a4.24 4.24 0 0 0 -1.8 4.13 4.17 4.17 0 0 0 2.91 3.28l.06-.08a2.37 2.37 0 0 1 -.7-1.34 2.05 2.05 0 0 1 .58-1.83 3 3 0 0 1 -1.09-4.16zm22.11 5.59a2.33 2.33 0 0 1 -3.22 1.33l-.11.09a4.67 4.67 0 0 0 4.68 1.43 4.51 4.51 0 0 0 2.91-2.48 3.06 3.06 0 0 1 -4.3-.37z" fill="#ed1c24"/><path d="m410.68 387.41a2.75 2.75 0 0 0 -2.84 2.71 3.18 3.18 0 0 0 2.17 2.93c.94.45 2.79 1 2.79 3a2.6 2.6 0 0 1 -2.73 2.64 2.85 2.85 0 0 1 -2.24-.93v2.14a1.14 1.14 0 0 1 .5-.16c.23 0 1.1.23 1.68.23 1 0 4.16-.46 4.16-3.9 0-1.93-.94-2.93-2.59-3.84s-2.38-1-2.38-2.14a1.62 1.62 0 0 1 1.74-1.54 1.94 1.94 0 0 1 1.8.73v-1.84a.82.82 0 0 1 -.4.18c-.19.03-1.1-.21-1.66-.21z"/><path d="m407.34 387.73s.2.22.2.35v11.28a1.18 1.18 0 0 1 -.2.38h7.29v-1.43s-.25.2-.38.2h-5.25a.81.81 0 0 1 -.26-.11v-4.1h4c.13 0 .38.23.38.23v-1.6a1.35 1.35 0 0 1 -.38.18h-4v-4.18h5.55a1.07 1.07 0 0 1 .38.2v-1.4z"/><path d="m416.78 275.3v-89.3a5.78 5.78 0 1 0 -11.56 0v89.3"/><path d="m419.14 302.5a27.93 27.93 0 0 0 -19 20.31h8.09a20.28 20.28 0 0 1 11.93-12.4v1.95a3.59 3.59 0 0 0 3.61 3.6h.89a3.64 3.64 0 0 0 3.61-3.6v-2.91a6.7 6.7 0 0 0 0-13.39v-2.89a3.6 3.6 0 0 0 -3.61-3.65h-.89a3.62 3.62 0 0 0 -3.61 3.65v1.46"/><path d="m407 322.15a21.22 21.22 0 0 1 13.22-13.28v-5.14a26.45 26.45 0 0 0 -18.36 18.42zm17.72-7.62a2.13 2.13 0 0 0 2.12-2.17v-19.19a2.14 2.14 0 0 0 -2.12-2.17h-.89a2.12 2.12 0 0 0 -2.18 2.17v19.19a2.21 2.21 0 0 0 2.18 2.17zm3.61-6.53a5.22 5.22 0 0 0 4.91-5.26 5.32 5.32 0 0 0 -4.91-5.26z" fill="#fddd04"/><path d="m400.33 284.21a27.89 27.89 0 0 0 20.31 19v-8.11a20.29 20.29 0 0 1 -12.41-11.93h2a3.59 3.59 0 0 0 3.6-3.6v-.9a3.64 3.64 0 0 0 -3.6-3.61h-2.91a6.7 6.7 0 0 0 -13.39 0h-2.93a3.6 3.6 0 0 0 -3.65 3.61v.9a3.61 3.61 0 0 0 3.65 3.6h1.46"/><path d="m420 296.4a21.26 21.26 0 0 1 -13.28-13.23h-5.14a26.44 26.44 0 0 0 18.42 18.37zm-7.62-17.73a2.14 2.14 0 0 0 -2.17-2.12h-19.21a2.14 2.14 0 0 0 -2.17 2.12v.9a2.11 2.11 0 0 0 2.17 2.18h19.19a2.22 2.22 0 0 0 2.17-2.18zm-6.53-3.61a5.22 5.22 0 0 0 -5.26-4.91 5.32 5.32 0 0 0 -5.26 4.91z" fill="#fddd04"/><path d="m402.28 192.08v13.6h-4.47v15.32h4.47v13.63h8.17v-3.63h5.49v3.63h8.25v-8.84h-4.19v-4.89h4.18v-15.08h-4.18v-4.91h4.18v-8.83h-8.25v3.6h-5.49v-3.6zm8.17 8.95h5.49v9.88h3.78v4.91h-3.78v9.85h-5.49v-9.85h-3.93v-4.91h3.93z" fill="#fddd04" stroke="#000" stroke-width="1.39"/><path d="m402.86 303a27.93 27.93 0 0 0 19-20.31h-8.09a20.32 20.32 0 0 1 -11.93 12.41v-2a3.59 3.59 0 0 0 -3.61-3.59h-.89a3.63 3.63 0 0 0 -3.61 3.59v2.91a6.71 6.71 0 0 0 0 13.4v2.88a3.6 3.6 0 0 0 3.61 3.65h.89a3.62 3.62 0 0 0 3.61-3.65v-1.39"/><path d="m415 283.38a21.22 21.22 0 0 1 -13.22 13.28v5.14a26.45 26.45 0 0 0 18.36-18.42zm-17.68 7.62a2.13 2.13 0 0 0 -2.12 2.17v19.19a2.14 2.14 0 0 0 2.12 2.17h.89a2.11 2.11 0 0 0 2.18-2.17v-19.19a2.21 2.21 0 0 0 -2.18-2.17zm-3.61 6.54a5.21 5.21 0 0 0 -4.91 5.25 5.31 5.31 0 0 0 4.91 5.26z" fill="#fddd04"/><path d="m421.67 321.32a27.91 27.91 0 0 0 -20.31-19v8.09a20.29 20.29 0 0 1 12.41 11.93h-2a3.59 3.59 0 0 0 -3.6 3.61v.89a3.64 3.64 0 0 0 3.6 3.61h2.91a6.7 6.7 0 0 0 13.39 0h2.93a3.6 3.6 0 0 0 3.65-3.61v-.84a3.62 3.62 0 0 0 -3.65-3.61h-1.46"/><path d="m402 309.14a21.22 21.22 0 0 1 13.28 13.22h5.14a26.46 26.46 0 0 0 -18.42-18.36zm7.62 17.72a2.13 2.13 0 0 0 2.17 2.12h19.21a2.14 2.14 0 0 0 2.17-2.12v-.86a2.11 2.11 0 0 0 -2.17-2.19h-19.19a2.22 2.22 0 0 0 -2.17 2.19zm6.53 3.61a5.22 5.22 0 0 0 5.26 4.91 5.32 5.32 0 0 0 5.26-4.91z" fill="#fddd04"/><path d="m380.31 201.55a7.58 7.58 0 0 0 5.9 2.82 10.67 10.67 0 0 0 4.16-1 7.29 7.29 0 0 1 2.93-.75 6.68 6.68 0 0 1 3.93 1.19l.23.2-.79 1.19-.29-.09h-.05c-.54-.17-1.53-.53-4.07.85-.24.12-.49.26-.73.41a11.21 11.21 0 0 1 -5.61 1.89 6.85 6.85 0 0 1 -5-2.15 4.94 4.94 0 0 1 -.58-4.57zm16.42-8v1.57h2.21a2.29 2.29 0 0 0 2.3 2.32 2.32 2.32 0 0 0 2.29-2.32h2.18v-1.57zm74.77-11.88a4.36 4.36 0 0 0 -4.36 4.36v89.08h8.72v-89.11a4.33 4.33 0 0 0 -4.36-4.35zm-66.37-.06a2.14 2.14 0 0 0 -2.18 2.19v2.11h2.18a2.11 2.11 0 0 0 2.12-2.11 2.14 2.14 0 0 0 -2.12-2.21zm-8.51 0a2.15 2.15 0 0 0 0 4.3h2.18v-2.11a2.16 2.16 0 0 0 -2.18-2.21zm-50.48-16.22v110.87a87.81 87.81 0 0 0 87.47 87.74v-15.32a25.28 25.28 0 0 1 -7.44-13.42 7.27 7.27 0 0 1 -3.55.95 7.08 7.08 0 0 1 -2.9-.63c4.37-6.27 7.15-10.43 7.15-17.35a18.83 18.83 0 0 0 -.93-5.17c-.89 8.59-8.47 13.48-9.77 16.76a16.91 16.91 0 0 0 -1 7.82 12.56 12.56 0 0 1 -7.09-11.27 12.38 12.38 0 0 1 3.06-8.17c3.25-3.79 6.62-6.45 8.39-8.52-3.48.07-7.37 2.52-9.79 5.12a10.48 10.48 0 0 1 -.17-1.95 13.6 13.6 0 0 1 4.94-10.08c8.15-7.31 8.52-14.1 7.75-20.93-5.61 2.18-9.36 8-9.64 14.33a15 15 0 0 1 -5.47-1.39 2.35 2.35 0 0 1 -.26.57l-9.5 11.91c2.07.75 4.36 2.69 4.36 7.67a9.84 9.84 0 0 0 .06 1.19 6.07 6.07 0 0 1 -.7 3.93 5.18 5.18 0 0 1 -3.2 2.53 5.34 5.34 0 0 1 -5.61-1.92l-.17-.24.87-1 .23.14a1.84 1.84 0 0 0 1.43.21 1.59 1.59 0 0 0 1.19-1.54 3.59 3.59 0 0 1 -.23-1.37 3.43 3.43 0 0 1 .93-2.07 17.31 17.31 0 0 0 .17-1.94.68.68 0 0 0 -.17-.52 1.15 1.15 0 0 0 -.76-.21c-1 0-3.19 0-6.8.32a30.86 30.86 0 0 0 -8.92 2.5h-.06a3.22 3.22 0 0 1 -2.84 3.08 3.56 3.56 0 0 1 -1.25-.17 1.46 1.46 0 0 0 -.53 1.45 1.5 1.5 0 0 0 .64 1l.26.15-.49 1.08-.29-.06a4.79 4.79 0 0 1 -3.66-3.89 5 5 0 0 1 .84-3.55 5.46 5.46 0 0 1 3-2 8.88 8.88 0 0 1 .9-.29l5.5-2.3a21.9 21.9 0 0 0 -4.39-.76 2.83 2.83 0 0 1 -1.34 1.6 3.08 3.08 0 0 1 -2.38.32 3.5 3.5 0 0 1 -1.43-.87 1.44 1.44 0 0 0 -1.56 1 1.46 1.46 0 0 0 .05 1.21l.12.27-1 .73-.17-.18a4.77 4.77 0 0 1 -1.37-5.17 5.31 5.31 0 0 1 2.5-2.7 5.8 5.8 0 0 1 3.37-.36 1.85 1.85 0 0 1 .47 0c.35 0 6.6 0 9.67.12l-1.89-1.71a3 3 0 0 1 -2.93-.73 3.48 3.48 0 0 1 -.84-1.48 1.42 1.42 0 0 0 -1.72.18 1.45 1.45 0 0 0 -.52 1.13v.32l-1.19.17-.06-.26a4.72 4.72 0 0 1 1.19-5.18 4.87 4.87 0 0 1 3.53-1.09 5.26 5.26 0 0 1 3.19 1.34c.06 0 .12 0 .12.05 2 1.11 4.91 4.21 6.8 6.28a11.69 11.69 0 0 0 1.22 1.11c1.47-1.78 10.16-12.11 10.64-12.78a2.21 2.21 0 0 1 .58-.49 14.88 14.88 0 0 1 -3-4.59c-.23 0-.51.06-.81.06a7.22 7.22 0 0 1 -5-2c6.92-2.54 8.52-6.26 12-10.92a26.07 26.07 0 0 1 11.68-8.49l-4.09-11.57a23.27 23.27 0 0 1 -9.65 3.37l.38 8.83a7.24 7.24 0 0 1 -8.28 7.15c1.3-7.84 1.94-14.84 2.06-16a24.91 24.91 0 0 1 -3.14-.62l-7.79 26.68a11.5 11.5 0 0 1 -11.11 8.35 11.38 11.38 0 0 1 -5.84-1.58c5.91-5.87 9.46-14 12.06-19.52l7.38-16a18.8 18.8 0 0 1 -1.77-1.09l-16.94 18.94a11.56 11.56 0 0 1 -17.64.08 47 47 0 0 0 10.11-6.24c2.36-1.82 19.82-17 19.82-17a8.29 8.29 0 0 1 -1.13-1.42l-19 8.08a11.3 11.3 0 0 1 -4.12.78 11.49 11.49 0 0 1 -11.13-8.79c2.6.39 9.4-1 12.06-1.45s18.73-4.27 19.15-4.36c-.3-.77-.52-1.54-.76-2.35l-19.5-.06a11.51 11.51 0 0 1 -11.48-12.67 93.48 93.48 0 0 0 19.27 5.4c1.48.27 9.92 1.37 10.93 1.49v-.09c0-.83 0-1.63.11-2.44l-23.8-10.87a11.51 11.51 0 0 1 -5.75-9.94 11.74 11.74 0 0 1 1.71-6.05 47.49 47.49 0 0 0 13.37 10.93c5.08 3 15.6 9.15 16.13 9.45.23-.57.49-1.15.78-1.72l-.23-.14-25.31-22.13a11.33 11.33 0 0 1 -4.59-9.2 11.46 11.46 0 0 1 5.55-9.82 38.55 38.55 0 0 0 7.5 11.91l33.79 35.25a3.72 3.72 0 0 1 1 2.58 4.15 4.15 0 0 1 -2.91 4 4.38 4.38 0 0 0 2.45.76 4.15 4.15 0 0 0 3.28-1.63 7.13 7.13 0 0 1 10.34-1 17 17 0 0 1 -.34-3.46 14.82 14.82 0 0 1 3.37-9.48 3.58 3.58 0 0 1 -2.13.64 4.08 4.08 0 0 1 -2.55-.9 9.11 9.11 0 0 0 .49-3.81 9.43 9.43 0 0 0 -10.05-8.81 8.29 8.29 0 0 0 -1.54.27 5 5 0 0 1 -4.62-.41l-.24-.23.18-.29.23-.32.15-.14h.16a6 6 0 0 0 3.78-1.95 2.18 2.18 0 0 0 .64-1.58 1.86 1.86 0 0 0 -.58-1.42 2 2 0 0 0 -1.43-.57 1.89 1.89 0 0 0 -1.6.84l-.63-.15a4.32 4.32 0 0 0 -3.55-3.14h-4.16a.93.93 0 0 0 -.69.23.9.9 0 0 0 -.24.7v1.28h-1.42l-.12-.2a35.6 35.6 0 0 1 -2.52-4.94 2.54 2.54 0 0 1 .23-2.47 1.65 1.65 0 0 1 1.39-.78h10l.87-1.45h.76v-2.31a5.18 5.18 0 0 1 -1.95-1.25 5.65 5.65 0 0 1 -1.66-4 5.52 5.52 0 0 1 5.56-5.5 5.39 5.39 0 0 1 3.37 1.13 1.65 1.65 0 0 0 .9.15 1.44 1.44 0 0 0 .87-.15 5.56 5.56 0 0 1 3.37-1.13 5.66 5.66 0 0 1 5.55 5.5 5.6 5.6 0 0 1 -1.66 4 5 5 0 0 1 -2 1.28v2.15c12 .15 13 11.91 21.82 11.91h.53c0 .21.05.4.05.6a4.69 4.69 0 0 1 -2.18 3.93 15.42 15.42 0 0 1 6.37 5v-47.23z" fill="#fddd04"/><circle cx="411" cy="176.3" fill="#ed1c24" r="1.66" stroke="#000" stroke-width=".74"/></svg>