<svg id="Layer_1" data-name="Layer 1" xmlns="http://www.w3.org/2000/svg" viewBox="0 0 500 822"><defs><style>.cls-1,.cls-2,.cls-4{fill:#fddd04;}.cls-2,.cls-4,.cls-5{stroke:#000;}.cls-2,.cls-5{stroke-width:0.83px;}.cls-3,.cls-5{fill:#ed1c24;}.cls-4{stroke-width:1.55px;}</style></defs><title>PTL 1</title><g id="i"><path d="M250.12,224.86l62.35-14.13L250.12,196.6"/><path class="cls-1" d="M281.45,217l27.23-6-26.65.13m0-.81,26.65.13-27.23-5.93"/></g><g id="j"><g id="h"><path d="M268.78,130a8.16,8.16,0,0,1,.1-2.43,8.6,8.6,0,0,1,1.59-3.21,9.91,9.91,0,0,0,2-4,8.94,8.94,0,0,0-.33-4.13,9.2,9.2,0,0,1-.07-5.31,11.46,11.46,0,0,1,4.61-6l.69-.39-.73-.33c-2.88-1.18-6.75-.06-9,2.63a13.37,13.37,0,0,0-2.08,5.31,13.67,13.67,0,0,1-1.56,4.33,9.54,9.54,0,0,1-2.78,2.37,17.73,17.73,0,0,0-4.81,4.26L236,158.05"/><path d="M264.28,158.06,250.15,95.71,236,158.06"/><path class="cls-1" d="M256.4,126.73l-6-27.23.13,26.65m-.81,0,.13-26.65L244,126.73"/><path class="cls-1" d="M267.12,131.09l.93-.61a6.71,6.71,0,0,1,0-3,9,9,0,0,1,1.71-3.55,10.1,10.1,0,0,0,1.83-3.68,8.52,8.52,0,0,0-.29-3.81,10,10,0,0,1-.06-5.77,12.32,12.32,0,0,1,4.26-5.91,7.7,7.7,0,0,0-7.33,2.65c-1.06,1.25-1.47,3.13-1.93,5A14.1,14.1,0,0,1,264.6,117a10.46,10.46,0,0,1-3,2.58,16.66,16.66,0,0,0-5,4.65l.58,2.77"/></g><path d="M283.13,151.42a8.17,8.17,0,0,1,1.79-1.64,8.39,8.39,0,0,1,3.4-1.15,9.82,9.82,0,0,0,4.21-1.45,9,9,0,0,0,2.69-3.16,9.24,9.24,0,0,1,3.71-3.8,11.47,11.47,0,0,1,7.48-1l.77.22-.28-.75c-1.2-2.87-4.73-4.83-8.23-4.52a13.53,13.53,0,0,0-5.23,2.28,13.62,13.62,0,0,1-4.17,2,9.31,9.31,0,0,1-3.63-.3,17.81,17.81,0,0,0-6.42-.38l-39.07,10.29"/><path d="M260.12,168.06,294.22,114l-54.08,34.09"/><path class="cls-1" d="M276.71,140.34l15-23.48L273,135.8m-.57-.57,18.94-18.75-23.46,15"/><path class="cls-1" d="M281.2,151l1.1.23c.18-.37.52-.84,2.14-2.1a9.45,9.45,0,0,1,3.72-1.3,10.06,10.06,0,0,0,3.9-1.3,8.45,8.45,0,0,0,2.49-2.89,9.92,9.92,0,0,1,4-4.13,12.42,12.42,0,0,1,7.19-1.17,7.73,7.73,0,0,0-7-3.31c-1.64.14-3.26,1.18-4.89,2.15a13.87,13.87,0,0,1-4.42,2.05,10.45,10.45,0,0,1-3.95-.29,16.54,16.54,0,0,0-6.8-.23l-1.55,2.37"/></g><path d="M222.12,187.26a7.8,7.8,0,0,1-2.43-.1,8.48,8.48,0,0,1-3.22-1.59,9.87,9.87,0,0,0-4-2,8.91,8.91,0,0,0-4.13.34A9.24,9.24,0,0,1,203,184a11.47,11.47,0,0,1-6-4.6l-.39-.7-.33.73c-1.18,2.88-.07,6.76,2.62,9a13.64,13.64,0,0,0,5.32,2.09,13.76,13.76,0,0,1,4.33,1.55,9.43,9.43,0,0,1,2.36,2.79,18,18,0,0,0,4.27,4.8L250.13,220"/><path d="M250.15,191.77,187.8,205.9,250.15,220"/><path class="cls-1" d="M218.82,199.64l-27.23,6,26.65-.13m0,.8-26.65-.12,27.23,5.93"/><path class="cls-1" d="M223.18,188.93l-.62-.94a6.76,6.76,0,0,1-3,0,9.44,9.44,0,0,1-3.55-1.71,10.23,10.23,0,0,0-3.67-1.84,8.52,8.52,0,0,0-3.81.29,10,10,0,0,1-5.78.07,12.46,12.46,0,0,1-5.9-4.26,7.69,7.69,0,0,0,2.65,7.32c1.24,1.06,3.13,1.47,5,1.94a13.92,13.92,0,0,1,4.59,1.67,10.59,10.59,0,0,1,2.58,3,16.62,16.62,0,0,0,4.64,5l2.78-.58"/><path d="M243.51,172.91a7.84,7.84,0,0,1-1.65-1.79,8.65,8.65,0,0,1-1.15-3.39,9.93,9.93,0,0,0-1.44-4.22,9.05,9.05,0,0,0-3.16-2.69,9.18,9.18,0,0,1-3.8-3.71,11.47,11.47,0,0,1-1-7.48l.21-.77-.75.29c-2.87,1.2-4.82,4.73-4.51,8.22a13.49,13.49,0,0,0,2.28,5.24,13.53,13.53,0,0,1,2,4.16,9.36,9.36,0,0,1-.29,3.64,18,18,0,0,0-.39,6.41l10.3,39.08"/><path d="M260.15,195.92l-54.09-34.1,34.1,54.09"/><path class="cls-1" d="M232.43,179.33,209,164.3l18.94,18.75m-.57.57-18.76-18.93,15.06,23.45"/><path class="cls-1" d="M243.08,174.84l.23-1.1c-.37-.18-.85-.51-2.1-2.14a9.19,9.19,0,0,1-1.3-3.72,10.06,10.06,0,0,0-1.3-3.9,8.59,8.59,0,0,0-2.9-2.49,10,10,0,0,1-4.13-4,12.45,12.45,0,0,1-1.16-7.18,7.68,7.68,0,0,0-3.31,7c.13,1.63,1.17,3.25,2.15,4.88a14,14,0,0,1,2.05,4.43,10.21,10.21,0,0,1-.3,3.94,16.89,16.89,0,0,0-.23,6.8l2.38,1.55"/><path d="M243.51,148.69a7.68,7.68,0,0,1-1.65-1.78,8.76,8.76,0,0,1-1.15-3.4,9.93,9.93,0,0,0-1.44-4.21,9,9,0,0,0-3.16-2.69,9.24,9.24,0,0,1-3.8-3.71,11.47,11.47,0,0,1-1-7.48l.21-.77-.75.28c-2.87,1.2-4.82,4.73-4.51,8.23a13.39,13.39,0,0,0,2.28,5.23,13.63,13.63,0,0,1,2,4.16,9.35,9.35,0,0,1-.29,3.64,18,18,0,0,0-.39,6.42l10.3,39.07"/><path d="M260.15,171.7l-54.09-34.09,34.1,54.08"/><path class="cls-1" d="M232.43,155.12l-23.48-15,18.94,18.76m-.57.57-18.76-18.94,15.06,23.45"/><path class="cls-1" d="M243.08,150.62l.23-1.09c-.37-.19-.85-.52-2.1-2.15a9.19,9.19,0,0,1-1.3-3.72,10.06,10.06,0,0,0-1.3-3.9,8.56,8.56,0,0,0-2.9-2.48,10.1,10.1,0,0,1-4.13-4,12.49,12.49,0,0,1-1.16-7.19,7.69,7.69,0,0,0-3.31,7c.13,1.63,1.17,3.26,2.15,4.88a14.14,14.14,0,0,1,2.05,4.43,10.26,10.26,0,0,1-.3,4,16.88,16.88,0,0,0-.23,6.8l2.38,1.55"/><path id="f" d="M245.21,493.17s.23.23.23.38v12.52c0,.13-.23.42-.23.42h8.1V504.9s-.29.23-.42.23h-5.84a1,1,0,0,1-.29-.12v-4.56h4.42c.13,0,.42.26.42.26v-1.77a1.53,1.53,0,0,1-.42.19h-4.42v-4.64h6.16a1.12,1.12,0,0,1,.42.22v-1.54Z"/><path id="g" d="M296.42,545.4a3.06,3.06,0,0,0-3.15,3,3.54,3.54,0,0,0,2.41,3.26c1,.5,3.09,1.15,3.09,3.36a2.88,2.88,0,0,1-3,2.93,3.18,3.18,0,0,1-2.48-1v2.38a1.19,1.19,0,0,1,.54-.18c.26,0,1.23.25,1.88.25,1.13,0,4.61-.51,4.61-4.32,0-2.15-1.05-3.25-2.87-4.27s-2.65-1.13-2.65-2.38a1.8,1.8,0,0,1,1.94-1.71,2.19,2.19,0,0,1,2,.81v-2a1,1,0,0,1-.45.19C298.05,545.67,297,545.4,296.42,545.4Z"/><circle class="cls-2" cx="250.13" cy="263.29" r="31.49"/><path d="M150,486.41a100,100,0,1,0,200,0V360.71H150Z"/><path class="cls-3" d="M250.54,337V557.54a97.58,97.58,0,0,0,96.92-97.46V337Z"/><path d="M250.12,431.06c-5.74,0-6,3.9-4.71,5.36l-6.94-1.49-2.13,3.52H248.5c-3-1.49-1.43-3.81,1.59-3.81s4.62,2.32,1.61,3.81h12.07l-2.1-3.52-6.87,1.49c1.31-1.46,1-5.36-4.68-5.36ZM230,440.81l1.32,1.45v15L230,458.71h6.35l-1.29-1.45v-15l1.29-1.45Zm9.77,0,1.32,1.45v15l-1.32,1.45h6.36l-1.36-1.45v-5.68h6.87v5.68l-1.29,1.45h6.36l-1.33-1.45v-15l1.33-1.45h-6.36l1.29,1.45v5.58h-6.87v-5.58l1.36-1.45Zm19.17,0,5.07,8.94-5.07,8.93H270.6l2.1-3.74h-7.29l3-5.19-3-5.13h5.84l-2.16-3.81Zm-85,271.06a7.13,7.13,0,1,0,7.13,7.12A7.09,7.09,0,0,0,173.94,711.9Zm111.86.32-5.74,13.33a2.22,2.22,0,0,1-.29.41h1.84s-.19-.24-.13-.41l1.32-3.07h6.07l1.29,3.07c.06.17-.14.41-.14.41h1.82a3.58,3.58,0,0,1-.3-.41Zm-53.4.06v13.3a1.32,1.32,0,0,1-.22.42H234a1.32,1.32,0,0,1-.22-.42v-9.52l8.13,10.23v-13.2a1.12,1.12,0,0,1,.22-.42h-1.77s.23.28.23.42v9.45Zm-71.49.07a9.48,9.48,0,0,0-2.49.32,1.61,1.61,0,0,1-.51.06,1.64,1.64,0,0,1-.36-.06,3.48,3.48,0,0,1-.42-.2v13.11a1.32,1.32,0,0,1-.22.42h1.77s-.23-.3-.23-.42v-4.94a4.87,4.87,0,0,0,2.46.64,4.47,4.47,0,0,0,0-8.93Zm99.6,0a10,10,0,0,0-2.49.32,1.62,1.62,0,0,1-.52.06,2,2,0,0,1-.35-.06,4,4,0,0,1-.41-.2v13.11c0,.12-.23.42-.23.42h5.42a4.06,4.06,0,0,0,4-4,3.4,3.4,0,0,0-2-3.42,2.33,2.33,0,0,0,1-2C265,714.11,263.38,712.35,260.51,712.35Zm12.1,0a9.27,9.27,0,0,0-2.45.32,2,2,0,0,1-.52.06,2.27,2.27,0,0,1-.39-.06,4.47,4.47,0,0,1-.42-.2v13.11a1.32,1.32,0,0,1-.22.42h1.8s-.25-.3-.25-.42v-11.5a6.27,6.27,0,0,1,2.45-.38,2.91,2.91,0,0,1,3.12,3.1c0,1.48-1.3,2.35-3.12,2.35H272v1.23c3.72,0,4.64,3.74,4.64,5.17V726h1.84a3.41,3.41,0,0,1-.39-.75c-.18-1.56-.82-4.06-3.13-5.28a3.17,3.17,0,0,0,2.1-3.13A4.15,4.15,0,0,0,272.61,712.35Zm-82.54.19v1.54a1.87,1.87,0,0,1,.39-.22h3.39v11.72c0,.12-.23.42-.23.42h1.78a1.42,1.42,0,0,1-.23-.42V713.86h3.45a1.62,1.62,0,0,1,.39.22v-1.54Zm19.2,0v1.54a1.87,1.87,0,0,1,.39-.22h3.39v11.72c0,.12-.23.42-.23.42h1.77a1.44,1.44,0,0,1-.22-.42V713.86h3.48a1.87,1.87,0,0,1,.39.22v-1.54Zm113.47.1s.23.28.23.41v8.62a4.62,4.62,0,1,0,9.23,0v-8.62c0-.13.22-.41.22-.41h-1.77s.23.28.23.41v8.62a3.3,3.3,0,1,1-6.59,0v-8.62c0-.13.26-.41.26-.41Zm12.16,0a4.29,4.29,0,0,1,.33.41l3.45,5.78-4,6.72a2.15,2.15,0,0,1-.36.41h2s-.23-.25-.14-.41l3.29-5.56,3.27,5.56c.09.16-.14.41-.14.41h2a2.06,2.06,0,0,1-.37-.41l-4-6.72,3.39-5.78c.09-.12.39-.41.39-.41h-2s.2.27.12.41l-2.71,4.62-2.74-4.62c-.08-.14.13-.41.13-.41Zm-21.8,0a1.12,1.12,0,0,1,.22.42v12.46c0,.13-.22.41-.22.41h8.19v-1.55s-.29.23-.42.23h-6.19V713.09a1.12,1.12,0,0,1,.22-.42Zm-139.16.61A5.75,5.75,0,1,1,168.2,719,5.75,5.75,0,0,1,173.94,713.28Zm-13,.42a3.12,3.12,0,0,1,0,6.23,3.43,3.43,0,0,1-2.45-.94v-4.91A6.33,6.33,0,0,1,160.9,713.7Zm99.6,0c2.09,0,3.13,1.16,3.13,2.87a2,2,0,0,1-1.93,1.64c-.86,0-1,0-1.68,0v1.21l2.06,0c2.13,0,2.46,1.23,2.46,2.51a3.06,3.06,0,0,1-3.16,2.84h-3.32V714.08A6.28,6.28,0,0,1,260.5,713.7Zm25.3,1.78,2.52,5.8h-5Z"/><path class="cls-3" d="M208.59,262.71a5.14,5.14,0,0,0-3.74,1.58,5.21,5.21,0,0,0-1.65,3.78,5.35,5.35,0,0,0,1.65,3.81,5.26,5.26,0,0,0,3.74,1.58h9.46a5.38,5.38,0,1,0-3.29-9.65,2.4,2.4,0,0,1-1.47.29,2.58,2.58,0,0,1-1.47-.29A5.54,5.54,0,0,0,208.59,262.71Zm0,2.07a3.21,3.21,0,0,1,3.23,3.19v3.2h-3.23a3.09,3.09,0,0,1-2.22-.94,3.24,3.24,0,0,1-.91-2.26A3.14,3.14,0,0,1,208.59,264.78Zm9.46,0a3,3,0,0,1,2.22.93,3.22,3.22,0,0,1,.94,2.26,3.27,3.27,0,0,1-.94,2.26,3.09,3.09,0,0,1-2.22.94h-3.23V268A3.22,3.22,0,0,1,218.05,264.78Zm-10.75,9.29v2.19h12.07V274.1a5.53,5.53,0,0,1-1.32.13h-9.46A4.15,4.15,0,0,1,207.3,274.07Zm-13.74,4.62a1.1,1.1,0,0,0-.91.51,2.23,2.23,0,0,0-.19,2.07,56.43,56.43,0,0,0,2.61,5.13h.39v-.62a1.74,1.74,0,0,1,1.84-1.87h4.61c1.71,0,3.67,1.6,4.46,3.49a3,3,0,0,1,2-.77,3.06,3.06,0,0,1,2.16.89,3,3,0,0,1,.93,2.16,3.35,3.35,0,0,1-1.06,2.33,8.26,8.26,0,0,1-4.2,2.32,5.17,5.17,0,0,0,3.94,0,6.55,6.55,0,0,0,2-1.61,6.24,6.24,0,0,0,.9-1.46,6.42,6.42,0,0,0,.55-2.61,6.58,6.58,0,0,0-.16-1.48,6.49,6.49,0,0,0-.49-1.36,5.66,5.66,0,0,0-1.71-2.16c-1.91-1.58-7-4.93-7-4.93ZM191,289.43a3.67,3.67,0,0,0,.81,2.9,6.8,6.8,0,0,0,4.9,2.07,11.66,11.66,0,0,0,5.84-2,6,6,0,0,1,.81-.46c2.82-1.56,4.24-1.3,5-1.06l.06-.2a6.76,6.76,0,0,0-3.48-.93,7.35,7.35,0,0,0-2.94.75,12.78,12.78,0,0,1-4.94,1.12,9,9,0,0,1-6-2.22Zm25,98.85a2.3,2.3,0,0,0-.61.46c-.59.76-11.57,13.79-12.1,14.36l-.19.29-.33-.23a9.33,9.33,0,0,1-1.71-1.52c-2-2.11-5.29-5.63-7.32-6.83a2.81,2.81,0,0,0-3.29.54,2.65,2.65,0,0,0,2.81,4.29l.19-.09.22.16,3.13,2.84,1.13.9-1.45-.23c-2.49-.29-11.81-.21-11.87-.21h-.07a2.66,2.66,0,0,0-2.71,2,3,3,0,0,0,.29,2,2.67,2.67,0,0,0,1.62,1.23,2.39,2.39,0,0,0,2-.27,2.6,2.6,0,0,0,1.26-1.58L187,406l.32,0a21,21,0,0,1,6.39,1.23l.84.35-.84.39-7.23,3a2.65,2.65,0,0,0-2.35,3,2.7,2.7,0,0,0,.9,1.78,2.76,2.76,0,0,0,1.9.64,2.71,2.71,0,0,0,2.42-2.87v-.29l.26-.1.29-.13a33.22,33.22,0,0,1,10.17-2.84c2.53-.25,5.07-.32,7.61-.32a2,2,0,0,1,1.42.45,1.58,1.58,0,0,1,.42,1.13c0,.69-.19,2.35-.19,2.42v.13l-.17.12a2.69,2.69,0,0,0-.19,3.69c.07.06,1.78,1.64,3.42.41,1.38-1,1.19-2.25,1.13-3.51V414c.06-4.27-1.72-7.42-4.87-8.29l-.58-.15.38-.46,10.91-13.68a6,6,0,0,0,.19-.59,16.54,16.54,0,0,1-3.58-2.58Zm-25.68,5a4.44,4.44,0,0,0-3.29,1.19,4.54,4.54,0,0,0-1.26,4.72l.06,0a2.34,2.34,0,0,1,.81-1.48,2.43,2.43,0,0,1,2.16-.58.47.47,0,0,1,.13.09,3.42,3.42,0,0,1,3-3.45l-1-.39a4.48,4.48,0,0,0-.64-.06Zm-12,12.54a4.48,4.48,0,0,0,1,4.75l.06-.06a2.46,2.46,0,0,1,0-1.65,2.5,2.5,0,0,1,1.65-1.52h.39a3.25,3.25,0,0,1-.33-2.58,3.91,3.91,0,0,1,1.46-2A4.65,4.65,0,0,0,178.3,405.83Zm5.51,6.2a4.7,4.7,0,0,0-2,4.58,4.65,4.65,0,0,0,3.23,3.65l.06-.09a2.72,2.72,0,0,1-.77-1.49,2.28,2.28,0,0,1,.65-2A3.35,3.35,0,0,1,183.81,412Zm24.54,6.2a2.57,2.57,0,0,1-3.56,1.48l-.13.1a5.16,5.16,0,0,0,5.19,1.58,5,5,0,0,0,3.23-2.74A3.4,3.4,0,0,1,208.35,418.23Z"/><path d="M185.94,598a3.05,3.05,0,0,0-3.15,3,3.55,3.55,0,0,0,2.41,3.26c1,.5,3.1,1.15,3.1,3.36a2.88,2.88,0,0,1-3,2.93,3.16,3.16,0,0,1-2.49-1v2.38a1.26,1.26,0,0,1,.55-.18c.26,0,1.22.26,1.87.26,1.13,0,4.61-.52,4.61-4.33,0-2.15-1-3.25-2.87-4.26s-2.64-1.14-2.64-2.39a1.79,1.79,0,0,1,1.93-1.7,2.17,2.17,0,0,1,2,.8v-2a.94.94,0,0,1-.45.2A17.94,17.94,0,0,0,185.94,598Z"/><path d="M221,519.45s.22.23.22.38v12.52a1.28,1.28,0,0,1-.22.43h8.1v-1.59a1.21,1.21,0,0,1-.42.22h-5.84a.89.89,0,0,1-.29-.12v-4.55h4.42c.13,0,.42.25.42.25v-1.77a1.5,1.5,0,0,1-.42.2H222.5v-4.65h6.16c.13,0,.42.23.42.23v-1.55Z"/><path d="M298.16,368.63V269.51a6.42,6.42,0,0,0-12.84,0v99.12"/><g id="k"><g id="l"><path d="M312.33,375.91a31,31,0,0,0-21.07,22.55h9a22.54,22.54,0,0,1,13.25-13.77v2.16a4,4,0,0,0,4,4h1a4,4,0,0,0,4-4v-3.23a7.44,7.44,0,0,0,0-14.87v-3.2a4,4,0,0,0-4-4.05h-1a4,4,0,0,0-4,4.05v1.62"/><path class="cls-1" d="M298.81,397.73A23.59,23.59,0,0,1,313.49,383v-5.71a29.37,29.37,0,0,0-20.39,20.46Zm19.67-8.46a2.37,2.37,0,0,0,2.36-2.42v-21.3a2.38,2.38,0,0,0-2.36-2.41h-1a2.35,2.35,0,0,0-2.42,2.41v21.3a2.46,2.46,0,0,0,2.42,2.42Zm4-7.26a5.8,5.8,0,0,0,5.45-5.83,5.91,5.91,0,0,0-5.45-5.85Z"/></g><path d="M291.44,355.61A31,31,0,0,0,314,376.68v-9a22.54,22.54,0,0,1-13.77-13.25h2.17a4,4,0,0,0,4-4v-1a4,4,0,0,0-4-4h-3.23a7.44,7.44,0,0,0-14.87,0h-3.2a4,4,0,0,0-4.06,4v1a4,4,0,0,0,4.06,4h1.62"/><path class="cls-1" d="M313.26,369.13a23.57,23.57,0,0,1-14.74-14.68h-5.71a29.37,29.37,0,0,0,20.45,20.39Zm-8.46-19.68a2.36,2.36,0,0,0-2.41-2.35h-21.3a2.39,2.39,0,0,0-2.42,2.35v1a2.36,2.36,0,0,0,2.42,2.43h21.3a2.45,2.45,0,0,0,2.41-2.43Zm-7.25-4a5.79,5.79,0,0,0-5.84-5.45,5.91,5.91,0,0,0-5.84,5.45Z"/></g><path class="cls-4" d="M302.29,265.94v15.11h-5v17h5v15.13h9.07v-4h6.1v4h9.16V303.4H322V298h4.65V281.2H322v-5.45h4.65v-9.81h-9.16v4h-6.1v-4Zm9.07,9.94h6.1v11h4.19v5.45h-4.19v10.95h-6.1V292.3H307v-5.45h4.36Z"/><path d="M271.15,387.22a31,31,0,0,0,21.07-22.55h-9A22.54,22.54,0,0,1,270,378.44v-2.17a4,4,0,0,0-4-4h-1a4,4,0,0,0-4,4v3.23a7.44,7.44,0,0,0,0,14.87v3.2a4,4,0,0,0,4,4.06h1a4,4,0,0,0,4-4.06V396"/><path class="cls-1" d="M284.67,365.4A23.57,23.57,0,0,1,270,380.14v5.71a29.37,29.37,0,0,0,20.39-20.45ZM265,373.86a2.36,2.36,0,0,0-2.35,2.41v21.3A2.39,2.39,0,0,0,265,400h1a2.36,2.36,0,0,0,2.43-2.42v-21.3a2.45,2.45,0,0,0-2.43-2.41Zm-4,7.25a5.8,5.8,0,0,0-5.46,5.84,5.92,5.92,0,0,0,5.46,5.84Z"/><path d="M292,407.52a31,31,0,0,0-22.55-21.07v9a22.53,22.53,0,0,1,13.78,13.25h-2.17a4,4,0,0,0-4,4v1a4,4,0,0,0,4,4h3.23a7.44,7.44,0,0,0,14.87,0h3.2a4,4,0,0,0,4.06-4v-1a4,4,0,0,0-4.06-4h-1.62"/><path class="cls-1" d="M270.22,394A23.61,23.61,0,0,1,285,408.68h5.71a29.38,29.38,0,0,0-20.45-20.4Zm8.45,19.68a2.37,2.37,0,0,0,2.42,2.36h21.3a2.39,2.39,0,0,0,2.41-2.36v-1a2.35,2.35,0,0,0-2.41-2.43h-21.3a2.47,2.47,0,0,0-2.42,2.43Zm7.26,4a5.8,5.8,0,0,0,5.83,5.45,5.92,5.92,0,0,0,5.85-5.45Z"/><path class="cls-1" d="M190.49,350.87A8.42,8.42,0,0,0,197,354a12,12,0,0,0,4.62-1.06,8,8,0,0,1,3.26-.84,7.42,7.42,0,0,1,4.35,1.32l.26.23-.87,1.32-.32-.1-.07,0c-.59-.2-1.69-.59-4.52.94a8.06,8.06,0,0,0-.8.45,12.41,12.41,0,0,1-6.23,2.1c-1.38,0-4.12-.53-5.58-2.39a5.47,5.47,0,0,1-.65-5.07ZM208.72,342v1.75h2.46a2.54,2.54,0,0,0,2.54,2.58,2.59,2.59,0,0,0,2.55-2.58h2.42V342Zm83-13.19a4.83,4.83,0,0,0-4.84,4.84v98.91h9.68V333.61A4.81,4.81,0,0,0,291.74,328.77Zm-73.69-.07a2.39,2.39,0,0,0-2.42,2.44v2.34h2.42a2.34,2.34,0,0,0,2.35-2.34A2.37,2.37,0,0,0,218.05,328.7Zm-9.46,0a2.33,2.33,0,0,0-2.35,2.44,2.3,2.3,0,0,0,2.35,2.34H211v-2.34A2.4,2.4,0,0,0,208.59,328.7Zm-56-18V433.82a97.49,97.49,0,0,0,97.12,97.45v-17a28,28,0,0,1-8.26-14.91,8,8,0,0,1-3.94,1.07,7.91,7.91,0,0,1-3.22-.7c4.85-7,7.93-11.59,7.93-19.27a21,21,0,0,0-1-5.74c-1,9.54-9.4,15-10.84,18.61a18.61,18.61,0,0,0-1.1,8.68,13.92,13.92,0,0,1-7.87-12.52,13.75,13.75,0,0,1,3.39-9.06c3.61-4.21,7.35-7.17,9.32-9.46-3.87.07-8.18,2.8-10.87,5.68a11.89,11.89,0,0,1-.2-2.16,15.15,15.15,0,0,1,5.49-11.2c9.05-8.12,9.47-15.65,8.61-23.23-6.23,2.41-10.39,8.84-10.71,15.91a16.58,16.58,0,0,1-6.06-1.55,2.76,2.76,0,0,1-.29.64v0l-10.55,13.23c2.29.82,4.83,3,4.83,8.52a10.56,10.56,0,0,0,.07,1.32,6.68,6.68,0,0,1-.77,4.35,5.72,5.72,0,0,1-3.55,2.81,5.93,5.93,0,0,1-6.23-2.12l-.19-.27,1-1.1.26.17a2,2,0,0,0,1.58.23,1.77,1.77,0,0,0,1.33-1.72,3.93,3.93,0,0,1-.26-1.52,3.75,3.75,0,0,1,1-2.29,18.48,18.48,0,0,0,.19-2.16.76.76,0,0,0-.19-.57,1.22,1.22,0,0,0-.84-.23,74.11,74.11,0,0,0-7.55.35,33.79,33.79,0,0,0-9.9,2.78l-.07,0a3.58,3.58,0,0,1-3.16,3.42,4.17,4.17,0,0,1-1.39-.19,1.63,1.63,0,0,0-.58,1.61,1.7,1.7,0,0,0,.71,1.16l.29.16-.55,1.2-.32-.07a5.34,5.34,0,0,1-4.07-4.32,5.63,5.63,0,0,1,.94-3.94,6.07,6.07,0,0,1,3.32-2.22,7.49,7.49,0,0,1,1-.32l6.1-2.55a24,24,0,0,0-4.87-.85,3.17,3.17,0,0,1-1.48,1.78,3.49,3.49,0,0,1-2.65.36,4,4,0,0,1-1.58-1,1.59,1.59,0,0,0-1.74,1.09,1.63,1.63,0,0,0,.06,1.35l.13.3-1.06.81-.2-.2a5.28,5.28,0,0,1-1.51-5.74,5.87,5.87,0,0,1,2.77-3c1-.53,2-.52,3.74-.39a1.51,1.51,0,0,1,.52,0c.39,0,7.33-.07,10.74.13l-2.09-1.9a3.29,3.29,0,0,1-3.26-.82,4,4,0,0,1-.94-1.64,1.57,1.57,0,0,0-1.9.2,1.63,1.63,0,0,0-.58,1.26v.35l-1.33.2-.06-.29a5.24,5.24,0,0,1,1.32-5.75,5.41,5.41,0,0,1,3.87-1.39,5.85,5.85,0,0,1,3.55,1.49c.07,0,.13,0,.13.06,2.23,1.23,5.45,4.68,7.55,7a11.74,11.74,0,0,0,1.36,1.23c1.64-2,11.28-13.41,11.81-14.11a2.47,2.47,0,0,1,.64-.54,16.57,16.57,0,0,1-3.32-5.1,7.85,7.85,0,0,1-.9.07,8,8,0,0,1-5.52-2.23c7.68-2.82,9.45-7,13.32-12.13A29,29,0,0,1,232,422l-4.58-12.83a25.8,25.8,0,0,1-10.71,3.74l.42,9.8a8,8,0,0,1-9.2,7.94c1.45-8.7,2.16-16.47,2.3-17.78a26.27,26.27,0,0,1-3.49-.68L198,441.79A12.76,12.76,0,0,1,185.75,451a12.62,12.62,0,0,1-6.48-1.74c6.56-6.53,10.5-15.55,13.39-21.68l8.19-17.78c-.66-.36-1.31-.77-2-1.22l-18.81,21a12.82,12.82,0,0,1-19.58.09,52.44,52.44,0,0,0,11.23-6.92c2.62-2,22-18.89,22-18.89a9.81,9.81,0,0,1-1.26-1.58l-21.13,9a12.71,12.71,0,0,1-16.94-8.84c2.89.43,10.44-1.06,13.39-1.61s20.8-4.74,21.26-4.85c-.33-.85-.57-1.71-.84-2.61l-21.65-.06a12.77,12.77,0,0,1-12.74-14.07,103.65,103.65,0,0,0,21.39,6c1.64.3,11,1.51,12.13,1.65v-.1c0-.92.06-1.81.13-2.71L161,372a12.78,12.78,0,0,1-6.39-11,13,13,0,0,1,1.9-6.71,52.47,52.47,0,0,0,14.84,12.13c5.65,3.29,17.32,10.16,17.91,10.49.26-.63.54-1.27.87-1.91l-.26-.15-28.1-24.63a12.59,12.59,0,0,1-5.1-10.21,12.74,12.74,0,0,1,6.17-10.91,42.85,42.85,0,0,0,8.32,13.23l37.52,39.14a4.14,4.14,0,0,1,1.07,2.87,4.63,4.63,0,0,1-3.23,4.42,5,5,0,0,0,2.71.83,4.63,4.63,0,0,0,3.65-1.8,7.92,7.92,0,0,1,11.48-1.16,18.53,18.53,0,0,1-.38-3.84,16.45,16.45,0,0,1,3.74-10.52,4,4,0,0,1-2.36.71,4.57,4.57,0,0,1-2.84-1,10.1,10.1,0,0,0,.55-4.23A10.46,10.46,0,0,0,212,358a7.87,7.87,0,0,0-1.71.3,5.54,5.54,0,0,1-5.13-.46l-.26-.25.19-.32.26-.37.16-.15h.2c1.64,0,3-1.11,4.19-2.17a2.36,2.36,0,0,0,.71-1.74,2,2,0,0,0-.64-1.58,2.15,2.15,0,0,0-1.58-.64,2.08,2.08,0,0,0-1.78.94l-.71-.17c-.46-1.82-2.36-3.49-3.93-3.49H197.3a1,1,0,0,0-.77.26,1,1,0,0,0-.26.77v1.43h-1.58l-.13-.23a39.26,39.26,0,0,1-2.81-5.48,2.84,2.84,0,0,1,.26-2.75,1.84,1.84,0,0,1,1.55-.86h11.07l1-1.61h.84V337a5.77,5.77,0,0,1-2.16-1.39,6.25,6.25,0,0,1-1.84-4.44,6.13,6.13,0,0,1,6.16-6.11,6,6,0,0,1,3.75,1.26,1.88,1.88,0,0,0,1,.16,1.62,1.62,0,0,0,1-.16,6.23,6.23,0,0,1,3.75-1.26,6.29,6.29,0,0,1,6.16,6.11,6.25,6.25,0,0,1-1.84,4.44,5.61,5.61,0,0,1-2.22,1.42v2.39c13.26.17,14.38,13.22,24.23,13.22H245c0,.24.06.44.06.67a5.18,5.18,0,0,1-2.42,4.36,17.22,17.22,0,0,1,7.07,5.55V310.71Z"/><circle class="cls-5" cx="213.35" cy="237.01" r="1.85"/></svg>