<svg viewBox="0 0 822 822" xmlns="http://www.w3.org/2000/svg"><path d="m468.35 244.63 53.73-12.18-53.73-12.18"/><path d="m495.35 237.84 23.46-5.14-23 .11m0-.7 23 .12-23.46-5.12" fill="#fddd04"/><path d="m451.45 159.65a6.28 6.28 0 0 1 1.46-4.87 8.44 8.44 0 0 0 1.68-3.45 7.74 7.74 0 0 0 -.28-3.56 8 8 0 0 1 -.06-4.58 9.86 9.86 0 0 1 4-5.14l.6-.34-.63-.29a7.13 7.13 0 0 0 -7.76 2.27 11.58 11.58 0 0 0 -1.8 4.58 11.84 11.84 0 0 1 -1.34 3.73 8 8 0 0 1 -2.4 2 15.73 15.73 0 0 0 -4.14 3.68l-17.54 30.08"/><path d="m447.57 183.8-12.18-53.73-12.17 53.73"/><path d="m440.79 156.81-5.15-23.47.12 23m-.7 0 .11-23-5.11 23.47" fill="#fddd04"/><path d="m450 160.56.8-.53a5.78 5.78 0 0 1 0-2.58 7.87 7.87 0 0 1 1.48-3.06 9 9 0 0 0 1.58-3.17 7.34 7.34 0 0 0 -.25-3.28 8.68 8.68 0 0 1 -.06-5 10.73 10.73 0 0 1 3.67-5.09 6.65 6.65 0 0 0 -6.31 2.28 10.66 10.66 0 0 0 -1.66 4.28 12.2 12.2 0 0 1 -1.45 3.95 9 9 0 0 1 -2.59 2.23 14.4 14.4 0 0 0 -4.28 4l.5 2.39" fill="#fddd04"/><path d="m463.82 178.08a6.92 6.92 0 0 1 1.54-1.42 7.4 7.4 0 0 1 2.93-1 8.43 8.43 0 0 0 3.63-1.25 7.57 7.57 0 0 0 2.31-2.72 8 8 0 0 1 3.2-3.28 9.89 9.89 0 0 1 6.45-.83l.66.19-.24-.65a7.13 7.13 0 0 0 -7.09-3.89 11.49 11.49 0 0 0 -4.51 2 11.81 11.81 0 0 1 -3.59 1.69 8.15 8.15 0 0 1 -3.14-.26 15.32 15.32 0 0 0 -5.52-.33l-33.67 8.87"/><path d="m444 192.42 29.38-46.61-46.6 29.38"/><path d="m458.28 168.53 13-20.23-16.16 16.32m-.49-.49 16.28-16.13-20.21 13" fill="#fddd04"/><path d="m462.16 177.71.94.2c.16-.32.45-.73 1.85-1.81a7.86 7.86 0 0 1 3.2-1.12 9 9 0 0 0 3.37-1.12 7.48 7.48 0 0 0 2.14-2.5 8.6 8.6 0 0 1 3.48-3.56 10.66 10.66 0 0 1 6.19-1 6.63 6.63 0 0 0 -6.07-2.85 10.59 10.59 0 0 0 -4.21 1.85 12.29 12.29 0 0 1 -3.82 1.77 9 9 0 0 1 -3.4-.26 14.36 14.36 0 0 0 -5.86-.2l-1.33 2" fill="#fddd04"/><path d="m348.92 211.13a6.68 6.68 0 0 1 -2.09-.08 7.31 7.31 0 0 1 -2.77-1.37 8.58 8.58 0 0 0 -3.45-1.69 7.73 7.73 0 0 0 -3.56.29 8 8 0 0 1 -4.58.06 9.91 9.91 0 0 1 -5.15-4l-.34-.6-.28.63a7.12 7.12 0 0 0 2.26 7.76 11.64 11.64 0 0 0 4.58 1.8 11.81 11.81 0 0 1 3.74 1.34 8.16 8.16 0 0 1 2 2.4 15.37 15.37 0 0 0 3.68 4.14l30.08 17.54"/><path d="m373.08 215-53.73 12.2 53.73 12.17"/><path d="m346.08 221.8-23.46 5.2 23-.12m0 .7-23-.11 23.46 5.11" fill="#fddd04"/><path d="m349.84 212.57-.53-.81a5.57 5.57 0 0 1 -2.59 0 7.84 7.84 0 0 1 -3.05-1.48 9 9 0 0 0 -3.17-1.58 7.34 7.34 0 0 0 -3.28.25 8.68 8.68 0 0 1 -5 .06 10.66 10.66 0 0 1 -5.09-3.68 6.64 6.64 0 0 0 2.28 6.32 10.66 10.66 0 0 0 4.28 1.66 12.2 12.2 0 0 1 4 1.45 8.87 8.87 0 0 1 2.22 2.59 14.59 14.59 0 0 0 4 4.28l2.39-.5" fill="#fddd04"/><path d="m367.36 198.77a6.92 6.92 0 0 1 -1.42-1.54 7.25 7.25 0 0 1 -1-2.93 8.56 8.56 0 0 0 -1.25-3.63 7.65 7.65 0 0 0 -2.72-2.31 8 8 0 0 1 -3.28-3.2 9.89 9.89 0 0 1 -.83-6.45l.18-.66-.64.24a7.11 7.11 0 0 0 -3.89 7.09 11.49 11.49 0 0 0 2 4.51 12.05 12.05 0 0 1 1.69 3.59 8.08 8.08 0 0 1 -.26 3.13 15.4 15.4 0 0 0 -.33 5.53l8.87 33.67"/><path d="m381.69 218.6-46.6-29.38 29.38 46.6"/><path d="m357.81 204.3-20.23-13 16.32 16.16m-.5.49-16.16-16.32 13 20.21" fill="#fddd04"/><path d="m367 200.43.2-.94c-.33-.16-.73-.45-1.81-1.85a7.86 7.86 0 0 1 -1.12-3.2 9 9 0 0 0 -1.12-3.37 7.48 7.48 0 0 0 -2.5-2.14 8.6 8.6 0 0 1 -3.56-3.48 10.66 10.66 0 0 1 -1-6.19 6.61 6.61 0 0 0 -2.85 6.07 10.59 10.59 0 0 0 1.85 4.21 12.09 12.09 0 0 1 1.76 3.81 8.82 8.82 0 0 1 -.25 3.41 14.31 14.31 0 0 0 -.2 5.85l2.05 1.34" fill="#fddd04"/><path d="m380.16 176.82a6.92 6.92 0 0 1 -1.42-1.54 7.46 7.46 0 0 1 -1-2.93 8.38 8.38 0 0 0 -1.25-3.63 7.79 7.79 0 0 0 -2.72-2.32 8 8 0 0 1 -3.28-3.2 9.86 9.86 0 0 1 -.83-6.44l.19-.67-.65.25a7.12 7.12 0 0 0 -3.89 7.09 11.55 11.55 0 0 0 2 4.51 11.94 11.94 0 0 1 1.69 3.59 8.1 8.1 0 0 1 -.26 3.13 15.4 15.4 0 0 0 -.33 5.53l8.87 33.67"/><path d="m394.5 196.64-46.61-29.38 29.38 46.6"/><path d="m370.61 182.35-20.23-13 16.32 16.17m-.49.49-16.21-16.28 13 20.21" fill="#fddd04"/><path d="m379.79 178.48.2-.95c-.33-.15-.73-.44-1.81-1.84a7.85 7.85 0 0 1 -1.12-3.21 9 9 0 0 0 -1.12-3.36 7.48 7.48 0 0 0 -2.5-2.14 8.66 8.66 0 0 1 -3.56-3.48 10.7 10.7 0 0 1 -1-6.2 6.65 6.65 0 0 0 -2.85 6.08 10.59 10.59 0 0 0 1.85 4.21 12.35 12.35 0 0 1 1.77 3.81 9 9 0 0 1 -.26 3.4 14.37 14.37 0 0 0 -.2 5.86l2.05 1.34" fill="#fddd04"/><path d="m471 487.78s.2.21.2.33v10.79c0 .11-.2.37-.2.37h7v-1.37s-.24.19-.36.19h-5a.66.66 0 0 1 -.25-.1v-3.93h3.81c.11 0 .36.23.36.23v-1.53a1.35 1.35 0 0 1 -.36.17h-3.81v-4h5.31c.11 0 .36.2.36.2v-1.34z"/><path d="m577.59 535a2.63 2.63 0 0 0 -2.71 2.59 3.05 3.05 0 0 0 2.07 2.81c.9.43 2.67 1 2.67 2.89a2.48 2.48 0 0 1 -2.61 2.53 2.72 2.72 0 0 1 -2.14-.89v2.07a1 1 0 0 1 .47-.16c.22 0 1.06.22 1.61.22 1 0 4-.45 4-3.73 0-1.85-.9-2.8-2.47-3.67s-2.28-1-2.28-2.06a1.55 1.55 0 0 1 1.66-1.47 1.88 1.88 0 0 1 1.73.7v-1.83a.84.84 0 0 1 -.39.17c-.2.03-1.07-.17-1.61-.17z"/><circle cx="412.53" cy="279.92" fill="#fddd04" r="27.14" stroke="#000" stroke-width=".71"/><path d="m161 480.87a86.17 86.17 0 1 0 172.34 0v-108.31h-172.34z"/><path d="m577.48 351v190a84.08 84.08 0 0 0 83.52-84v-106z" fill="#ed1c24"/><path d="m288 437.53c-4.94 0-5.19 3.36-4.06 4.62l-6-1.28-1.84 3h10.48c-2.6-1.29-1.24-3.28 1.37-3.28s4 2 1.39 3.28h10.4l-1.81-3-5.93 1.28c1.13-1.26.91-4.62-4-4.62zm-17.34 8.4 1.13 1.25v12.93l-1.13 1.25h5.47l-1.13-1.25v-12.93l1.11-1.25zm8.42 0 1.14 1.25v12.93l-1.14 1.25h5.48l-1.17-1.25v-4.9h5.92v4.9l-1.11 1.25h5.47l-1.14-1.25v-12.93l1.14-1.25h-5.47l1.11 1.25v4.82h-5.92v-4.81l1.17-1.25zm16.51 0 4.37 7.7-4.37 7.7h10.07l1.8-3.23h-6.28l2.62-4.47-2.62-4.42h5l-1.85-3.21zm-73.25 233.59a6.15 6.15 0 1 0 6.15 6.14 6.11 6.11 0 0 0 -6.15-6.14zm96.39.28-4.94 11.49a2.15 2.15 0 0 1 -.25.35h1.58s-.16-.2-.12-.35l1.14-2.65h5.23l1.12 2.65c.05.15-.12.35-.12.35h1.57a2.67 2.67 0 0 1 -.26-.35zm-46 .05v11.46a1.12 1.12 0 0 1 -.19.37h1.52a1.12 1.12 0 0 1 -.19-.37v-8.2l7 8.82v-11.37a.94.94 0 0 1 .19-.37h-1.53s.2.24.2.37v8.14zm-61.61.07a8.32 8.32 0 0 0 -2.14.27 1.51 1.51 0 0 1 -.45.06 1.22 1.22 0 0 1 -.3-.06 2.55 2.55 0 0 1 -.36-.17v11.29c0 .11-.2.37-.2.37h1.53a1.12 1.12 0 0 1 -.19-.37v-4.25a4.1 4.1 0 0 0 2.11.55 3.85 3.85 0 0 0 0-7.69zm85.82 0a8.92 8.92 0 0 0 -2.14.27 1.43 1.43 0 0 1 -.44.06 1.49 1.49 0 0 1 -.31-.06 2.91 2.91 0 0 1 -.35-.17v11.29c0 .11-.2.37-.2.37h4.67a3.5 3.5 0 0 0 3.45-3.48 2.94 2.94 0 0 0 -1.69-3 2 2 0 0 0 .88-1.7c-.01-2.07-1.4-3.58-3.88-3.58zm10.43 0a8.2 8.2 0 0 0 -2.11.27 1.46 1.46 0 0 1 -.44.06 1.63 1.63 0 0 1 -.34-.06 2.55 2.55 0 0 1 -.36-.17v11.29a1.12 1.12 0 0 1 -.19.37h1.55s-.22-.26-.22-.37v-9.9a5.37 5.37 0 0 1 2.11-.33 2.51 2.51 0 0 1 2.7 2.67c0 1.27-1.12 2-2.7 2h-.52v1.06c3.21 0 4 3.22 4 4.45v.35h1.58a2.87 2.87 0 0 1 -.33-.64 5.68 5.68 0 0 0 -2.7-4.55 2.74 2.74 0 0 0 1.81-2.7 3.57 3.57 0 0 0 -3.85-3.8zm-71.12.16v1.33a1.86 1.86 0 0 1 .34-.2h2.92v10.1c0 .11-.2.37-.2.37h1.53a1.24 1.24 0 0 1 -.19-.37v-10.1h3a1.41 1.41 0 0 1 .33.2v-1.33zm16.55 0v1.33a1.68 1.68 0 0 1 .33-.2h2.87v10.1c0 .11-.2.37-.2.37h1.53a1.24 1.24 0 0 1 -.19-.37v-10.1h3a1.68 1.68 0 0 1 .33.2v-1.33zm97.77.09s.2.24.2.35v7.48a4 4 0 1 0 7.95 0v-7.43c0-.11.2-.35.2-.35h-1.53s.19.24.19.35v7.43a2.84 2.84 0 1 1 -5.67 0v-7.43c0-.11.22-.35.22-.35zm10.48 0a4 4 0 0 1 .29.35l3 5-3.45 5.79a1.75 1.75 0 0 1 -.31.35h1.7s-.19-.21-.11-.35l2.83-4.81 2.81 4.79c.08.14-.12.35-.12.35h1.7a1.75 1.75 0 0 1 -.31-.35l-3.42-5.79 2.92-5a4 4 0 0 1 .34-.35h-1.7s.18.23.11.35l-2.33 4-2.37-4c-.07-.12.11-.35.11-.35zm-18.79 0s.2.24.2.37v10.73c0 .11-.2.35-.2.35h7.07v-1.33a1 1 0 0 1 -.37.19h-5.34v-9.94c0-.13.2-.37.2-.37zm-119.91.53a5 5 0 1 1 -5 4.94 5 5 0 0 1 4.99-4.92zm-11.23.36a2.69 2.69 0 0 1 0 5.37 3 3 0 0 1 -2.12-.81v-4.23a5.42 5.42 0 0 1 2.11-.31zm85.82 0c1.8 0 2.7 1 2.7 2.47a1.71 1.71 0 0 1 -1.64 1.47c-.74 0-.85 0-1.46 0v1h1.78c1.84 0 2.12 1.07 2.12 2.17a2.63 2.63 0 0 1 -2.72 2.45h-2.87v-9.29a5.4 5.4 0 0 1 2.08-.25zm21.8 1.53 2.17 5h-4.31z"/><path d="m316 282.68a4.4 4.4 0 0 0 -3.23 1.36 4.5 4.5 0 0 0 -1.41 3.25 4.58 4.58 0 0 0 1.41 3.28 4.52 4.52 0 0 0 3.23 1.37h8.15a4.62 4.62 0 0 0 3.28-7.9 4.61 4.61 0 0 0 -3.28-1.36 4.72 4.72 0 0 0 -2.84.94 2 2 0 0 1 -1.26.25 2.24 2.24 0 0 1 -1.27-.25 4.72 4.72 0 0 0 -2.78-.94zm0 1.78a2.77 2.77 0 0 1 2.78 2.75v2.79h-2.78a2.68 2.68 0 0 1 -1.92-.8 2.8 2.8 0 0 1 -.78-2 2.71 2.71 0 0 1 2.7-2.74zm8.15 0a2.56 2.56 0 0 1 1.91.8 2.78 2.78 0 0 1 .81 1.95 2.83 2.83 0 0 1 -.81 2 2.68 2.68 0 0 1 -1.91.8h-2.78v-2.75a2.77 2.77 0 0 1 2.74-2.8zm-9.26 8v1.89h10.4v-1.86a4.65 4.65 0 0 1 -1.14.11h-8.15a3.32 3.32 0 0 1 -1.15-.14zm-11.85 4a1 1 0 0 0 -.78.45 1.91 1.91 0 0 0 -.16 1.78 47.54 47.54 0 0 0 2.25 4.42h.33v-.54a1.51 1.51 0 0 1 1.59-1.61h4a4.8 4.8 0 0 1 3.84 3 2.55 2.55 0 0 1 3.56.11 2.57 2.57 0 0 1 .81 1.86 2.94 2.94 0 0 1 -.92 2 7.13 7.13 0 0 1 -3.62 2 4.45 4.45 0 0 0 3.4 0 5.52 5.52 0 0 0 1.69-1.38 5.46 5.46 0 0 0 1.25-3.51 5.32 5.32 0 0 0 -.14-1.27 6.11 6.11 0 0 0 -.41-1.18 5.14 5.14 0 0 0 -1.48-1.86c-1.64-1.36-6.06-4.25-6.06-4.25zm-2.19 9.26a3.16 3.16 0 0 0 .69 2.5 5.89 5.89 0 0 0 4.23 1.78 10 10 0 0 0 5-1.7 6.13 6.13 0 0 1 .7-.39c2.43-1.34 3.66-1.12 4.28-.92l.05-.16a5.74 5.74 0 0 0 -3-.8 6.27 6.27 0 0 0 -2.53.64 11.05 11.05 0 0 1 -4.25 1 7.75 7.75 0 0 1 -5.2-1.92zm21.52 85.18a2.27 2.27 0 0 0 -.53.39c-.51.66-10 11.89-10.43 12.38l-.16.25-.28-.2a7.57 7.57 0 0 1 -1.48-1.31c-1.75-1.82-4.55-4.85-6.31-5.89a2.44 2.44 0 0 0 -2.83.47 2.28 2.28 0 0 0 2.42 3.7l.16-.08.2.14 2.69 2.45 1 .77-1.25-.2c-2.15-.24-10.18-.18-10.24-.18a2.3 2.3 0 0 0 -2.34 1.69 2.58 2.58 0 0 0 .25 1.7 2.32 2.32 0 0 0 1.39 1.06 2.08 2.08 0 0 0 1.7-.24 2.25 2.25 0 0 0 1.08-1.36l.06-.27h.28a18.13 18.13 0 0 1 5.5 1.06l.73.31-.73.33-6.22 2.56a2.3 2.3 0 0 0 -2 2.56 2.33 2.33 0 0 0 .78 1.53 2.35 2.35 0 0 0 1.64.55 2.32 2.32 0 0 0 2.09-2.47v-.25l.22-.08.25-.12a28.65 28.65 0 0 1 8.76-2.44 65.3 65.3 0 0 1 6.56-.28 1.67 1.67 0 0 1 1.22.39 1.34 1.34 0 0 1 .37 1c0 .6-.17 2-.17 2.08v.1l-.14.11a2.07 2.07 0 0 0 -.72 1.55 2.12 2.12 0 0 0 .55 1.62c.06.06 1.54 1.42 2.95.36 1.19-.86 1-1.94 1-3v-.53c.06-3.68-1.48-6.4-4.2-7.14l-.5-.14.34-.39 9.4-11.79a4.72 4.72 0 0 0 .16-.51 13.8 13.8 0 0 1 -3.08-2.22zm-22.17 4.3a3.8 3.8 0 0 0 -2.84 1 3.89 3.89 0 0 0 -1.08 4.06h.05a2 2 0 0 1 .67-1.26 2.1 2.1 0 0 1 1.86-.5l.11.08a3.13 3.13 0 0 1 .81-2.08 3.08 3.08 0 0 1 1.8-.89l-.86-.34a3.41 3.41 0 0 0 -.55-.05zm-10.35 10.8a3.89 3.89 0 0 0 .89 4.09l.06-.06a2 2 0 0 1 0-1.42 2.09 2.09 0 0 1 1.42-1.31h.33a2.8 2.8 0 0 1 -.28-2.22 3.39 3.39 0 0 1 1.25-1.69 4 4 0 0 0 -3.67 2.61zm4.75 5.33a4.07 4.07 0 0 0 -1.72 4 4 4 0 0 0 2.78 3.14l.06-.08a2.28 2.28 0 0 1 -.67-1.28 2 2 0 0 1 .56-1.75 2.89 2.89 0 0 1 -1.01-4.02zm21.15 5.35a2.22 2.22 0 0 1 -3.07 1.27l-.11.09a4.44 4.44 0 0 0 4.47 1.36 4.31 4.31 0 0 0 2.79-2.36 2.94 2.94 0 0 1 -4.08-.35z" fill="#ed1c24"/><path d="m329.55 582.44a2.63 2.63 0 0 0 -2.72 2.59 3.07 3.07 0 0 0 2.08 2.81c.89.43 2.67 1 2.67 2.89a2.5 2.5 0 0 1 -2.62 2.53 2.72 2.72 0 0 1 -2.14-.89v2a1.06 1.06 0 0 1 .47-.16c.23 0 1.06.23 1.62.23 1 0 4-.45 4-3.73 0-1.85-.9-2.8-2.47-3.68s-2.28-1-2.28-2.05a1.55 1.55 0 0 1 1.67-1.47 1.88 1.88 0 0 1 1.72.69v-1.7a.78.78 0 0 1 -.39.17c-.16 0-1.08-.23-1.61-.23z"/><path d="m429.7 511.52s.2.2.2.33v10.79c0 .1-.2.36-.2.36h7v-1.37s-.25.2-.36.2h-5a.68.68 0 0 1 -.25-.11v-3.92h3.81c.11 0 .36.22.36.22v-1.53a1.35 1.35 0 0 1 -.36.17h-3.9v-4h5.31a1.05 1.05 0 0 1 .36.19v-1.33z"/><path d="m562.76 372.86v-85.41a5.53 5.53 0 0 0 -11.06 0v85.41"/><path d="m544.35 381.31a26.67 26.67 0 0 0 -18.16 19.43h7.74a19.42 19.42 0 0 1 11.41-11.87v1.87a3.43 3.43 0 0 0 3.46 3.44h.85a3.47 3.47 0 0 0 3.45-3.44v-2.74a6.41 6.41 0 0 0 0-12.81v-2.76a3.44 3.44 0 0 0 -3.45-3.49h-.85a3.46 3.46 0 0 0 -3.46 3.49v1.4"/><path d="m532.69 400.11a20.37 20.37 0 0 1 12.65-12.71v-4.92a25.32 25.32 0 0 0 -17.57 17.63zm17-7.29a2 2 0 0 0 2-2.08v-18.36a2.06 2.06 0 0 0 -2-2.08h-.85a2 2 0 0 0 -2.09 2.08v18.36a2.12 2.12 0 0 0 2.09 2.08zm3.45-6.26a5 5 0 0 0 4.7-5 5.09 5.09 0 0 0 -4.7-5z" fill="#fddd04"/><path d="m526.35 363.81a26.71 26.71 0 0 0 19.43 18.19v-7.74a19.41 19.41 0 0 1 -11.87-11.42h1.87a3.43 3.43 0 0 0 3.44-3.45v-.85a3.47 3.47 0 0 0 -3.44-3.45h-2.78a6.42 6.42 0 0 0 -12.82 0h-2.75a3.44 3.44 0 0 0 -3.5 3.45v.85a3.46 3.46 0 0 0 3.5 3.45h1.39"/><path d="m545.15 375.47a20.36 20.36 0 0 1 -12.71-12.66h-4.92a25.33 25.33 0 0 0 17.63 17.58zm-7.29-17a2 2 0 0 0 -2.08-2h-18.35a2.06 2.06 0 0 0 -2.09 2v.85a2 2 0 0 0 2.09 2.09h18.35a2.11 2.11 0 0 0 2.08-2.09zm-6.25-3.45a5 5 0 0 0 -5-4.7 5.1 5.1 0 0 0 -5 4.7z" fill="#fddd04"/><path d="m590.23 283.29v13h-4.23v14.71h4.28v13h7.72v-3.47h5.26v3.47h7.89v-8.45h-4v-4.69h4v-14.43h-4v-4.69h4v-8.45h-7.85v3.45h-5.3v-3.45zm7.81 8.56h5.26v9.45h3.61v4.7h-3.61v9.43h-5.3v-9.43h-3.75v-4.7h3.75z" fill="#fddd04" stroke="#000" stroke-width="1.33"/><path d="m508.1 392.14a26.73 26.73 0 0 0 18.16-19.43h-7.74a19.44 19.44 0 0 1 -11.42 11.86v-1.86a3.43 3.43 0 0 0 -3.45-3.45h-.85a3.49 3.49 0 0 0 -3.46 3.45v2.78a6.41 6.41 0 0 0 0 12.81v2.76a3.46 3.46 0 0 0 3.46 3.5h.85a3.47 3.47 0 0 0 3.45-3.5v-1.4"/><path d="m519.75 373.34a20.31 20.31 0 0 1 -12.65 12.66v5a25.31 25.31 0 0 0 17.57-17.62zm-16.95 7.28a2 2 0 0 0 -2 2.09v18.35a2.06 2.06 0 0 0 2 2.08h.85a2 2 0 0 0 2.09-2.08v-18.35a2.12 2.12 0 0 0 -2.09-2.09zm-3.46 6.26a5 5 0 0 0 -4.69 5 5.09 5.09 0 0 0 4.69 5z" fill="#fddd04"/><path d="m526.1 409.63a26.73 26.73 0 0 0 -19.43-18.16v7.74a19.42 19.42 0 0 1 11.86 11.42h-1.86a3.43 3.43 0 0 0 -3.45 3.45v.85a3.49 3.49 0 0 0 3.45 3.46h2.78a6.41 6.41 0 0 0 12.81 0h2.74a3.46 3.46 0 0 0 3.5-3.46v-.85a3.47 3.47 0 0 0 -3.5-3.45h-1.4"/><path d="m507.3 398a20.28 20.28 0 0 1 12.7 12.63h4.92a25.29 25.29 0 0 0 -17.62-17.57zm7.28 16.95a2 2 0 0 0 2.09 2h18.33a2.06 2.06 0 0 0 2.08-2v-.85a2 2 0 0 0 -2.08-2.1h-18.33a2.12 2.12 0 0 0 -2.09 2.09zm6.26 3.46a5 5 0 0 0 5 4.69 5.09 5.09 0 0 0 5-4.69z" fill="#fddd04"/><path d="m238.48 361.91a7.28 7.28 0 0 0 5.64 2.69 10.19 10.19 0 0 0 4-.92 7.07 7.07 0 0 1 2.81-.72 6.43 6.43 0 0 1 3.75 1.14l.22.2-.75 1.14-.27-.09h-.06c-.51-.17-1.46-.51-3.89.81-.23.12-.47.25-.7.39a10.69 10.69 0 0 1 -5.36 1.81 6.48 6.48 0 0 1 -4.81-2.06 4.69 4.69 0 0 1 -.56-4.36zm15.71-7.68v1.5h2.11a2.2 2.2 0 0 0 2.2 2.23 2.23 2.23 0 0 0 2.2-2.23h2.08v-1.5zm71.53-11.37a4.17 4.17 0 0 0 -4.17 4.17v85.23h8.35v-85.26a4.15 4.15 0 0 0 -4.18-4.14zm-63.5-.06a2.06 2.06 0 0 0 -2.08 2.1v2h2.08a2 2 0 0 0 2-2 2 2 0 0 0 -2-2.1zm-8.14 0a2 2 0 0 0 -2 2.1 2 2 0 0 0 2 2h2.08v-2a2.07 2.07 0 0 0 -2.08-2.1zm-48.29-15.51v106.1a84 84 0 0 0 83.68 84v-14.72a24.26 24.26 0 0 1 -7.12-12.84 6.76 6.76 0 0 1 -6.17.31c4.18-6 6.84-10 6.84-16.6a18 18 0 0 0 -.89-5c-.85 8.22-8.1 12.9-9.34 16a16 16 0 0 0 -1 7.47 12 12 0 0 1 -6.78-10.78 11.86 11.86 0 0 1 2.92-7.81c3.11-3.63 6.34-6.17 8-8.15-3.33.06-7.05 2.41-9.37 4.89a10.3 10.3 0 0 1 -.16-1.86 13.06 13.06 0 0 1 4.72-9.65c7.81-7 8.16-13.49 7.43-20-5.37 2.09-9 7.62-9.23 13.71a14.07 14.07 0 0 1 -5.23-1.33 2.37 2.37 0 0 1 -.25.55l-9.09 11.39c2 .71 4.17 2.57 4.17 7.34a10.93 10.93 0 0 0 .05 1.14 5.76 5.76 0 0 1 -.66 3.76 5 5 0 0 1 -3.06 2.42 5.12 5.12 0 0 1 -5.25-1.73l-.16-.23.83-.94.22.14a1.78 1.78 0 0 0 1.37.2 1.53 1.53 0 0 0 1.14-1.48 3 3 0 0 1 .66-3.28 16 16 0 0 0 .17-1.86.65.65 0 0 0 -.17-.5 1 1 0 0 0 -.72-.2 64.58 64.58 0 0 0 -6.51.31 29.32 29.32 0 0 0 -8.53 2.39h-.06a3.07 3.07 0 0 1 -2.72 2.94 3.31 3.31 0 0 1 -1.2-.16 1.43 1.43 0 0 0 -.5 1.39 1.46 1.46 0 0 0 .61 1l.25.14-.47 1-.28-.06a4.59 4.59 0 0 1 -3.5-3.72 4.85 4.85 0 0 1 .81-3.4 5.23 5.23 0 0 1 2.86-1.91 6.67 6.67 0 0 1 .86-.28l5.26-2.2a21.34 21.34 0 0 0 -4.2-.73 2.69 2.69 0 0 1 -1.28 1.53 3 3 0 0 1 -2.28.32 3.45 3.45 0 0 1 -1.36-.84 1.37 1.37 0 0 0 -1.5.94 1.4 1.4 0 0 0 .05 1.17l.11.26-.91.69-.17-.17a4.56 4.56 0 0 1 -1.31-4.95 5.09 5.09 0 0 1 2.39-2.58 5.52 5.52 0 0 1 3.23-.34 1.62 1.62 0 0 1 .44 0c.34 0 6.32-.06 9.26.11l-1.85-1.6a2.84 2.84 0 0 1 -2.8-.71 3.45 3.45 0 0 1 -.81-1.41 1.36 1.36 0 0 0 -1.64.17 1.38 1.38 0 0 0 -.5 1.08v.31l-1.14.16-.06-.24a4.55 4.55 0 0 1 1.14-5 4.64 4.64 0 0 1 3.34-1.19 5.06 5.06 0 0 1 3.06 1.28s.11 0 .11.05c1.92 1.06 4.7 4 6.51 6a10.94 10.94 0 0 0 1.16 1.06c1.42-1.72 9.73-11.56 10.18-12.16a2.34 2.34 0 0 1 .55-.47 14.35 14.35 0 0 1 -2.86-4.39c-.23 0-.5.06-.78.06a6.93 6.93 0 0 1 -4.75-1.92c6.61-2.43 8.15-6 11.48-10.46a25 25 0 0 1 11.18-8.12l-3.95-11.06a22.12 22.12 0 0 1 -9.23 3.22l.36 8.46a6.93 6.93 0 0 1 -7.92 6.84c1.24-7.5 1.86-14.2 2-15.32a24.12 24.12 0 0 1 -3-.59l-7.47 25.6a11 11 0 0 1 -16.18 6.45c5.65-5.62 9.05-13.39 11.53-18.68l7.07-15.32a19.56 19.56 0 0 1 -1.7-1.05l-16.22 18.12a11.06 11.06 0 0 1 -16.88.08 44.56 44.56 0 0 0 9.68-6c2.26-1.74 19-16.27 19-16.27a8.06 8.06 0 0 1 -1.08-1.36l-18.22 7.78a10.84 10.84 0 0 1 -3.95.75 11 11 0 0 1 -10.65-8.36c2.49.37 9-.91 11.54-1.39s17.92-4.09 18.32-4.17c-.28-.74-.5-1.48-.72-2.26l-18.66-.05a11 11 0 0 1 -11-12.12 88.66 88.66 0 0 0 18.43 5.16c1.42.26 9.49 1.31 10.46 1.43v-.09c0-.79.05-1.56.11-2.33l-22.77-10.4a11 11 0 0 1 -5.51-9.51 11.22 11.22 0 0 1 1.64-5.79 45.46 45.46 0 0 0 12.76 10.44c4.86 2.83 14.92 8.75 15.43 9 .23-.55.47-1.1.75-1.65l-.22-.13-24.22-21.22a11 11 0 0 1 .92-18.2 37 37 0 0 0 7.17 11.39l32.34 33.73a3.57 3.57 0 0 1 .92 2.47 4 4 0 0 1 -2.78 3.81 4.19 4.19 0 0 0 2.33.72 3.94 3.94 0 0 0 3.14-1.56 6.85 6.85 0 0 1 9.9-1 15.55 15.55 0 0 1 -.33-3.31 14.22 14.22 0 0 1 3.22-9.07 3.42 3.42 0 0 1 -2 .62 3.87 3.87 0 0 1 -2.44-.87 8.79 8.79 0 0 0 .47-3.64 9 9 0 0 0 -9.6-8.4 7.43 7.43 0 0 0 -1.47.26 4.78 4.78 0 0 1 -4.42-.39l-.23-.22.17-.28.22-.31.14-.14h.17a5.75 5.75 0 0 0 3.61-1.86 2.05 2.05 0 0 0 .61-1.51 1.8 1.8 0 0 0 -.55-1.36 1.9 1.9 0 0 0 -1.36-.55 1.78 1.78 0 0 0 -1.53.81l-.62-.14a4.1 4.1 0 0 0 -3.39-3h-4a.87.87 0 0 0 -.67.22.85.85 0 0 0 -.22.67v1.23h-1.37l-.11-.2a34.18 34.18 0 0 1 -2.41-4.72 2.43 2.43 0 0 1 .22-2.37 1.58 1.58 0 0 1 1.33-.74h9.54l.83-1.39h.72v-2.09a5 5 0 0 1 -1.86-1.19 5.37 5.37 0 0 1 -1.58-3.82 5.28 5.28 0 0 1 5.31-5.27 5.11 5.11 0 0 1 3.22 1.08 1.57 1.57 0 0 0 .87.14 1.4 1.4 0 0 0 .83-.14 5.33 5.33 0 0 1 3.22-1.08 5.4 5.4 0 0 1 5.31 5.27 5.37 5.37 0 0 1 -1.58 3.82 4.86 4.86 0 0 1 -1.95 1.27v2c11.43.15 12.4 11.39 20.88 11.39h.5c0 .21.06.39.06.58a4.48 4.48 0 0 1 -2.09 3.76 14.68 14.68 0 0 1 6.09 4.78v-45.21z" fill="#fddd04"/><circle cx="391.86" cy="256.18" fill="#ed1c24" r="1.59" stroke="#000" stroke-width=".71"/></svg>