<svg viewBox="0 0 822 500" xmlns="http://www.w3.org/2000/svg"><path d="m461.34 168.88 56.15-12.73-56.15-12.73"/><path d="m489.55 161.79 24.53-5.38-24 .12m0-.73 24 .12-24.53-5.35" fill="#fddd04"/><path d="m450.08 130.91a7.14 7.14 0 0 1 .09-2.19 7.65 7.65 0 0 1 1.43-2.89 8.9 8.9 0 0 0 1.76-3.61 8 8 0 0 0 -.3-3.72 8.39 8.39 0 0 1 -.05-4.79 10.34 10.34 0 0 1 4.14-5.38l.63-.35-.66-.3a7.43 7.43 0 0 0 -8.11 2.37 11.93 11.93 0 0 0 -1.88 4.78 12.39 12.39 0 0 1 -1.4 3.9 8.5 8.5 0 0 1 -2.51 2.13 16.18 16.18 0 0 0 -4.33 3.84l-18.33 31.44"/><path d="m446 156.16-12.71-56.16-12.72 56.16"/><path d="m438.93 127.94-5.38-24.53.12 24m-.73 0 .12-24-5.35 24.53" fill="#fddd04"/><path d="m448.58 131.86.84-.55a6 6 0 0 1 0-2.7 8.35 8.35 0 0 1 1.54-3.2 9.06 9.06 0 0 0 1.66-3.31 7.71 7.71 0 0 0 -.27-3.43 9 9 0 0 1 -.05-5.2 11.16 11.16 0 0 1 3.83-5.32 6.93 6.93 0 0 0 -6.59 2.38 11.25 11.25 0 0 0 -1.75 4.48 12.61 12.61 0 0 1 -1.51 4.13 9.37 9.37 0 0 1 -2.7 2.32 15.22 15.22 0 0 0 -4.48 4.19l.53 2.49" fill="#fddd04"/><path d="m463 150.18a7.58 7.58 0 0 1 1.61-1.49 7.74 7.74 0 0 1 3.06-1 8.9 8.9 0 0 0 3.8-1.31 8 8 0 0 0 2.42-2.84 8.37 8.37 0 0 1 3.34-3.43 10.38 10.38 0 0 1 6.74-.87l.69.2-.25-.68a7.46 7.46 0 0 0 -7.41-4.06 12.23 12.23 0 0 0 -4.72 2.05 12.4 12.4 0 0 1 -3.75 1.77 8.41 8.41 0 0 1 -3.27-.27 16.06 16.06 0 0 0 -5.78-.34l-35.19 9.27"/><path d="m442.28 165.16 30.72-48.71-48.71 30.71"/><path d="m457.22 140.19 13.54-21.14-16.89 17.06m-.51-.52 17.05-16.89-21.12 13.56" fill="#fddd04"/><path d="m461.27 149.79 1 .21c.17-.34.47-.77 1.93-1.89a8.34 8.34 0 0 1 3.35-1.18 9 9 0 0 0 3.52-1.17 7.85 7.85 0 0 0 2.24-2.61 8.91 8.91 0 0 1 3.63-3.72 11.13 11.13 0 0 1 6.48-1 6.93 6.93 0 0 0 -6.35-3 11.1 11.1 0 0 0 -4.4 1.93 12.7 12.7 0 0 1 -4 1.85 9.37 9.37 0 0 1 -3.55-.27 14.92 14.92 0 0 0 -6.12-.2l-1.4 2.13" fill="#fddd04"/><path d="m358.93 139.35a7.14 7.14 0 0 1 -2.19-.09 7.8 7.8 0 0 1 -2.89-1.43 8.92 8.92 0 0 0 -3.61-1.77 8.14 8.14 0 0 0 -3.72.3 8.29 8.29 0 0 1 -4.79.06 10.33 10.33 0 0 1 -5.38-4.15l-.35-.62-.3.65a7.46 7.46 0 0 0 2.37 8.12 12.23 12.23 0 0 0 4.78 1.88 12.55 12.55 0 0 1 3.91 1.4 8.49 8.49 0 0 1 2.12 2.51 16.35 16.35 0 0 0 3.84 4.32l31.44 18.34"/><path d="m384.18 143.4-56.18 12.73 56.16 12.73"/><path d="m356 150.5-24.52 5.37 24-.11m0 .72-24-.11 24.52 5.34" fill="#fddd04"/><path d="m359.88 140.85-.55-.85a5.87 5.87 0 0 1 -2.7 0 8.5 8.5 0 0 1 -3.2-1.54 9.06 9.06 0 0 0 -3.31-1.66 7.73 7.73 0 0 0 -3.43.26 8.91 8.91 0 0 1 -5.2.06 11.16 11.16 0 0 1 -5.32-3.84 7 7 0 0 0 2.39 6.6 11 11 0 0 0 4.44 1.72 12.84 12.84 0 0 1 4.13 1.51 9.42 9.42 0 0 1 2.32 2.71 15.08 15.08 0 0 0 4.19 4.47l2.5-.52" fill="#fddd04"/><path d="m378.2 126.42a6.88 6.88 0 0 1 -1.48-1.61 7.63 7.63 0 0 1 -1-3.06 8.85 8.85 0 0 0 -1.3-3.79 8.09 8.09 0 0 0 -2.85-2.42 8.26 8.26 0 0 1 -3.42-3.35 10.28 10.28 0 0 1 -.87-6.73l.19-.7-.68.26a7.44 7.44 0 0 0 -4.06 7.41 12.13 12.13 0 0 0 2.05 4.71 12.28 12.28 0 0 1 1.77 3.75 8.48 8.48 0 0 1 -.27 3.28 16.27 16.27 0 0 0 -.34 5.78l9.27 35.19"/><path d="m393.18 147.15-48.71-30.71 30.71 48.71"/><path d="m368.22 132.21-21.15-13.54 17.06 16.89m-.52.51-16.89-17 13.56 21.12" fill="#fddd04"/><path d="m377.81 128.16.21-1c-.34-.16-.77-.46-1.89-1.93a8.19 8.19 0 0 1 -1.17-3.35 9.24 9.24 0 0 0 -1.18-3.51 7.53 7.53 0 0 0 -2.61-2.24 9 9 0 0 1 -3.71-3.64 11 11 0 0 1 -1-6.47 6.92 6.92 0 0 0 -3 6.35 11.16 11.16 0 0 0 1.93 4.4 12.66 12.66 0 0 1 1.85 4 9.41 9.41 0 0 1 -.27 3.56 15.09 15.09 0 0 0 -.2 6.12l2.13 1.4" fill="#fddd04"/><path d="m388.37 126.42a6.88 6.88 0 0 1 -1.48-1.61 7.63 7.63 0 0 1 -1-3.06 8.86 8.86 0 0 0 -1.31-3.79 8.06 8.06 0 0 0 -2.84-2.42 8.28 8.28 0 0 1 -3.43-3.35 10.35 10.35 0 0 1 -.87-6.73l.19-.7-.67.26c-2.59 1.08-4.34 4.26-4.07 7.41a12.15 12.15 0 0 0 2.06 4.71 12.51 12.51 0 0 1 1.77 3.75 8.48 8.48 0 0 1 -.27 3.28 16 16 0 0 0 -.34 5.78l9.26 35.19"/><path d="m403.36 147.15-48.71-30.71 30.71 48.71"/><path d="m378.39 132.21-21.14-13.54 17.05 16.89m-.51.51-16.89-17.07 13.56 21.12" fill="#fddd04"/><path d="m388 128.16.2-1c-.33-.16-.76-.46-1.89-1.93a8.49 8.49 0 0 1 -1.17-3.35 9.06 9.06 0 0 0 -1.17-3.51 7.62 7.62 0 0 0 -2.61-2.24 8.94 8.94 0 0 1 -3.72-3.64 11.2 11.2 0 0 1 -1.05-6.47 6.94 6.94 0 0 0 -3 6.35 11.19 11.19 0 0 0 1.94 4.4 12.66 12.66 0 0 1 1.85 4 9.41 9.41 0 0 1 -.27 3.56 15.06 15.06 0 0 0 -.21 6.12l2.14 1.4" fill="#fddd04"/><path d="m467.35 387.73s.2.22.2.35v11.28a1.18 1.18 0 0 1 -.2.38h7.29v-1.43s-.25.2-.37.2h-5.27a.73.73 0 0 1 -.26-.11v-4.1h4c.12 0 .37.23.37.23v-1.6a1.26 1.26 0 0 1 -.37.18h-4v-4.18h5.55c.12 0 .37.2.37.2v-1.4z"/><path d="m562.7 387.41a2.75 2.75 0 0 0 -2.84 2.71 3.18 3.18 0 0 0 2.17 2.93c.94.45 2.79 1 2.79 3a2.6 2.6 0 0 1 -2.73 2.64 2.88 2.88 0 0 1 -2.24-.93v2.14a1.14 1.14 0 0 1 .5-.16c.23 0 1.1.23 1.68.23 1 0 4.16-.46 4.16-3.9 0-1.93-.94-2.93-2.59-3.84s-2.38-1-2.38-2.14a1.62 1.62 0 0 1 1.74-1.54 2 2 0 0 1 1.81.73v-1.84a.87.87 0 0 1 -.41.18c-.19.03-1.1-.21-1.66-.21z"/><circle cx="415.81" cy="156.14" fill="#fddd04" r="28.36" stroke="#000" stroke-width=".74"/><path d="m178.53 276.27a90.07 90.07 0 1 0 180.13 0v-113.21h-180.13z"/><path d="m556.18 165.4v198.6a87.89 87.89 0 0 0 87.29-87.78v-110.83z" fill="#ed1c24"/><path d="m304.84 134.11c-5.16 0-5.42 3.51-4.24 4.82l-6.25-1.34-1.91 3.17h10.95c-2.72-1.34-1.29-3.43 1.43-3.43s4.16 2.09 1.45 3.43h10.87l-1.89-3.17-6.19 1.34c1.18-1.31.95-4.82-4.22-4.82zm-18.13 8.77 1.19 1.31v13.51l-1.19 1.3h5.73l-1.17-1.31v-13.5l1.17-1.31zm8.81 0 1.19 1.31v13.51l-1.19 1.3h5.72l-1.24-1.3v-5.11h6.19v5.11l-1.14 1.3h5.72l-1.19-1.31v-13.5l1.19-1.31h-5.72l1.16 1.31v5h-6.21v-5l1.22-1.31zm17.26 0 4.56 8.05-4.56 8h10.51l1.89-3.37h-6.56l2.73-4.68-2.73-4.62h5.26l-1.95-3.43zm-76.54 244.12a6.42 6.42 0 1 0 6.42 6.41 6.39 6.39 0 0 0 -6.42-6.41zm100.74.29-5.17 12a1.7 1.7 0 0 1 -.26.37h1.66s-.17-.21-.12-.37l1.19-2.76h5.46l1.17 2.76c0 .16-.12.37-.12.37h1.63a2.64 2.64 0 0 1 -.27-.37zm-48.09.05v12a1.18 1.18 0 0 1 -.2.38h1.6s-.21-.27-.21-.38v-8.58l7.33 9.22v-11.86a1 1 0 0 1 .2-.39h-1.61a1 1 0 0 1 .2.39v8.5zm-64.39.07a9 9 0 0 0 -2.24.28 1.33 1.33 0 0 1 -.47.06 1.48 1.48 0 0 1 -.32-.06 2.84 2.84 0 0 1 -.37-.17v11.8c0 .11-.21.38-.21.38h1.6a1.18 1.18 0 0 1 -.2-.38v-4.45a4.23 4.23 0 0 0 2.21.58 4 4 0 0 0 0-8zm89.7 0a9.71 9.71 0 0 0 -2.24.28 1.31 1.31 0 0 1 -.47.06 1.49 1.49 0 0 1 -.31-.06 2.84 2.84 0 0 1 -.37-.17v11.8c0 .11-.21.38-.21.38h4.88a3.65 3.65 0 0 0 3.6-3.64 3 3 0 0 0 -1.76-3.07 2.12 2.12 0 0 0 .93-1.78c0-2.21-1.46-3.76-4.05-3.76zm10.9 0a8.93 8.93 0 0 0 -2.21.28 1.61 1.61 0 0 1 -.46.06 1.78 1.78 0 0 1 -.35-.06 2.55 2.55 0 0 1 -.38-.17v11.8a1.18 1.18 0 0 1 -.2.38h1.62s-.23-.27-.23-.38v-10.32a5.67 5.67 0 0 1 2.21-.35 2.63 2.63 0 0 1 2.82 2.79c0 1.33-1.18 2.12-2.82 2.12h-.55v1.11c3.36 0 4.18 3.37 4.18 4.65v.37h1.66a3.13 3.13 0 0 1 -.39-.69 5.93 5.93 0 0 0 -2.82-4.76 2.84 2.84 0 0 0 1.89-2.82 3.73 3.73 0 0 0 -3.97-3.97zm-74.33.16v1.43a1.74 1.74 0 0 1 .34-.21h3.06v10.56c0 .11-.21.38-.21.38h1.6a1.3 1.3 0 0 1 -.2-.38v-10.55h3.11a1.61 1.61 0 0 1 .35.21v-1.4zm17.29 0v1.43a1.74 1.74 0 0 1 .34-.21h3.06v10.56c0 .11-.21.38-.21.38h1.6a1.3 1.3 0 0 1 -.2-.38v-10.55h3.14a1.74 1.74 0 0 1 .34.21v-1.4zm102.19.1s.2.25.2.37v7.76a4.16 4.16 0 0 0 8.32 0v-7.76c0-.12.2-.37.2-.37h-1.6s.21.25.21.37v7.76a3 3 0 1 1 -5.93 0v-7.76c0-.12.23-.37.23-.37zm10.95 0a3.21 3.21 0 0 1 .3.37l3.11 5.21-3.6 6a1.66 1.66 0 0 1 -.33.37h1.78s-.2-.22-.12-.37l3-5 2.93 5c.09.15-.12.37-.12.37h1.78a1.66 1.66 0 0 1 -.33-.37l-3.57-6 3.05-5.21c.09-.11.36-.37.36-.37h-1.78s.19.24.11.37l-2.43 4.16-2.48-4.16c-.07-.13.12-.37.12-.37zm-19.63 0a1 1 0 0 1 .2.39v11.21c0 .12-.2.37-.2.37h7.43v-1.39a1.07 1.07 0 0 1 -.38.2h-5.62v-10.33a1 1 0 0 1 .2-.39zm-125.34.55a5.18 5.18 0 1 1 -5.17 5.17 5.2 5.2 0 0 1 5.17-5.11zm-11.74.38a2.81 2.81 0 0 1 0 5.61 3.08 3.08 0 0 1 -2.2-.84v-4.37a5.62 5.62 0 0 1 2.2-.34zm89.71 0c1.88 0 2.82 1 2.82 2.59a1.79 1.79 0 0 1 -1.74 1.48c-.77 0-.89 0-1.52 0v1.09h1.86c1.92 0 2.21 1.12 2.21 2.27a2.75 2.75 0 0 1 -2.84 2.56h-3v-9.59a5.7 5.7 0 0 1 2.21-.34zm22.78 1.6 2.27 5.23h-4.51z"/><path d="m330.88 179a4.59 4.59 0 0 0 -3.37 1.43 4.68 4.68 0 0 0 -1.48 3.4 4.83 4.83 0 0 0 1.48 3.43 4.74 4.74 0 0 0 3.37 1.42h8.52a4.83 4.83 0 0 0 3.43-8.25 4.82 4.82 0 0 0 -3.43-1.43 4.93 4.93 0 0 0 -3 1 2.13 2.13 0 0 1 -1.32.26 2.33 2.33 0 0 1 -1.32-.26 4.93 4.93 0 0 0 -2.88-1zm0 1.86a2.9 2.9 0 0 1 2.91 2.88v2.88h-2.91a2.77 2.77 0 0 1 -2-.85 2.89 2.89 0 0 1 -.82-2 2.84 2.84 0 0 1 2.82-2.91zm8.52 0a2.7 2.7 0 0 1 2 .84 2.89 2.89 0 0 1 0 4.07 2.79 2.79 0 0 1 -2 .85h-2.91v-2.88a2.91 2.91 0 0 1 2.91-2.88zm-9.68 8.37v2h10.87v-2a5.06 5.06 0 0 1 -1.19.12h-8.52a3.62 3.62 0 0 1 -1.16-.12zm-12.38 4.16a1 1 0 0 0 -.81.46 2 2 0 0 0 -.18 1.86 46.76 46.76 0 0 0 2.36 4.62h.34v-.55a1.58 1.58 0 0 1 1.66-1.69h4.16c1.53 0 3.3 1.44 4 3.15a2.7 2.7 0 0 1 1.77-.7 2.76 2.76 0 0 1 2 .81 2.72 2.72 0 0 1 .84 1.94 3 3 0 0 1 -1 2.1 7.47 7.47 0 0 1 -3.78 2.09 4.69 4.69 0 0 0 3.55 0 5.79 5.79 0 0 0 1.75-1.48 5.86 5.86 0 0 0 .81-1.31 5.77 5.77 0 0 0 .5-2.36 5.82 5.82 0 0 0 -.58-2.55 5.32 5.32 0 0 0 -1.54-1.95c-1.73-1.42-6.34-4.44-6.34-4.44zm-2.3 9.68a3.36 3.36 0 0 0 .73 2.61 6.16 6.16 0 0 0 4.42 1.86 10.4 10.4 0 0 0 5.26-1.78 6.47 6.47 0 0 1 .72-.4c2.55-1.41 3.83-1.18 4.48-1l.06-.18a6.07 6.07 0 0 0 -3.14-.84 6.6 6.6 0 0 0 -2.64.67 11.4 11.4 0 0 1 -4.45 1 8.11 8.11 0 0 1 -5.44-2zm22.5 89a2.25 2.25 0 0 0 -.56.4c-.53.69-10.42 12.43-10.89 12.94l-.18.26-.29-.2a8.61 8.61 0 0 1 -1.54-1.37c-1.83-1.91-4.76-5.08-6.59-6.16a2.55 2.55 0 0 0 -3 .5 2.38 2.38 0 0 0 2.53 3.85l.17-.08.21.15 2.82 2.56 1 .81-1.3-.21c-2.25-.26-10.64-.19-10.7-.19h-.06a2.41 2.41 0 0 0 -2.44 1.76 2.74 2.74 0 0 0 .26 1.78 2.4 2.4 0 0 0 1.46 1.11 2.13 2.13 0 0 0 1.77-.25 2.34 2.34 0 0 0 1.13-1.42l.06-.29h.29a18.77 18.77 0 0 1 5.76 1.11l.75.31-.75.36-6.45 2.73a2.4 2.4 0 0 0 -2.13 2.67 2.36 2.36 0 1 0 4.71-.41v-.26l.24-.08.26-.12a30 30 0 0 1 9.15-2.56c2.28-.22 4.57-.29 6.86-.29a1.79 1.79 0 0 1 1.28.41 1.46 1.46 0 0 1 .37 1c0 .62-.17 2.12-.17 2.17v.12l-.15.11a2.41 2.41 0 0 0 -.17 3.32c.06.06 1.6 1.48 3.08.38 1.24-.9 1.08-2 1-3.16v-.56c.06-3.85-1.55-6.69-4.39-7.47l-.52-.14.35-.41 9.82-12.25a4.16 4.16 0 0 0 .17-.53 14.5 14.5 0 0 1 -3.22-2.32zm-23.13 4.51a4 4 0 0 0 -3 1.06 4.1 4.1 0 0 0 -1.13 4.25h.06a2.06 2.06 0 0 1 .72-1.34 2.2 2.2 0 0 1 2-.52.34.34 0 0 1 .12.08 3.32 3.32 0 0 1 .84-2.18 3.37 3.37 0 0 1 1.89-.93l-.9-.35a3.9 3.9 0 0 0 -.58-.05zm-10.81 11.32a4 4 0 0 0 .93 4.28l.05-.05a2.19 2.19 0 0 1 1.49-2.86h.34a3 3 0 0 1 -.29-2.32 3.55 3.55 0 0 1 1.31-1.77 4.16 4.16 0 0 0 -3.83 2.72zm5 5.58a4.24 4.24 0 0 0 -1.8 4.13 4.17 4.17 0 0 0 2.91 3.28l.06-.08a2.37 2.37 0 0 1 -.7-1.34 2.05 2.05 0 0 1 .58-1.83 3 3 0 0 1 -1.09-4.16zm22.1 5.59a2.32 2.32 0 0 1 -3.21 1.33l-.11.09a4.66 4.66 0 0 0 4.68 1.43 4.51 4.51 0 0 0 2.91-2.48 3.07 3.07 0 0 1 -4.31-.37z" fill="#ed1c24"/><path d="m341.88 387.41a2.75 2.75 0 0 0 -2.84 2.71 3.18 3.18 0 0 0 2.17 2.93c.94.45 2.79 1 2.79 3a2.6 2.6 0 0 1 -2.73 2.64 2.85 2.85 0 0 1 -2.24-.93v2.14a1.14 1.14 0 0 1 .5-.16c.23 0 1.1.23 1.68.23 1 0 4.16-.46 4.16-3.9 0-1.93-.94-2.93-2.59-3.84s-2.38-1-2.38-2.14a1.62 1.62 0 0 1 1.74-1.54 1.94 1.94 0 0 1 1.8.73v-1.84a.82.82 0 0 1 -.4.18c-.19.03-1.1-.21-1.66-.21z"/><path d="m430.55 387.73s.2.22.2.35v11.28a1.18 1.18 0 0 1 -.2.38h7.29v-1.43a1.07 1.07 0 0 1 -.38.2h-5.26a.81.81 0 0 1 -.26-.11v-4.1h4c.12 0 .38.23.38.23v-1.6a1.35 1.35 0 0 1 -.38.18h-4v-4.18h5.55a1.07 1.07 0 0 1 .38.2v-1.4z"/><path d="m550.4 275.3v-89.3a5.78 5.78 0 1 0 -11.56 0v89.3"/><path d="m534.36 302.5a27.91 27.91 0 0 0 -19 20.31h8.09a20.28 20.28 0 0 1 11.93-12.4v1.95a3.59 3.59 0 0 0 3.62 3.64h.89a3.64 3.64 0 0 0 3.61-3.6v-2.91a6.7 6.7 0 0 0 0-13.39v-2.89a3.6 3.6 0 0 0 -3.61-3.65h-.89a3.62 3.62 0 0 0 -3.61 3.65v1.46"/><path d="m522.18 322.15a21.22 21.22 0 0 1 13.22-13.28v-5.14a26.43 26.43 0 0 0 -18.4 18.42zm17.72-7.62a2.13 2.13 0 0 0 2.12-2.17v-19.19a2.14 2.14 0 0 0 -2.12-2.17h-.9a2.13 2.13 0 0 0 -2.19 2.17v19.19a2.22 2.22 0 0 0 2.19 2.17zm3.61-6.53a5.22 5.22 0 0 0 4.91-5.26 5.33 5.33 0 0 0 -4.91-5.26z" fill="#fddd04"/><path d="m515.55 284.21a27.86 27.86 0 0 0 20.31 19v-8.11a20.29 20.29 0 0 1 -12.41-11.93h1.95a3.59 3.59 0 0 0 3.6-3.6v-.9a3.63 3.63 0 0 0 -3.6-3.61h-2.91a6.7 6.7 0 0 0 -13.39 0h-2.88a3.6 3.6 0 0 0 -3.65 3.61v.9a3.61 3.61 0 0 0 3.65 3.6h1.46"/><path d="m535.2 296.4a21.26 21.26 0 0 1 -13.28-13.23h-5.14a26.44 26.44 0 0 0 18.42 18.37zm-7.62-17.73a2.14 2.14 0 0 0 -2.18-2.12h-19.18a2.14 2.14 0 0 0 -2.17 2.12v.9a2.11 2.11 0 0 0 2.17 2.18h19.18a2.22 2.22 0 0 0 2.18-2.18zm-6.58-3.61a5.22 5.22 0 0 0 -5.25-4.91 5.32 5.32 0 0 0 -5.26 4.91z" fill="#fddd04"/><path d="m572.71 192.08v13.6h-4.48v15.32h4.48v13.63h8.16v-3.63h5.5v3.63h8.24v-8.84h-4.18v-4.89h4.18v-15.08h-4.18v-4.91h4.18v-8.83h-8.24v3.6h-5.5v-3.6zm8.16 8.95h5.5v9.88h3.77v4.91h-3.77v9.85h-5.5v-9.85h-3.87v-4.91h3.92z" fill="#fddd04" stroke="#000" stroke-width="1.39"/><path d="m499.68 303a27.9 27.9 0 0 0 19-20.31h-8.09a20.29 20.29 0 0 1 -11.93 12.41v-2a3.58 3.58 0 0 0 -3.6-3.59h-.9a3.61 3.61 0 0 0 -3.6 3.59v2.91a6.71 6.71 0 0 0 0 13.4v2.88a3.6 3.6 0 0 0 3.6 3.65h.9a3.61 3.61 0 0 0 3.6-3.65v-1.39"/><path d="m511.86 283.38a21.26 21.26 0 0 1 -13.23 13.28v5.14a26.44 26.44 0 0 0 18.37-18.42zm-17.73 7.62a2.14 2.14 0 0 0 -2.12 2.17v19.19a2.14 2.14 0 0 0 2.12 2.17h.9a2.11 2.11 0 0 0 2.18-2.17v-19.19a2.22 2.22 0 0 0 -2.21-2.17zm-3.6 6.54a5.21 5.21 0 0 0 -4.91 5.25 5.31 5.31 0 0 0 4.91 5.26z" fill="#fddd04"/><path d="m518.49 321.32a27.91 27.91 0 0 0 -20.31-19v8.09a20.25 20.25 0 0 1 12.4 11.93h-1.95a3.59 3.59 0 0 0 -3.63 3.66v.89a3.64 3.64 0 0 0 3.6 3.61h2.91a6.7 6.7 0 0 0 13.39 0h2.88a3.61 3.61 0 0 0 3.66-3.61v-.89a3.62 3.62 0 0 0 -3.66-3.61h-1.46"/><path d="m498.84 309.14a21.22 21.22 0 0 1 13.28 13.22h5.14a26.46 26.46 0 0 0 -18.42-18.36zm7.61 17.72a2.13 2.13 0 0 0 2.18 2.12h19.18a2.15 2.15 0 0 0 2.18-2.12v-.86a2.12 2.12 0 0 0 -2.18-2.19h-19.18a2.22 2.22 0 0 0 -2.18 2.19zm6.54 3.61a5.22 5.22 0 0 0 5.26 4.91 5.33 5.33 0 0 0 5.26-4.91z" fill="#fddd04"/><path d="m256.31 201.55a7.58 7.58 0 0 0 5.9 2.82 10.62 10.62 0 0 0 4.15-1 7.34 7.34 0 0 1 2.94-.75 6.67 6.67 0 0 1 3.92 1.19l.23.2-.78 1.19-.29-.09h-.06c-.53-.17-1.53-.53-4.07.85-.24.12-.49.26-.73.41a11.17 11.17 0 0 1 -5.6 1.89 6.82 6.82 0 0 1 -5-2.15 4.91 4.91 0 0 1 -.58-4.57zm16.42-8v1.57h2.2a2.29 2.29 0 0 0 2.3 2.32 2.33 2.33 0 0 0 2.3-2.32h2.17v-1.57zm74.76-11.88a4.36 4.36 0 0 0 -4.36 4.36v89.08h8.72v-89.11a4.33 4.33 0 0 0 -4.36-4.35zm-66.37-.06a2.15 2.15 0 0 0 -2.18 2.19v2.11h2.18a2.11 2.11 0 0 0 2.13-2.11 2.15 2.15 0 0 0 -2.13-2.21zm-8.51 0a2.15 2.15 0 0 0 0 4.3h2.18v-2.11a2.16 2.16 0 0 0 -2.18-2.21zm-50.48-16.22v110.87a87.81 87.81 0 0 0 87.47 87.74v-15.32a25.41 25.41 0 0 1 -7.44-13.42 7.2 7.2 0 0 1 -3.54.95 7.12 7.12 0 0 1 -2.91-.63c4.37-6.27 7.15-10.43 7.15-17.35a18.83 18.83 0 0 0 -.93-5.17c-.89 8.59-8.46 13.48-9.76 16.76a16.65 16.65 0 0 0 -1 7.82 12.49 12.49 0 0 1 -4-19.44c3.25-3.79 6.62-6.45 8.4-8.52-3.49.07-7.37 2.52-9.8 5.12a11.4 11.4 0 0 1 -.17-1.95 13.6 13.6 0 0 1 4.94-10.08c8.15-7.31 8.53-14.1 7.76-20.93-5.61 2.18-9.37 8-9.65 14.33a14.86 14.86 0 0 1 -5.46-1.39 2.35 2.35 0 0 1 -.26.57l-9.51 11.91c2.07.75 4.36 2.69 4.36 7.67a9.84 9.84 0 0 0 .06 1.19 6 6 0 0 1 -.7 3.93 5.16 5.16 0 0 1 -3.19 2.53 5.34 5.34 0 0 1 -5.61-1.92l-.18-.24.88-1 .23.14a1.81 1.81 0 0 0 1.42.21 1.59 1.59 0 0 0 1.19-1.54 3.79 3.79 0 0 1 -.23-1.37 3.43 3.43 0 0 1 .93-2.07 17.15 17.15 0 0 0 .18-1.94.68.68 0 0 0 -.18-.52 1.14 1.14 0 0 0 -.75-.21c-1 0-3.2 0-6.8.32a30.67 30.67 0 0 0 -8.92 2.5h-.06a3.22 3.22 0 0 1 -2.85 3.08 3.6 3.6 0 0 1 -1.25-.17 1.6 1.6 0 0 0 .12 2.49l.26.15-.5 1.08-.29-.06a4.8 4.8 0 0 1 -3.66-3.89 5 5 0 0 1 .84-3.55 5.49 5.49 0 0 1 3-2 8.09 8.09 0 0 1 .9-.29l5.49-2.3a21.9 21.9 0 0 0 -4.39-.76 2.77 2.77 0 0 1 -1.33 1.6 3.1 3.1 0 0 1 -2.39.32 3.4 3.4 0 0 1 -1.42-.87 1.45 1.45 0 0 0 -1.57 1 1.42 1.42 0 0 0 .06 1.21l.11.27-1 .73-.18-.18a4.75 4.75 0 0 1 -1.36-5.17 5.29 5.29 0 0 1 2.49-2.7 5.81 5.81 0 0 1 3.37-.36 1.85 1.85 0 0 1 .47 0c.35 0 6.6 0 9.68.12l-1.89-1.71a3 3 0 0 1 -2.94-.73 3.7 3.7 0 0 1 -.84-1.48 1.41 1.41 0 0 0 -1.71.18 1.43 1.43 0 0 0 -.53 1.13v.32l-1.19.17-.06-.26a4.74 4.74 0 0 1 1.19-5.18 4.87 4.87 0 0 1 3.49-1.24 5.31 5.31 0 0 1 3.2 1.34c.06 0 .11 0 .11.05 2 1.11 4.91 4.21 6.8 6.28a12.82 12.82 0 0 0 1.22 1.11c1.5-1.67 10.19-12 10.66-12.67a2.21 2.21 0 0 1 .58-.49 14.85 14.85 0 0 1 -3-4.59c-.24 0-.52.06-.82.06a7.22 7.22 0 0 1 -5-2c6.92-2.54 8.52-6.26 12-10.92a26 26 0 0 1 11.68-8.49l-4.08-11.57a23.22 23.22 0 0 1 -9.65 3.37l.38 8.83a7.24 7.24 0 0 1 -8.28 7.15c1.3-7.84 1.95-14.84 2.06-16a24.91 24.91 0 0 1 -3.14-.62l-7.78 26.68a11.5 11.5 0 0 1 -11.11 8.35 11.35 11.35 0 0 1 -5.84-1.58c5.91-5.87 9.45-14 12.05-19.52l7.39-16a17.73 17.73 0 0 1 -1.78-1.09l-16.94 18.94a11.56 11.56 0 0 1 -17.64.08 46.73 46.73 0 0 0 10.11-6.24c2.37-1.82 19.82-17 19.82-17a9.39 9.39 0 0 1 -1.13-1.42l-19 8.08a11.32 11.32 0 0 1 -4.13.78 11.49 11.49 0 0 1 -11.12-8.79c2.6.39 9.4-1 12.06-1.45s18.74-4.27 19.15-4.36c-.3-.77-.52-1.54-.76-2.35l-19.49-.06a11.5 11.5 0 0 1 -11.48-12.67 93.63 93.63 0 0 0 19.26 5.4c1.48.27 9.92 1.37 10.93 1.49v-.09c0-.83.06-1.63.12-2.44l-23.8-10.87a11.52 11.52 0 0 1 -5.76-9.94 11.66 11.66 0 0 1 1.72-6.05 47.32 47.32 0 0 0 13.36 10.93c5.09 3 15.6 9.15 16.13 9.45.24-.57.49-1.15.79-1.72l-.24-.14-25.31-22.13a11.49 11.49 0 0 1 1-19 38.75 38.75 0 0 0 7.5 11.91l33.8 35.25a3.71 3.71 0 0 1 .95 2.58 4.16 4.16 0 0 1 -2.9 4 4.35 4.35 0 0 0 2.44.76 4.13 4.13 0 0 0 3.28-1.63 7.15 7.15 0 0 1 10.35-1 16.31 16.31 0 0 1 -.35-3.46 14.82 14.82 0 0 1 3.37-9.48 3.55 3.55 0 0 1 -2.12.64 4.09 4.09 0 0 1 -2.56-.9 9.11 9.11 0 0 0 .5-3.81 9.44 9.44 0 0 0 -10.06-8.81 8.29 8.29 0 0 0 -1.54.27 5 5 0 0 1 -4.62-.41l-.23-.23.17-.29.23-.32.15-.14h.17a6 6 0 0 0 3.78-1.95 2.14 2.14 0 0 0 .64-1.58 1.86 1.86 0 0 0 -.58-1.42 1.94 1.94 0 0 0 -1.42-.57 1.88 1.88 0 0 0 -1.6.84l-.64-.15a4.31 4.31 0 0 0 -3.55-3.14h-4.15a.94.94 0 0 0 -.7.23.89.89 0 0 0 -.23.7v1.28h-1.43l-.11-.2a35.31 35.31 0 0 1 -2.53-4.94 2.57 2.57 0 0 1 .23-2.47 1.66 1.66 0 0 1 1.4-.78h10l.88-1.45h.75v-2.33a5.26 5.26 0 0 1 -2-1.25 5.64 5.64 0 0 1 -1.65-4 5.52 5.52 0 0 1 5.55-5.5 5.37 5.37 0 0 1 3.37 1.13 1.65 1.65 0 0 0 .9.15 1.42 1.42 0 0 0 .87-.15 5.56 5.56 0 0 1 3.37-1.13 5.64 5.64 0 0 1 5.55 5.5 5.64 5.64 0 0 1 -1.65 4 5 5 0 0 1 -2 1.28v2.15c11.95.15 13 11.91 21.83 11.91h.52c0 .21.06.4.06.6a4.69 4.69 0 0 1 -2.18 3.93 15.33 15.33 0 0 1 6.36 5v-47.23z" fill="#fddd04"/><circle cx="397.41" cy="176.3" fill="#ed1c24" r="1.66" stroke="#000" stroke-width=".74"/></svg>