<svg id="Layer_1" data-name="Layer 1" xmlns="http://www.w3.org/2000/svg" viewBox="0 0 822 500"><defs><style>.cls-1,.cls-2,.cls-4{fill:#fddd04;}.cls-2,.cls-4,.cls-5{stroke:#000;}.cls-2,.cls-5{stroke-width:0.84px;}.cls-3,.cls-5{fill:#ed1c24;}.cls-4{stroke-width:1.57px;}</style></defs><title>PTL 5</title><g id="i"><path d="M379.32,264.36,442.68,250l-63.36-14.36"/><path class="cls-1" d="M411.16,256.36l27.67-6.07-27.08.14m0-.82,27.08.13-27.67-6"/></g><g id="j"><g id="h"><path d="M408.14,248.11a8.16,8.16,0,0,1,.11-2.46,8.52,8.52,0,0,1,1.61-3.27,10.07,10.07,0,0,0,2-4.07,9.09,9.09,0,0,0-.34-4.2,9.34,9.34,0,0,1-.06-5.4,11.64,11.64,0,0,1,4.67-6.07l.71-.4-.74-.33c-2.93-1.2-6.87-.07-9.16,2.67a13.71,13.71,0,0,0-2.12,5.4,13.87,13.87,0,0,1-1.58,4.4,9.44,9.44,0,0,1-2.83,2.4,18.28,18.28,0,0,0-4.88,4.33l-20.68,35.48"/><path d="M403.57,276.6,389.2,213.24,374.84,276.6"/><path class="cls-1" d="M395.56,244.77l-6.06-27.68.13,27.09m-.82,0,.13-27.09-6,27.68"/><path class="cls-1" d="M406.45,249.19l.95-.62a6.82,6.82,0,0,1,0-3,9.47,9.47,0,0,1,1.74-3.61,10.25,10.25,0,0,0,1.87-3.73,8.77,8.77,0,0,0-.29-3.87,10.07,10.07,0,0,1-.07-5.87,12.49,12.49,0,0,1,4.33-6,7.82,7.82,0,0,0-7.44,2.69c-1.08,1.26-1.5,3.18-2,5.05a14.31,14.31,0,0,1-1.71,4.65,10.51,10.51,0,0,1-3.05,2.62,17.2,17.2,0,0,0-5,4.73l.6,2.81"/></g><path d="M422.73,269.85a7.78,7.78,0,0,1,1.81-1.67A8.79,8.79,0,0,1,428,267a10,10,0,0,0,4.29-1.47,9.15,9.15,0,0,0,2.73-3.21,9.41,9.41,0,0,1,3.77-3.86,11.57,11.57,0,0,1,7.6-1l.78.21-.29-.76c-1.22-2.92-4.8-4.9-8.36-4.59a13.81,13.81,0,0,0-5.31,2.32,13.93,13.93,0,0,1-4.24,2,9.46,9.46,0,0,1-3.69-.31,18.13,18.13,0,0,0-6.52-.38L379,266.43"/><path d="M399.35,286.76l34.64-55L379,266.45"/><path class="cls-1" d="M416.2,258.59l15.28-23.86L412.42,254m-.58-.58,19.24-19.06-23.83,15.3"/><path class="cls-1" d="M420.77,269.42l1.11.23c.19-.38.53-.86,2.18-2.13a9.19,9.19,0,0,1,3.78-1.32,10.38,10.38,0,0,0,4-1.33,8.73,8.73,0,0,0,2.53-2.94,10.16,10.16,0,0,1,4.1-4.2,12.59,12.59,0,0,1,7.31-1.18,7.85,7.85,0,0,0-7.17-3.36c-1.66.13-3.31,1.19-5,2.18a14.28,14.28,0,0,1-4.5,2.09,10.57,10.57,0,0,1-4-.31,17.07,17.07,0,0,0-6.91-.23l-1.57,2.41"/></g><path d="M409.11,252.86a8.16,8.16,0,0,1-2.46-.11,8.52,8.52,0,0,1-3.27-1.61,10.07,10.07,0,0,0-4.07-2,9.09,9.09,0,0,0-4.2.34,9.34,9.34,0,0,1-5.4.06,11.64,11.64,0,0,1-6.07-4.67l-.4-.71-.33.74c-1.2,2.93-.07,6.87,2.67,9.16a13.71,13.71,0,0,0,5.4,2.12,13.87,13.87,0,0,1,4.4,1.58,9.44,9.44,0,0,1,2.4,2.83,18.28,18.28,0,0,0,4.33,4.88l35.48,20.68"/><path d="M437.6,257.43,374.24,271.8l63.36,14.36"/><path class="cls-1" d="M405.77,265.44l-27.68,6.06,27.09-.13m0,.82-27.09-.13,27.68,6"/><path class="cls-1" d="M410.19,254.55l-.62-1a6.82,6.82,0,0,1-3.05,0,9.47,9.47,0,0,1-3.61-1.74,10.25,10.25,0,0,0-3.73-1.87,8.77,8.77,0,0,0-3.87.29,10.07,10.07,0,0,1-5.87.07,12.49,12.49,0,0,1-6-4.33,7.82,7.82,0,0,0,2.69,7.44c1.26,1.08,3.18,1.5,5.05,2a14.31,14.31,0,0,1,4.65,1.71,10.51,10.51,0,0,1,2.62,3.05,17.2,17.2,0,0,0,4.73,5l2.81-.6"/><path d="M430.85,238.27a7.78,7.78,0,0,1-1.67-1.81A8.79,8.79,0,0,1,428,233a10,10,0,0,0-1.47-4.29,9.15,9.15,0,0,0-3.21-2.73,9.41,9.41,0,0,1-3.86-3.77,11.57,11.57,0,0,1-1-7.6l.21-.78-.76.29c-2.92,1.22-4.9,4.8-4.59,8.36a13.81,13.81,0,0,0,2.32,5.31,13.93,13.93,0,0,1,2,4.24,9.46,9.46,0,0,1-.31,3.69,18.13,18.13,0,0,0-.38,6.52L427.43,282"/><path d="M447.76,261.65,392.8,227,427.45,282"/><path class="cls-1" d="M419.59,244.8l-23.86-15.28L415,248.58m-.58.58-19.06-19.24,15.3,23.83"/><path class="cls-1" d="M430.42,240.23l.23-1.11c-.38-.19-.86-.53-2.13-2.18a9.19,9.19,0,0,1-1.32-3.78,10.38,10.38,0,0,0-1.33-4,8.73,8.73,0,0,0-2.94-2.53,10.16,10.16,0,0,1-4.2-4.1,12.59,12.59,0,0,1-1.18-7.31,7.85,7.85,0,0,0-3.36,7.17c.13,1.66,1.19,3.31,2.18,5a14.28,14.28,0,0,1,2.09,4.5,10.57,10.57,0,0,1-.31,4,17.07,17.07,0,0,0-.23,6.91l2.41,1.57"/><path d="M421.57,240.37a8,8,0,0,1-1.67-1.81,8.79,8.79,0,0,1-1.17-3.46,10,10,0,0,0-1.47-4.28,9,9,0,0,0-3.21-2.73,9.41,9.41,0,0,1-3.86-3.77,11.57,11.57,0,0,1-1-7.6l.21-.78-.76.28c-2.92,1.23-4.9,4.81-4.59,8.37a13.81,13.81,0,0,0,2.32,5.31,14,14,0,0,1,2,4.23,9.69,9.69,0,0,1-.31,3.7,18.13,18.13,0,0,0-.38,6.52l10.45,39.71"/><path d="M438.48,263.75l-55-34.64,34.65,54.95"/><path class="cls-1" d="M410.31,246.9l-23.86-15.28,19.25,19.06m-.58.58L386.06,232l15.3,23.83"/><path class="cls-1" d="M421.14,242.33l.23-1.11c-.38-.19-.86-.53-2.13-2.18a9.34,9.34,0,0,1-1.33-3.78,10.2,10.2,0,0,0-1.32-4,8.73,8.73,0,0,0-2.94-2.53,10.16,10.16,0,0,1-4.2-4.1,12.59,12.59,0,0,1-1.18-7.31,7.83,7.83,0,0,0-3.36,7.17c.13,1.66,1.19,3.31,2.18,5a14,14,0,0,1,2.08,4.5,10.56,10.56,0,0,1-.3,4,17.07,17.07,0,0,0-.23,6.91l2.41,1.57"/><path id="f" d="M406.87,243.23s.23.24.23.39v12.72a1.26,1.26,0,0,1-.23.43h8.23v-1.61s-.29.23-.43.23h-5.93a1.09,1.09,0,0,1-.3-.13v-4.63h4.49c.14,0,.43.27.43.27v-1.81a1.45,1.45,0,0,1-.43.2h-4.49v-4.72h6.27c.13,0,.42.23.42.23v-1.57Z"/><path id="g" d="M410.64,242.9a3.1,3.1,0,0,0-3.2,3,3.62,3.62,0,0,0,2.45,3.32c1.05.5,3.14,1.16,3.14,3.41a2.94,2.94,0,0,1-3.08,3,3.23,3.23,0,0,1-2.52-1V257a1.22,1.22,0,0,1,.55-.19c.26,0,1.25.26,1.91.26,1.14,0,4.68-.52,4.68-4.39,0-2.19-1.06-3.31-2.91-4.34S409,247.22,409,246a1.83,1.83,0,0,1,2-1.73,2.21,2.21,0,0,1,2,.82V243a1,1,0,0,1-.46.2C412.3,243.17,411.27,242.9,410.64,242.9Z"/><circle class="cls-2" cx="411" cy="250" r="32"/><path d="M309.38,263.07a101.62,101.62,0,0,0,203.24,0V135.34H309.38Z"/><path class="cls-3" d="M361.75,138V362.06a99.17,99.17,0,0,0,98.5-99V137.94Z"/><path d="M410.38,100c-5.83,0-6.12,4-4.79,5.44l-7-1.51-2.16,3.58h12.36c-3.07-1.52-1.46-3.87,1.61-3.87s4.7,2.35,1.63,3.87h12.27l-2.13-3.58-7,1.51c1.33-1.48,1.07-5.44-4.75-5.44Zm-20.46,9.9,1.34,1.48v15.24l-1.34,1.48h6.46l-1.31-1.48V111.38l1.31-1.48Zm9.93,0,1.35,1.48v15.24l-1.35,1.48h6.46l-1.37-1.48v-5.77h7v5.77l-1.31,1.48h6.45l-1.34-1.48V111.38l1.34-1.48h-6.45l1.31,1.48v5.67h-7v-5.67l1.37-1.48Zm19.48,0,5.15,9.09-5.15,9.08h11.86l2.13-3.81h-7.4L429,119l-3.08-5.22h5.94l-2.21-3.87ZM333,385.37a7.25,7.25,0,1,0,7.25,7.24A7.21,7.21,0,0,0,333,385.37Zm113.67.33-5.83,13.54a2.42,2.42,0,0,1-.3.42h1.87s-.19-.24-.14-.42l1.35-3.11h6.16l1.32,3.11c.06.18-.14.42-.14.42h1.85a2.85,2.85,0,0,1-.31-.42Zm-54.26.06v13.52a1.37,1.37,0,0,1-.23.43H394a1.37,1.37,0,0,1-.23-.43V389.6L402,400V386.59c0-.15.23-.43.23-.43h-1.8s.23.28.23.43v9.6Zm-72.66.08a9.78,9.78,0,0,0-2.52.32,1.7,1.7,0,0,1-.53.06,1.78,1.78,0,0,1-.36-.06,3.48,3.48,0,0,1-.42-.2v13.32a1.37,1.37,0,0,1-.23.43h1.8a1.37,1.37,0,0,1-.23-.43v-5a4.91,4.91,0,0,0,2.49.65,4.54,4.54,0,0,0,0-9.07Zm101.21,0a10.23,10.23,0,0,0-2.52.32,1.67,1.67,0,0,1-.53.06,1.94,1.94,0,0,1-.36-.06,4.47,4.47,0,0,1-.42-.2v13.32a1.37,1.37,0,0,1-.23.43h5.51a4.12,4.12,0,0,0,4.06-4.11,3.45,3.45,0,0,0-2-3.47,2.37,2.37,0,0,0,1.05-2C425.5,387.62,423.85,385.84,420.93,385.84Zm12.3,0a9.59,9.59,0,0,0-2.49.32,2.05,2.05,0,0,1-.52.06,2.27,2.27,0,0,1-.4-.06,3.86,3.86,0,0,1-.43-.2v13.32a1.39,1.39,0,0,1-.22.43H431s-.26-.31-.26-.43V387.6a6.32,6.32,0,0,1,2.49-.39,3,3,0,0,1,3.18,3.15c0,1.5-1.32,2.39-3.18,2.39h-.62V394c3.79,0,4.72,3.8,4.72,5.24v.42h1.87a3.38,3.38,0,0,1-.4-.75c-.18-1.6-.83-4.13-3.18-5.37a3.22,3.22,0,0,0,2.13-3.18A4.21,4.21,0,0,0,433.23,385.84Zm-83.87.19v1.57a1.67,1.67,0,0,1,.4-.23h3.44v11.91a1.37,1.37,0,0,1-.23.43h1.8a1.5,1.5,0,0,1-.23-.43V387.37h3.51a1.55,1.55,0,0,1,.39.23V386Zm19.51,0v1.57a1.77,1.77,0,0,1,.39-.23h3.45v11.91a1.37,1.37,0,0,1-.23.43h1.8a1.5,1.5,0,0,1-.23-.43V387.37h3.54a1.92,1.92,0,0,1,.4.23V386Zm115.3.1s.23.28.23.42v8.76a4.69,4.69,0,0,0,9.38,0v-8.76c0-.14.23-.42.23-.42h-1.8s.23.28.23.42v8.76a3.35,3.35,0,1,1-6.69,0v-8.76c0-.14.26-.42.26-.42Zm12.36,0a4.75,4.75,0,0,1,.34.42l3.5,5.88-4.06,6.81a2,2,0,0,1-.36.42h2s-.23-.25-.14-.42l3.35-5.64,3.31,5.64c.1.17-.13.42-.13.42h2a1.74,1.74,0,0,1-.36-.42l-4-6.81,3.44-5.88a4.4,4.4,0,0,1,.4-.42h-2s.21.27.13.42l-2.75,4.69-2.79-4.69c-.09-.15.14-.42.14-.42Zm-22.16,0s.23.28.23.43v12.65c0,.14-.23.42-.23.42h8.33v-1.57s-.29.23-.43.23H476V386.59c0-.15.23-.43.23-.43Zm-141.4.62a5.84,5.84,0,1,1-5.84,5.83A5.86,5.86,0,0,1,333,386.78Zm-13.25.43a3.17,3.17,0,0,1,0,6.33,3.48,3.48,0,0,1-2.49-1v-5A6.35,6.35,0,0,1,319.72,387.21Zm101.21,0c2.12,0,3.18,1.18,3.18,2.92a2,2,0,0,1-2,1.67c-.87,0-1,0-1.71,0v1.24l2.1,0c2.16,0,2.49,1.26,2.49,2.56a3.09,3.09,0,0,1-3.21,2.88h-3.37V387.6A6.27,6.27,0,0,1,420.93,387.21ZM446.64,389l2.56,5.89h-5.09Z"/><path class="cls-3" d="M419,169.29a5.17,5.17,0,0,0-3.8,1.61,5.25,5.25,0,0,0-1.67,3.83,5.39,5.39,0,0,0,1.67,3.87,5.33,5.33,0,0,0,3.8,1.61h9.61a5.45,5.45,0,0,0,3.87-9.31,5.42,5.42,0,0,0-3.87-1.61,5.56,5.56,0,0,0-3.34,1.11,2.49,2.49,0,0,1-1.5.3,2.59,2.59,0,0,1-1.49-.3A5.61,5.61,0,0,0,419,169.29Zm0,2.1a3.26,3.26,0,0,1,3.28,3.24v3.25H419a3.19,3.19,0,0,1-2.26-.95,3.3,3.3,0,0,1-.92-2.3A3.19,3.19,0,0,1,419,171.39Zm9.61,0a3,3,0,0,1,2.26,1,3.24,3.24,0,0,1,.95,2.29,3.33,3.33,0,0,1-.95,2.3,3.17,3.17,0,0,1-2.26.95h-3.28v-3.25A3.27,3.27,0,0,1,428.6,171.39Zm-10.92,9.44v2.23h12.26v-2.2a5.7,5.7,0,0,1-1.34.13H419A4,4,0,0,1,417.68,180.83Zm-14,4.69a1.11,1.11,0,0,0-.91.52,2.23,2.23,0,0,0-.2,2.1,55.7,55.7,0,0,0,2.66,5.22h.39v-.63a1.77,1.77,0,0,1,1.87-1.9h4.69c1.73,0,3.72,1.62,4.52,3.54a3.12,3.12,0,0,1,5.15,2.32,3.42,3.42,0,0,1-1.08,2.37,8.41,8.41,0,0,1-4.27,2.35,5.18,5.18,0,0,0,4,0,6.35,6.35,0,0,0,2-1.63,6.43,6.43,0,0,0,1.48-4.14,6.76,6.76,0,0,0-.16-1.5,6.69,6.69,0,0,0-.5-1.38,5.91,5.91,0,0,0-1.73-2.2c-1.95-1.6-7.15-5-7.15-5Zm-2.59,10.92a3.79,3.79,0,0,0,.82,2.95,7,7,0,0,0,5,2.1,11.79,11.79,0,0,0,5.93-2,8.45,8.45,0,0,1,.82-.46c2.87-1.58,4.32-1.32,5.05-1.08l.07-.2a7,7,0,0,0-3.54-.94,7.42,7.42,0,0,0-3,.75,12.68,12.68,0,0,1-5,1.15,9.15,9.15,0,0,1-6.13-2.26ZM426.5,296.89a2.37,2.37,0,0,0-.62.46c-.6.78-11.76,14-12.3,14.59l-.19.3-.33-.23a9.13,9.13,0,0,1-1.74-1.54c-2.07-2.16-5.37-5.73-7.44-7a2.88,2.88,0,0,0-3.35.56,2.69,2.69,0,0,0,2.86,4.35l.19-.09.23.16,3.18,2.89,1.15.91-1.47-.23c-2.54-.29-12-.22-12.07-.22h-.07a2.71,2.71,0,0,0-2.75,2,3,3,0,0,0,.3,2,2.66,2.66,0,0,0,1.63,1.25,2.4,2.4,0,0,0,2-.28,2.68,2.68,0,0,0,1.28-1.6l.07-.33.33,0a21.6,21.6,0,0,1,6.49,1.25l.85.36-.85.4-7.35,3c-1.8.44-2.52,1.57-2.39,3a2.69,2.69,0,0,0,2.85,2.46,2.75,2.75,0,0,0,2.46-2.92v-.29l.26-.1.3-.14a34,34,0,0,1,10.33-2.88c2.57-.25,5.15-.33,7.73-.33a2,2,0,0,1,1.45.47,1.56,1.56,0,0,1,.42,1.14c0,.7-.19,2.39-.19,2.45V323l-.17.13a2.7,2.7,0,0,0-.19,3.74c.06.06,1.8,1.67,3.47.42,1.4-1,1.22-2.29,1.15-3.57v-.62c.07-4.35-1.75-7.55-4.95-8.43l-.59-.16.39-.46,11.08-13.9a3.55,3.55,0,0,0,.2-.6,16.51,16.51,0,0,1-3.64-2.62ZM400.4,302a4.48,4.48,0,0,0-3.34,1.2,4.63,4.63,0,0,0-1.28,4.8l.07,0a2.31,2.31,0,0,1,.82-1.51,2.46,2.46,0,0,1,2.19-.59.47.47,0,0,1,.13.09,3.44,3.44,0,0,1,3.09-3.5l-1-.4a4.91,4.91,0,0,0-.66-.06Zm-12.19,12.74a4.56,4.56,0,0,0,1.05,4.83l.06-.06a2.43,2.43,0,0,1,0-1.68,2.49,2.49,0,0,1,1.67-1.54h.4a3.3,3.3,0,0,1-.33-2.63,4,4,0,0,1,1.47-2A4.72,4.72,0,0,0,388.21,314.72Zm5.59,6.3a4.79,4.79,0,0,0-2,4.66,4.7,4.7,0,0,0,3.28,3.7l.06-.09a2.67,2.67,0,0,1-.78-1.51,2.3,2.3,0,0,1,.65-2.07A3.42,3.42,0,0,1,393.8,321Zm24.95,6.31a2.64,2.64,0,0,1-3.63,1.5l-.13.1a5.28,5.28,0,0,0,5.28,1.61,5,5,0,0,0,3.28-2.8A3.45,3.45,0,0,1,418.75,327.33Z"/><path d="M410.64,242.9a3.1,3.1,0,0,0-3.2,3,3.62,3.62,0,0,0,2.45,3.32c1.05.5,3.14,1.16,3.14,3.41a2.94,2.94,0,0,1-3.08,3,3.23,3.23,0,0,1-2.52-1V257a1.22,1.22,0,0,1,.55-.19c.26,0,1.25.26,1.91.26,1.14,0,4.68-.52,4.68-4.39,0-2.19-1.06-3.31-2.91-4.34S409,247.22,409,246a1.83,1.83,0,0,1,2-1.73,2.21,2.21,0,0,1,2,.82V243a1,1,0,0,1-.46.2C412.3,243.17,411.27,242.9,410.64,242.9Z"/><path d="M406.87,243.23s.23.24.23.39v12.72a1.26,1.26,0,0,1-.23.43h8.23v-1.61s-.29.23-.43.23h-5.93a1.09,1.09,0,0,1-.3-.13v-4.63h4.49c.14,0,.43.27.43.27v-1.81a1.45,1.45,0,0,1-.43.2h-4.49v-4.72h6.27c.13,0,.42.23.42.23v-1.57Z"/><path d="M417.53,303.62V202.9a6.53,6.53,0,0,0-13.06,0V303.62"/><g id="k"><g id="l"><path d="M420.19,257.61a31.49,31.49,0,0,0-21.42,22.91h9.13a22.89,22.89,0,0,1,13.46-14v2.2a4,4,0,0,0,4.07,4.06h1a4.1,4.1,0,0,0,4.07-4.06v-3.28a7.56,7.56,0,0,0,0-15.11v-3.25a4.07,4.07,0,0,0-4.07-4.13h-1a4.09,4.09,0,0,0-4.07,4.13v1.64"/><path class="cls-1" d="M406.44,279.78a23.93,23.93,0,0,1,14.92-15V259a29.86,29.86,0,0,0-20.72,20.79Zm20-8.59a2.41,2.41,0,0,0,2.39-2.46V247.09a2.42,2.42,0,0,0-2.39-2.46h-1a2.39,2.39,0,0,0-2.46,2.46v21.64a2.5,2.5,0,0,0,2.46,2.46Zm4.07-7.38a5.89,5.89,0,0,0,5.54-5.93,6,6,0,0,0-5.54-5.94Z"/></g><path d="M399,237a31.47,31.47,0,0,0,22.91,21.41v-9.13a22.89,22.89,0,0,1-14-13.46h2.2a4,4,0,0,0,4.06-4.07v-1a4.1,4.1,0,0,0-4.06-4.07H406.8a7.57,7.57,0,0,0-15.11,0h-3.25a4.08,4.08,0,0,0-4.13,4.07v1a4.09,4.09,0,0,0,4.13,4.07h1.64"/><path class="cls-1" d="M421.13,250.72a24,24,0,0,1-15-14.92h-5.8a29.85,29.85,0,0,0,20.78,20.72Zm-8.59-20a2.41,2.41,0,0,0-2.46-2.39H388.44a2.42,2.42,0,0,0-2.46,2.39v1a2.4,2.4,0,0,0,2.46,2.47h21.64a2.51,2.51,0,0,0,2.46-2.47Zm-7.38-4.07a5.89,5.89,0,0,0-5.93-5.54,6,6,0,0,0-5.93,5.54Z"/></g><path class="cls-4" d="M401.16,226v15.34h-5v17.31h5V274h9.22v-4.09h6.2V274h9.3v-10h-4.72v-5.54h4.72v-17h-4.72V236h4.72V226h-9.3v4.06h-6.2V226Zm9.22,10.1h6.2v11.14h4.26v5.54h-4.26v11.12h-6.2V252.77H406v-5.54h4.43Z"/><path d="M401.81,242.39a31.49,31.49,0,0,0,21.42-22.91H414.1a22.89,22.89,0,0,1-13.46,14v-2.2a4,4,0,0,0-4.07-4.06h-1a4.1,4.1,0,0,0-4.07,4.06v3.28a7.56,7.56,0,0,0,0,15.11v3.25a4.07,4.07,0,0,0,4.07,4.13h1a4.09,4.09,0,0,0,4.07-4.13v-1.64"/><path class="cls-1" d="M415.56,220.22a23.93,23.93,0,0,1-14.92,15V241a29.86,29.86,0,0,0,20.72-20.79Zm-20,8.59a2.41,2.41,0,0,0-2.39,2.46v21.64a2.42,2.42,0,0,0,2.39,2.46h1a2.39,2.39,0,0,0,2.46-2.46V231.27a2.5,2.5,0,0,0-2.46-2.46Zm-4.07,7.38a5.89,5.89,0,0,0-5.54,5.93,6,6,0,0,0,5.54,5.94Z"/><path d="M423,263a31.47,31.47,0,0,0-22.91-21.41v9.13a22.89,22.89,0,0,1,14,13.46h-2.2a4,4,0,0,0-4.06,4.07v1a4.1,4.1,0,0,0,4.06,4.07h3.28a7.57,7.57,0,0,0,15.11,0h3.25a4.08,4.08,0,0,0,4.13-4.07v-1a4.09,4.09,0,0,0-4.13-4.07h-1.64"/><path class="cls-1" d="M400.87,249.28a24,24,0,0,1,15,14.92h5.8a29.85,29.85,0,0,0-20.78-20.72Zm8.59,20a2.41,2.41,0,0,0,2.46,2.39h21.64a2.42,2.42,0,0,0,2.46-2.39v-1a2.4,2.4,0,0,0-2.46-2.47H411.92a2.51,2.51,0,0,0-2.46,2.47Zm7.38,4.07a5.89,5.89,0,0,0,5.93,5.54,6,6,0,0,0,5.93-5.54Z"/><path class="cls-1" d="M376.38,178.75a8.53,8.53,0,0,0,6.65,3.18,12.1,12.1,0,0,0,4.69-1.08A8.31,8.31,0,0,1,391,180a7.61,7.61,0,0,1,4.43,1.34l.26.23-.88,1.35-.33-.11-.07,0c-.6-.2-1.72-.6-4.59,1-.26.13-.55.29-.82.46a12.63,12.63,0,0,1-6.32,2.13c-1.41,0-4.2-.54-5.68-2.43a5.54,5.54,0,0,1-.65-5.15Zm18.52-9.05v1.77h2.49a2.58,2.58,0,0,0,2.59,2.62,2.62,2.62,0,0,0,2.59-2.62H405V169.7Zm84.36-13.41a4.92,4.92,0,0,0-4.92,4.92V261.72h9.84V161.21A4.9,4.9,0,0,0,479.26,156.29Zm-74.88-.06a2.42,2.42,0,0,0-2.46,2.47v2.38h2.46a2.38,2.38,0,0,0,2.39-2.38A2.41,2.41,0,0,0,404.38,156.23Zm-9.61,0a2.43,2.43,0,0,0,0,4.85h2.46V158.7A2.43,2.43,0,0,0,394.77,156.23Zm-56.95-18.3V263.05a99.08,99.08,0,0,0,98.69,99V344.76a28.62,28.62,0,0,1-8.4-15.15,8.11,8.11,0,0,1-4,1.08,8,8,0,0,1-3.27-.72c4.93-7.07,8.06-11.77,8.06-19.57a21.31,21.31,0,0,0-1-5.84c-1,9.7-9.55,15.21-11,18.92a18.81,18.81,0,0,0-1.12,8.81,14.09,14.09,0,0,1-4.56-21.93c3.67-4.28,7.48-7.28,9.48-9.61-3.94.08-8.32,2.85-11.05,5.77a12.14,12.14,0,0,1-.2-2.19A15.4,15.4,0,0,1,415,293c9.2-8.25,9.62-15.91,8.75-23.61-6.33,2.46-10.57,9-10.88,16.17a16.92,16.92,0,0,1-6.17-1.57,3.07,3.07,0,0,1-.29.65v0l-10.72,13.44c2.33.84,4.91,3,4.91,8.65a11,11,0,0,0,.07,1.35,6.77,6.77,0,0,1-.79,4.42,5.81,5.81,0,0,1-3.6,2.86,6,6,0,0,1-6.33-2.16l-.2-.28,1-1.11.27.17a2,2,0,0,0,1.6.23,1.8,1.8,0,0,0,1.35-1.74,4.09,4.09,0,0,1-.26-1.54,3.77,3.77,0,0,1,1-2.33,21.79,21.79,0,0,0,.19-2.2.77.77,0,0,0-.19-.58,1.3,1.3,0,0,0-.86-.23,73.41,73.41,0,0,0-7.67.35,34.87,34.87,0,0,0-10.06,2.82l-.07,0a3.63,3.63,0,0,1-3.21,3.47,4,4,0,0,1-1.41-.19,1.8,1.8,0,0,0,.13,2.81l.29.17-.55,1.22-.33-.08a5.4,5.4,0,0,1-4.13-4.38,5.72,5.72,0,0,1,1-4,6.24,6.24,0,0,1,3.37-2.26c.27-.12.49-.15,1-.32l6.2-2.59a24.78,24.78,0,0,0-4.95-.86,3.23,3.23,0,0,1-1.51,1.8,3.54,3.54,0,0,1-2.69.37,4,4,0,0,1-1.61-1,1.64,1.64,0,0,0-1.77,1.11,1.66,1.66,0,0,0,.07,1.38l.13.3-1.08.82-.2-.2a5.38,5.38,0,0,1-1.54-5.83,6,6,0,0,1,2.82-3c1-.54,2-.53,3.8-.4a2.35,2.35,0,0,1,.53,0c.4,0,7.45-.07,10.91.13l-2.13-1.93a3.32,3.32,0,0,1-3.31-.83,4.19,4.19,0,0,1-1-1.66,1.59,1.59,0,0,0-1.93.2,1.63,1.63,0,0,0-.59,1.28v.35l-1.35.2-.06-.29a5.33,5.33,0,0,1,1.34-5.85,5.53,5.53,0,0,1,3.94-1.4,6,6,0,0,1,3.6,1.51c.07,0,.13,0,.13.06,2.27,1.25,5.54,4.75,7.68,7.08a12.16,12.16,0,0,0,1.37,1.25c1.67-2,11.47-13.63,12-14.33a2.64,2.64,0,0,1,.66-.56,16.81,16.81,0,0,1-3.38-5.18,7.89,7.89,0,0,1-.92.08,8.15,8.15,0,0,1-5.6-2.27c7.8-2.87,9.6-7.07,13.54-12.33A29.44,29.44,0,0,1,418.51,251l-4.66-13a26,26,0,0,1-10.88,3.8l.42,10a8.15,8.15,0,0,1-9.34,8.06c1.47-8.84,2.19-16.74,2.33-18.06a28.78,28.78,0,0,1-3.54-.69l-8.79,30.1a13,13,0,0,1-12.49,9.38,12.83,12.83,0,0,1-6.59-1.78c6.67-6.63,10.67-15.8,13.6-22l8.33-18.07a21.58,21.58,0,0,1-2-1.23l-19.11,21.37a13,13,0,0,1-19.9.09,53.22,53.22,0,0,0,11.41-7c2.66-2.06,22.36-19.19,22.36-19.19a10,10,0,0,1-1.28-1.6l-21.48,9.11a12.62,12.62,0,0,1-4.65.89,13,13,0,0,1-12.56-9.87c2.93.44,10.61-1.07,13.61-1.63s21.14-4.82,21.6-4.92c-.33-.87-.58-1.75-.85-2.66l-22-.06a13,13,0,0,1-12.95-14.3,104.49,104.49,0,0,0,21.74,6.09c1.66.31,11.19,1.55,12.32,1.68v-.1c0-.94.07-1.84.14-2.75l-26.86-12.27A13,13,0,0,1,340,189.05a13.19,13.19,0,0,1,1.94-6.82A53.52,53.52,0,0,0,357,194.56c5.73,3.33,17.59,10.32,18.19,10.66.27-.64.56-1.29.89-1.94l-.26-.16-28.56-25a12.81,12.81,0,0,1-5.18-10.38,13,13,0,0,1,6.26-11.09,43.67,43.67,0,0,0,8.46,13.44l38.13,39.77a4.24,4.24,0,0,1,1.08,2.92,4.68,4.68,0,0,1-3.28,4.49,4.94,4.94,0,0,0,2.76.85,4.65,4.65,0,0,0,3.7-1.84,8.08,8.08,0,0,1,11.68-1.17,18.43,18.43,0,0,1-.4-3.9,16.7,16.7,0,0,1,3.8-10.69,4,4,0,0,1-2.39.72,4.62,4.62,0,0,1-2.88-1,10.25,10.25,0,0,0,.55-4.3A10.64,10.64,0,0,0,398.18,186a8.84,8.84,0,0,0-1.74.31,5.64,5.64,0,0,1-5.21-.46l-.26-.27.19-.32.27-.37.16-.16h.2c1.66,0,3.06-1.12,4.26-2.2a2.4,2.4,0,0,0,.72-1.77,2.09,2.09,0,0,0-.66-1.61,2.19,2.19,0,0,0-1.6-.65,2.13,2.13,0,0,0-1.81,1l-.72-.17c-.46-1.85-2.4-3.55-4-3.55h-4.69a1,1,0,0,0-.78.27,1,1,0,0,0-.26.78v1.45h-1.61l-.13-.23a39.59,39.59,0,0,1-2.85-5.57,2.87,2.87,0,0,1,.26-2.79,1.86,1.86,0,0,1,1.57-.88h11.25l1-1.64h.85v-2.46a5.81,5.81,0,0,1-2.19-1.41,6.32,6.32,0,0,1-1.87-4.5,6.23,6.23,0,0,1,6.26-6.22,6.09,6.09,0,0,1,3.8,1.28,1.87,1.87,0,0,0,1,.17,1.59,1.59,0,0,0,1-.17,6.33,6.33,0,0,1,3.81-1.28,6.39,6.39,0,0,1,6.26,6.22,6.32,6.32,0,0,1-1.87,4.5,5.83,5.83,0,0,1-2.26,1.45v2.42c13.48.18,14.62,13.44,24.62,13.44h.59c0,.24.07.45.07.68a5.3,5.3,0,0,1-2.46,4.43,17.46,17.46,0,0,1,7.18,5.64V138Z"/><circle class="cls-5" cx="411" cy="250" r="1.88"/></svg>