<svg id="Layer_1" data-name="Layer 1" xmlns="http://www.w3.org/2000/svg" viewBox="0 0 822 500"><defs><style>.cls-1,.cls-2,.cls-4{fill:#fddd04;}.cls-2,.cls-4,.cls-5{stroke:#000;}.cls-2,.cls-5{stroke-width:0.74px;}.cls-3,.cls-5{fill:#ed1c24;}.cls-4{stroke-width:1.39px;}</style></defs><title>PTL 13</title><g id="i"><path d="M502,168.88l56.15-12.73L502,143.42"/><path class="cls-1" d="M530.2,161.79l24.53-5.38-24,.12m0-.73,24,.12-24.53-5.35"/></g><g id="j"><g id="h"><path d="M485.51,130.91a7.14,7.14,0,0,1,.09-2.19,7.65,7.65,0,0,1,1.43-2.89,8.9,8.9,0,0,0,1.76-3.61,8,8,0,0,0-.3-3.72,8.38,8.38,0,0,1-.06-4.79,10.38,10.38,0,0,1,4.15-5.38l.63-.35-.66-.3a7.43,7.43,0,0,0-8.11,2.37,11.93,11.93,0,0,0-1.88,4.78,12.15,12.15,0,0,1-1.41,3.9,8.33,8.33,0,0,1-2.5,2.13,16,16,0,0,0-4.33,3.84L456,156.14"/><path d="M481.45,156.16,468.72,100,456,156.16"/><path class="cls-1" d="M474.36,127.94,469,103.41l.12,24m-.73,0,.12-24-5.35,24.53"/><path class="cls-1" d="M484,131.86l.84-.55a6,6,0,0,1,0-2.7,8.35,8.35,0,0,1,1.54-3.2,8.89,8.89,0,0,0,1.65-3.31,7.71,7.71,0,0,0-.26-3.43,9.08,9.08,0,0,1-.06-5.2,11.23,11.23,0,0,1,3.84-5.32,7,7,0,0,0-6.6,2.38,11.39,11.39,0,0,0-1.74,4.48,12.61,12.61,0,0,1-1.51,4.13,9.51,9.51,0,0,1-2.7,2.32,15.1,15.1,0,0,0-4.48,4.19l.53,2.49"/></g><path d="M498.43,150.18a7.31,7.31,0,0,1,1.61-1.49,7.74,7.74,0,0,1,3.06-1,9,9,0,0,0,3.8-1.31,8.07,8.07,0,0,0,2.42-2.84,8.37,8.37,0,0,1,3.34-3.43,10.38,10.38,0,0,1,6.74-.87l.69.2-.25-.68a7.47,7.47,0,0,0-7.42-4.06,12.26,12.26,0,0,0-4.71,2.05,12.4,12.4,0,0,1-3.75,1.77,8.48,8.48,0,0,1-3.28-.27,16,16,0,0,0-5.77-.34l-35.2,9.27"/><path d="M477.71,165.16l30.71-48.71-48.71,30.71"/><path class="cls-1" d="M492.65,140.19l13.54-21.14L489.3,136.11m-.52-.52,17.06-16.89-21.12,13.56"/><path class="cls-1" d="M496.69,149.79l1,.21c.17-.34.47-.77,1.93-1.89a8.34,8.34,0,0,1,3.35-1.18,9,9,0,0,0,3.52-1.17,7.85,7.85,0,0,0,2.24-2.61,8.91,8.91,0,0,1,3.63-3.72,11.12,11.12,0,0,1,6.48-1,6.94,6.94,0,0,0-6.35-3,11.1,11.1,0,0,0-4.4,1.93,12.81,12.81,0,0,1-4,1.85,9.37,9.37,0,0,1-3.55-.27,15,15,0,0,0-6.13-.2L493,140.85"/></g><path d="M390.71,139.35a7.14,7.14,0,0,1-2.19-.09,7.8,7.8,0,0,1-2.89-1.43,8.92,8.92,0,0,0-3.61-1.77,8.14,8.14,0,0,0-3.72.3,8.29,8.29,0,0,1-4.79.06,10.33,10.33,0,0,1-5.38-4.15l-.35-.62-.3.65a7.45,7.45,0,0,0,2.37,8.12,12.23,12.23,0,0,0,4.78,1.88,12.39,12.39,0,0,1,3.9,1.4,8.37,8.37,0,0,1,2.13,2.51,16.17,16.17,0,0,0,3.84,4.32l31.44,18.34"/><path d="M416,143.4,359.8,156.13,416,168.86"/><path class="cls-1" d="M387.74,150.5l-24.53,5.37,24-.11m0,.72-24-.11,24.53,5.34"/><path class="cls-1" d="M391.66,140.85l-.55-.85a5.87,5.87,0,0,1-2.7,0,8.5,8.5,0,0,1-3.2-1.54,9.06,9.06,0,0,0-3.31-1.66,7.71,7.71,0,0,0-3.43.26,8.91,8.91,0,0,1-5.2.06,11.16,11.16,0,0,1-5.32-3.84,6.94,6.94,0,0,0,2.38,6.6,11,11,0,0,0,4.48,1.74,12.84,12.84,0,0,1,4.13,1.51,9.42,9.42,0,0,1,2.32,2.71,15.08,15.08,0,0,0,4.19,4.47l2.49-.52"/><path d="M410,126.42a7.05,7.05,0,0,1-1.49-1.61,7.63,7.63,0,0,1-1-3.06,8.86,8.86,0,0,0-1.31-3.79,8,8,0,0,0-2.84-2.42,8.34,8.34,0,0,1-3.43-3.35,10.35,10.35,0,0,1-.87-6.73l.2-.7-.68.26a7.44,7.44,0,0,0-4.06,7.41,12.13,12.13,0,0,0,2,4.71,12.51,12.51,0,0,1,1.77,3.75,8.48,8.48,0,0,1-.27,3.28,16,16,0,0,0-.34,5.78L407,165.14"/><path d="M425,147.15l-48.71-30.71L407,165.15"/><path class="cls-1" d="M400,132.21l-21.14-13.54,17.06,16.89m-.52.51L378.5,119l13.56,21.12"/><path class="cls-1" d="M409.59,128.16l.21-1c-.34-.16-.77-.46-1.89-1.93a8.34,8.34,0,0,1-1.18-3.35,9.06,9.06,0,0,0-1.17-3.51,7.62,7.62,0,0,0-2.61-2.24,8.94,8.94,0,0,1-3.72-3.64,11.1,11.1,0,0,1-1-6.47,6.92,6.92,0,0,0-3,6.35,11.16,11.16,0,0,0,1.93,4.4,12.66,12.66,0,0,1,1.85,4,9.41,9.41,0,0,1-.27,3.56,15.06,15.06,0,0,0-.21,6.12l2.14,1.4"/><path d="M429,126.42a6.88,6.88,0,0,1-1.48-1.61,7.63,7.63,0,0,1-1-3.06,8.85,8.85,0,0,0-1.3-3.79,8.06,8.06,0,0,0-2.84-2.42,8.28,8.28,0,0,1-3.43-3.35,10.28,10.28,0,0,1-.87-6.73l.19-.7-.67.26a7.43,7.43,0,0,0-4.07,7.41,12,12,0,0,0,2.06,4.71,12.23,12.23,0,0,1,1.76,3.75,8.47,8.47,0,0,1-.26,3.28,16.23,16.23,0,0,0-.35,5.78L426,165.14"/><path d="M444,147.15l-48.71-30.71L426,165.15"/><path class="cls-1" d="M419,132.21l-21.14-13.54,17.05,16.89m-.51.51-16.89-17,13.56,21.12"/><path class="cls-1" d="M428.62,128.16l.2-1c-.33-.16-.76-.46-1.89-1.93a8.34,8.34,0,0,1-1.17-3.35,9.23,9.23,0,0,0-1.17-3.51,7.72,7.72,0,0,0-2.61-2.24,8.94,8.94,0,0,1-3.72-3.64,11.2,11.2,0,0,1-1.05-6.47,6.94,6.94,0,0,0-3,6.35,11.31,11.31,0,0,0,1.93,4.4,12.23,12.23,0,0,1,1.85,4,9.4,9.4,0,0,1-.26,3.56,14.89,14.89,0,0,0-.21,6.12l2.14,1.4"/><path id="f" d="M531.79,387.73s.21.22.21.35v11.28c0,.11-.21.38-.21.38h7.3v-1.43a1.07,1.07,0,0,1-.38.2h-5.26a.81.81,0,0,1-.26-.11v-4.1h4c.12,0,.38.23.38.23v-1.6a1.35,1.35,0,0,1-.38.18h-4v-4.18h5.55a1.07,1.07,0,0,1,.38.2v-1.4Z"/><path id="g" d="M630.76,387.41a2.75,2.75,0,0,0-2.84,2.71,3.18,3.18,0,0,0,2.17,2.93c.94.45,2.79,1,2.79,3a2.6,2.6,0,0,1-2.73,2.64,2.85,2.85,0,0,1-2.24-.93v2.14a1.14,1.14,0,0,1,.5-.16c.23,0,1.1.23,1.68.23,1,0,4.16-.46,4.16-3.9,0-1.93-.94-2.93-2.59-3.84s-2.38-1-2.38-2.14a1.62,1.62,0,0,1,1.74-1.54,1.94,1.94,0,0,1,1.8.73v-1.84a.82.82,0,0,1-.4.18C632.23,387.65,631.32,387.41,630.76,387.41Z"/><circle class="cls-2" cx="453.68" cy="156.14" r="28.36"/><path d="M149.7,276.27a90.07,90.07,0,1,0,180.13,0V163.06H149.7Z"/><path class="cls-3" d="M585,165.4V364a87.89,87.89,0,0,0,87.29-87.78V165.39Z"/><path d="M282.83,134.11c-5.17,0-5.43,3.51-4.25,4.82l-6.24-1.34-1.92,3.17h10.95c-2.71-1.34-1.29-3.43,1.43-3.43s4.17,2.09,1.45,3.43h10.87l-1.89-3.17L287,138.93c1.18-1.31.95-4.82-4.21-4.82Zm-18.13,8.77,1.19,1.31V157.7L264.7,159h5.72l-1.16-1.31V144.19l1.16-1.31Zm8.8,0,1.19,1.31V157.7L273.5,159h5.72L278,157.7v-5.11h6.19v5.11L283,159h5.72l-1.19-1.31V144.19l1.19-1.31H283l1.16,1.31v5H278v-5l1.22-1.31Zm17.26,0,4.57,8.05-4.57,8h10.52l1.89-3.37H296.6l2.73-4.68-2.73-4.62h5.26l-1.95-3.43ZM214.22,387a6.42,6.42,0,1,0,6.42,6.41A6.38,6.38,0,0,0,214.22,387Zm100.75.29-5.17,12a2.18,2.18,0,0,1-.26.37h1.65s-.17-.21-.12-.37l1.19-2.76h5.47l1.16,2.76c.06.16-.12.37-.12.37h1.64a2,2,0,0,1-.27-.37Zm-48.1.05v12a1.18,1.18,0,0,1-.2.38h1.6a1.18,1.18,0,0,1-.2-.38v-8.58l7.32,9.22V388.12a1,1,0,0,1,.2-.39H274s.21.26.21.39v8.5Zm-64.39.07a9.06,9.06,0,0,0-2.24.28,1.31,1.31,0,0,1-.46.06,1.35,1.35,0,0,1-.32-.06,2.55,2.55,0,0,1-.38-.17v11.8a1.18,1.18,0,0,1-.2.38h1.59a1.18,1.18,0,0,1-.2-.38v-4.45a4.29,4.29,0,0,0,2.21.58,4,4,0,0,0,0-8Zm89.7,0a9.71,9.71,0,0,0-2.24.28,1.26,1.26,0,0,1-.46.06,1.64,1.64,0,0,1-.32-.06,2.84,2.84,0,0,1-.37-.17v11.8c0,.11-.21.38-.21.38h4.89a3.66,3.66,0,0,0,3.6-3.64A3,3,0,0,0,295.3,393a2.12,2.12,0,0,0,.93-1.78C296.23,389,294.77,387.45,292.18,387.45Zm10.9,0a8.85,8.85,0,0,0-2.2.28,1.67,1.67,0,0,1-.47.06,1.78,1.78,0,0,1-.35-.06,3.16,3.16,0,0,1-.38-.17v11.8a1.18,1.18,0,0,1-.2.38h1.62s-.22-.27-.22-.38V389a5.62,5.62,0,0,1,2.2-.35,2.63,2.63,0,0,1,2.82,2.79c0,1.33-1.17,2.12-2.82,2.12h-.55v1.11c3.36,0,4.19,3.37,4.19,4.65v.37h1.65A3.13,3.13,0,0,1,308,399a5.93,5.93,0,0,0-2.82-4.76,2.83,2.83,0,0,0,1.89-2.82A3.73,3.73,0,0,0,303.08,387.45Zm-74.33.16V389a1.61,1.61,0,0,1,.35-.21h3.05v10.56a1.18,1.18,0,0,1-.2.38h1.59a1.3,1.3,0,0,1-.2-.38V388.8h3.11a1.61,1.61,0,0,1,.35.21v-1.4Zm17.29,0V389a1.61,1.61,0,0,1,.35-.21h3.05v10.56a1.18,1.18,0,0,1-.2.38h1.59a1.3,1.3,0,0,1-.2-.38V388.8h3.14a1.61,1.61,0,0,1,.35.21v-1.4Zm102.19.1s.21.25.21.37v7.76a4.16,4.16,0,1,0,8.31,0v-7.76c0-.12.21-.37.21-.37h-1.6s.2.25.2.37v7.76a3,3,0,1,1-5.93,0v-7.76c0-.12.23-.37.23-.37Zm11,0s.23.26.3.37l3.1,5.21-3.6,6a1.74,1.74,0,0,1-.32.37h1.77s-.2-.22-.12-.37l3-5,2.94,5c.08.15-.12.37-.12.37h1.77a1.48,1.48,0,0,1-.32-.37l-3.57-6,3.05-5.21a4.76,4.76,0,0,1,.35-.37h-1.78s.19.24.11.37l-2.43,4.16-2.48-4.16c-.07-.13.13-.37.13-.37Zm-19.64,0a1,1,0,0,1,.2.39v11.21c0,.12-.2.37-.2.37h7.38v-1.39a1.07,1.07,0,0,1-.38.2H341V388.12c0-.13.21-.39.21-.39Zm-125.33.55a5.18,5.18,0,1,1-5.18,5.17A5.19,5.19,0,0,1,214.22,388.28Zm-11.74.38a2.81,2.81,0,0,1,0,5.61,3.11,3.11,0,0,1-2.21-.84V389A5.67,5.67,0,0,1,202.48,388.66Zm89.7,0c1.88,0,2.82,1,2.82,2.59a1.79,1.79,0,0,1-1.74,1.48c-.77,0-.88,0-1.52,0v1.09l1.86,0c1.92,0,2.22,1.12,2.22,2.27a2.76,2.76,0,0,1-2.85,2.56h-3V389A5.62,5.62,0,0,1,292.18,388.66Zm22.78,1.6,2.27,5.23h-4.51Z"/><path class="cls-3" d="M373.54,179a4.59,4.59,0,0,0-3.37,1.43,4.68,4.68,0,0,0-1.48,3.4,4.83,4.83,0,0,0,1.48,3.43,4.74,4.74,0,0,0,3.37,1.42h8.52a4.89,4.89,0,0,0,4.85-4.85,4.83,4.83,0,0,0-1.43-3.4,4.78,4.78,0,0,0-3.42-1.43,4.93,4.93,0,0,0-3,1,2.13,2.13,0,0,1-1.32.26,2.33,2.33,0,0,1-1.32-.26A5,5,0,0,0,373.54,179Zm0,1.86a2.9,2.9,0,0,1,2.91,2.88v2.88h-2.91a2.77,2.77,0,0,1-2-.85,2.89,2.89,0,0,1,2-4.91Zm8.52,0a2.7,2.7,0,0,1,2,.84,2.89,2.89,0,0,1,0,4.07,2.79,2.79,0,0,1-2,.85h-2.91v-2.88A2.91,2.91,0,0,1,382.06,180.86Zm-9.68,8.37v2h10.87v-2a5.06,5.06,0,0,1-1.19.12h-8.52A3.62,3.62,0,0,1,372.38,189.23ZM360,193.39a1,1,0,0,0-.81.46,2,2,0,0,0-.18,1.86,49.31,49.31,0,0,0,2.35,4.62h.35v-.55a1.58,1.58,0,0,1,1.66-1.69h4.16c1.53,0,3.3,1.44,4,3.15a2.7,2.7,0,0,1,1.77-.7,2.76,2.76,0,0,1,1.95.81,2.72,2.72,0,0,1,.84,1.94,3,3,0,0,1-1,2.1,7.47,7.47,0,0,1-3.78,2.09,4.69,4.69,0,0,0,3.55,0,5.82,5.82,0,0,0,2.58-2.76,5.77,5.77,0,0,0,.5-2.36,5.9,5.9,0,0,0-.15-1.33,6.55,6.55,0,0,0-.43-1.22,5.32,5.32,0,0,0-1.54-1.95c-1.73-1.42-6.34-4.44-6.34-4.44Zm-2.3,9.68a3.32,3.32,0,0,0,.73,2.61,6.16,6.16,0,0,0,4.42,1.86,10.4,10.4,0,0,0,5.26-1.78,6.47,6.47,0,0,1,.72-.4c2.54-1.41,3.83-1.18,4.48-1l.06-.18a6.1,6.1,0,0,0-3.14-.84,6.65,6.65,0,0,0-2.65.67,11.3,11.3,0,0,1-4.44,1,8.11,8.11,0,0,1-5.44-2Zm22.5,89a2.08,2.08,0,0,0-.56.4c-.53.69-10.42,12.43-10.89,12.94l-.18.26-.29-.2a8.61,8.61,0,0,1-1.54-1.37c-1.83-1.91-4.76-5.08-6.6-6.16a2.54,2.54,0,0,0-3,.5,2.38,2.38,0,0,0,2.53,3.85l.17-.08.21.15L362.9,305l1,.81-1.31-.21c-2.24-.26-10.63-.19-10.69-.19h-.06a2.41,2.41,0,0,0-2.44,1.76,2.68,2.68,0,0,0,.26,1.78,2.4,2.4,0,0,0,1.46,1.11,2.13,2.13,0,0,0,1.77-.25,2.34,2.34,0,0,0,1.13-1.42l.06-.29.29,0a18.55,18.55,0,0,1,5.75,1.11l.76.31-.76.36-6.5,2.67a2.4,2.4,0,0,0-2.13,2.67,2.36,2.36,0,1,0,4.71-.41v-.26l.23-.08.27-.12a30,30,0,0,1,9.15-2.56c2.28-.22,4.57-.29,6.86-.29a1.79,1.79,0,0,1,1.28.41,1.46,1.46,0,0,1,.37,1c0,.62-.17,2.12-.17,2.17v.12l-.15.11a2.41,2.41,0,0,0-.17,3.32c.06.06,1.6,1.48,3.08.38,1.24-.9,1.08-2,1-3.16v-.56c.06-3.85-1.56-6.69-4.39-7.47l-.52-.14.34-.41L383.25,295a4.16,4.16,0,0,0,.17-.53,14.5,14.5,0,0,1-3.22-2.32Zm-23.14,4.51a4,4,0,0,0-3,1.06,4.08,4.08,0,0,0-1.13,4.25l.06,0a2.06,2.06,0,0,1,.72-1.34,2.2,2.2,0,0,1,1.95-.52.34.34,0,0,1,.12.08,3.32,3.32,0,0,1,.84-2.18,3.37,3.37,0,0,1,1.89-.93l-.9-.35a3.92,3.92,0,0,0-.59-.05ZM346.25,307.9a4.08,4.08,0,0,0,.93,4.28l.06-.05a2.19,2.19,0,0,1,1.48-2.86h.35a3,3,0,0,1-.29-2.32,3.55,3.55,0,0,1,1.31-1.77A4.19,4.19,0,0,0,346.25,307.9Zm5,5.58a4.24,4.24,0,0,0-1.8,4.13,4.17,4.17,0,0,0,2.91,3.28l.06-.08a2.37,2.37,0,0,1-.7-1.34,2.05,2.05,0,0,1,.58-1.83A3,3,0,0,1,351.22,313.48Zm22.1,5.59a2.32,2.32,0,0,1-3.21,1.33l-.11.09a4.65,4.65,0,0,0,4.67,1.43,4.48,4.48,0,0,0,2.91-2.48A3.06,3.06,0,0,1,373.32,319.07Z"/><path d="M402.45,387.41a2.75,2.75,0,0,0-2.84,2.71,3.18,3.18,0,0,0,2.17,2.93c.93.45,2.79,1,2.79,3a2.6,2.6,0,0,1-2.73,2.64,2.85,2.85,0,0,1-2.24-.93v2.14a1.13,1.13,0,0,1,.49-.16c.23,0,1.11.23,1.69.23,1,0,4.15-.46,4.15-3.9,0-1.93-.94-2.93-2.58-3.84s-2.38-1-2.38-2.14a1.62,1.62,0,0,1,1.74-1.54,2,2,0,0,1,1.8.73v-1.84a.82.82,0,0,1-.41.18A16.47,16.47,0,0,0,402.45,387.41Z"/><path d="M493.74,387.73s.21.22.21.35v11.28c0,.11-.21.38-.21.38H501v-1.43s-.25.2-.37.2H495.4a.73.73,0,0,1-.26-.11v-4.1h4c.12,0,.37.23.37.23v-1.6a1.26,1.26,0,0,1-.37.18h-4v-4.18h5.55c.12,0,.37.2.37.2v-1.4Z"/><path d="M615.22,275.3V186a5.79,5.79,0,0,0-11.57,0V275.3"/><g id="k"><g id="l"><path d="M580.68,302.5a27.9,27.9,0,0,0-19,20.31h8.09a20.22,20.22,0,0,1,11.93-12.4v1.95a3.59,3.59,0,0,0,3.6,3.6h.9a3.63,3.63,0,0,0,3.6-3.6v-2.91a6.7,6.7,0,0,0,0-13.39v-2.89a3.6,3.6,0,0,0-3.6-3.65h-.9a3.61,3.61,0,0,0-3.6,3.65v1.46"/><path class="cls-1" d="M568.5,322.15a21.26,21.26,0,0,1,13.23-13.28v-5.14a26.44,26.44,0,0,0-18.37,18.42Zm17.73-7.62a2.14,2.14,0,0,0,2.12-2.17V293.17a2.14,2.14,0,0,0-2.12-2.17h-.9a2.12,2.12,0,0,0-2.18,2.17v19.19a2.22,2.22,0,0,0,2.18,2.17Zm3.6-6.53a5.22,5.22,0,0,0,4.91-5.26,5.32,5.32,0,0,0-4.91-5.26Z"/></g><path d="M561.87,284.21a27.89,27.89,0,0,0,20.31,19V295.1a20.25,20.25,0,0,1-12.4-11.93h2a3.59,3.59,0,0,0,3.6-3.6v-.9a3.64,3.64,0,0,0-3.6-3.61h-2.91a6.7,6.7,0,0,0-13.39,0h-2.88a3.61,3.61,0,0,0-3.66,3.61v.9a3.62,3.62,0,0,0,3.66,3.6H554"/><path class="cls-1" d="M581.52,296.4a21.26,21.26,0,0,1-13.28-13.23H563.1a26.44,26.44,0,0,0,18.42,18.37Zm-7.61-17.73a2.14,2.14,0,0,0-2.18-2.12H552.55a2.15,2.15,0,0,0-2.18,2.12v.9a2.12,2.12,0,0,0,2.18,2.18h19.18a2.22,2.22,0,0,0,2.18-2.18Zm-6.54-3.61a5.22,5.22,0,0,0-5.26-4.91,5.33,5.33,0,0,0-5.26,4.91Z"/></g><path class="cls-4" d="M631.36,192.08v13.6h-4.47V221h4.47v13.63h8.17V231H645v3.63h8.25v-8.84h-4.18V220.9h4.18V205.82h-4.18v-4.91h4.18v-8.83H645v3.6h-5.49v-3.6Zm8.17,8.95H645v9.88h3.78v4.91H645v9.85h-5.49v-9.85H635.6v-4.91h3.93Z"/><path d="M545.38,303a27.9,27.9,0,0,0,19-20.31h-8.09a20.29,20.29,0,0,1-11.93,12.41v-2a3.58,3.58,0,0,0-3.6-3.59h-.9a3.62,3.62,0,0,0-3.6,3.59v2.91a6.71,6.71,0,0,0,0,13.4v2.88a3.6,3.6,0,0,0,3.6,3.65h.9a3.61,3.61,0,0,0,3.6-3.65V310.9"/><path class="cls-1" d="M557.56,283.38a21.26,21.26,0,0,1-13.23,13.28v5.14a26.44,26.44,0,0,0,18.37-18.42ZM539.83,291a2.14,2.14,0,0,0-2.12,2.17v19.19a2.14,2.14,0,0,0,2.12,2.17h.9a2.11,2.11,0,0,0,2.18-2.17V293.17a2.22,2.22,0,0,0-2.18-2.17Zm-3.6,6.54a5.21,5.21,0,0,0-4.91,5.25,5.31,5.31,0,0,0,4.91,5.26Z"/><path d="M564.19,321.32a27.91,27.91,0,0,0-20.31-19v8.09a20.25,20.25,0,0,1,12.4,11.93h-1.95a3.59,3.59,0,0,0-3.6,3.61v.89a3.64,3.64,0,0,0,3.6,3.61h2.91a6.7,6.7,0,0,0,13.39,0h2.88a3.61,3.61,0,0,0,3.66-3.61V326a3.62,3.62,0,0,0-3.66-3.61h-1.46"/><path class="cls-1" d="M544.54,309.14a21.22,21.22,0,0,1,13.28,13.22H563A26.46,26.46,0,0,0,544.54,304Zm7.61,17.72a2.13,2.13,0,0,0,2.18,2.12h19.18a2.15,2.15,0,0,0,2.18-2.12V326a2.12,2.12,0,0,0-2.18-2.19H554.33a2.22,2.22,0,0,0-2.18,2.19Zm6.54,3.61a5.22,5.22,0,0,0,5.26,4.91,5.33,5.33,0,0,0,5.26-4.91Z"/><path class="cls-1" d="M253.31,201.55a7.58,7.58,0,0,0,5.9,2.82,10.62,10.62,0,0,0,4.15-1,7.38,7.38,0,0,1,2.94-.75,6.67,6.67,0,0,1,3.92,1.19l.23.2-.78,1.19-.29-.09-.06,0c-.53-.17-1.53-.53-4.07.85-.23.12-.49.26-.72.41a11.25,11.25,0,0,1-5.61,1.89,6.84,6.84,0,0,1-5-2.15,4.94,4.94,0,0,1-.58-4.57Zm16.42-8v1.57h2.21a2.28,2.28,0,0,0,2.29,2.32,2.33,2.33,0,0,0,2.3-2.32h2.18v-1.57Zm74.76-11.88a4.36,4.36,0,0,0-4.36,4.36v89.08h8.73V186A4.33,4.33,0,0,0,344.49,181.65Zm-66.36-.06a2.14,2.14,0,0,0-2.18,2.19v2.11h2.18a2.11,2.11,0,0,0,2.12-2.11A2.14,2.14,0,0,0,278.13,181.59Zm-8.52,0a2.15,2.15,0,0,0,0,4.3h2.18v-2.11A2.15,2.15,0,0,0,269.61,181.59Zm-50.47-16.22V276.26A87.8,87.8,0,0,0,306.6,364V348.68a25.41,25.41,0,0,1-7.44-13.42,7.06,7.06,0,0,1-6.45.32c4.38-6.27,7.15-10.43,7.15-17.35a18.83,18.83,0,0,0-.93-5.17c-.89,8.59-8.46,13.48-9.76,16.76a16.78,16.78,0,0,0-1,7.82,12.56,12.56,0,0,1-7.09-11.27,12.43,12.43,0,0,1,3.05-8.17c3.25-3.79,6.63-6.45,8.4-8.52-3.49.07-7.37,2.52-9.79,5.12a10.48,10.48,0,0,1-.18-1.95,13.63,13.63,0,0,1,4.94-10.08c8.16-7.31,8.53-14.1,7.76-20.93-5.61,2.18-9.36,8-9.65,14.33a14.86,14.86,0,0,1-5.46-1.39,2.35,2.35,0,0,1-.26.57v0l-9.5,11.91c2.07.75,4.35,2.69,4.35,7.67a9.84,9.84,0,0,0,.06,1.19,6,6,0,0,1-.69,3.93,5.18,5.18,0,0,1-3.2,2.53,5.34,5.34,0,0,1-5.61-1.92l-.17-.24.87-1,.23.14a1.81,1.81,0,0,0,1.42.21,1.6,1.6,0,0,0,1.2-1.54,3.6,3.6,0,0,1-.24-1.37,3.43,3.43,0,0,1,.93-2.07,17.15,17.15,0,0,0,.18-1.94.68.68,0,0,0-.18-.52,1.12,1.12,0,0,0-.75-.21c-1,0-3.2,0-6.8.32a30.67,30.67,0,0,0-8.92,2.5l-.06,0a3.22,3.22,0,0,1-2.85,3.08,3.63,3.63,0,0,1-1.25-.17,1.6,1.6,0,0,0,.12,2.49l.26.15-.49,1.08-.3-.06a4.8,4.8,0,0,1-3.66-3.89,5.09,5.09,0,0,1,.85-3.55,5.43,5.43,0,0,1,3-2,8.88,8.88,0,0,1,.9-.29l5.49-2.3a21.9,21.9,0,0,0-4.39-.76,2.77,2.77,0,0,1-1.33,1.6,3.1,3.1,0,0,1-2.39.32,3.4,3.4,0,0,1-1.42-.87,1.45,1.45,0,0,0-1.57,1,1.42,1.42,0,0,0,.06,1.21l.12.27-1,.73-.18-.18a4.77,4.77,0,0,1-1.36-5.17,5.26,5.26,0,0,1,2.5-2.7c.88-.48,1.77-.47,3.37-.36a1.77,1.77,0,0,1,.46,0c.36,0,6.6,0,9.68.12l-1.89-1.71a3,3,0,0,1-2.94-.73,3.7,3.7,0,0,1-.84-1.48,1.41,1.41,0,0,0-1.71.18,1.43,1.43,0,0,0-.53,1.13v.32l-1.19.17-.06-.26a4.74,4.74,0,0,1,1.2-5.18,4.83,4.83,0,0,1,3.48-1.24,5.29,5.29,0,0,1,3.2,1.34c.06,0,.12,0,.12.05,2,1.11,4.9,4.21,6.8,6.28a10.75,10.75,0,0,0,1.22,1.11C266,303,274.69,292.67,275.16,292a2.59,2.59,0,0,1,.58-.49,14.85,14.85,0,0,1-3-4.59c-.24,0-.52.06-.81.06a7.22,7.22,0,0,1-5-2c6.91-2.54,8.51-6.26,12-10.92a26,26,0,0,1,11.68-8.49L286.52,254a23.23,23.23,0,0,1-9.64,3.37l.37,8.83a7.23,7.23,0,0,1-8.28,7.15c1.3-7.84,1.95-14.84,2.07-16a24.22,24.22,0,0,1-3.14-.62l-7.79,26.68A11.5,11.5,0,0,1,249,291.76a11.35,11.35,0,0,1-5.84-1.58c5.91-5.87,9.46-14,12.06-19.52l7.38-16a18.8,18.8,0,0,1-1.77-1.09l-17,18.94a11.56,11.56,0,0,1-17.64.08,47.1,47.1,0,0,0,10.12-6.24c2.36-1.82,19.82-17,19.82-17a8.87,8.87,0,0,1-1.14-1.42l-19,8.08a11.32,11.32,0,0,1-4.13.78A11.49,11.49,0,0,1,220.79,248c2.6.39,9.4-1,12.06-1.45s18.74-4.27,19.15-4.36c-.29-.77-.52-1.54-.75-2.35l-19.5-.06a11.5,11.5,0,0,1-11.48-12.67,93.48,93.48,0,0,0,19.27,5.4c1.47.27,9.92,1.37,10.92,1.49v-.09c0-.83.06-1.63.12-2.44l-23.8-10.87a11.51,11.51,0,0,1-5.75-9.94,11.74,11.74,0,0,1,1.71-6.05,47.35,47.35,0,0,0,13.37,10.93c5.08,3,15.59,9.15,16.12,9.45.24-.57.49-1.15.79-1.72l-.23-.14L227.48,201a11.47,11.47,0,0,1,1-19,38.67,38.67,0,0,0,7.49,11.91l33.8,35.25a3.72,3.72,0,0,1,1,2.58,4.17,4.17,0,0,1-2.91,4,4.35,4.35,0,0,0,2.44.76,4.15,4.15,0,0,0,3.29-1.63,7.13,7.13,0,0,1,10.34-1,16.31,16.31,0,0,1-.35-3.46,14.82,14.82,0,0,1,3.37-9.48,3.55,3.55,0,0,1-2.12.64,4.11,4.11,0,0,1-2.56-.9,9,9,0,0,0,.5-3.81,9.44,9.44,0,0,0-10.06-8.81,8.44,8.44,0,0,0-1.54.27,5,5,0,0,1-4.62-.41l-.23-.23.17-.29.24-.32.14-.14H267c1.47,0,2.71-1,3.78-1.95a2.17,2.17,0,0,0,.63-1.58,1.83,1.83,0,0,0-.58-1.42,1.94,1.94,0,0,0-1.42-.57,1.88,1.88,0,0,0-1.6.84l-.64-.15a4.31,4.31,0,0,0-3.54-3.14h-4.16a.94.94,0,0,0-.7.23.93.93,0,0,0-.23.7v1.28h-1.42l-.12-.2a35.31,35.31,0,0,1-2.53-4.94,2.54,2.54,0,0,1,.24-2.47,1.63,1.63,0,0,1,1.39-.78h10l.87-1.45h.75V189a5.14,5.14,0,0,1-1.94-1.25,5.6,5.6,0,0,1-1.66-4,5.52,5.52,0,0,1,5.55-5.5,5.37,5.37,0,0,1,3.37,1.13,1.67,1.67,0,0,0,.9.15,1.42,1.42,0,0,0,.87-.15,5.57,5.57,0,0,1,3.38-1.13,5.66,5.66,0,0,1,5.55,5.5,5.65,5.65,0,0,1-1.66,4,5.06,5.06,0,0,1-2,1.28v2.15c11.94.15,13,11.91,21.82,11.91h.52c0,.21.06.4.06.6a4.69,4.69,0,0,1-2.18,3.93,15.33,15.33,0,0,1,6.36,5V165.39Z"/><circle class="cls-5" cx="461.35" cy="176.3" r="1.66"/></svg>