<svg viewBox="0 0 500 822" xmlns="http://www.w3.org/2000/svg"><path d="m250.12 183 62.35-14.13-62.35-14.13"/><path d="m281.45 175.11 27.23-6-26.65.13m0-.81 26.65.13-27.23-5.93" fill="#fddd04"/><path d="m268.78 129.76a8.16 8.16 0 0 1 .1-2.43 8.6 8.6 0 0 1 1.59-3.21 9.93 9.93 0 0 0 2-4 9 9 0 0 0 -.33-4.14 9.2 9.2 0 0 1 -.07-5.31 11.41 11.41 0 0 1 4.61-6l.69-.4-.73-.33c-2.88-1.18-6.75-.06-9 2.63a13.37 13.37 0 0 0 -2.08 5.31 13.67 13.67 0 0 1 -1.56 4.33 9.39 9.39 0 0 1 -2.78 2.37 17.9 17.9 0 0 0 -4.81 4.26l-20.41 34.94"/><path d="m264.28 157.8-14.13-62.36-14.15 62.36"/><path d="m256.4 126.47-6-27.24.13 26.66m-.81 0 .13-26.66-5.85 27.24" fill="#fddd04"/><path d="m267.12 130.82.93-.61a6.69 6.69 0 0 1 0-3 9 9 0 0 1 1.71-3.55 10.1 10.1 0 0 0 1.83-3.68 8.52 8.52 0 0 0 -.29-3.81 10 10 0 0 1 -.06-5.77 12.37 12.37 0 0 1 4.26-5.91 7.7 7.7 0 0 0 -7.33 2.65c-1.06 1.25-1.47 3.13-1.93 5a14.1 14.1 0 0 1 -1.68 4.58 10.16 10.16 0 0 1 -3 2.58 16.66 16.66 0 0 0 -5 4.65l.58 2.77" fill="#fddd04"/><path d="m283.13 151.16a8.1 8.1 0 0 1 1.79-1.65 8.54 8.54 0 0 1 3.4-1.15 9.82 9.82 0 0 0 4.21-1.45 8.88 8.88 0 0 0 2.69-3.16 9.24 9.24 0 0 1 3.71-3.8 11.47 11.47 0 0 1 7.48-1l.77.22-.28-.75c-1.2-2.87-4.73-4.82-8.23-4.52a13.56 13.56 0 0 0 -5.23 2.29 13.57 13.57 0 0 1 -4.17 2 9.31 9.31 0 0 1 -3.63-.3 18 18 0 0 0 -6.42-.38l-39.07 10.29"/><path d="m260.12 167.79 34.1-54.08-54.08 34.1"/><path d="m276.71 140.07 15-23.47-18.71 18.93m-.57-.57 18.94-18.75-23.47 15.06" fill="#fddd04"/><path d="m281.2 150.73 1.1.22c.18-.37.52-.84 2.14-2.09a9.15 9.15 0 0 1 3.72-1.3 10.07 10.07 0 0 0 3.9-1.31 8.45 8.45 0 0 0 2.49-2.89 9.92 9.92 0 0 1 4-4.13 12.42 12.42 0 0 1 7.19-1.17 7.7 7.7 0 0 0 -7-3.3c-1.64.13-3.26 1.17-4.89 2.14a13.87 13.87 0 0 1 -4.42 2 10.45 10.45 0 0 1 -3.95-.29 16.54 16.54 0 0 0 -6.8-.23l-1.55 2.37" fill="#fddd04"/><path d="m222.12 173.36a8.16 8.16 0 0 1 -2.43-.1 8.63 8.63 0 0 1 -3.22-1.59 9.87 9.87 0 0 0 -4-2 8.92 8.92 0 0 0 -4.13.33 9.23 9.23 0 0 1 -5.32.07 11.46 11.46 0 0 1 -6-4.61l-.39-.69-.33.73c-1.18 2.88-.07 6.76 2.62 9a13.64 13.64 0 0 0 5.32 2.09 13.52 13.52 0 0 1 4.33 1.55 9.51 9.51 0 0 1 2.43 2.86 17.82 17.82 0 0 0 4.27 4.81l34.9 20.35"/><path d="m250.15 177.86-62.35 14.14 62.35 14.13"/><path d="m218.82 185.74-27.23 6 26.65-.12m0 .8-26.65-.13 27.23 5.94" fill="#fddd04"/><path d="m223.18 175-.62-.93a6.76 6.76 0 0 1 -3 0 9.44 9.44 0 0 1 -3.55-1.71 9.92 9.92 0 0 0 -3.67-1.84 8.52 8.52 0 0 0 -3.81.29 10 10 0 0 1 -5.78.06 12.33 12.33 0 0 1 -5.9-4.26 7.7 7.7 0 0 0 2.65 7.33c1.24 1.06 3.13 1.47 5 1.93a14.16 14.16 0 0 1 4.59 1.68 10.59 10.59 0 0 1 2.58 3 16.74 16.74 0 0 0 4.64 5l2.78-.58" fill="#fddd04"/><path d="m243.51 159a8.1 8.1 0 0 1 -1.65-1.79 8.7 8.7 0 0 1 -1.15-3.4 9.93 9.93 0 0 0 -1.44-4.21 9.05 9.05 0 0 0 -3.16-2.69 9.24 9.24 0 0 1 -3.8-3.71 11.47 11.47 0 0 1 -1-7.48l.21-.77-.75.28c-2.87 1.21-4.82 4.74-4.51 8.23a13.39 13.39 0 0 0 2.28 5.23 13.68 13.68 0 0 1 2 4.17 9.36 9.36 0 0 1 -.29 3.64 17.93 17.93 0 0 0 -.39 6.41l10.29 39.09"/><path d="m260.15 182-54.09-34.1 34.1 54.1"/><path d="m232.43 165.43-23.43-15.03 18.94 18.75m-.57.57-18.76-18.94 15.06 23.46" fill="#fddd04"/><path d="m243.08 160.94.23-1.1c-.37-.18-.85-.52-2.1-2.14a9.24 9.24 0 0 1 -1.3-3.72 10.06 10.06 0 0 0 -1.3-3.9 8.48 8.48 0 0 0 -2.9-2.49 10 10 0 0 1 -4.13-4 12.48 12.48 0 0 1 -1.16-7.19 7.7 7.7 0 0 0 -3.31 7c.13 1.64 1.17 3.26 2.15 4.89a14.09 14.09 0 0 1 2.05 4.42 10.26 10.26 0 0 1 -.3 3.95 16.89 16.89 0 0 0 -.23 6.8l2.38 1.55" fill="#fddd04"/><path d="m243.51 139.25a8.1 8.1 0 0 1 -1.65-1.79 8.64 8.64 0 0 1 -1.15-3.4 9.93 9.93 0 0 0 -1.44-4.21 9.05 9.05 0 0 0 -3.16-2.69 9.18 9.18 0 0 1 -3.8-3.71 11.47 11.47 0 0 1 -1-7.48l.21-.77-.75.28c-2.87 1.21-4.82 4.74-4.51 8.23a13.49 13.49 0 0 0 2.28 5.24 13.53 13.53 0 0 1 2 4.16 9.36 9.36 0 0 1 -.29 3.64 17.93 17.93 0 0 0 -.39 6.41l10.3 39.08"/><path d="m260.15 162.26-54.09-34.1 34.1 54.08"/><path d="m232.43 145.67-23.48-15 18.94 18.75m-.57.57-18.76-18.99 15.06 23.45" fill="#fddd04"/><path d="m243.08 141.18.23-1.1c-.37-.18-.85-.52-2.1-2.14a9.19 9.19 0 0 1 -1.3-3.72 10.06 10.06 0 0 0 -1.3-3.9 8.59 8.59 0 0 0 -2.9-2.49 10 10 0 0 1 -4.13-4 12.45 12.45 0 0 1 -1.16-7.18 7.68 7.68 0 0 0 -3.31 7c.13 1.63 1.17 3.25 2.15 4.88a14.09 14.09 0 0 1 2.05 4.42 10.24 10.24 0 0 1 -.3 3.95 16.89 16.89 0 0 0 -.23 6.8l2.38 1.55" fill="#fddd04"/><path d="m245.21 372.06s.23.23.23.38v12.56a1.26 1.26 0 0 1 -.23.43h8.1v-1.63a1.21 1.21 0 0 1 -.42.22h-5.84a1 1 0 0 1 -.29-.12v-4.55h4.42c.13 0 .42.25.42.25v-1.77a1.53 1.53 0 0 1 -.42.19h-4.42v-4.64h6.16c.14 0 .42.23.42.23v-1.55z"/><path d="m296.42 411.57a3 3 0 0 0 -3.15 3 3.55 3.55 0 0 0 2.41 3.26c1 .5 3.09 1.15 3.09 3.36a2.89 2.89 0 0 1 -3 2.93 3.15 3.15 0 0 1 -2.48-1v2.39a1.15 1.15 0 0 1 .54-.19c.26 0 1.23.26 1.88.26 1.13 0 4.61-.51 4.61-4.32 0-2.15-1.05-3.26-2.87-4.27s-2.65-1.13-2.65-2.38a1.8 1.8 0 0 1 1.94-1.71 2.19 2.19 0 0 1 2 .81v-2a.94.94 0 0 1 -.45.2c-.24-.07-1.29-.34-1.87-.34z"/><circle cx="250.13" cy="225.72" fill="#fddd04" r="31.49" stroke="#000" stroke-width=".83"/><path d="m150 478a100 100 0 1 0 200 0v-125.7h-200z"/><path d="m250.54 332.55v220.54a97.58 97.58 0 0 0 96.92-97.46v-123.09z" fill="#ed1c24"/><path d="m250.12 431.33c-5.74 0-6 3.9-4.71 5.36l-6.94-1.49-2.13 3.52h12.16c-3-1.49-1.43-3.81 1.59-3.81s4.62 2.32 1.61 3.81h12.07l-2.1-3.52-6.87 1.49c1.31-1.46 1-5.36-4.68-5.36zm-20.12 9.74 1.32 1.46v15l-1.32 1.47h6.35l-1.29-1.45v-15l1.29-1.46zm9.77 0 1.32 1.46v15l-1.33 1.47h6.36l-1.36-1.45v-5.68h6.87v5.68l-1.29 1.45h6.36l-1.33-1.45v-15l1.33-1.46h-6.36l1.29 1.46v5.58h-6.87v-5.58l1.36-1.46zm19.17 0 5.06 8.93-5.07 9h11.67l2.1-3.74h-7.29l3-5.2-3-5.13h5.84l-2.16-3.8zm-85 271a7.13 7.13 0 1 0 7.13 7.13 7.1 7.1 0 0 0 -7.13-7.04zm111.86.32-5.74 13.33a2.09 2.09 0 0 1 -.29.42h1.84s-.19-.24-.13-.42l1.32-3.06h6.07l1.29 3.06c.06.18-.14.42-.14.42h1.82a3.2 3.2 0 0 1 -.3-.42zm-53.4.07v13.29a1.28 1.28 0 0 1 -.22.43h1.82a1.28 1.28 0 0 1 -.22-.43v-9.52l8.13 10.24v-13.2a1.12 1.12 0 0 1 .22-.42h-1.77s.23.28.23.42v9.45zm-71.49.07a9.48 9.48 0 0 0 -2.49.32 1.61 1.61 0 0 1 -.51.06 1.64 1.64 0 0 1 -.36-.06 3.48 3.48 0 0 1 -.42-.2v13.1a1.28 1.28 0 0 1 -.22.43h1.77a1.26 1.26 0 0 1 -.23-.43v-4.93a4.87 4.87 0 0 0 2.46.64 4.47 4.47 0 0 0 0-8.93zm99.6 0a10 10 0 0 0 -2.49.32 1.62 1.62 0 0 1 -.52.06 2 2 0 0 1 -.35-.06 4 4 0 0 1 -.41-.2v13.1a1.26 1.26 0 0 1 -.23.43h5.42a4.06 4.06 0 0 0 4-4 3.39 3.39 0 0 0 -2-3.42 2.33 2.33 0 0 0 1-2c.07-2.39-1.55-4.14-4.42-4.14zm12.1 0a9.27 9.27 0 0 0 -2.45.32 2 2 0 0 1 -.52.06 2.27 2.27 0 0 1 -.39-.06 4.47 4.47 0 0 1 -.42-.2v13.1a1.28 1.28 0 0 1 -.22.43h1.8s-.25-.3-.25-.43v-11.4a6.27 6.27 0 0 1 2.45-.38 2.91 2.91 0 0 1 3.12 3.1c0 1.47-1.3 2.35-3.12 2.35h-.61v1.23c3.72 0 4.64 3.74 4.64 5.16v.42h1.84a3.41 3.41 0 0 1 -.39-.75c-.18-1.57-.82-4.07-3.13-5.28a3.17 3.17 0 0 0 2.1-3.13 4.15 4.15 0 0 0 -4.45-4.45zm-82.54.18v1.55a1.87 1.87 0 0 1 .39-.22h3.39v11.71a1.26 1.26 0 0 1 -.23.43h1.78a1.37 1.37 0 0 1 -.23-.43v-11.62h3.45a1.62 1.62 0 0 1 .39.22v-1.55zm19.2 0v1.55a1.87 1.87 0 0 1 .39-.22h3.39v11.71a1.26 1.26 0 0 1 -.23.43h1.77a1.39 1.39 0 0 1 -.22-.43v-11.62h3.48a1.87 1.87 0 0 1 .39.22v-1.55zm113.47.11s.23.28.23.41v8.62a4.62 4.62 0 1 0 9.23 0v-8.62c0-.13.22-.41.22-.41h-1.77s.23.28.23.41v8.62a3.3 3.3 0 0 1 -6.59 0v-8.62c0-.13.26-.41.26-.41zm12.16 0a4.29 4.29 0 0 1 .33.41l3.45 5.78-4 6.71a2 2 0 0 1 -.36.42h2s-.23-.25-.14-.42l3.29-5.55 3.27 5.55c.09.17-.14.42-.14.42h2a1.94 1.94 0 0 1 -.37-.42l-4-6.71 3.39-5.78c.09-.12.39-.41.39-.41h-2s.2.27.12.41l-2.71 4.62-2.74-4.62c-.08-.14.13-.41.13-.41zm-21.8 0a1.12 1.12 0 0 1 .22.42v12.45a1.12 1.12 0 0 1 -.22.42h8.19v-1.55a1.21 1.21 0 0 1 -.42.22h-6.19v-11.42a1.12 1.12 0 0 1 .22-.42zm-139.16.61a5.75 5.75 0 1 1 -5.74 5.74 5.75 5.75 0 0 1 5.74-5.62zm-13 .42a3.12 3.12 0 0 1 0 6.23 3.43 3.43 0 0 1 -2.45-.94v-4.91a6.33 6.33 0 0 1 2.41-.23zm99.6 0c2.09 0 3.13 1.16 3.13 2.87a2 2 0 0 1 -1.93 1.64c-.86 0-1 0-1.68 0v1.22h2.06c2.13 0 2.46 1.24 2.46 2.52a3.06 3.06 0 0 1 -3.16 2.84h-3.32v-10.59a6.28 6.28 0 0 1 2.4-.35zm25.3 1.78 2.52 5.8h-5z"/><path d="m208.59 253.51a5.1 5.1 0 0 0 -3.74 1.58 5.19 5.19 0 0 0 -1.65 3.77 5.33 5.33 0 0 0 1.65 3.81 5.26 5.26 0 0 0 3.74 1.58h9.46a5.35 5.35 0 0 0 3.8-9.16 5.33 5.33 0 0 0 -3.8-1.58 5.46 5.46 0 0 0 -3.29 1.09 2.41 2.41 0 0 1 -1.47.3 2.51 2.51 0 0 1 -1.47-.3 5.53 5.53 0 0 0 -3.23-1.09zm0 2.06a3.22 3.22 0 0 1 3.23 3.2v3.23h-3.23a3.12 3.12 0 0 1 -2.22-.93 3.24 3.24 0 0 1 -.91-2.26 3.14 3.14 0 0 1 3.13-3.24zm9.46 0a3 3 0 0 1 2.22.94 3.22 3.22 0 0 1 .94 2.26 3.27 3.27 0 0 1 -.94 2.26 3.12 3.12 0 0 1 -2.22.93h-3.23v-3.19a3.22 3.22 0 0 1 3.23-3.2zm-10.75 9.3v2.19h12.07v-2.16a5.53 5.53 0 0 1 -1.32.13h-9.46a4.15 4.15 0 0 1 -1.29-.16zm-13.74 4.61a1.11 1.11 0 0 0 -.91.52 2.21 2.21 0 0 0 -.19 2.06 55.13 55.13 0 0 0 2.61 5.13h.39v-.62a1.75 1.75 0 0 1 1.84-1.87h4.61c1.71 0 3.67 1.61 4.46 3.49a3.07 3.07 0 0 1 5.06 2.29 3.39 3.39 0 0 1 -1.06 2.33 8.25 8.25 0 0 1 -4.2 2.31 5.17 5.17 0 0 0 3.94 0 6.4 6.4 0 0 0 2-1.61 6 6 0 0 0 .89-1.51 6.42 6.42 0 0 0 .55-2.61 6.49 6.49 0 0 0 -.16-1.47 6.58 6.58 0 0 0 -.49-1.37 5.71 5.71 0 0 0 -1.71-2.15c-1.91-1.58-7-4.94-7-4.94zm-2.56 10.75a3.69 3.69 0 0 0 .81 2.9 6.82 6.82 0 0 0 4.9 2.06 11.57 11.57 0 0 0 5.84-2 5.9 5.9 0 0 1 .81-.45c2.82-1.56 4.24-1.3 5-1.07l.06-.19a6.76 6.76 0 0 0 -3.48-.93 7.34 7.34 0 0 0 -2.94.74 12.58 12.58 0 0 1 -4.94 1.13 9 9 0 0 1 -6-2.22zm25 98.85a2.29 2.29 0 0 0 -.61.45c-.59.77-11.57 13.8-12.1 14.36l-.19.29-.33-.22a9.33 9.33 0 0 1 -1.71-1.52c-2-2.12-5.29-5.64-7.32-6.84a2.83 2.83 0 0 0 -3.29.55 2.64 2.64 0 0 0 2.81 4.28l.19-.09.22.17 3.13 2.84 1.13.89-1.45-.22c-2.49-.29-11.81-.22-11.87-.22h-.07a2.67 2.67 0 0 0 -2.71 2 3 3 0 0 0 .29 2 2.64 2.64 0 0 0 1.62 1.23 2.31 2.31 0 0 0 2-.27 2.57 2.57 0 0 0 1.26-1.58l.07-.32h.32a20.86 20.86 0 0 1 6.39 1.22l.84.36-.84.39-7.23 3a2.74 2.74 0 0 0 -1.45 4.75 2.76 2.76 0 0 0 1.9.64 2.69 2.69 0 0 0 2.42-2.87v-.35l.26-.09.29-.14a33.51 33.51 0 0 1 10.17-2.84c2.53-.24 5.07-.32 7.61-.32a2 2 0 0 1 1.42.46 1.57 1.57 0 0 1 .42 1.12c0 .7-.19 2.36-.19 2.42v.13l-.17.13a2.67 2.67 0 0 0 -.19 3.68c.07.07 1.78 1.65 3.42.42 1.38-1 1.19-2.25 1.13-3.51v-.62c.06-4.28-1.72-7.43-4.87-8.29l-.58-.16.38-.45 10.91-13.68c0-.09.12-.29.19-.59a16.54 16.54 0 0 1 -3.58-2.58zm-25.68 5a4.48 4.48 0 0 0 -3.29 1.19 4.55 4.55 0 0 0 -1.26 4.72h.06a2.37 2.37 0 0 1 .81-1.49 2.49 2.49 0 0 1 2.16-.58.7.7 0 0 1 .13.1 3.67 3.67 0 0 1 .94-2.42 3.6 3.6 0 0 1 2.09-1l-1-.39a4.48 4.48 0 0 0 -.64-.07zm-12 12.55a4.49 4.49 0 0 0 1 4.75l.06-.06a2.49 2.49 0 0 1 0-1.66 2.46 2.46 0 0 1 1.65-1.51h.39a3.26 3.26 0 0 1 -.33-2.58 3.89 3.89 0 0 1 1.46-2 4.65 4.65 0 0 0 -4.25 3.06zm5.51 6.19a4.72 4.72 0 0 0 -2 4.59 4.64 4.64 0 0 0 3.23 3.64l.06-.09a2.69 2.69 0 0 1 -.77-1.49 2.26 2.26 0 0 1 .65-2 3.36 3.36 0 0 1 -1.19-4.65zm24.52 6.18a2.58 2.58 0 0 1 -3.56 1.48l-.13.1a5.2 5.2 0 0 0 5.19 1.58 5 5 0 0 0 3.23-2.75 3.4 3.4 0 0 1 -4.73-.41z" fill="#ed1c24"/><path d="m185.94 451.09a3.05 3.05 0 0 0 -3.15 3 3.58 3.58 0 0 0 2.41 3.27c1 .49 3.1 1.14 3.1 3.35a2.88 2.88 0 0 1 -3 2.93 3.16 3.16 0 0 1 -2.49-1v2.36a1.22 1.22 0 0 1 .55-.19c.26 0 1.22.26 1.87.26 1.13 0 4.61-.52 4.61-4.33 0-2.15-1-3.25-2.87-4.26s-2.64-1.14-2.64-2.39a1.79 1.79 0 0 1 1.93-1.7 2.17 2.17 0 0 1 2 .8v-2a.94.94 0 0 1 -.45.2 17.94 17.94 0 0 0 -1.87-.3z"/><path d="m221 391.81s.22.24.22.39v12.52a1.32 1.32 0 0 1 -.22.42h8.1v-1.59s-.29.23-.42.23h-5.84a.89.89 0 0 1 -.29-.12v-4.56h4.42c.13 0 .42.26.42.26v-1.77a1.53 1.53 0 0 1 -.42.19h-4.47v-4.64h6.16a1.21 1.21 0 0 1 .42.22v-1.55z"/><path d="m298.16 339.29v-99.12a6.42 6.42 0 0 0 -12.84 0v99.12"/><path d="m312.33 310.79a31 31 0 0 0 -21.07 22.55h9a22.54 22.54 0 0 1 13.25-13.77v2.17a4 4 0 0 0 4 4h1a4 4 0 0 0 4-4v-3.24a7.44 7.44 0 0 0 0-14.86v-3.2a4 4 0 0 0 -4-4.06h-1a4 4 0 0 0 -4 4.06v1.62"/><path d="m298.81 332.61a23.59 23.59 0 0 1 14.68-14.75v-5.71a29.38 29.38 0 0 0 -20.39 20.46zm19.67-8.46a2.37 2.37 0 0 0 2.36-2.41v-21.3a2.38 2.38 0 0 0 -2.36-2.42h-1a2.35 2.35 0 0 0 -2.42 2.42v21.3a2.46 2.46 0 0 0 2.42 2.41zm4-7.26a5.79 5.79 0 0 0 5.45-5.83 5.89 5.89 0 0 0 -5.45-5.84z" fill="#fddd04"/><path d="m291.44 290.49a31 31 0 0 0 22.56 21.07v-9a22.54 22.54 0 0 1 -13.77-13.25h2.17a4 4 0 0 0 4-4v-1a4 4 0 0 0 -4-4h-3.23a7.44 7.44 0 0 0 -14.87 0h-3.2a4 4 0 0 0 -4.06 4v1a4 4 0 0 0 4.06 4h1.62"/><path d="m313.26 304a23.57 23.57 0 0 1 -14.74-14.68h-5.71a29.35 29.35 0 0 0 20.45 20.39zm-8.46-19.68a2.36 2.36 0 0 0 -2.41-2.35h-21.3a2.39 2.39 0 0 0 -2.42 2.35v1a2.36 2.36 0 0 0 2.42 2.42h21.3a2.45 2.45 0 0 0 2.41-2.42zm-7.25-4a5.79 5.79 0 0 0 -5.84-5.45 5.91 5.91 0 0 0 -5.84 5.45z" fill="#fddd04"/><path d="m302.29 214v15.1h-5v17h5v15.13h9.07v-4h6.1v4h9.16v-9.81h-4.62v-5.42h4.65v-16.75h-4.65v-5.45h4.65v-9.8h-9.16v4h-6.1v-4zm9.07 9.94h6.1v11h4.19v5.45h-4.19v10.94h-6.1v-10.98h-4.36v-5.45h4.36z" fill="#fddd04" stroke="#000" stroke-width="1.55"/><path d="m271.15 315.57a31 31 0 0 0 21.07-22.57h-9a22.56 22.56 0 0 1 -13.22 13.8v-2.17a4 4 0 0 0 -4-4h-1a4 4 0 0 0 -4 4v3.23a7.44 7.44 0 0 0 0 14.87v3.2a4 4 0 0 0 4 4.06h1a4 4 0 0 0 4-4.06v-1.62"/><path d="m284.67 293.76a23.59 23.59 0 0 1 -14.67 14.74v5.71a29.39 29.39 0 0 0 20.39-20.45zm-19.67 8.45a2.37 2.37 0 0 0 -2.35 2.42v21.3a2.38 2.38 0 0 0 2.35 2.41h1a2.35 2.35 0 0 0 2.43-2.41v-21.3a2.46 2.46 0 0 0 -2.43-2.42zm-4 7.26a5.8 5.8 0 0 0 -5.46 5.83 5.92 5.92 0 0 0 5.46 5.85z" fill="#fddd04"/><path d="m292 335.88a31 31 0 0 0 -22.55-21.08v9a22.54 22.54 0 0 1 13.81 13.2h-2.17a4 4 0 0 0 -4 4v1a4 4 0 0 0 4 4h3.23a7.44 7.44 0 0 0 14.87 0h3.2a4 4 0 0 0 4.06-4v-1a4 4 0 0 0 -4.06-4h-1.62"/><path d="m270.22 322.35a23.59 23.59 0 0 1 14.78 14.65h5.71a29.39 29.39 0 0 0 -20.45-20.39zm8.45 19.65a2.36 2.36 0 0 0 2.42 2.35h21.3a2.38 2.38 0 0 0 2.41-2.35v-1a2.35 2.35 0 0 0 -2.41-2.43h-21.3a2.47 2.47 0 0 0 -2.42 2.43zm7.26 4a5.8 5.8 0 0 0 5.83 5.45 5.92 5.92 0 0 0 5.85-5.45z" fill="#fddd04"/><path d="m190.49 353a8.42 8.42 0 0 0 6.55 3.13 12 12 0 0 0 4.62-1.06 8 8 0 0 1 3.26-.84 7.42 7.42 0 0 1 4.35 1.32l.26.23-.87 1.32-.32-.1h-.07c-.59-.2-1.69-.59-4.52.94a8.06 8.06 0 0 0 -.8.45 12.41 12.41 0 0 1 -6.23 2.1c-1.38 0-4.12-.53-5.58-2.39a5.47 5.47 0 0 1 -.65-5.07zm18.23-9v1.75h2.46a2.54 2.54 0 0 0 2.54 2.58 2.59 2.59 0 0 0 2.55-2.58h2.42v-1.75zm83-13.19a4.84 4.84 0 0 0 -4.84 4.84v98.95h9.68v-98.91a4.81 4.81 0 0 0 -4.82-4.84zm-73.69-.06a2.38 2.38 0 0 0 -2.42 2.43v2.34h2.42a2.34 2.34 0 0 0 2.35-2.34 2.37 2.37 0 0 0 -2.33-2.39zm-9.46 0a2.39 2.39 0 0 0 0 4.77h2.43v-2.34a2.39 2.39 0 0 0 -2.41-2.39zm-56-18v123.15a97.49 97.49 0 0 0 97.12 97.45v-17a28 28 0 0 1 -8.26-14.91 7.77 7.77 0 0 1 -7.16.37c4.85-7 7.93-11.59 7.93-19.27a21 21 0 0 0 -1-5.74c-1 9.54-9.4 15-10.84 18.61a18.63 18.63 0 0 0 -1.1 8.68 13.92 13.92 0 0 1 -7.87-12.52 13.75 13.75 0 0 1 3.39-9.06c3.61-4.21 7.35-7.17 9.32-9.46-3.87.07-8.18 2.8-10.87 5.68a11.81 11.81 0 0 1 -.2-2.16 15.15 15.15 0 0 1 5.49-11.2c9.05-8.12 9.47-15.65 8.61-23.23-6.23 2.42-10.39 8.84-10.71 15.91a16.38 16.38 0 0 1 -6.06-1.55 2.76 2.76 0 0 1 -.29.64l-10.55 13.23c2.29.82 4.83 3 4.83 8.52a10.56 10.56 0 0 0 .07 1.32 6.68 6.68 0 0 1 -.77 4.35 5.72 5.72 0 0 1 -3.55 2.81 5.93 5.93 0 0 1 -6.23-2.12l-.19-.27 1-1.1.26.17a2 2 0 0 0 1.58.23 1.77 1.77 0 0 0 1.33-1.72 3.93 3.93 0 0 1 -.26-1.52 3.75 3.75 0 0 1 1-2.29 18.48 18.48 0 0 0 .19-2.16.76.76 0 0 0 -.19-.57 1.22 1.22 0 0 0 -.84-.23 74.11 74.11 0 0 0 -7.55.35 33.79 33.79 0 0 0 -9.9 2.78h-.07a3.57 3.57 0 0 1 -3.16 3.42 4.17 4.17 0 0 1 -1.39-.19 1.63 1.63 0 0 0 -.58 1.61 1.68 1.68 0 0 0 .71 1.16l.29.16-.55 1.2-.32-.07a5.34 5.34 0 0 1 -4.07-4.32 5.63 5.63 0 0 1 .84-3.89 6.07 6.07 0 0 1 3.32-2.22 7.49 7.49 0 0 1 1-.32l6.1-2.55a24 24 0 0 0 -4.87-.85 3.17 3.17 0 0 1 -1.48 1.78 3.49 3.49 0 0 1 -2.65.36 4 4 0 0 1 -1.58-1 1.59 1.59 0 0 0 -1.74 1.09 1.63 1.63 0 0 0 .06 1.35l.13.3-1.06.81-.2-.2a5.28 5.28 0 0 1 -1.51-5.74 5.87 5.87 0 0 1 2.77-3c1-.53 2-.52 3.74-.39a2.26 2.26 0 0 1 .52 0c.39 0 7.33-.07 10.74.13l-2.09-1.9a3.29 3.29 0 0 1 -3.26-.82 4 4 0 0 1 -.94-1.64 1.57 1.57 0 0 0 -1.9.2 1.63 1.63 0 0 0 -.58 1.26v.35l-1.33.2-.06-.29a5.24 5.24 0 0 1 1.32-5.75 5.41 5.41 0 0 1 3.87-1.39 5.85 5.85 0 0 1 3.55 1.49c.07 0 .13 0 .13.06 2.23 1.23 5.45 4.68 7.55 7a11.74 11.74 0 0 0 1.36 1.23c1.64-2 11.28-13.41 11.81-14.1a2.32 2.32 0 0 1 .64-.55 16.57 16.57 0 0 1 -3.32-5.1 7.85 7.85 0 0 1 -.9.07 8 8 0 0 1 -5.52-2.23c7.68-2.82 9.45-7 13.32-12.13a29 29 0 0 1 13-9.43l-4.58-12.83a25.8 25.8 0 0 1 -10.7 3.75l.42 9.8a8 8 0 0 1 -9.2 7.94c1.45-8.7 2.16-16.47 2.3-17.78a26.27 26.27 0 0 1 -3.49-.68l-8.69 29.6a12.77 12.77 0 0 1 -12.29 9.23 12.63 12.63 0 0 1 -6.48-1.75c6.56-6.52 10.5-15.55 13.39-21.68l8.19-17.78a21.06 21.06 0 0 1 -2-1.22l-18.81 21a12.83 12.83 0 0 1 -19.58.1 52.81 52.81 0 0 0 11.23-6.93c2.62-2 22-18.89 22-18.89a9.81 9.81 0 0 1 -1.26-1.58l-21.13 9a12.71 12.71 0 0 1 -16.94-8.84c2.89.43 10.44-1.05 13.39-1.61s20.8-4.74 21.26-4.84c-.33-.86-.57-1.72-.84-2.62l-21.65-.06a12.77 12.77 0 0 1 -12.74-14.07 103.65 103.65 0 0 0 21.39 6c1.64.3 11 1.52 12.13 1.65v-.1c0-.92.06-1.81.13-2.71l-26.39-12.06a12.78 12.78 0 0 1 -6.39-11 13 13 0 0 1 1.9-6.71 52.47 52.47 0 0 0 14.84 12.13c5.65 3.29 17.32 10.16 17.91 10.49.26-.63.54-1.27.87-1.91l-.26-.15-28.1-24.62a12.76 12.76 0 0 1 1.07-21.13 42.85 42.85 0 0 0 8.32 13.23l37.52 39.14a4.14 4.14 0 0 1 1.07 2.87 4.63 4.63 0 0 1 -3.23 4.42 5 5 0 0 0 2.71.83 4.63 4.63 0 0 0 3.65-1.8 7.92 7.92 0 0 1 11.48-1.16 18.53 18.53 0 0 1 -.38-3.84 16.45 16.45 0 0 1 3.74-10.52 4 4 0 0 1 -2.36.71 4.57 4.57 0 0 1 -2.84-1 10.1 10.1 0 0 0 .55-4.23 10.47 10.47 0 0 0 -11.07-9.82 7.87 7.87 0 0 0 -1.71.3 5.54 5.54 0 0 1 -5.13-.46l-.26-.25.19-.32.26-.37.16-.15h.2c1.64 0 3-1.11 4.19-2.17a2.36 2.36 0 0 0 .71-1.74 2 2 0 0 0 -.64-1.58 2.15 2.15 0 0 0 -1.58-.64 2.08 2.08 0 0 0 -1.78.94l-.71-.17c-.46-1.82-2.36-3.49-3.93-3.49h-4.67a1 1 0 0 0 -.77.26 1 1 0 0 0 -.26.77v1.43h-1.58l-.13-.23a39.26 39.26 0 0 1 -2.81-5.48 2.84 2.84 0 0 1 .25-2.7 1.86 1.86 0 0 1 1.55-.86h11.07l1-1.61h.84v-2.42a5.77 5.77 0 0 1 -2.16-1.39 6.25 6.25 0 0 1 -1.84-4.44 6.13 6.13 0 0 1 6.16-6.11 6 6 0 0 1 3.75 1.26 1.88 1.88 0 0 0 1 .16 1.62 1.62 0 0 0 1-.16 6.23 6.23 0 0 1 3.75-1.26 6.29 6.29 0 0 1 6.16 6.11 6.25 6.25 0 0 1 -1.84 4.44 5.61 5.61 0 0 1 -2.22 1.42v2.39c13.26.17 14.38 13.22 24.23 13.22h.55c0 .24.06.44.06.67a5.18 5.18 0 0 1 -2.42 4.36 17.22 17.22 0 0 1 7.07 5.55v-52.54z" fill="#fddd04"/><circle cx="213.35" cy="176.32" fill="#ed1c24" r="1.85" stroke="#000" stroke-width=".83"/></svg>