<svg id="Layer_1" data-name="Layer 1" xmlns="http://www.w3.org/2000/svg" viewBox="0 0 822 500"><defs><style>.cls-1,.cls-2,.cls-4{fill:#fddd04;}.cls-2,.cls-4,.cls-5{stroke:#000;}.cls-2,.cls-5{stroke-width:0.74px;}.cls-3,.cls-5{fill:#ed1c24;}.cls-4{stroke-width:1.39px;}</style></defs><title>PTL 12</title><g id="i"><path d="M444.91,168.88l56.15-12.73-56.15-12.73"/><path class="cls-1" d="M473.12,161.79l24.53-5.38-24,.12m0-.73,24,.12-24.53-5.35"/></g><g id="j"><g id="h"><path d="M466.48,130.91a7.14,7.14,0,0,1,.09-2.19,7.8,7.8,0,0,1,1.43-2.89,8.78,8.78,0,0,0,1.76-3.61,8.14,8.14,0,0,0-.29-3.72,8.29,8.29,0,0,1-.06-4.79,10.39,10.39,0,0,1,4.14-5.38l.63-.35-.65-.3a7.45,7.45,0,0,0-8.12,2.37,12.08,12.08,0,0,0-1.88,4.78,12.39,12.39,0,0,1-1.4,3.9,8.37,8.37,0,0,1-2.51,2.13,16.33,16.33,0,0,0-4.33,3.84L437,156.14"/><path d="M462.42,156.16,449.7,100,437,156.16"/><path class="cls-1" d="M455.33,127.94,450,103.41l.11,24m-.72,0,.11-24-5.34,24.53"/><path class="cls-1" d="M465,131.86l.84-.55a6,6,0,0,1,0-2.7,8.5,8.5,0,0,1,1.54-3.2,9.06,9.06,0,0,0,1.66-3.31,7.71,7.71,0,0,0-.26-3.43,8.91,8.91,0,0,1-.06-5.2,11.16,11.16,0,0,1,3.84-5.32,6.94,6.94,0,0,0-6.6,2.38,11.09,11.09,0,0,0-1.74,4.48,12.62,12.62,0,0,1-1.52,4.13,9.24,9.24,0,0,1-2.7,2.32,15.08,15.08,0,0,0-4.47,4.19l.52,2.49"/></g><path d="M479.41,150.18a7.05,7.05,0,0,1,1.61-1.49,7.63,7.63,0,0,1,3.06-1,8.86,8.86,0,0,0,3.79-1.31,8,8,0,0,0,2.42-2.84,8.37,8.37,0,0,1,3.34-3.43,10.38,10.38,0,0,1,6.74-.87l.69.2-.25-.68a7.44,7.44,0,0,0-7.41-4.06,12.13,12.13,0,0,0-4.71,2.05,12.51,12.51,0,0,1-3.75,1.77,8.46,8.46,0,0,1-3.28-.27,16,16,0,0,0-5.78-.34l-35.19,9.27"/><path d="M458.68,165.16l30.71-48.71-48.71,30.71"/><path class="cls-1" d="M473.62,140.19l13.54-21.14-16.89,17.06m-.51-.52,17.05-16.89-21.12,13.56"/><path class="cls-1" d="M477.67,149.79l1,.21c.16-.34.46-.77,1.93-1.89a8.34,8.34,0,0,1,3.35-1.18,9.06,9.06,0,0,0,3.51-1.17,7.73,7.73,0,0,0,2.24-2.61,8.94,8.94,0,0,1,3.64-3.72,11.09,11.09,0,0,1,6.47-1,6.93,6.93,0,0,0-6.35-3,11.16,11.16,0,0,0-4.4,1.93,12.76,12.76,0,0,1-4,1.85,9.41,9.41,0,0,1-3.56-.27,14.92,14.92,0,0,0-6.12-.2l-1.4,2.13"/></g><path d="M466.81,139.35a7.07,7.07,0,0,1-2.18-.09,7.84,7.84,0,0,1-2.9-1.43,8.88,8.88,0,0,0-3.6-1.77,8.18,8.18,0,0,0-3.73.3,8.26,8.26,0,0,1-4.78.06,10.28,10.28,0,0,1-5.38-4.15l-.36-.62-.29.65a7.44,7.44,0,0,0,2.36,8.12,12.21,12.21,0,0,0,4.79,1.88,12.48,12.48,0,0,1,3.9,1.4,8.52,8.52,0,0,1,2.13,2.51,16,16,0,0,0,3.84,4.32l31.44,18.34"/><path d="M492.06,143.4,435.9,156.13l56.16,12.73"/><path class="cls-1" d="M463.84,150.5l-24.52,5.37,24-.11m0,.72-24-.11,24.52,5.34"/><path class="cls-1" d="M467.77,140.85l-.55-.85a5.92,5.92,0,0,1-2.71,0,8.39,8.39,0,0,1-3.19-1.54,9.18,9.18,0,0,0-3.32-1.66,7.67,7.67,0,0,0-3.42.26,9,9,0,0,1-5.21.06,11.12,11.12,0,0,1-5.31-3.84,6.92,6.92,0,0,0,2.38,6.6,11,11,0,0,0,4.47,1.74,12.75,12.75,0,0,1,4.13,1.51,9.27,9.27,0,0,1,2.32,2.71,15.08,15.08,0,0,0,4.19,4.47l2.5-.52"/><path d="M486.08,126.42a6.88,6.88,0,0,1-1.48-1.61,7.63,7.63,0,0,1-1-3.06,8.85,8.85,0,0,0-1.3-3.79,8.06,8.06,0,0,0-2.84-2.42,8.22,8.22,0,0,1-3.43-3.35,10.28,10.28,0,0,1-.87-6.73l.19-.7-.67.26a7.43,7.43,0,0,0-4.07,7.41,12,12,0,0,0,2.06,4.71,12.23,12.23,0,0,1,1.76,3.75,8.47,8.47,0,0,1-.26,3.28,16,16,0,0,0-.35,5.78l9.27,35.19"/><path d="M501.06,147.15l-48.7-30.71,30.7,48.71"/><path class="cls-1" d="M476.1,132.21,455,118.67,472,135.56m-.51.51-16.89-17,13.56,21.12"/><path class="cls-1" d="M485.69,128.16l.21-1c-.34-.16-.76-.46-1.89-1.93a8.19,8.19,0,0,1-1.17-3.35,9.4,9.4,0,0,0-1.17-3.51,7.72,7.72,0,0,0-2.61-2.24,8.94,8.94,0,0,1-3.72-3.64,11.2,11.2,0,0,1-1-6.47,6.92,6.92,0,0,0-3,6.35,11.31,11.31,0,0,0,1.93,4.4,12.44,12.44,0,0,1,1.85,4,9.4,9.4,0,0,1-.26,3.56,14.89,14.89,0,0,0-.21,6.12l2.14,1.4"/><path d="M486.08,126.42a6.88,6.88,0,0,1-1.48-1.61,7.63,7.63,0,0,1-1-3.06,8.85,8.85,0,0,0-1.3-3.79,8.06,8.06,0,0,0-2.84-2.42,8.22,8.22,0,0,1-3.43-3.35,10.28,10.28,0,0,1-.87-6.73l.19-.7-.67.26a7.43,7.43,0,0,0-4.07,7.41,12,12,0,0,0,2.06,4.71,12.23,12.23,0,0,1,1.76,3.75,8.47,8.47,0,0,1-.26,3.28,16,16,0,0,0-.35,5.78l9.27,35.19"/><path d="M501.06,147.15l-48.7-30.71,30.7,48.71"/><path class="cls-1" d="M476.1,132.21,455,118.67,472,135.56m-.51.51-16.89-17,13.56,21.12"/><path class="cls-1" d="M485.69,128.16l.21-1c-.34-.16-.76-.46-1.89-1.93a8.19,8.19,0,0,1-1.17-3.35,9.4,9.4,0,0,0-1.17-3.51,7.72,7.72,0,0,0-2.61-2.24,8.94,8.94,0,0,1-3.72-3.64,11.2,11.2,0,0,1-1-6.47,6.92,6.92,0,0,0-3,6.35,11.31,11.31,0,0,0,1.93,4.4,12.44,12.44,0,0,1,1.85,4,9.4,9.4,0,0,1-.26,3.56,14.89,14.89,0,0,0-.21,6.12l2.14,1.4"/><path id="f" d="M493.74,387.73s.21.22.21.35v11.28c0,.11-.21.38-.21.38H501v-1.43s-.25.2-.37.2H495.4a.73.73,0,0,1-.26-.11v-4.1h4c.12,0,.37.23.37.23v-1.6a1.26,1.26,0,0,1-.37.18h-4v-4.18h5.55c.12,0,.37.2.37.2v-1.4Z"/><path id="g" d="M497.58,387.41a2.75,2.75,0,0,0-2.84,2.71,3.18,3.18,0,0,0,2.17,2.93c.93.45,2.79,1,2.79,3a2.6,2.6,0,0,1-2.73,2.64,2.85,2.85,0,0,1-2.24-.93v2.14a1.13,1.13,0,0,1,.49-.16c.23,0,1.11.23,1.69.23,1,0,4.15-.46,4.15-3.9,0-1.93-.94-2.93-2.58-3.84s-2.38-1-2.38-2.14a1.62,1.62,0,0,1,1.74-1.54,2,2,0,0,1,1.8.73v-1.84a.82.82,0,0,1-.41.18A16.47,16.47,0,0,0,497.58,387.41Z"/><circle class="cls-2" cx="472.7" cy="156.14" r="28.36"/><path d="M320.94,276.27a90.06,90.06,0,1,0,180.12,0V163.06H320.94Z"/><path class="cls-3" d="M413.77,165.4V364a87.89,87.89,0,0,0,87.29-87.78V165.39Z"/><path d="M416,134.11c-5.17,0-5.42,3.51-4.24,4.82l-6.25-1.34-1.92,3.17h11c-2.72-1.34-1.3-3.43,1.42-3.43s4.17,2.09,1.45,3.43H428.3l-1.88-3.17-6.2,1.34c1.18-1.31.95-4.82-4.21-4.82Zm-18.13,8.77,1.19,1.31V157.7L397.88,159h5.72l-1.16-1.31V144.19l1.16-1.31Zm8.8,0,1.19,1.31V157.7L406.68,159h5.73l-1.22-1.31v-5.11h6.19v5.11L416.21,159h5.72l-1.19-1.31V144.19l1.19-1.31h-5.72l1.17,1.31v5h-6.19v-5l1.22-1.31Zm17.26,0,4.57,8.05-4.57,8h10.52l1.89-3.37h-6.57l2.74-4.68-2.74-4.62h5.27l-2-3.43ZM347.4,387a6.42,6.42,0,1,0,6.43,6.41A6.39,6.39,0,0,0,347.4,387Zm100.75.29-5.17,12a2.18,2.18,0,0,1-.26.37h1.65a.55.55,0,0,1-.12-.37l1.19-2.76h5.47l1.16,2.76c.06.16-.12.37-.12.37h1.64a2,2,0,0,1-.27-.37Zm-48.09.05v12c0,.11-.21.38-.21.38h1.6a1.18,1.18,0,0,1-.2-.38v-8.58l7.32,9.22V388.12a1,1,0,0,1,.2-.39h-1.59a1,1,0,0,1,.2.39v8.5Zm-64.4.07a9.13,9.13,0,0,0-2.24.28,1.29,1.29,0,0,1-.46.06,1.35,1.35,0,0,1-.32-.06,2.55,2.55,0,0,1-.38-.17v11.8a1.18,1.18,0,0,1-.2.38h1.6s-.21-.27-.21-.38v-4.45a4.29,4.29,0,0,0,2.21.58,4,4,0,0,0,0-8Zm89.71,0a9.8,9.8,0,0,0-2.25.28,1.26,1.26,0,0,1-.46.06,1.64,1.64,0,0,1-.32-.06,2.84,2.84,0,0,1-.37-.17v11.8a1.18,1.18,0,0,1-.2.38h4.88a3.66,3.66,0,0,0,3.6-3.64,3,3,0,0,0-1.77-3.07,2.12,2.12,0,0,0,.93-1.78C429.41,389,428,387.45,425.37,387.45Zm10.89,0a8.85,8.85,0,0,0-2.2.28,1.61,1.61,0,0,1-.46.06,1.94,1.94,0,0,1-.36-.06,3.16,3.16,0,0,1-.38-.17v11.8a1.2,1.2,0,0,1-.19.38h1.61s-.22-.27-.22-.38V389a5.62,5.62,0,0,1,2.2-.35,2.63,2.63,0,0,1,2.82,2.79c0,1.33-1.17,2.12-2.82,2.12h-.54v1.11c3.35,0,4.18,3.37,4.18,4.65v.37h1.66a3.11,3.11,0,0,1-.36-.67,5.9,5.9,0,0,0-2.82-4.76,2.83,2.83,0,0,0,1.89-2.82A3.73,3.73,0,0,0,436.26,387.45Zm-74.33.16V389a1.61,1.61,0,0,1,.35-.21h3.05v10.56a1.18,1.18,0,0,1-.2.38h1.6a1.28,1.28,0,0,1-.21-.38V388.8h3.11a1.61,1.61,0,0,1,.35.21v-1.4Zm17.29,0V389a1.61,1.61,0,0,1,.35-.21h3.05v10.56a1.18,1.18,0,0,1-.2.38H384a1.28,1.28,0,0,1-.21-.38V388.8H387a1.61,1.61,0,0,1,.35.21v-1.4Zm102.2.1s.2.25.2.37v7.76a4.16,4.16,0,1,0,8.31,0v-7.76c0-.12.21-.37.21-.37h-1.6s.2.25.2.37v7.76a3,3,0,1,1-5.93,0v-7.76c0-.12.23-.37.23-.37Zm10.95,0s.23.26.3.37l3.1,5.21-3.6,6a1.74,1.74,0,0,1-.32.37h1.78s-.21-.22-.13-.37l3-5,2.94,5c.08.15-.12.37-.12.37h1.77a1.48,1.48,0,0,1-.32-.37l-3.57-6,3.05-5.21a4.76,4.76,0,0,1,.35-.37H498.8s.18.24.11.37l-2.44,4.16L494,388.08c-.08-.13.12-.37.12-.37Zm-19.64,0s.21.26.21.39v11.21c0,.12-.21.37-.21.37h7.38v-1.39a1.07,1.07,0,0,1-.38.2h-5.58V388.12c0-.13.21-.39.21-.39Zm-125.33.55a5.18,5.18,0,1,1-5.17,5.17A5.19,5.19,0,0,1,347.4,388.28Zm-11.74.38a2.81,2.81,0,0,1,0,5.61,3.13,3.13,0,0,1-2.21-.84V389A5.7,5.7,0,0,1,335.66,388.66Zm89.7,0c1.88,0,2.82,1,2.82,2.59a1.78,1.78,0,0,1-1.74,1.48c-.77,0-.88,0-1.51,0v1.09l1.86,0c1.91,0,2.21,1.12,2.21,2.27a2.76,2.76,0,0,1-2.85,2.56h-3V389A5.65,5.65,0,0,1,425.36,388.66Zm22.79,1.6,2.27,5.23h-4.51Z"/><path class="cls-3" d="M487.7,179a4.57,4.57,0,0,0-3.37,1.43,4.65,4.65,0,0,0-1.49,3.4,4.8,4.8,0,0,0,1.49,3.43,4.72,4.72,0,0,0,3.37,1.42h8.51a4.88,4.88,0,0,0,4.85-4.85,4.87,4.87,0,0,0-4.85-4.83,4.93,4.93,0,0,0-3,1,2.15,2.15,0,0,1-1.32.26,2.36,2.36,0,0,1-1.33-.26A4.93,4.93,0,0,0,487.7,179Zm0,1.86a2.9,2.9,0,0,1,2.9,2.88v2.88h-2.9a2.8,2.8,0,0,1-2-.85,2.88,2.88,0,0,1-.81-2A2.83,2.83,0,0,1,487.7,180.86Zm8.51,0a2.73,2.73,0,0,1,2,.84,2.89,2.89,0,0,1,0,4.07,2.81,2.81,0,0,1-2,.85h-2.9v-2.88A2.9,2.9,0,0,1,496.21,180.86Zm-9.68,8.37v2H497.4v-2a5,5,0,0,1-1.19.12H487.7A3.68,3.68,0,0,1,486.53,189.23Zm-12.37,4.16a1,1,0,0,0-.82.46,2,2,0,0,0-.17,1.86,49.31,49.31,0,0,0,2.35,4.62h.35v-.55a1.58,1.58,0,0,1,1.66-1.69h4.15c1.54,0,3.3,1.44,4,3.15a2.7,2.7,0,0,1,1.77-.7,2.82,2.82,0,0,1,2.79,2.75,3,3,0,0,1-.95,2.1,7.55,7.55,0,0,1-3.78,2.09,4.66,4.66,0,0,0,3.54,0,5.78,5.78,0,0,0,2.59-2.76,5.76,5.76,0,0,0-.09-4.91,5.22,5.22,0,0,0-1.54-1.95c-1.72-1.42-6.33-4.44-6.33-4.44Zm-2.3,9.68a3.32,3.32,0,0,0,.73,2.61,6.15,6.15,0,0,0,4.41,1.86,10.37,10.37,0,0,0,5.26-1.78,6.59,6.59,0,0,1,.73-.4c2.54-1.41,3.82-1.18,4.47-1l.06-.18a6,6,0,0,0-3.13-.84,6.65,6.65,0,0,0-2.65.67,11.36,11.36,0,0,1-4.45,1,8.08,8.08,0,0,1-5.43-2Zm22.49,89a2.17,2.17,0,0,0-.55.4c-.53.69-10.42,12.43-10.9,12.94l-.17.26-.29-.2a8.26,8.26,0,0,1-1.54-1.37c-1.83-1.91-4.77-5.08-6.6-6.16a2.53,2.53,0,0,0-3,.5,2.37,2.37,0,0,0,2.53,3.85l.17-.08.2.15,2.82,2.56,1,.81-1.31-.21c-2.24-.26-10.63-.19-10.69-.19H466a2.39,2.39,0,0,0-2.44,1.76,2.68,2.68,0,0,0,.26,1.78,2.38,2.38,0,0,0,1.45,1.11,2.13,2.13,0,0,0,1.77-.25,2.36,2.36,0,0,0,1.14-1.42l.06-.29.29,0a18.65,18.65,0,0,1,5.75,1.11l.76.31-.76.36-6.51,2.67a2.46,2.46,0,0,0-1.31,4.27,2.47,2.47,0,0,0,1.72.58,2.43,2.43,0,0,0,2.18-2.59v-.26l.23-.08.26-.12a30.11,30.11,0,0,1,9.16-2.56c2.27-.22,4.56-.29,6.85-.29a1.76,1.76,0,0,1,1.28.41,1.42,1.42,0,0,1,.38,1c0,.62-.17,2.12-.17,2.17v.12l-.15.11a2.38,2.38,0,0,0-.17,3.32c.06.06,1.6,1.48,3.08.38,1.24-.9,1.07-2,1-3.16v-.56c.06-3.85-1.55-6.69-4.39-7.47l-.52-.14.35-.41L497.4,295c0-.07.11-.26.18-.53a14.56,14.56,0,0,1-3.23-2.32Zm-23.13,4.51a4,4,0,0,0-3,1.06,4.1,4.1,0,0,0-1.14,4.25l.06,0a2.12,2.12,0,0,1,.73-1.34,2.18,2.18,0,0,1,1.94-.52.34.34,0,0,1,.12.08,3.32,3.32,0,0,1,.84-2.18,3.37,3.37,0,0,1,1.89-.93l-.9-.35a3.79,3.79,0,0,0-.58-.05ZM460.41,307.9a4.06,4.06,0,0,0,.93,4.28l.06-.05a2.12,2.12,0,0,1,0-1.49,2.22,2.22,0,0,1,1.48-1.37h.35a2.92,2.92,0,0,1-.29-2.32,3.5,3.5,0,0,1,1.31-1.77A4.19,4.19,0,0,0,460.41,307.9Zm5,5.58a4.22,4.22,0,0,0-1.79,4.13,4.16,4.16,0,0,0,2.9,3.28l.06-.08a2.43,2.43,0,0,1-.7-1.34,2.06,2.06,0,0,1,.59-1.83A3,3,0,0,1,465.37,313.48Zm22.11,5.59a2.32,2.32,0,0,1-3.21,1.33l-.12.09a4.67,4.67,0,0,0,4.68,1.43,4.48,4.48,0,0,0,2.91-2.48A3.06,3.06,0,0,1,487.48,319.07Z"/><path d="M497.58,387.41a2.75,2.75,0,0,0-2.84,2.71,3.18,3.18,0,0,0,2.17,2.93c.93.45,2.79,1,2.79,3a2.6,2.6,0,0,1-2.73,2.64,2.85,2.85,0,0,1-2.24-.93v2.14a1.13,1.13,0,0,1,.49-.16c.23,0,1.11.23,1.69.23,1,0,4.15-.46,4.15-3.9,0-1.93-.94-2.93-2.58-3.84s-2.38-1-2.38-2.14a1.62,1.62,0,0,1,1.74-1.54,2,2,0,0,1,1.8.73v-1.84a.82.82,0,0,1-.41.18A16.47,16.47,0,0,0,497.58,387.41Z"/><path d="M493.74,387.73s.21.22.21.35v11.28c0,.11-.21.38-.21.38H501v-1.43s-.25.2-.37.2H495.4a.73.73,0,0,1-.26-.11v-4.1h4c.12,0,.37.23.37.23v-1.6a1.26,1.26,0,0,1-.37.18h-4v-4.18h5.55c.12,0,.37.2.37.2v-1.4Z"/><path d="M501.06,275.3V186a5.78,5.78,0,0,0-11.56,0V275.3"/><g id="k"><g id="l"><path d="M485.55,302.5a27.93,27.93,0,0,0-19,20.31h8.09a20.26,20.26,0,0,1,11.94-12.4v1.95a3.58,3.58,0,0,0,3.6,3.6h.9a3.63,3.63,0,0,0,3.6-3.6v-2.91a6.7,6.7,0,0,0,0-13.39v-2.89a3.6,3.6,0,0,0-3.6-3.65h-.9a3.61,3.61,0,0,0-3.6,3.65v1.46"/><path class="cls-1" d="M473.37,322.15a21.26,21.26,0,0,1,13.23-13.28v-5.14a26.44,26.44,0,0,0-18.37,18.42Zm17.73-7.62a2.14,2.14,0,0,0,2.12-2.17V293.17A2.14,2.14,0,0,0,491.1,291h-.9a2.12,2.12,0,0,0-2.18,2.17v19.19a2.22,2.22,0,0,0,2.18,2.17Zm3.6-6.53a5.22,5.22,0,0,0,4.91-5.26,5.32,5.32,0,0,0-4.91-5.26Z"/></g><path d="M466.74,284.21a27.89,27.89,0,0,0,20.31,19V295.1a20.25,20.25,0,0,1-12.4-11.93h2a3.59,3.59,0,0,0,3.6-3.6v-.9a3.64,3.64,0,0,0-3.6-3.61h-2.91a6.7,6.7,0,0,0-13.39,0h-2.88a3.61,3.61,0,0,0-3.66,3.61v.9a3.62,3.62,0,0,0,3.66,3.6h1.46"/><path class="cls-1" d="M486.39,296.4a21.26,21.26,0,0,1-13.28-13.23H468a26.44,26.44,0,0,0,18.42,18.37Zm-7.62-17.73a2.13,2.13,0,0,0-2.17-2.12H457.42a2.15,2.15,0,0,0-2.18,2.12v.9a2.12,2.12,0,0,0,2.18,2.18H476.6a2.21,2.21,0,0,0,2.17-2.18Zm-6.53-3.61a5.22,5.22,0,0,0-5.26-4.91,5.33,5.33,0,0,0-5.26,4.91Z"/></g><path class="cls-4" d="M479.16,192.08v13.6h-4.48V221h4.48v13.63h8.16V231h5.5v3.63h8.24v-8.84h-4.18V220.9h4.18V205.82h-4.18v-4.91h4.18v-8.83h-8.24v3.6h-5.5v-3.6Zm8.16,8.95h5.5v9.88h3.77v4.91h-3.77v9.85h-5.5v-9.85H483.4v-4.91h3.92Z"/><path d="M469.27,303a27.91,27.91,0,0,0,19-20.31h-8.09a20.32,20.32,0,0,1-11.93,12.41v-2a3.59,3.59,0,0,0-3.61-3.59h-.89a3.63,3.63,0,0,0-3.61,3.59v2.91a6.71,6.71,0,0,0,0,13.4v2.88a3.6,3.6,0,0,0,3.61,3.65h.89a3.62,3.62,0,0,0,3.61-3.65V310.9"/><path class="cls-1" d="M481.45,283.38a21.22,21.22,0,0,1-13.22,13.28v5.14a26.46,26.46,0,0,0,18.37-18.42ZM463.73,291a2.13,2.13,0,0,0-2.12,2.17v19.19a2.14,2.14,0,0,0,2.12,2.17h.89a2.11,2.11,0,0,0,2.19-2.17V293.17a2.22,2.22,0,0,0-2.19-2.17Zm-3.61,6.54a5.21,5.21,0,0,0-4.91,5.25,5.32,5.32,0,0,0,4.91,5.26Z"/><path d="M488.08,321.32a27.88,27.88,0,0,0-20.31-19v8.09a20.29,20.29,0,0,1,12.41,11.93h-1.95a3.59,3.59,0,0,0-3.6,3.61v.89a3.63,3.63,0,0,0,3.6,3.61h2.91a6.7,6.7,0,0,0,13.39,0h2.88a3.6,3.6,0,0,0,3.65-3.61V326a3.62,3.62,0,0,0-3.65-3.61H496"/><path class="cls-1" d="M468.43,309.14a21.22,21.22,0,0,1,13.28,13.22h5.15A26.49,26.49,0,0,0,468.43,304Zm7.62,17.72a2.13,2.13,0,0,0,2.18,2.12h19.18a2.15,2.15,0,0,0,2.18-2.12V326a2.12,2.12,0,0,0-2.18-2.19H478.23a2.22,2.22,0,0,0-2.18,2.19Zm6.54,3.61a5.22,5.22,0,0,0,5.25,4.91,5.32,5.32,0,0,0,5.26-4.91Z"/><path class="cls-1" d="M405.52,201.55a7.58,7.58,0,0,0,5.9,2.82,10.62,10.62,0,0,0,4.15-1,7.34,7.34,0,0,1,2.94-.75,6.67,6.67,0,0,1,3.92,1.19l.23.2-.78,1.19-.29-.09-.06,0c-.53-.17-1.53-.53-4.07.85-.24.12-.49.26-.73.41a11.17,11.17,0,0,1-5.6,1.89,6.84,6.84,0,0,1-5-2.15,4.94,4.94,0,0,1-.58-4.57Zm16.42-8v1.57h2.2a2.29,2.29,0,0,0,2.3,2.32,2.33,2.33,0,0,0,2.3-2.32h2.18v-1.57Zm74.76-11.88a4.36,4.36,0,0,0-4.36,4.36v89.08h8.72V186A4.33,4.33,0,0,0,496.7,181.65Zm-66.37-.06a2.15,2.15,0,0,0-2.18,2.19v2.11h2.18a2.11,2.11,0,0,0,2.13-2.11A2.15,2.15,0,0,0,430.33,181.59Zm-8.51,0a2.15,2.15,0,0,0,0,4.3H424v-2.11A2.15,2.15,0,0,0,421.82,181.59Zm-50.48-16.22V276.26A87.81,87.81,0,0,0,458.81,364V348.68a25.41,25.41,0,0,1-7.44-13.42,7.2,7.2,0,0,1-3.54.95,7.12,7.12,0,0,1-2.91-.63c4.37-6.27,7.15-10.43,7.15-17.35a18.83,18.83,0,0,0-.93-5.17c-.89,8.59-8.46,13.48-9.76,16.76a16.65,16.65,0,0,0-1,7.82,12.49,12.49,0,0,1-4-19.44c3.25-3.79,6.62-6.45,8.4-8.52-3.49.07-7.37,2.52-9.8,5.12a11.4,11.4,0,0,1-.17-1.95,13.6,13.6,0,0,1,4.94-10.08c8.16-7.31,8.53-14.1,7.76-20.93-5.61,2.18-9.37,8-9.65,14.33a14.86,14.86,0,0,1-5.46-1.39,2.35,2.35,0,0,1-.26.57v0l-9.5,11.91c2.06.75,4.35,2.69,4.35,7.67a9.84,9.84,0,0,0,.06,1.19,6,6,0,0,1-.7,3.93,5.16,5.16,0,0,1-3.19,2.53,5.34,5.34,0,0,1-5.61-1.92l-.17-.24.87-1,.23.14a1.81,1.81,0,0,0,1.42.21,1.6,1.6,0,0,0,1.2-1.54,3.6,3.6,0,0,1-.24-1.37,3.43,3.43,0,0,1,.93-2.07,17.15,17.15,0,0,0,.18-1.94.68.68,0,0,0-.18-.52,1.14,1.14,0,0,0-.75-.21c-1,0-3.2,0-6.8.32a30.67,30.67,0,0,0-8.92,2.5l-.06,0a3.22,3.22,0,0,1-2.85,3.08,3.6,3.6,0,0,1-1.25-.17,1.6,1.6,0,0,0,.12,2.49l.26.15-.5,1.08-.29-.06a4.8,4.8,0,0,1-3.66-3.89,5,5,0,0,1,.84-3.55,5.49,5.49,0,0,1,3-2,8.09,8.09,0,0,1,.9-.29l5.49-2.3a21.9,21.9,0,0,0-4.39-.76,2.77,2.77,0,0,1-1.33,1.6,3.1,3.1,0,0,1-2.39.32,3.4,3.4,0,0,1-1.42-.87,1.45,1.45,0,0,0-1.57,1,1.42,1.42,0,0,0,.06,1.21l.11.27-.95.73-.18-.18a4.75,4.75,0,0,1-1.36-5.17,5.29,5.29,0,0,1,2.49-2.7,5.83,5.83,0,0,1,3.38-.36,1.77,1.77,0,0,1,.46,0c.36,0,6.6,0,9.68.12L408,303.06a3,3,0,0,1-2.94-.73,3.7,3.7,0,0,1-.84-1.48,1.41,1.41,0,0,0-1.71.18,1.43,1.43,0,0,0-.53,1.13v.32l-1.19.17-.06-.26a4.74,4.74,0,0,1,1.19-5.18A4.87,4.87,0,0,1,405.4,296a5.31,5.31,0,0,1,3.2,1.34c.06,0,.11,0,.11.05,2,1.11,4.91,4.21,6.8,6.28a12.82,12.82,0,0,0,1.22,1.11c1.48-1.8,10.17-12.08,10.64-12.71a2.21,2.21,0,0,1,.58-.49,14.85,14.85,0,0,1-3-4.59c-.24,0-.52.06-.82.06a7.2,7.2,0,0,1-5-2c6.91-2.54,8.51-6.26,12-10.92a26,26,0,0,1,11.68-8.49L438.73,254a23.22,23.22,0,0,1-9.65,3.37l.38,8.83a7.24,7.24,0,0,1-8.28,7.15c1.3-7.84,1.95-14.84,2.06-16a24.41,24.41,0,0,1-3.13-.62l-7.79,26.68a11.5,11.5,0,0,1-11.07,8.32,11.35,11.35,0,0,1-5.84-1.58c5.91-5.87,9.45-14,12-19.52l7.39-16a18.93,18.93,0,0,1-1.78-1.09l-16.94,18.94a11.56,11.56,0,0,1-17.64.08,47.1,47.1,0,0,0,10.12-6.24c2.36-1.82,19.81-17,19.81-17a9.39,9.39,0,0,1-1.13-1.42l-19,8.08a11.32,11.32,0,0,1-4.13.78A11.49,11.49,0,0,1,373,248c2.6.39,9.4-1,12.06-1.45s18.74-4.27,19.15-4.36c-.3-.77-.52-1.54-.76-2.35L384,239.8a11.5,11.5,0,0,1-11.48-12.67,93.63,93.63,0,0,0,19.26,5.4c1.48.27,9.92,1.37,10.93,1.49v-.09c0-.83.06-1.63.12-2.44L379,220.62a11.52,11.52,0,0,1-5.76-9.94,11.66,11.66,0,0,1,1.72-6.05,47.22,47.22,0,0,0,13.37,10.93c5.08,3,15.59,9.15,16.12,9.45.24-.57.49-1.15.79-1.72l-.24-.14L379.68,201a11.49,11.49,0,0,1,1-19,38.75,38.75,0,0,0,7.5,11.91l33.8,35.25a3.71,3.71,0,0,1,.95,2.58,4.16,4.16,0,0,1-2.9,4,4.35,4.35,0,0,0,2.44.76,4.13,4.13,0,0,0,3.28-1.63,7.15,7.15,0,0,1,10.35-1,16.31,16.31,0,0,1-.35-3.46,14.82,14.82,0,0,1,3.37-9.48,3.55,3.55,0,0,1-2.12.64,4.09,4.09,0,0,1-2.56-.9,9,9,0,0,0,.5-3.81,9.44,9.44,0,0,0-10.06-8.81,8.29,8.29,0,0,0-1.54.27,5,5,0,0,1-4.62-.41l-.23-.23.17-.29.24-.32.14-.14h.18c1.47,0,2.71-1,3.77-1.95a2.14,2.14,0,0,0,.64-1.58,1.83,1.83,0,0,0-.58-1.42,1.94,1.94,0,0,0-1.42-.57,1.88,1.88,0,0,0-1.6.84l-.64-.15a4.31,4.31,0,0,0-3.55-3.14h-4.15a.94.94,0,0,0-.7.23.93.93,0,0,0-.23.7v1.28H409.3l-.12-.2a35.31,35.31,0,0,1-2.53-4.94,2.57,2.57,0,0,1,.23-2.47,1.66,1.66,0,0,1,1.4-.78h10l.87-1.45h.75V189a5.14,5.14,0,0,1-1.94-1.25,5.6,5.6,0,0,1-1.66-4,5.52,5.52,0,0,1,5.55-5.5,5.37,5.37,0,0,1,3.37,1.13,1.67,1.67,0,0,0,.9.15,1.42,1.42,0,0,0,.87-.15,5.56,5.56,0,0,1,3.37-1.13,5.64,5.64,0,0,1,5.55,5.5,5.64,5.64,0,0,1-1.65,4,5,5,0,0,1-2,1.28v2.15c11.95.15,13,11.91,21.83,11.91h.52c0,.21.06.4.06.6a4.69,4.69,0,0,1-2.18,3.93,15.33,15.33,0,0,1,6.36,5V165.39Z"/><circle class="cls-5" cx="499.4" cy="176.3" r="1.66"/></svg>